<?xml version="1.0" encoding="UTF-8"?>
<svg id="b" data-name="圖層 2" xmlns="http://www.w3.org/2000/svg" width="203.81" height="63.61" viewBox="0 0 203.81 63.61">
  <g id="c" data-name="menu">
    <g>
      <rect x="0" y="0" width="203.81" height="63.61" rx="31.81" ry="31.81" style="fill: #024737;"/>
      <g>
        <g>
          <circle cx="41.52" cy="31.81" r="22.72" style="fill: #fff;"/>
          <g>
            <path d="M41.03,30.9c0,1.94,0,3.89,0,5.83,0,.76-.16,1.42-1.03,1.6-.95,.2-1.56-.31-1.57-1.39-.02-3.4-.04-6.8,.03-10.2,.01-.5,.48-1.33,.84-1.39,.51-.08,1.31,.25,1.65,.67,1.5,1.88,2.88,3.85,4.31,5.78,.26,.35,.55,.68,.82,1.02,.11-.02,.22-.05,.33-.07,0-.59,0-1.19,0-1.78,0-1.49-.01-2.99,.01-4.48,.02-.85,.5-1.28,1.36-1.26,.82,.02,1.19,.5,1.22,1.27,.02,.46,0,.91,0,1.37,0,2.9,.05,5.81-.04,8.71-.02,.59-.39,1.41-.85,1.68-.74,.42-1.35-.16-1.83-.83-1.35-1.89-2.74-3.75-4.12-5.62-.26-.35-.54-.69-.82-1.03-.11,.04-.22,.08-.32,.12Z" style="fill: #024737;"/>
            <path d="M51.15,31.69c0-1.58-.01-3.15,0-4.73,.01-1.44,.31-1.73,1.78-1.74,1.58-.01,3.15,0,4.73,0,.78,0,1.29,.29,1.36,1.11,.07,.88-.41,1.33-1.24,1.38-.99,.06-1.99,.09-2.99,.05-1.21-.04-1.01,.78-1.03,1.51-.03,.74,.03,1.32,1.03,1.25,.95-.06,1.91-.02,2.86,0,.83,0,1.35,.38,1.37,1.26,.02,.88-.51,1.29-1.32,1.33-.95,.04-1.91,.07-2.86,0-1.07-.08-1.1,.54-1.09,1.32,.01,.79-.07,1.53,1.1,1.46,.95-.05,1.91,0,2.86,0,.85,.02,1.33,.43,1.3,1.31-.03,.82-.52,1.17-1.31,1.17-1.66,0-3.32-.02-4.98,.01-1.1,.02-1.6-.49-1.59-1.58,.02-1.7,0-3.4,0-5.11Z" style="fill: #024737;"/>
            <path d="M24.01,31.7c0-1.58,0-3.15,0-4.73,0-.89,.18-1.7,1.3-1.74,1.15-.03,1.33,.76,1.34,1.67,0,2.4,0,4.81,0,7.21q0,1.75,1.81,1.75c.7,0,1.41,0,2.11,0,.84,0,1.4,.43,1.4,1.25,0,.82-.52,1.25-1.39,1.24-1.62-.02-3.23,.01-4.85,0-1.32-.01-1.71-.39-1.72-1.69-.02-1.66,0-3.32,0-4.98Z" style="fill: #024737;"/>
            <path d="M36.1,31.89c0,1.66,0,3.32,0,4.98,0,.85-.27,1.48-1.26,1.49-.96,.01-1.35-.59-1.36-1.43-.03-3.4-.03-6.8,0-10.2,0-.89,.41-1.52,1.43-1.49,1.01,.04,1.18,.73,1.18,1.55,0,1.7,0,3.4,0,5.1Z" style="fill: #024737;"/>
          </g>
        </g>
        <g>
          <path d="M87.04,24.34s-.03,.88-.03,1.22c-.48,11.32-.88,15.29-1.83,16.54-.56,.77-1.09,1.03-1.88,1.17-.71,.11-1.8,.11-2.94,.05-.03-.72-.32-1.8-.72-2.52,1.03,.08,1.96,.11,2.44,.11,.4,0,.64-.11,.93-.48,.66-.8,1.11-4.29,1.48-13.68h-3.23c-.32,6.63-1.27,13.01-4.51,17.12-.45-.61-1.3-1.35-1.96-1.75,2.97-3.61,3.79-9.38,4.03-15.37h-3.39v-2.41h3.47c.03-1.56,.03-3.15,.03-4.67h2.49c0,1.51-.03,3.1-.05,4.67h5.67Zm11.05-1.59v20.51h-2.54v-1.7h-4.43v1.91h-2.44V22.75h9.41Zm-2.54,16.46v-14.07h-4.43v14.07h4.43Z" style="fill: #fff;"/>
          <path d="M126.37,31.55c-1.19,2.2-2.7,4.21-4.48,6.02,.88,2.46,1.91,3.95,3,3.95,.64,0,.95-1.3,1.09-4.58,.56,.58,1.4,1.17,2.07,1.38-.42,4.51-1.25,5.73-3.39,5.73-2.01,0-3.58-1.75-4.74-4.59-1.64,1.41-3.39,2.6-5.25,3.58-.4-.61-1.06-1.43-1.7-1.99,2.17-1.01,4.24-2.41,6.12-4.06-.64-2.15-1.09-4.69-1.4-7.42h-5.86v3.71l4.43-.88,.19,2.2c-1.51,.34-3.07,.71-4.61,1.03v5.27c0,1.46-.34,2.17-1.27,2.57s-2.41,.48-4.53,.48c-.13-.69-.56-1.83-.93-2.49,1.62,.05,3.15,.05,3.6,.03,.48-.03,.64-.16,.64-.58v-4.72c-1.88,.4-3.61,.77-5.12,1.09l-.69-2.46c1.56-.27,3.6-.64,5.8-1.06v-4.19h-5.35v-2.33h5.35v-3.66c-1.56,.27-3.13,.48-4.56,.66-.13-.56-.45-1.51-.77-2.04,3.68-.56,7.9-1.41,10.47-2.31l1.72,2.07c-1.3,.42-2.81,.79-4.37,1.11v4.16h5.62c-.21-2.39-.32-4.88-.34-7.4h2.54c-.03,2.54,.08,5.06,.29,7.4h7.53v2.33h-7.26c.27,1.99,.56,3.76,.95,5.38,1.19-1.35,2.23-2.81,3.02-4.32l2.2,.93Zm-1.38-5.49c-.74-1.25-2.46-3.15-3.95-4.48l1.86-1.27c1.48,1.27,3.26,3.07,4.08,4.32l-1.99,1.43Z" style="fill: #fff;"/>
          <path d="M141.87,27.26c-.05,2.86-.45,6.33-1.99,9.65,1.3,1.17,2.46,2.31,3.23,3.21l-1.64,2.07c-.69-.88-1.7-1.93-2.84-3.02-1.17,1.72-2.7,3.37-4.74,4.85-.37-.53-1.19-1.35-1.75-1.75,2.09-1.43,3.6-3.07,4.69-4.77-1.41-1.27-2.86-2.49-4.13-3.55,.5-1.64,1.01-3.87,1.46-6.18l-1.83,.11-.27-2.36,2.52-.11c.29-1.99,.56-3.98,.71-5.75l2.41,.13c-.19,1.72-.45,3.6-.74,5.51l2.65-.13v-1.83h2.28v1.7l1.48-.08-.03,2.2-1.48,.11Zm-5.33,.34c-.37,1.99-.79,3.9-1.19,5.54,.85,.66,1.75,1.4,2.62,2.15,1.22-2.76,1.54-5.51,1.62-7.9l-3.05,.21Zm19.93,5.35h-5.59v8.19c0,1.35-.29,2.01-1.25,2.39-.93,.37-2.28,.42-4.35,.42-.13-.69-.5-1.7-.85-2.36,1.46,.05,2.94,.05,3.34,.03,.42,0,.58-.11,.58-.5v-8.16h-5.86v-2.36h5.86v-2.81c1.25-1.09,2.54-2.68,3.53-4.13h-8.27v-2.25h9.97l.56-.13,1.7,1.19c-1.27,1.93-3.07,4.19-4.96,5.83v2.31h5.59v2.36Z" style="fill: #fff;"/>
          <path d="M181.76,29.94c-.98,3.68-2.7,6.49-4.93,8.72,2.25,1.41,4.96,2.41,8.19,2.97-.56,.53-1.25,1.56-1.59,2.25-3.37-.74-6.2-1.91-8.53-3.6-2.23,1.64-4.77,2.81-7.53,3.66-.32-.66-.93-1.59-1.41-2.12,2.54-.64,4.93-1.67,6.97-3.13-1.64-1.59-3-3.5-4.08-5.7-1.19,3.71-3.08,7.39-6.1,10.04-.48-.61-1.3-1.25-2.12-1.7,4.67-3.79,6.49-10.2,7.21-15.16h-6.25v-2.39h6.57c.19-1.93,.21-3.45,.26-4.21h2.54c-.05,.9-.11,2.36-.29,4.21h13.65v2.39h-13.97c-.13,.98-.32,2.07-.53,3.15h9.81l.48-.11,1.64,.72Zm-11.05,1.78c.98,2.09,2.36,3.95,4.11,5.43,1.56-1.48,2.84-3.31,3.71-5.43h-7.82Z" style="fill: #fff;"/>
        </g>
      </g>
    </g>
  </g>
</svg>