<?xml version="1.0" encoding="UTF-8"?>
<svg id="b" data-name="圖層 2" xmlns="http://www.w3.org/2000/svg" width="28.27" height="16.01" viewBox="0 0 28.27 16.01">
  <g id="c" data-name="設計">
    <g>
      <path d="M28.17,.77c-1.97,2.49-4,4.93-6.04,7.37-1.01,1.23-2.06,2.41-3.09,3.62-.28,.32-.47,.57-.83,.94-.43,.42-.89,.63-1.33,.78-.89,.31-1.76,.39-2.64,.37-.88-.04-1.76-.17-2.65-.6-.45-.21-.94-.69-1.14-.93l-.81-.87c-1.07-1.17-2.16-2.32-3.22-3.51C4.29,5.56,2.17,3.2,.11,.78-.06,.58-.03,.28,.17,.11c.19-.16,.46-.15,.64,.02C3.08,2.35,5.31,4.61,7.52,6.89c1.12,1.13,2.2,2.29,3.3,3.44,.54,.53,1.13,1.3,1.51,1.44,.54,.25,1.26,.38,1.96,.39,.7,.02,1.44-.04,2.05-.25,.31-.09,.58-.24,.72-.38,.2-.19,.51-.57,.76-.84,1.06-1.18,2.09-2.39,3.17-3.55,2.13-2.35,4.27-4.7,6.48-6.99,.18-.19,.48-.19,.67-.01,.18,.17,.19,.44,.04,.63Z" style="fill: #968375;"/>
      <path d="M20.8,9.73s-2.93,3.16-3.45,4.81c-.65,2.04-4.61,1.76-5.49,.3-.9-1.49,.05-1.11-3.57-4.86l4.49,3.03,4.94-.99,3.08-2.29Z" style="fill: #968375;"/>
    </g>
  </g>
</svg>