<?xml version="1.0" encoding="UTF-8"?>
<svg id="b" data-name="圖層 2" xmlns="http://www.w3.org/2000/svg" width="57.02" height="45.92" viewBox="0 0 57.02 45.92">
  <g id="c" data-name="設計">
    <g>
      <path d="M1.23,.06C14.45,4.69,27.56,9.63,40.62,14.66c.99,.43,2.07,.73,3.11,1.23,5.67,2.52,5.29,11.03-.48,13.14-13.91,5.76-27.93,11.48-42,16.81-1.08,.4-1.8-1.21-.72-1.72,13.68-6.27,27.6-12.24,41.47-18.1,1.55-.62,2.46-1.96,2.51-3.52,.12-2.23-1.52-3.66-3.56-4.25-.93-.39-3.54-1.38-4.51-1.78C24.42,11.75,12.44,6.89,.56,1.79-.5,1.34,.11-.34,1.23,.06h0Z" style="fill: #9d8c7f;"/>
      <path d="M34.38,12.23s11.41,4.71,17.37,5.56c7.37,1.05,6.35,7.42,1.08,8.84-5.39,1.45-4.01-.08-17.55,5.75l10.94-7.24-3.56-7.95-8.28-4.95Z" style="fill: #9d8c7f;"/>
    </g>
  </g>
</svg>