<?xml version="1.0" encoding="UTF-8"?>
<svg id="b" data-name="圖層 2" xmlns="http://www.w3.org/2000/svg" width="57.02" height="45.92" viewBox="0 0 57.02 45.92">
  <g id="c" data-name="設計">
    <g>
      <path d="M55.79,45.86c-13.21-4.63-26.33-9.57-39.39-14.6-.99-.43-2.07-.73-3.11-1.23-5.67-2.52-5.29-11.03,.48-13.14C27.67,11.12,41.7,5.4,55.77,.06c1.08-.4,1.8,1.21,.72,1.72-13.68,6.27-27.6,12.24-41.47,18.1-1.55,.62-2.46,1.96-2.51,3.52-.12,2.23,1.52,3.66,3.56,4.25,.93,.39,3.54,1.38,4.51,1.78,12.03,4.74,24.01,9.6,35.89,14.69,1.06,.45,.45,2.13-.67,1.73h0Z" style="fill: #9d8c7f;"/>
      <path d="M22.65,33.69s-11.41-4.71-17.37-5.56c-7.37-1.05-6.35-7.42-1.08-8.84,5.39-1.45,4.01,.08,17.55-5.75l-10.94,7.24,3.56,7.95,8.28,4.95Z" style="fill: #9d8c7f;"/>
    </g>
  </g>
</svg>