<?xml version="1.0" encoding="UTF-8"?>
<svg id="b" data-name="圖層 2" xmlns="http://www.w3.org/2000/svg" width="117.46" height="45.67" viewBox="0 0 117.46 45.67">
  <g id="c" data-name="TEXT">
    <path d="M94.55,45.67c-23.43-.15-46.86-.42-70.29-.42-5.98,.27-12.1-1.44-16.61-5.48C-1.89,31.76-2.61,16.42,6.07,7.49,10.19,3.07,16.19,.42,22.28,.42L57.43,.17,92.57,.01c3.04-.07,6.15,.13,9.06,1.09,8.91,2.82,15.52,11.49,15.79,20.83,.79,12.64-10.24,24.07-22.87,23.73h0Zm0-1.87c11.51,.15,21.32-10.31,20.53-21.75-.29-8.37-6.23-16.09-14.21-18.56-2.68-.87-5.48-1.08-8.29-1.03,0,0-35.14-.16-35.14-.16l-35.14-.25c-5.66-.08-11.29,2.3-15.21,6.4C-1.25,16.72-.6,31.37,8.36,38.95c4.31,3.91,10.16,5.56,15.9,5.26,23.43,0,46.86-.27,70.29-.42h0Z" style="fill: #ede5db;"/>
  </g>
</svg>