<?xml version="1.0" encoding="UTF-8"?>
<svg id="b" data-name="圖層 2" xmlns="http://www.w3.org/2000/svg" width="158.79" height="158.8" viewBox="0 0 158.79 158.8">
  <g id="c" data-name="背景">
    <g>
      <path d="M114.41,146.24c-2.12-.03-4.24-.06-6.35-.08l.02,.03v-6.34h-6.5v6.34l.02-.03c-2.08,.02-4.17,.04-6.25,.06l.02,.02c-.03-2.35-.07-4.71-.07-7.06-.01-5.91,0-11.82,0-17.73,0-.29,.05-.58,.08-.86l-.02,.02h6.24v-18.91h6.4v-6.36h6.3v-6.31h-12.63v6.33h-6.34l.03,.02c-.02-2.21-.06-4.42-.06-6.63-.01-3.93,0-7.86,0-11.79,0-.2,0-.4,0-.65h6.31v6.22h12.71v-12.71c2.17,0,4.25,0,6.33,0l-.02-.03v6.5h6.5l-.03-.02c0,6.21-.01,12.42-.02,18.63,0,.17,.07,.33,.11,.5-2.14,0-4.27,0-6.45,0v6.19h6.33c0-.66,0-1.27,0-1.87,.03-1.44,.07-2.89,.1-4.33,2.08-.01,4.16-.03,6.23-.04,0,0-.02-.02-.02-.02,0,5.96,.02,11.93,.02,17.89,0,.35,0,.69,0,1.09h6.19c.06,.27,.16,.54,.16,.82,.01,1.83,0,3.65,0,5.58h-6.3v6.38h6.3v6.32h6.36v-6.24h6.34v12.63h6.32v6.31h-12.62v-6.25h-12.76v12.61l.02-.03c-2.56,.02-5.11,.05-7.67,.07-1.65,0-3.31,0-5.05,0v6.3h-6.33c0-4.2,0-8.38,0-12.56,.32-.02,.63-.06,.95-.06,3.58,0,7.16,0,10.73,0h.96v-6.39h-6.36v-6.28h-6.32c0,1.21,0,2.37,0,3.52,.02,3.08,.04,6.16,.06,9.24Zm12.62-19.2v-18.97h-18.95v18.97h18.95Z" style="fill: #bda88f;"/>
      <path d="M89.07,57.26c-.04,.92-.11,1.84-.13,2.76-.02,1.13,0,2.26,0,3.34-.14,.07-.19,.12-.24,.12-4.13,0-8.26-.02-12.4-.03,0-2.08,0-4.15,0-6.22h-12.74v12.57h6.31v-6.29c.47,0,.85,0,1.22,0,1.74-.02,3.48-.05,5.23-.08-.03,.34-.09,.69-.09,1.03,0,5.67,0,11.35,0,17.02v1.05h-12.76l.03,.03v-6.32h-6.32l.03,.03c-.02-2.3-.05-4.6-.05-6.89,0-5.91,0-11.82,0-17.73,0-.25,.03-.51,.05-.83h6.22V25.4h-6.25v-6.34h-6.32v-6.36h12.61v6.32h6.38v31.71h6.38V31.62c2.15,0,4.21,0,6.26,0,0,0-.01-.01-.01-.01,.03,.37,.09,.75,.09,1.12,0,7.78,0,15.55,0,23.33v1.22h6.52s-.02-.02-.02-.02Z" style="fill: #bda88f;"/>
      <path d="M44.38,44.41H0V.03H44.38V44.41ZM6.34,38.05h31.71V6.39H6.34v31.66Z" style="fill: #bda88f;"/>
      <path d="M114.39,44.38V0h44.38V44.38h-44.38Zm6.36-38.04v31.72h31.67V6.34h-31.67Z" style="fill: #bda88f;"/>
      <path d="M44.38,158.8H0v-44.41H44.38v44.41Zm-38.04-6.37h31.71v-31.66H6.35v31.66Z" style="fill: #bda88f;"/>
      <path d="M12.56,69.7c.03-2.09,.08-4.18,.09-6.27,.01-3.87,0-7.75,0-11.62,0-.29,0-.58,0-.95h6.36v6.29h6.36v12.72h6.29v6.36h-6.25v12.66h25.36c0,.52,0,.94,0,1.36-.04,1.71-.09,3.42-.13,5.12,0,0,.02-.02,.02-.02-.17-.02-.34-.06-.51-.06-5.94,0-11.87,0-17.81,0-.17,0-.34,.02-.68,.04v6.26l.02-.02h-12.64v-31.72c-1.8,0-3.51,.01-5.21,0-.43,0-.85-.1-1.27-.16h0Z" style="fill: #bda88f;"/>
      <path d="M89.09,57.27c-.05-.25-.14-.5-.14-.76,0-5.97,0-11.94,0-17.91,0-.12,.02-.23,.04-.42h6.3v12.54h6.31V31.8h6.36v38.01h-12.63v-12.56c-2.15,0-4.21,0-6.25,0,0,0,.02,.02,.02,.02Z" style="fill: #bda88f;"/>
      <path d="M63.51,146.18v-12.74h-6.26c-.03-.27-.08-.46-.08-.66,0-3.81,0-7.62,0-11.44,0-.26,.06-.52,.09-.77,0,0-.02,.02-.02,.02,1.51,.03,3.02,.07,4.53,.09,.55,0,1.09,0,1.71,0v6.35h6.35v12.71h6.36v6.35h6.3v12.68h-6.24v-6.35h-6.51l.04,.03v-6.32h-6.31l.03,.03Z" style="fill: #bda88f;"/>
      <path d="M63.44,108.13h-6.21c-.02,.15-.06,.34-.06,.54,0,3.81,0,7.62,0,11.43,0,.17,.04,.34,.07,.51,0,0,.02-.02,.03-.02-2.11,0-4.23,0-6.48,0v-.96c0-7.75,0-15.49,0-23.24,0-.34-.07-.68-.11-1.02,0,0-.02,.02-.02,.02,2.43-.03,4.86-.07,7.3-.08,3.6-.01,7.19,0,10.79,0,.32,0,.63-.04,.95-.07h0c.06,.12,.17,.24,.17,.37,.01,1.97,0,3.94,0,5.99h-6.43v6.55l.02-.02Z" style="fill: #bda88f;"/>
      <path d="M76.18,108h-6.27v-6.31h12.6v31.67h-6.26v-6.24h-6.33v-6.41h6.25v-12.71Z" style="fill: #bda88f;"/>
      <path d="M120.56,63.57c2.47-.02,4.94-.05,7.41-.06,1.77,0,3.54,0,5.4,0v-6.26h6.39v6.3h6.44l-.03-.03v6.34h-6.38v6.39h-12.69l.03,.02v-6.41c-.71,0-1.26,0-1.8,0-1.57-.03-3.13-.06-4.7-.09l.02,.03c-.02-2.08-.04-4.17-.07-6.25l-.02,.02Z" style="fill: #bda88f;"/>
      <path d="M95.38,19.19c-.03,2.11-.06,4.23-.08,6.34-.01,2.03,0,4.05,0,6.13-.27,.02-.46,.05-.65,.05-3.8,0-7.61,0-11.41,0-.26,0-.51-.07-.77-.11,0,0,.01,.01,.01,.01,.03-1.71,.07-3.42,.08-5.13,.01-2.44,0-4.88,0-7.44h-6.25c0-2.24,0-4.36,0-6.47,0,0-.03,.02-.03,.02,3.84,.02,7.67,.04,11.51,.05,.34,0,.69,0,1.12,0v6.37c1.47,0,2.86-.02,4.24,0,.74,.01,1.48,.1,2.23,.16h0Z" style="fill: #bda88f;"/>
      <path d="M146.24,89.1v-6.52h6.23v-6.29h6.32v18.96h-6.28v-6.3c-.74,0-1.4-.01-2.05,0-1.41,.04-2.82,.09-4.24,.14,0,0,.01,.01,.01,.01Z" style="fill: #bda88f;"/>
      <path d="M146.21,63.54c-.02-2.11-.03-4.21-.05-6.32l-.02,.02c1.74-.03,3.48-.05,5.23-.08,.34,0,.68,0,1.1,0v-6.32h6.31v18.95h-6.26v-6.29c-2.17,0-4.25,0-6.33,0,0,0,.03,.03,.03,.03Z" style="fill: #bda88f;"/>
      <path d="M69.7,6.41c-2.12-.03-4.24-.08-6.36-.09-4.13-.01-8.27,0-12.48,0V0h19c0,1.47,.02,2.91,0,4.36-.01,.69-.1,1.37-.16,2.06h0Z" style="fill: #bda88f;"/>
      <path d="M6.42,69.7c-.4,.05-.79,.15-1.19,.16-1.71,.02-3.43,0-5.21,0v-19.02H6.32v1.05c0,5.62,0,11.24,0,16.86,0,.31,.06,.63,.09,.94,0,0,0,0,0,0Z" style="fill: #bda88f;"/>
      <path d="M50.65,76.33c2.19-.02,4.38-.04,6.57-.06l-.03-.03v6.32h6.32l-.03-.03c0,2.09,0,4.18,0,6.34h-12.69c0-.36,0-.67,0-.98,0-3.55,0-7.09,0-10.64,0-.31-.07-.62-.11-.93,0,0-.01,.01-.01,.01Z" style="fill: #bda88f;"/>
      <path d="M12.55,69.7c.03,.11,.08,.23,.08,.34,0,4.13,0,8.26,0,12.46H.01v-6.22H6.42c0-2.25,0-4.41,0-6.58,0,0,0,0,0,0,.27,.05,.54,.15,.81,.15,1.51,.01,3.01,.01,4.52,0,.27,0,.54-.09,.82-.15,0,0,0,0,0,0Z" style="fill: #bda88f;"/>
      <path d="M31.66,101.6h12.71v6.36h-12.69c0-2.16,0-4.27,0-6.38,0,0-.02,.02-.02,.02Z" style="fill: #bda88f;"/>
      <path d="M57.11,44.42h-6.26v-12.66h6.26v12.66Z" style="fill: #bda88f;"/>
      <path d="M108.06,146.15c-.02,3.81-.03,7.61-.05,11.42,0,.38,0,.75,0,1.21h-6.41c0-4.22,0-8.42,0-12.62,0,0-.02,.03-.02,.03h6.5l-.02-.03Z" style="fill: #bda88f;"/>
      <path d="M152.38,108.15c.8-.05,1.61-.12,2.41-.13,1.3-.02,2.61,0,3.99,0v12.62h-6.3v-.91c0-3.55,0-7.09,0-10.64,0-.31-.06-.63-.08-.94,0,0,0,0,0,0Z" style="fill: #bda88f;"/>
      <path d="M38.24,57.28c-.04-.89-.11-1.79-.13-2.68-.02-1.24,0-2.48,0-3.77h12.62v6.3c-.3,.01-.6,.04-.91,.04-3.55,0-7.1,0-10.65,0-.31,0-.62,.06-.94,.1,0,0,0,.01,0,.01Z" style="fill: #bda88f;"/>
      <path d="M133.41,95.32v-6.31c.3-.03,.52-.07,.74-.07,3.75,0,7.5,0,11.25,0,.28,0,.56,.1,.84,.15,0,0-.01-.01-.01-.01-.03,1.65-.06,3.31-.08,4.96,0,.37,0,.75,0,1.26-4.29,0-8.52,0-12.75,0,0,0,.02,.02,.02,.02Z" style="fill: #bda88f;"/>
      <path d="M0,95.33H12.6v6.24H0v-6.24Z" style="fill: #bda88f;"/>
      <path d="M95.35,146.21c-.02,3.84-.04,7.68-.05,11.51,0,.34,0,.68,0,1.08h-6.3v-12.57c2.15,0,4.26,0,6.37,0,0,0-.02-.02-.02-.02Z" style="fill: #bda88f;"/>
      <path d="M95.38,120.57c-.92,.04-1.84,.11-2.77,.13-1.19,.02-2.37,0-3.61,0v-12.61h6.3v.9c0,3.55,0,7.1,0,10.66,0,.32,.04,.63,.06,.95,0,0,.02-.02,.02-.02Z" style="fill: #bda88f;"/>
      <path d="M120.64,57.21c.02-1.86,.07-3.72,.03-5.57-.01-.72,.23-.88,.9-.87,1.79,.04,3.59,.01,5.44,.01v6.4c-2.13,0-4.26,0-6.4,0,0,0,.02,.02,.02,.02Z" style="fill: #bda88f;"/>
      <path d="M146.16,57.22h-6.33v-6.36h6.31c0,2.15,0,4.27,0,6.38,0,0,.02-.02,.02-.02Z" style="fill: #bda88f;"/>
      <path d="M57.26,146.11h-6.42v-6.27h6.39c0,2.13,0,4.21,0,6.29,0,0,.02-.03,.02-.03Z" style="fill: #bda88f;"/>
      <path d="M57.22,152.47v6.32h-6.36v-6.3h6.38l-.02-.03Z" style="fill: #bda88f;"/>
      <path d="M82.6,82.61h6.28v6.26h-6.28v-6.26Z" style="fill: #bda88f;"/>
      <path d="M152.52,152.52h6.27v6.26h-6.27v-6.26Z" style="fill: #bda88f;"/>
      <path d="M89.02,0h6.23V6.26h-6.23V0Z" style="fill: #bda88f;"/>
      <path d="M69.69,6.42h6.59c0,2.03,0,4.11,0,6.18,0,0,.03-.03,.03-.03-2.11,0-4.22,0-6.46,0,0-1.71,0-3.44,0-5.17,0-.33-.09-.66-.15-.99,0,0,0,0,0,0Z" style="fill: #bda88f;"/>
      <path d="M95.38,19.19v-6.49h6.19v6.32c-1.5,0-3.01-.01-4.51,0-.56,0-1.13,.1-1.69,.15,0,0,0,0,0,0Z" style="fill: #bda88f;"/>
      <path d="M38.23,63.42h-6.46v-6.14c2.19,0,4.33,0,6.47,0,0,0-.01-.01,0,0-.04,.94-.12,1.88-.12,2.82,0,1.12,.07,2.23,.1,3.35l.02-.02Z" style="fill: #bda88f;"/>
      <path d="M69.68,95.23c.06-.3,.17-.59,.17-.89,.02-1.77,0-3.53,0-5.35h6.32v6.23c-2.17,0-4.34,0-6.5,0,0,0,0,0,0,0Z" style="fill: #bda88f;"/>
      <path d="M139.6,114.28c.05-.3,.15-.6,.16-.9,.02-1.74,0-3.49,0-5.37,.85,0,1.62-.02,2.39,0,1.36,.03,2.72,.09,4.08,.13h-.01c-.03,1.64-.06,3.29-.08,4.95,0,.37,0,.75,0,1.18-2.21,0-4.38,0-6.54,0,0,0,0,0,0,0Z" style="fill: #bda88f;"/>
      <path d="M146.24,108.15v-6.47h6.14c0,2.19,0,4.33,0,6.47,0,0,0,0,0,0-.82-.04-1.65-.12-2.47-.12-1.23,0-2.46,.07-3.69,.11,0,0,.01,.02,.01,.02Z" style="fill: #bda88f;"/>
      <path d="M44.51,76.32c0-2.21,0-4.41,0-6.62,0,0-.02,.02-.02,.02,.69,.05,1.37,.12,2.06,.13,1.36,.02,2.73,0,4.23,0,0,.79,.01,1.5,0,2.21-.03,1.42-.08,2.84-.13,4.26,0,0,.01-.01,.01-.01-2.06,0-4.12-.01-6.19-.02l.03,.02Z" style="fill: #bda88f;"/>
      <path d="M69.76,152.44v6.36h-6.25c0-2.15,0-4.25,0-6.36l-.03,.03c2.1,0,4.21,0,6.31,0l-.04-.03Z" style="fill: #bda88f;"/>
      <path d="M133.42,152.44h6.27v6.36h-6.25c0-2.16,0-4.27,0-6.39,0,0-.02,.03-.02,.03Z" style="fill: #bda88f;"/>
      <path d="M120.58,63.54h-6.17v-6.33c2.07,0,4.15,0,6.23,0,0,0-.02-.02-.02-.02-.02,2.13-.04,4.25-.06,6.38,0,0,.02-.02,.02-.02Z" style="fill: #bda88f;"/>
      <path d="M63.42,108.14c.92-.04,1.85-.11,2.77-.13,1.19-.02,2.37,0,3.61,0v6.29h-6.36c0-2.08,0-4.13,0-6.18,0,0-.02,.02-.02,.02Z" style="fill: #bda88f;"/>
      <path d="M44.48,76.29v6.22h-6.32v-6.2c2.13,0,4.24,0,6.35,0,0,0-.03-.02-.03-.02Z" style="fill: #bda88f;"/>
      <path d="M95.34,95.33v6.23h-6.35v-6.21c2.16,0,4.27,0,6.38,0,0,0-.03-.02-.03-.02Z" style="fill: #bda88f;"/>
      <path d="M38.21,63.44h6.28c0,2.19,0,4.24,0,6.28,0,0,.02-.02,.02-.02-.33,.05-.66,.15-1,.15-1.76,.02-3.52,0-5.41,0,0-1.07-.02-2.07,0-3.08,.02-1.12,.08-2.24,.13-3.36,0,0-.02,.02-.02,.02Z" style="fill: #bda88f;"/>
      <path d="M57.24,152.49c0-2.13,.01-4.25,.02-6.38,0,0-.02,.03-.02,.03,2.09,.01,4.18,.03,6.27,.04l-.03-.03c0,2.1,0,4.21,0,6.31l.03-.03c-2.1,0-4.19,.02-6.29,.02,0,0,.03,.03,.03,.03Z" style="fill: #bda88f;"/>
      <path d="M114.38,120.64v-6.22h6.27v6.22h-6.27Z" style="fill: #bda88f;"/>
      <path d="M12.7,31.66V12.73H31.65V31.66H12.7Z" style="fill: #bda88f;"/>
      <path d="M146.1,31.68h-18.95V12.71h18.95V31.68Z" style="fill: #bda88f;"/>
      <path d="M12.73,127.12H31.66v18.97H12.73v-18.97Z" style="fill: #bda88f;"/>
    </g>
  </g>
</svg>