<?xml version="1.0" encoding="UTF-8"?>
<svg id="b" data-name="圖層 2" xmlns="http://www.w3.org/2000/svg" width="57.37" height="57.37" viewBox="0 0 57.37 57.37">
  <g id="c" data-name="menu+footer">
    <g>
      <circle cx="28.69" cy="28.69" r="28.39" transform="translate(-5.82 50.01) rotate(-76.72)" style="fill: #024737; opacity: .85;"/>
      <circle cx="28.69" cy="28.69" r="28.39" transform="translate(-5.82 50.01) rotate(-76.72)" style="fill: none; stroke: #968375; stroke-miterlimit: 10; stroke-width: .59px;"/>
      <g>
        <path d="M17.72,14.37c.07-.2,.19-.34,.37-.43,.11-.06,.22-.09,.33-.09,.07,0,.14,.01,.21,.04,.2,.06,.34,.17,.43,.35,.05,.1,.07,.2,.07,.31,0,.07-.02,.15-.05,.23-.2,.56-.42,1.12-.68,1.68-.02,.06-.04,.12-.04,.19v8.1c0,.2-.07,.37-.21,.51-.14,.14-.31,.21-.51,.21s-.37-.07-.51-.21c-.14-.14-.21-.31-.21-.51v-5.5s0-.03-.02-.03c-.01,0-.02,0-.03,0-.09,.14-.18,.27-.27,.4-.08,.11-.19,.16-.31,.16-.02,0-.05,0-.07-.01-.17-.02-.28-.11-.35-.26-.04-.1-.08-.19-.12-.28-.07-.16-.11-.33-.11-.51,0-.04,0-.08,.01-.12,.02-.22,.09-.42,.22-.59,.73-1.02,1.34-2.23,1.83-3.62Zm2.68,4.71s-.03-.01-.04,0c-.01,0-.02,.01-.02,.03v3.59c0,.18-.06,.34-.19,.46-.13,.13-.28,.19-.46,.19s-.34-.06-.46-.19c-.13-.13-.19-.28-.19-.46v-6.79c0-.17,.06-.32,.19-.45,.13-.13,.28-.19,.46-.19s.33,.06,.46,.19c.13,.13,.19,.28,.19,.45v.59s0,.03,.03,.04c.02,0,.03,0,.04-.01,.73-.6,1.32-1.35,1.75-2.23,.09-.18,.23-.32,.41-.41,.12-.06,.23-.09,.36-.09,.07,0,.13,0,.19,.02,.18,.04,.31,.14,.39,.31,.05,.08,.07,.17,.07,.26,0,.07-.02,.15-.06,.23-.03,.08-.07,.16-.11,.23,0,.02,0,.03,0,.05,0,.02,.02,.02,.05,.02h3.27c.17,0,.31,.06,.43,.18,.12,.12,.18,.26,.18,.43s-.06,.3-.18,.42c-.12,.12-.26,.17-.43,.17h-.16c-.07,0-.11,.03-.14,.09-.32,.68-.76,1.29-1.31,1.81-.04,.04-.04,.07,.01,.1,.55,.26,1.15,.46,1.8,.62,.16,.04,.26,.14,.32,.28,.02,.06,.02,.12,.02,.17,0,.09-.02,.18-.07,.26h-.01c-.12,.19-.27,.32-.47,.41-.12,.05-.24,.07-.36,.07-.08,0-.17-.01-.25-.04-.76-.22-1.46-.53-2.1-.91-.06-.03-.11-.03-.16,0-.59,.36-1.25,.67-1.99,.91-.1,.03-.2,.05-.3,.05-.11,0-.21-.02-.32-.05-.2-.07-.36-.2-.49-.38-.14-.18-.26-.33-.36-.44Zm6.79,1.68c.12,.12,.19,.27,.19,.44s-.06,.32-.19,.44c-.12,.12-.27,.19-.44,.19h-1.49s-.03,0-.04,.02c0,.02,0,.03,0,.05,.51,.7,1.13,1.29,1.88,1.78,.15,.1,.23,.23,.26,.41v.1c0,.14-.05,.27-.15,.38-.13,.16-.3,.25-.49,.28-.05,0-.09,.01-.12,.01-.16,0-.3-.05-.42-.15-.52-.41-1-.9-1.44-1.46,0-.02-.02-.02-.03-.02-.01,0-.02,.01-.02,.03v1.52c0,.2-.07,.36-.2,.5s-.3,.2-.5,.2-.36-.07-.5-.2-.2-.3-.2-.5v-1.49s0-.03-.02-.03c-.01,0-.03,0-.04,0-.54,.61-1.13,1.12-1.78,1.54-.12,.07-.25,.1-.38,.1-.06,0-.12,0-.19-.01-.2-.05-.36-.16-.49-.32-.09-.11-.14-.22-.14-.35,0-.03,0-.07,.01-.11,.03-.16,.12-.29,.27-.37,.88-.47,1.62-1.09,2.23-1.85,0-.02,0-.03,0-.05,0-.02-.02-.02-.04-.02h-1.41c-.17,0-.32-.06-.44-.19s-.19-.27-.19-.44,.06-.32,.19-.44c.12-.12,.27-.19,.44-.19h1.88c.06,0,.09-.03,.09-.1v-.17c0-.2,.07-.36,.2-.5s.3-.2,.5-.2,.36,.07,.5,.2,.2,.3,.2,.5v.17c0,.07,.03,.1,.09,.1h1.99c.17,0,.32,.06,.44,.19Zm-6.77-3.65s-.03,0-.05,0c-.02,0-.03,.02-.03,.05v1.74c0,.07,.03,.09,.09,.07,.9-.21,1.68-.48,2.32-.8,.05-.03,.05-.07,.01-.11-.29-.26-.57-.58-.85-.94-.03-.05-.07-.05-.12,0-.03,.03-.07,.07-.11,.11-.15,.14-.33,.21-.53,.21s-.39-.07-.56-.2c-.07-.05-.12-.09-.17-.14Zm4.47-.89s0-.03,0-.06c-.01-.02-.03-.03-.04-.03h-2.12s-.03,.01-.04,.03c0,.02,0,.04,0,.04,.31,.42,.69,.8,1.13,1.14,.05,.04,.1,.04,.15,0,.38-.35,.69-.72,.92-1.12Z" style="fill: #fefefd;"/>
        <path d="M35.86,20.32c.12,.12,.19,.27,.19,.44s-.06,.32-.19,.44c-.12,.12-.27,.18-.44,.18h-1.64c-.07,0-.1,.03-.1,.1v2.58c0,.34-.04,.59-.11,.77-.07,.18-.2,.31-.4,.41-.23,.12-.54,.19-.93,.22h-.05c-.17,0-.32-.06-.46-.17-.16-.12-.26-.28-.32-.48-.02-.05-.02-.1-.02-.15,0-.1,.03-.19,.09-.27,.09-.13,.21-.2,.37-.2h.26c.07,0,.11-.01,.13-.04,.02-.02,.03-.07,.03-.14v-2.54c0-.07-.03-.1-.09-.1h-1.73c-.17,0-.32-.06-.44-.18-.12-.12-.18-.27-.18-.44s.06-.32,.18-.44c.12-.12,.27-.18,.44-.18h4.96c.17,0,.32,.06,.44,.18Zm-5.4,1.92c.05-.17,.14-.31,.28-.41,.12-.07,.23-.11,.36-.11h.11c.17,.03,.31,.12,.41,.26,.07,.1,.1,.21,.1,.32,0,.05,0,.1-.01,.15-.17,.62-.37,1.17-.62,1.67-.08,.15-.21,.24-.38,.28-.06,.02-.12,.02-.17,.02-.12,0-.22-.02-.32-.07-.14-.07-.23-.19-.28-.35-.02-.06-.02-.12-.02-.17,0-.1,.02-.19,.07-.28,.2-.37,.36-.81,.48-1.31Zm1.71-5.7c.06,0,.09-.03,.09-.09v-.47c0-.06-.03-.09-.09-.09h-1.55c-.17,0-.32-.06-.44-.18-.12-.12-.18-.26-.18-.43s.06-.31,.18-.43c.12-.12,.27-.18,.44-.18h1.55c.06,0,.09-.03,.09-.1v-.14c0-.2,.07-.36,.21-.5,.14-.14,.31-.2,.5-.2s.36,.07,.49,.2,.2,.3,.2,.5v.14c0,.07,.03,.1,.1,.1h1.52c.16,0,.31,.06,.42,.18,.12,.12,.18,.26,.18,.43s-.06,.31-.18,.43c-.12,.12-.26,.18-.42,.18h-1.52c-.07,0-.1,.03-.1,.09v.47c0,.06,.03,.09,.1,.09h1.25c.16,0,.31,.06,.42,.18,.12,.12,.18,.26,.18,.43s-.06,.31-.18,.43c-.12,.12-.26,.17-.42,.17h-4.1c-.17,0-.32-.06-.43-.17s-.17-.26-.17-.43,.06-.31,.17-.43c.12-.12,.26-.18,.43-.18h1.26Zm7.17,.77c-.06,0-.09,.03-.09,.09v1.23c0,.32,.03,.67,.09,1.06s.16,.81,.3,1.28,.35,.94,.62,1.43,.59,.91,.96,1.28c.14,.15,.22,.32,.25,.52,0,.03,.01,.07,.01,.1,0,.16-.05,.3-.15,.44-.02,.04-.05,.08-.07,.12-.12,.16-.27,.26-.46,.28-.03,0-.07,.01-.1,.01-.15,0-.28-.06-.39-.17-.48-.49-.86-1.09-1.16-1.79-.3-.7-.5-1.35-.6-1.94,0,0,0-.01-.01-.01,0,0-.01,0-.01,.01-.1,.59-.32,1.24-.67,1.94-.35,.7-.81,1.31-1.38,1.83-.12,.09-.24,.14-.37,.14-.04,0-.09,0-.14-.01-.18-.04-.33-.14-.44-.31,0,0-.02-.02-.03-.04-.08-.13-.12-.27-.12-.42,0-.04,0-.08,.01-.12,.02-.19,.11-.35,.26-.49,.42-.37,.78-.8,1.09-1.28,.3-.49,.53-.97,.67-1.46,.14-.49,.25-.92,.31-1.31,.06-.39,.09-.75,.09-1.09v-1.23c0-.06-.03-.09-.1-.09h-.05c-.07,0-.11,.03-.12,.09-.19,.66-.42,1.24-.68,1.75-.08,.16-.21,.26-.39,.3h-.12c-.14,0-.27-.04-.38-.14-.12-.09-.24-.17-.36-.25-.03-.02-.05-.02-.05,.02,0,.13-.05,.25-.14,.34-.09,.09-.21,.14-.34,.14h-4.07c-.17,0-.31-.06-.43-.18-.12-.12-.18-.26-.18-.43s.06-.31,.18-.43,.26-.17,.43-.17h4.46c.07,0,.11-.03,.14-.09,.48-.94,.83-2.24,1.07-3.9,.03-.2,.13-.36,.28-.48,.13-.1,.28-.15,.43-.15,.03,0,.07,0,.1,.01h.06c.21,.02,.37,.12,.49,.28,.09,.13,.14,.27,.14,.42v.12c-.07,.45-.15,.88-.23,1.27-.02,.06,0,.09,.07,.09h2.39c.06-.02,.12-.02,.19-.02,.07,0,.14,0,.21,.02l.31,.09c.14,.03,.25,.11,.33,.23,.07,.1,.1,.21,.1,.32v.09c-.13,.9-.28,1.72-.43,2.43-.03,.16-.12,.29-.27,.37-.09,.05-.18,.07-.28,.07-.06,0-.12,0-.17-.02-.17-.05-.29-.15-.38-.3-.07-.11-.11-.24-.11-.37,0-.04,0-.08,.01-.12,.06-.4,.11-.85,.16-1.33,0-.06-.02-.09-.07-.09h-.63Zm-5.07,5.28c-.03-.08-.05-.16-.05-.23s.02-.15,.05-.22c.06-.15,.16-.25,.31-.31,.08-.03,.17-.05,.25-.05,.07,0,.15,.01,.23,.04,.16,.06,.28,.16,.36,.32,.11,.22,.2,.44,.28,.64,.03,.08,.05,.16,.05,.23,0,.09-.02,.18-.06,.26-.08,.16-.21,.28-.37,.36-.07,.03-.15,.05-.22,.05-.08,0-.17-.02-.25-.06-.15-.07-.25-.19-.31-.35-.08-.23-.17-.46-.27-.68Z" style="fill: #fefefd;"/>
        <path d="M19.72,39.02c.06-.02,.12-.04,.19-.04,.1,0,.19,.03,.28,.09,.16,.09,.25,.22,.27,.4,.02,.05,.02,.1,.02,.15,0,.13-.04,.26-.11,.38-.09,.16-.23,.28-.41,.36-.86,.32-1.91,.7-3.13,1.15-.09,.03-.18,.05-.26,.05-.11,0-.21-.02-.31-.07-.19-.08-.33-.21-.41-.4l-.04-.11c-.04-.08-.06-.16-.06-.25,0-.1,.02-.19,.07-.28,.08-.17,.21-.28,.39-.33,.34-.11,.66-.21,.96-.3,.06-.02,.09-.05,.09-.11v-4.68c0-.06-.03-.09-.1-.09h-.62c-.19,0-.35-.07-.49-.2s-.2-.3-.2-.49,.07-.36,.2-.49,.3-.2,.49-.2h2.94c.19,0,.35,.07,.49,.2s.2,.3,.2,.49-.07,.36-.2,.49-.3,.2-.49,.2h-.62c-.06,0-.09,.03-.09,.09v4.21s0,.03,.02,.05c.02,.02,.04,.02,.06,.01l.84-.27Zm7.32,1.75c0,.21-.07,.38-.21,.52-.14,.14-.31,.21-.52,.21h-3.96s-.03,0-.03,.02c0,.02,0,.03,0,.04l.49,.35c.15,.11,.22,.25,.22,.43s-.07,.31-.22,.4c-.62,.39-1.29,.72-2.02,1.01-.11,.04-.21,.06-.32,.06-.09,0-.18-.01-.26-.04-.2-.06-.37-.16-.51-.32-.07-.09-.11-.19-.11-.3,0-.03,0-.07,.01-.11,.03-.15,.12-.25,.27-.31,.91-.36,1.65-.75,2.2-1.17,.02,0,.02-.02,.01-.04,0-.02-.02-.02-.03-.02h-.46c-.21,0-.38-.07-.52-.21-.14-.14-.21-.31-.21-.52v-5.21c0-.21,.07-.38,.21-.52,.14-.14,.31-.21,.52-.21h1.16c.06,0,.09-.03,.11-.1,.03-.12,.07-.35,.12-.69,.02-.06,0-.09-.07-.09h-1.94c-.17,0-.32-.06-.44-.19-.12-.12-.18-.27-.18-.44s.06-.32,.18-.44,.27-.19,.44-.19h5.89c.17,0,.32,.06,.44,.19,.12,.12,.19,.27,.19,.44s-.06,.32-.19,.44c-.12,.12-.27,.19-.44,.19h-2.07c-.06,0-.09,.03-.11,.09-.02,.07-.11,.31-.26,.7,0,.02,0,.04,0,.06s.03,.03,.06,.03h1.81c.21,0,.38,.07,.52,.21,.14,.14,.21,.31,.21,.52v5.21Zm-4.68-4.83c-.07,0-.1,.03-.1,.09v.62c0,.06,.03,.09,.1,.09h3.12c.07,0,.1-.03,.1-.09v-.62c0-.06-.03-.09-.1-.09h-3.12Zm0,1.8c-.07,0-.1,.03-.1,.1v.62c0,.07,.03,.1,.1,.1h3.12c.07,0,.1-.03,.1-.1v-.62c0-.07-.03-.1-.1-.1h-3.12Zm0,1.85c-.07,0-.1,.03-.1,.09v.63c0,.06,.03,.09,.1,.09h3.12c.07,0,.1-.03,.1-.09v-.63c0-.06-.03-.09-.1-.09h-3.12Zm2.32,3.1c-.14-.09-.21-.22-.21-.4,0-.15,.06-.27,.19-.36,.17-.12,.36-.19,.57-.21h.06c.19,0,.36,.05,.52,.14,.52,.3,.96,.57,1.33,.83,.15,.1,.22,.24,.22,.42s-.07,.33-.22,.44h-.01c-.16,.14-.35,.2-.55,.2,0,0-.02,0-.03-.01-.21,0-.41-.07-.58-.2-.36-.26-.79-.55-1.28-.85Z" style="fill: #fefefd;"/>
        <path d="M31.22,33.32c0-.2,.07-.37,.22-.51,.14-.14,.32-.22,.51-.22h7.5c.2,0,.37,.07,.51,.22,.14,.14,.22,.31,.22,.51v9.53c0,.2-.07,.37-.22,.51-.14,.14-.31,.22-.51,.22h-.16c-.2,0-.36-.07-.5-.2s-.2-.3-.2-.5c0-.06-.03-.09-.09-.09h-5.68c-.06,0-.09,.03-.09,.09,0,.2-.07,.36-.2,.5s-.3,.2-.5,.2h-.09c-.2,0-.37-.07-.51-.22-.14-.14-.22-.31-.22-.51v-9.53Zm7.37,.84c0-.07-.03-.1-.09-.1h-5.68c-.06,0-.09,.03-.09,.1v1.26c0,.07,.03,.1,.09,.1h5.68c.06,0,.09-.03,.09-.1v-1.26Zm0,2.86c0-.07-.03-.1-.09-.1h-5.68c-.06,0-.09,.03-.09,.1v1.31c0,.06,.03,.09,.09,.09h5.68c.06,0,.09-.03,.09-.09v-1.31Zm-5.85,4.22c0,.06,.03,.09,.09,.09h5.68c.06,0,.09-.03,.09-.09v-1.31c0-.07-.03-.1-.09-.1h-5.68c-.06,0-.09,.03-.09,.1v1.31Z" style="fill: #fefefd;"/>
      </g>
    </g>
  </g>
</svg>