<?xml version="1.0" encoding="UTF-8"?>
<svg id="b" data-name="圖層 2" xmlns="http://www.w3.org/2000/svg" width="82.9" height="82.9" viewBox="0 0 82.9 82.9">
  <g id="c" data-name="圖層 4">
    <g>
      <path d="M59.73,76.34c-1.11-.01-2.21-.03-3.32-.04h.01v-3.29h-3.39v3.31h.01c-1.09,0-2.18,0-3.26,.02h.01c-.01-1.22-.04-2.45-.04-3.68,0-3.09,0-6.17,0-9.26,0-.15,.03-.3,.04-.45h0c1.07,0,2.14,0,3.26,0v-9.87h3.34v-3.32h3.29v-3.3h-6.59v3.31h-3.29c-.01-1.14-.03-2.29-.03-3.45,0-2.05,0-4.1,0-6.15,0-.1,0-.21,0-.34h3.29v3.25h6.64v-6.64c1.13,0,2.22,0,3.31,0v-.02c-.01,1.11-.01,2.22-.01,3.39h3.38c0,3.23,0,6.47,0,9.72,0,.09,.04,.17,.06,.26-1.12,0-2.23,0-3.37,0v3.23h3.31c0-.35,0-.66,0-.98,.01-.75,.03-1.51,.05-2.26,1.08,0,2.17-.01,3.25-.02h-.01c0,3.1,0,6.21,.01,9.33,0,.18,0,.36,0,.57h3.23c.03,.14,.08,.28,.08,.43,0,.95,0,1.91,0,2.91h-3.29v3.33h3.29v3.3h3.32v-3.26h3.31v6.59h3.3v3.29h-6.59v-3.27h-6.66v6.58h.01c-1.33,0-2.67,.01-4,.02-.86,0-1.73,0-2.64,0v3.29h-3.31c0-2.19,0-4.38,0-6.56,.16-.01,.33-.03,.5-.03,1.87,0,3.74,0,5.6,0h.5v-3.34h-3.32v-3.28h-3.3c0,.63,0,1.24,0,1.84,0,1.61,.02,3.22,.03,4.83Zm6.59-10.02v-9.9h-9.89v9.9h9.89Z" style="fill: #ede5db;"/>
      <path d="M46.5,29.89c-.02,.48-.06,.96-.07,1.44-.01,.59,0,1.18,0,1.74-.07,.04-.1,.06-.12,.06-2.16,0-4.31-.01-6.47-.02,0-1.08,0-2.17,0-3.25h-6.65v6.56h3.3v-3.28c.25,0,.44,0,.64,0,.91-.01,1.82-.03,2.73-.04-.02,.18-.05,.36-.05,.54,0,2.96,0,5.92,0,8.89v.55h-6.66v.02c.01-1.08,.01-2.17,.01-3.3h-3.3l.02,.02c0-1.2-.03-2.4-.03-3.6,0-3.09,0-6.17,0-9.26,0-.13,.01-.27,.02-.43h3.25V13.26h-3.26v-3.31h-3.3v-3.32h6.58v3.3h3.33V26.49h3.33v-9.98c1.12,0,2.2,0,3.27,0,0,0,0,0,0,0,.02,.2,.05,.39,.05,.59,0,4.06,0,8.12,0,12.18v.64h3.4Z" style="fill: #ede5db;"/>
      <path d="M23.17,23.18H0V.02H23.17V23.18ZM3.31,19.86H19.87V3.33H3.31V19.86Z" style="fill: #ede5db;"/>
      <path d="M59.72,23.17V0h23.17V23.17h-23.17Zm3.32-19.86V19.87h16.53V3.31h-16.53Z" style="fill: #ede5db;"/>
      <path d="M23.17,82.9H0v-23.18H23.17v23.18Zm-19.86-3.33H19.87v-16.53H3.31v16.53Z" style="fill: #ede5db;"/>
      <path d="M6.56,36.39c.02-1.09,.04-2.18,.05-3.28,0-2.02,0-4.04,0-6.07,0-.15,0-.3,0-.49h3.32v3.28h3.32v6.64h3.28v3.32h-3.26v6.61h13.24c0,.27,0,.49,0,.71-.02,.89-.05,1.78-.07,2.68,0,0,.01,0,.01,0-.09-.01-.18-.03-.27-.03-3.1,0-6.2,0-9.3,0-.09,0-.18,.01-.36,.02v3.27h.01c-2.18-.01-4.37-.01-6.6-.01v-16.56c-.94,0-1.83,0-2.72,0-.22,0-.44-.05-.66-.08h0Z" style="fill: #ede5db;"/>
      <path d="M46.51,29.9c-.03-.13-.07-.26-.07-.4,0-3.12,0-6.23,0-9.35,0-.06,.01-.12,.02-.22h3.29v6.55h3.29v-9.88h3.32v19.84h-6.59v-6.56c-1.12,0-2.2,0-3.27,0,0,0,.01,0,.01,0Z" style="fill: #ede5db;"/>
      <path d="M33.15,76.31v-6.65h-3.27c-.02-.14-.04-.24-.04-.34,0-1.99,0-3.98,0-5.97,0-.13,.03-.27,.05-.4,0,0-.01,.01-.01,.01,.79,.02,1.57,.03,2.36,.05,.29,0,.57,0,.89,0v3.32h3.32v6.63h3.32v3.31h3.29v6.62h-3.26v-3.32h-3.4l.02,.02v-3.3h-3.28Z" style="fill: #ede5db;"/>
      <path d="M33.12,56.45h-3.24c0,.08-.03,.18-.03,.28,0,1.99,0,3.98,0,5.97,0,.09,.02,.18,.04,.27,0,0,.01-.01,.01-.01-1.1,0-2.21,0-3.38,0v-.5c0-4.04,0-8.09,0-12.13,0-.18-.04-.36-.06-.53,0,0-.01,0-.01,0,1.27-.01,2.54-.04,3.81-.04,1.88,0,3.75,0,5.63,0,.16,0,.33-.02,.49-.04h0c.03,.06,.09,.13,.09,.19,0,1.03,0,2.06,0,3.13h-3.35v3.42h0Z" style="fill: #ede5db;"/>
      <path d="M39.77,56.38h-3.27v-3.29h6.58v16.53h-3.27v-3.26h-3.3v-3.34h3.26v-6.64Z" style="fill: #ede5db;"/>
      <path d="M62.94,33.19c1.29-.01,2.58-.03,3.87-.03,.92,0,1.85,0,2.82,0v-3.27h3.34v3.29h3.35v3.3h-3.33v3.34h-6.61v-3.33c-.37,0-.66,0-.94,0-.82-.01-1.63-.03-2.45-.05v.02c0-1.09-.01-2.18-.02-3.26h-.01Z" style="fill: #ede5db;"/>
      <path d="M49.79,10.02c-.01,1.1-.03,2.21-.04,3.31,0,1.06,0,2.11,0,3.2-.14,.01-.24,.03-.34,.03-1.99,0-3.97,0-5.96,0-.13,0-.27-.04-.4-.06,0,0,0,0,0,0,.01-.89,.04-1.79,.04-2.68,0-1.27,0-2.55,0-3.89h-3.26c0-1.17,0-2.28,0-3.38,0,0-.01,.01-.01,.01,2,0,4,.02,6.01,.03,.18,0,.36,0,.59,0v3.33c.77,0,1.49,0,2.21,0,.39,0,.78,.05,1.16,.08h0Z" style="fill: #ede5db;"/>
      <path d="M76.34,46.51v-3.41h3.25v-3.28h3.3v9.9h-3.28v-3.29c-.39,0-.73,0-1.07,0-.74,.02-1.47,.05-2.21,.07,0,0,0,0,0,0Z" style="fill: #ede5db;"/>
      <path d="M76.33,33.17c0-1.1-.02-2.2-.03-3.3h-.01c.91,0,1.82-.01,2.73-.03,.18,0,.36,0,.58,0v-3.3h3.29v9.89h-3.27v-3.28c-1.13,0-2.22,0-3.31,0,0,0,.01,.02,.01,.02Z" style="fill: #ede5db;"/>
      <path d="M36.39,3.35c-1.11-.02-2.21-.04-3.32-.05-2.16,0-4.32,0-6.52,0V0h9.92c0,.77,0,1.52,0,2.27,0,.36-.05,.72-.08,1.08h0Z" style="fill: #ede5db;"/>
      <path d="M3.35,36.38c-.21,.03-.41,.08-.62,.08-.89,0-1.79,0-2.72,0v-9.93H3.3v.55c0,2.93,0,5.87,0,8.8,0,.16,.03,.33,.05,.49,0,0,0,0,0,0Z" style="fill: #ede5db;"/>
      <path d="M26.44,39.85c1.14,0,2.29-.02,3.43-.03l-.02-.02v3.3h3.3v-.02c-.01,1.09-.01,2.18-.01,3.31h-6.63c0-.19,0-.35,0-.51,0-1.85,0-3.7,0-5.55,0-.16-.04-.32-.06-.49,0,0,0,0,0,0Z" style="fill: #ede5db;"/>
      <path d="M6.55,36.39c.02,.06,.04,.12,.04,.18,0,2.16,0,4.31,0,6.51H0v-3.25H3.35c0-1.17,0-2.3,0-3.43,0,0,0,0,0,0,.14,.03,.28,.08,.42,.08,.79,0,1.57,0,2.36,0,.14,0,.28-.05,.43-.08,0,0,0,0,0,0Z" style="fill: #ede5db;"/>
      <path d="M16.53,53.04h6.64v3.32h-6.63c0-1.13,0-2.23,0-3.33,0,0-.01,.01-.01,.01Z" style="fill: #ede5db;"/>
      <path d="M29.82,23.19h-3.27v-6.61h3.27v6.61Z" style="fill: #ede5db;"/>
      <path d="M56.41,76.3c0,1.99-.02,3.97-.02,5.96,0,.2,0,.39,0,.63h-3.35c0-2.2,0-4.4,0-6.59h-.01c1.13,.01,2.26,.01,3.39,.01h-.01Z" style="fill: #ede5db;"/>
      <path d="M79.55,56.46c.42-.02,.84-.06,1.26-.07,.68-.01,1.36,0,2.08,0v6.59h-3.29v-.48c0-1.85,0-3.7,0-5.55,0-.16-.03-.33-.04-.49,0,0,0,0,0,0Z" style="fill: #ede5db;"/>
      <path d="M19.96,29.9c-.02-.47-.06-.93-.07-1.4-.01-.65,0-1.3,0-1.97h6.59v3.29c-.16,0-.32,.02-.47,.02-1.85,0-3.71,0-5.56,0-.16,0-.33,.03-.49,.05,0,0,0,0,0,0Z" style="fill: #ede5db;"/>
      <path d="M69.65,49.76v-3.29c.15-.02,.27-.04,.39-.04,1.96,0,3.91,0,5.87,0,.15,0,.29,.05,.44,.08,0,0,0,0,0,0-.01,.86-.03,1.73-.04,2.59,0,.2,0,.39,0,.66-2.24,0-4.45,0-6.66,0,0,0,.01,.01,.01,.01Z" style="fill: #ede5db;"/>
      <path d="M0,49.77H6.58v3.26H0v-3.26Z" style="fill: #ede5db;"/>
      <path d="M49.78,76.33c0,2-.02,4.01-.03,6.01,0,.18,0,.36,0,.56h-3.29v-6.56c1.12,0,2.23,0,3.33,0,0,0-.01-.01-.01-.01Z" style="fill: #ede5db;"/>
      <path d="M49.79,62.94c-.48,.02-.96,.06-1.44,.07-.62,.01-1.24,0-1.89,0v-6.59h3.29v.47c0,1.85,0,3.71,0,5.56,0,.17,.02,.33,.03,.5,0,0,.01-.01,.01-.01Z" style="fill: #ede5db;"/>
      <path d="M62.98,29.87c0-.97,.04-1.94,.02-2.91,0-.37,.12-.46,.47-.45,.94,.02,1.87,0,2.84,0v3.34c-1.11,0-2.23,0-3.34,0,0,0,.01,.01,.01,.01Z" style="fill: #ede5db;"/>
      <path d="M76.3,29.87h-3.3v-3.32h3.29c0,1.12,0,2.23,0,3.33,0,0,.01-.01,.01-.01Z" style="fill: #ede5db;"/>
      <path d="M29.89,76.28h-3.35v-3.27h3.34c0,1.11,0,2.2,0,3.29,0,0,.01-.01,.01-.01Z" style="fill: #ede5db;"/>
      <path d="M29.87,79.6v3.3h-3.32v-3.29h3.32Z" style="fill: #ede5db;"/>
      <path d="M43.12,43.13h3.28v3.27h-3.28v-3.27Z" style="fill: #ede5db;"/>
      <path d="M79.63,79.63h3.27v3.27h-3.27v-3.27Z" style="fill: #ede5db;"/>
      <path d="M46.47,0h3.25V3.27h-3.25V0Z" style="fill: #ede5db;"/>
      <path d="M36.38,3.35h3.44c0,1.06,0,2.14,0,3.23,0,0,.01-.01,.02-.01-1.1,0-2.2,0-3.37,0,0-.89,0-1.8,0-2.7,0-.17-.05-.35-.08-.52,0,0,0,0,0,0Z" style="fill: #ede5db;"/>
      <path d="M49.8,10.02v-3.39h3.23v3.3c-.79,0-1.57,0-2.35,0-.29,0-.59,.05-.88,.08,0,0,0,0,0,0Z" style="fill: #ede5db;"/>
      <path d="M19.96,33.11h-3.37v-3.21c1.14,0,2.26,0,3.38,0,0,0,0,0,0,0-.02,.49-.06,.98-.06,1.47,0,.58,.03,1.17,.05,1.75h0Z" style="fill: #ede5db;"/>
      <path d="M36.38,49.71c.03-.15,.09-.31,.09-.46,0-.92,0-1.84,0-2.79h3.3v3.25c-1.13,0-2.26,0-3.39,0,0,0,0,0,0,0Z" style="fill: #ede5db;"/>
      <path d="M72.88,59.66c.03-.16,.08-.31,.08-.47,0-.91,0-1.82,0-2.8,.44,0,.85,0,1.25,0,.71,.02,1.42,.05,2.13,.07h0c-.01,.86-.03,1.72-.04,2.58,0,.2,0,.39,0,.62-1.16,0-2.29,0-3.42,0,0,0,0,0,0,0Z" style="fill: #ede5db;"/>
      <path d="M76.34,56.46v-3.38h3.21c0,1.14,0,2.26,0,3.38,0,0,0,0,0,0-.43-.02-.86-.06-1.29-.06-.64,0-1.28,.04-1.93,.06,0,0,0,0,0,0Z" style="fill: #ede5db;"/>
      <path d="M23.24,39.84c0-1.15,0-2.3,0-3.46,0,0-.01,.01-.01,.01,.36,.02,.72,.06,1.07,.07,.71,.01,1.42,0,2.21,0,0,.41,0,.78,0,1.16-.02,.74-.04,1.48-.07,2.22,0,0,0,0,0,0-1.08,0-2.15,0-3.23-.01h.01Z" style="fill: #ede5db;"/>
      <path d="M36.42,79.58v3.32h-3.26c0-1.12,0-2.22,0-3.32h-.01c1.1,.01,2.2,.01,3.3,.01l-.02-.02Z" style="fill: #ede5db;"/>
      <path d="M69.65,79.58h3.27v3.32h-3.26c0-1.13,0-2.23,0-3.33,0,0-.01,.01-.01,.01Z" style="fill: #ede5db;"/>
      <path d="M62.95,33.17h-3.22v-3.31c1.08,0,2.16,0,3.25,0,0,0-.01-.01-.01-.01,0,1.11-.02,2.22-.03,3.33,0,0,.01-.01,.01-.01Z" style="fill: #ede5db;"/>
      <path d="M33.11,56.46c.48-.02,.96-.06,1.45-.07,.62-.01,1.24,0,1.89,0v3.29h-3.32c0-1.08,0-2.16,0-3.23,0,0-.01,.01-.01,.01Z" style="fill: #ede5db;"/>
      <path d="M23.22,39.83v3.25h-3.3v-3.24c1.11,0,2.21,0,3.31,0,0,0-.01-.01-.01-.01Z" style="fill: #ede5db;"/>
      <path d="M49.77,49.77v3.25h-3.31v-3.24c1.13,0,2.23,0,3.33,0,0,0-.01-.01-.01-.01Z" style="fill: #ede5db;"/>
      <path d="M19.95,33.12h3.28c0,1.14,0,2.21,0,3.28,0,0,.01-.01,.01-.01-.17,.03-.35,.08-.52,.08-.92,0-1.84,0-2.83,0,0-.56,0-1.08,0-1.61,.01-.58,.04-1.17,.07-1.75,0,0,0,0,0,0Z" style="fill: #ede5db;"/>
      <path d="M29.88,79.61c0-1.11,0-2.22,0-3.33,0,0-.01,.01-.01,.01,1.09,0,2.18,.01,3.27,.02h-.01c0,1.08,0,2.18,0,3.28h.01c-1.09,0-2.19,0-3.28,0,0,0,.01,.01,.01,.01Z" style="fill: #ede5db;"/>
      <path d="M59.71,62.98v-3.25h3.27v3.25h-3.27Z" style="fill: #ede5db;"/>
      <path d="M6.63,16.53V6.64h9.89v9.88H6.63Z" style="fill: #ede5db;"/>
      <path d="M76.27,16.54h-9.89V6.63h9.89v9.9Z" style="fill: #ede5db;"/>
      <path d="M6.65,66.36h9.88v9.91H6.65v-9.91Z" style="fill: #ede5db;"/>
    </g>
  </g>
</svg>