<?xml version="1.0" encoding="UTF-8"?>
<svg id="b" data-name="圖層 2" xmlns="http://www.w3.org/2000/svg" width="276.83" height="51.52" viewBox="0 0 276.83 51.52">
  <g id="c" data-name="圖層 4">
    <g>
      <path d="M12.52,6.26c0,3.46-2.8,6.26-6.26,6.26S0,9.72,0,6.26,2.8,0,6.26,0s6.26,2.81,6.26,6.26Z" style="fill: #ede5db;"/>
      <path d="M28.7,6.26c0,3.46-2.81,6.26-6.26,6.26s-6.26-2.81-6.26-6.26S18.98,0,22.44,0s6.26,2.81,6.26,6.26Z" style="fill: #ede5db;"/>
      <path d="M44.87,6.26c0,3.46-2.81,6.26-6.26,6.26s-6.26-2.81-6.26-6.26,2.81-6.26,6.26-6.26,6.26,2.81,6.26,6.26Z" style="fill: #ede5db;"/>
      <path d="M61.06,6.26c0,3.46-2.81,6.26-6.26,6.26s-6.26-2.81-6.26-6.26,2.81-6.26,6.26-6.26,6.26,2.81,6.26,6.26Z" style="fill: #ede5db;"/>
      <path d="M12.52,22.77c0,3.46-2.8,6.26-6.26,6.26S0,26.23,0,22.77s2.8-6.26,6.26-6.26,6.26,2.8,6.26,6.26Z" style="fill: #ede5db;"/>
      <path d="M28.7,22.77c0,3.46-2.81,6.26-6.26,6.26s-6.26-2.81-6.26-6.26,2.81-6.26,6.26-6.26,6.26,2.8,6.26,6.26Z" style="fill: #ede5db;"/>
      <path d="M61.06,22.77c0,3.46-2.81,6.26-6.26,6.26s-6.26-2.81-6.26-6.26,2.81-6.26,6.26-6.26,6.26,2.8,6.26,6.26Z" style="fill: #ede5db;"/>
      <path d="M12.54,39.57c0,3.46-2.81,6.26-6.26,6.26S.01,43.03,.01,39.57s2.81-6.26,6.26-6.26,6.26,2.8,6.26,6.26Z" style="fill: #ede5db;"/>
      <path d="M28.72,39.57c0,3.46-2.81,6.26-6.26,6.26s-6.26-2.8-6.26-6.26,2.81-6.26,6.26-6.26,6.26,2.8,6.26,6.26Z" style="fill: #ede5db;"/>
      <path d="M61.07,39.57c0,3.46-2.8,6.26-6.26,6.26s-6.26-2.8-6.26-6.26,2.8-6.26,6.26-6.26,6.26,2.8,6.26,6.26Z" style="fill: #ede5db;"/>
      <path d="M44.97,39.67c0,3.5-2.84,6.34-6.34,6.34s-6.34-2.84-6.34-6.34,2.84-6.33,6.34-6.33,6.34,2.84,6.34,6.33Z" style="fill: #ede5db;"/>
      <path d="M222.56,45.19c0,3.5-2.83,6.34-6.34,6.34s-6.33-2.83-6.33-6.34,2.84-6.33,6.33-6.33,6.34,2.83,6.34,6.33Z" style="fill: #ede5db;"/>
      <path d="M93.08,45.89c-2.62,0-5.07-.59-7.36-1.77-2.32-1.22-4.15-2.95-5.47-5.2-1.33-2.25-1.99-4.83-1.99-7.74s.68-5.61,2.05-7.86c1.33-2.18,3.11-3.86,5.34-5.06,2.23-1.2,4.71-1.8,7.44-1.8,1.85,0,3.47,.23,4.87,.69,1.4,.46,2.81,1.11,4.21,1.97,.74,.51,1.11,1.18,1.11,1.99,0,.55-.22,1.08-.67,1.56-.44,.47-.94,.71-1.49,.71-.37,0-.78-.11-1.22-.33-1.29-.66-2.36-1.12-3.21-1.38-.85-.26-1.9-.39-3.15-.39-3.1,0-5.57,.9-7.39,2.68-1.83,1.79-2.74,4.2-2.74,7.22s.91,5.43,2.74,7.22c1.82,1.79,4.29,2.68,7.39,2.68,1.25,0,2.3-.13,3.15-.39,.85-.26,1.92-.72,3.21-1.38,.44-.22,.85-.33,1.22-.33,.55,0,1.05,.24,1.49,.72,.45,.48,.67,.99,.67,1.55,0,.81-.37,1.47-1.11,1.99-1.4,.85-2.8,1.5-4.21,1.97-1.4,.46-3.02,.69-4.87,.69Z" style="fill: #ede5db;"/>
      <path d="M109.64,45.61c-.7,0-1.3-.25-1.8-.75-.5-.5-.74-1.1-.74-1.8V19.33c0-1.22,.14-1.83,.44-1.83h4.26c.29,0,.44,.61,.44,1.83v2.21c2.54-3.39,5.42-5.09,8.63-5.09h.28c.63,0,1.23-.29,1.82-.89v2.71c0,2.1-.61,3.16-1.82,3.16h-.39c-1.73,0-3.33,.41-4.78,1.24-1.46,.84-2.7,2.02-3.74,3.57v16.82c0,.7-.26,1.3-.77,1.8-.52,.5-1.13,.75-1.83,.75Z" style="fill: #ede5db;"/>
      <path d="M143.23,28.79c.48,0,.7-.24,.67-.72-.15-1.47-.6-2.71-1.33-3.7-.81-1.18-1.82-2.07-3.02-2.66-1.19-.59-2.44-.89-3.73-.89-1.18,0-2.42,.27-3.71,.83-1.29,.63-2.31,1.56-3.07,2.79-.76,1.23-1.19,2.69-1.3,4.34h15.49Zm-6.3,17.1c-4.54,0-8.07-1.29-10.6-3.88-2.53-2.58-3.79-6.19-3.79-10.84,0-2.51,.48-4.93,1.44-7.25,.99-2.32,2.51-4.15,4.54-5.47,2.03-1.33,4.46-2,7.3-2s5.11,.63,7.14,1.88c1.92,1.26,3.41,2.94,4.48,5.06,1.07,2.12,1.6,4.47,1.6,7.06,0,.7-.24,1.3-.72,1.79-.48,.5-1.11,.75-1.88,.75h-18.7c.33,2.62,1.32,4.62,2.96,6.01,1.65,1.38,3.86,2.07,6.67,2.07,1.47,0,2.79-.14,3.95-.42,1.17-.27,2.34-.71,3.51-1.3,.26-.15,.59-.22,.99-.22,.59,0,1.12,.21,1.58,.63,.46,.42,.69,.95,.69,1.58,0,.85-.5,1.55-1.49,2.1-1.55,.85-3.02,1.47-4.43,1.86-1.4,.38-3.15,.58-5.25,.58Z" style="fill: #ede5db;"/>
      <path d="M173.49,28.79c.48,0,.7-.24,.66-.72-.15-1.47-.59-2.71-1.33-3.7-.81-1.18-1.82-2.07-3.02-2.66-1.2-.59-2.45-.89-3.74-.89-1.18,0-2.41,.27-3.7,.83-1.29,.63-2.31,1.56-3.08,2.79-.75,1.23-1.19,2.69-1.3,4.34h15.49Zm-6.31,17.1c-4.54,0-8.07-1.29-10.59-3.88-2.53-2.58-3.79-6.19-3.79-10.84,0-2.51,.47-4.93,1.43-7.25,1-2.32,2.51-4.15,4.54-5.47,2.03-1.33,4.46-2,7.3-2s5.11,.63,7.14,1.88c1.92,1.26,3.41,2.94,4.49,5.06,1.07,2.12,1.6,4.47,1.6,7.06,0,.7-.24,1.3-.71,1.79-.48,.5-1.11,.75-1.89,.75h-18.7c.33,2.62,1.32,4.62,2.96,6.01,1.64,1.38,3.86,2.07,6.66,2.07,1.48,0,2.79-.14,3.96-.42,1.16-.27,2.33-.71,3.51-1.3,.26-.15,.59-.22,.99-.22,.59,0,1.11,.21,1.58,.63,.46,.42,.69,.95,.69,1.58,0,.85-.5,1.55-1.5,2.1-1.55,.85-3.02,1.47-4.42,1.86-1.41,.38-3.16,.58-5.26,.58Z" style="fill: #ede5db;"/>
      <path d="M196.45,41.08c2.8,0,5-.88,6.61-2.63,1.61-1.76,2.41-4.18,2.41-7.28s-.8-5.53-2.41-7.28c-1.61-1.75-3.81-2.62-6.61-2.62-1.62,0-3.18,.37-4.68,1.1-1.49,.74-2.83,1.74-4.01,2.99v11.62c1.18,1.26,2.52,2.25,4.01,2.99,1.49,.74,3.05,1.11,4.68,1.11Zm.72,4.81c-3.62,0-6.75-1.38-9.41-4.15v1.33c0,1.22-.26,1.6-.44,1.83-1.63,2.02-3.98,.51-4.26,0-.14-.26-.44-.61-.44-1.83V7.16c0-1.22,.14-1.83,.44-1.83h4.26c.29,0,.44,.61,.44,1.83v13.44c2.66-2.77,5.79-4.15,9.41-4.15,2.4,0,4.57,.57,6.53,1.71,2.14,1.18,3.83,2.92,5.06,5.2,1.24,2.29,1.86,4.89,1.86,7.81s-.63,5.62-1.88,7.8c-1.26,2.21-2.91,3.92-4.96,5.11-2.05,1.2-4.25,1.8-6.61,1.8Z" style="fill: #ede5db;"/>
      <path d="M236.31,45.89c-2.62,0-5.08-.59-7.36-1.77-2.32-1.22-4.15-2.95-5.48-5.2-1.33-2.25-1.99-4.83-1.99-7.74s.68-5.61,2.05-7.86c1.33-2.18,3.11-3.86,5.34-5.06,2.23-1.2,4.71-1.8,7.45-1.8,1.84,0,3.47,.23,4.87,.69,1.4,.46,2.8,1.11,4.21,1.97,.74,.51,1.1,1.18,1.1,1.99,0,.55-.22,1.08-.66,1.56-.44,.47-.94,.71-1.49,.71-.37,0-.78-.11-1.22-.33-1.29-.66-2.36-1.12-3.21-1.38-.85-.26-1.9-.39-3.16-.39-3.1,0-5.56,.9-7.38,2.68-1.83,1.79-2.74,4.2-2.74,7.22s.91,5.43,2.74,7.22c1.82,1.79,4.28,2.68,7.38,2.68,1.26,0,2.31-.13,3.16-.39,.85-.26,1.92-.72,3.21-1.38,.44-.22,.85-.33,1.22-.33,.55,0,1.05,.24,1.49,.72,.44,.48,.66,.99,.66,1.55,0,.81-.37,1.47-1.1,1.99-1.41,.85-2.81,1.5-4.21,1.97-1.4,.46-3.03,.69-4.87,.69Z" style="fill: #ede5db;"/>
      <path d="M262.61,41.19c1.51,0,2.97-.35,4.37-1.05,1.44-.74,2.58-1.87,3.43-3.4,.85-1.53,1.27-3.41,1.27-5.62,0-2.33-.44-4.21-1.33-5.65-.81-1.4-1.89-2.47-3.23-3.21-1.35-.74-2.85-1.11-4.51-1.11-1.51,0-2.97,.33-4.37,.99-1.44,.74-2.58,1.86-3.43,3.38-.85,1.51-1.27,3.38-1.27,5.59,0,2.36,.44,4.26,1.33,5.7,.81,1.44,1.89,2.53,3.24,3.27,1.34,.74,2.85,1.1,4.51,1.1Zm0,4.7c-2.84,0-5.33-.61-7.47-1.82-2.14-1.26-3.8-3-4.98-5.26-1.18-2.25-1.77-4.8-1.77-7.64s.59-5.44,1.77-7.69c1.18-2.25,2.85-3.98,5.01-5.2,2.16-1.22,4.64-1.83,7.45-1.83s5.28,.61,7.41,1.83c2.18,1.25,3.86,2.99,5.03,5.23,1.18,2.23,1.77,4.78,1.77,7.66s-.59,5.42-1.77,7.64c-1.22,2.29-2.9,4.04-5.06,5.26-2.15,1.22-4.62,1.82-7.38,1.82Z" style="fill: #ede5db;"/>
    </g>
  </g>
</svg>