<?xml version="1.0" encoding="UTF-8"?>
<svg id="b" data-name="圖層 2" xmlns="http://www.w3.org/2000/svg" width="27.18" height="27.18" viewBox="0 0 27.18 27.18">
  <g id="c" data-name="圖層 4">
    <g>
      <g>
        <path d="M12.08,20.36v-7.83h-1.28v-1.26h1.28v-.43c0-1.28,.28-2.44,1.05-3.17,.62-.6,1.44-.84,2.21-.84,.58,0,1.09,.13,1.41,.26l-.22,1.28c-.24-.11-.58-.21-1.05-.21-1.41,0-1.76,1.24-1.76,2.63v.49h2.2v1.26h-2.2v7.83h-1.63Z" style="fill: #ddd8ce;"/>
        <path d="M14.11,20.76h-2.44v-7.83h-1.28v-2.06l1.28-.03c0-1.56,.4-2.72,1.18-3.46,.63-.61,1.52-.95,2.49-.95,.77,0,1.35,.21,1.56,.29l.3,.12-.37,2.1-.47-.22c-.25-.11-.54-.17-.88-.17-.64,0-1.36,.25-1.36,2.23v.09h2.2v2.06h-2.2v7.83Zm-1.63-.8h.83v-7.83h2.2v-.46h-2.2v-.89c0-2.5,1.18-3.03,2.17-3.03,.26,0,.51,.03,.74,.08l.08-.48c-.23-.06-.56-.13-.95-.13-.44,0-1.28,.09-1.94,.73-.62,.59-.93,1.56-.93,2.88v.83h-1.28v.46h1.28v7.83Z" style="fill: #ddd8ce;"/>
      </g>
      <circle cx="13.59" cy="13.59" r="12.79" style="fill: none; stroke: #ddd8ce; stroke-miterlimit: 10; stroke-width: 1.6px;"/>
    </g>
  </g>
</svg>