<?xml version="1.0" encoding="UTF-8"?>
<svg id="b" data-name="圖層 2" xmlns="http://www.w3.org/2000/svg" width="103.32" height="85.08" viewBox="0 0 103.32 85.08">
  <g id="c" data-name="TEXT">
    <g>
      <rect x="0" y="0" width="103.32" height="85.08" rx="42.39" ry="42.39" style="fill: #cba671;"/>
      <g>
        <path d="M29.58,49.43c-.27,0-.5-.1-.69-.29-.19-.19-.29-.42-.29-.69v-10.62c0-.27,.1-.5,.29-.69,.19-.19,.42-.29,.69-.29h.83c.3,0,.57,.09,.8,.26,.24,.17,.41,.4,.51,.67l1.81,4.96c.04,.13,.29,.93,.75,2.39,.01,.02,.03,.03,.06,.03s.05-.01,.06-.03c.08-.24,.2-.63,.37-1.17,.17-.54,.29-.94,.38-1.22l1.78-4.96c.09-.28,.25-.5,.5-.67,.24-.17,.51-.26,.8-.26h.83c.28,0,.51,.1,.7,.29,.19,.19,.28,.42,.28,.69v10.62c0,.27-.09,.5-.28,.69-.19,.19-.42,.29-.7,.29h-.33c-.27,0-.5-.1-.69-.29-.19-.19-.29-.42-.29-.69v-4.27c0-.72,.1-2.09,.3-4.1,.01-.02,0-.03-.02-.03s-.04,.01-.04,.03l-1.01,2.92-1.69,4.62c-.08,.2-.21,.36-.38,.48-.18,.12-.37,.18-.59,.18s-.41-.06-.59-.18c-.18-.12-.3-.28-.38-.48l-1.71-4.62-.98-2.92s-.03-.03-.05-.03-.03,.01-.03,.03c.21,2.11,.32,3.48,.32,4.1v4.27c0,.27-.09,.5-.28,.69-.19,.19-.42,.29-.7,.29h-.3Z" style="fill: #fff;"/>
        <path d="M52.18,47.89c-1.04,1.18-2.39,1.78-4.08,1.78s-3.04-.59-4.08-1.78c-1.03-1.18-1.55-2.78-1.55-4.8s.51-3.6,1.54-4.75c1.03-1.15,2.39-1.73,4.08-1.73s3.05,.58,4.08,1.73c1.03,1.15,1.54,2.73,1.54,4.75s-.52,3.61-1.55,4.8Zm-6.3-1.59c.55,.8,1.3,1.2,2.23,1.2s1.68-.4,2.23-1.2,.83-1.86,.83-3.2-.28-2.39-.83-3.16c-.55-.77-1.3-1.15-2.24-1.15s-1.69,.38-2.23,1.15c-.55,.77-.82,1.82-.82,3.16s.28,2.41,.83,3.2Z" style="fill: #fff;"/>
        <path d="M65.37,48.59c.04,.09,.07,.18,.07,.27s-.03,.19-.08,.29c-.1,.19-.26,.28-.48,.28h-.85c-.3,0-.58-.08-.84-.23-.26-.15-.46-.37-.61-.63l-2.06-3.79c-.04-.08-.11-.12-.18-.12h-1.51c-.08,0-.12,.04-.12,.13v3.65c0,.27-.1,.5-.29,.69-.19,.19-.42,.29-.69,.29h-.56c-.27,0-.5-.1-.69-.29-.19-.19-.29-.42-.29-.69v-10.62c0-.27,.1-.5,.29-.69,.19-.19,.42-.29,.69-.29h3.4c3.15,0,4.73,1.27,4.73,3.82,0,.89-.2,1.63-.6,2.22s-.96,1.05-1.68,1.34c-.08,.03-.1,.08-.07,.15l2.41,4.2Zm-6.54-9.75c-.08,0-.12,.04-.12,.13v3.59c0,.08,.04,.12,.12,.12h1.51c.81,0,1.43-.17,1.86-.51,.43-.34,.65-.84,.65-1.5s-.21-1.13-.62-1.41c-.41-.28-1.04-.42-1.88-.42h-1.51Z" style="fill: #fff;"/>
        <path d="M68.76,49.43c-.27,0-.5-.1-.69-.29-.19-.19-.29-.42-.29-.69v-10.62c0-.27,.1-.5,.29-.69,.19-.19,.42-.29,.69-.29h5.76c.28,0,.51,.1,.7,.29,.19,.19,.28,.42,.28,.69v.13c0,.28-.09,.51-.28,.7-.19,.19-.42,.28-.7,.28h-4.1c-.08,0-.12,.04-.12,.13v2.66c0,.08,.04,.12,.12,.12h3.32c.27,0,.5,.1,.69,.29,.19,.19,.29,.42,.29,.69v.15c0,.28-.1,.51-.29,.7-.19,.19-.42,.28-.69,.28h-3.32c-.08,0-.12,.04-.12,.13v3.12c0,.08,.04,.12,.12,.12h4.28c.28,0,.51,.1,.7,.29,.19,.19,.28,.42,.28,.69v.15c0,.27-.09,.5-.28,.69-.19,.19-.42,.29-.7,.29h-5.94Z" style="fill: #fff;"/>
      </g>
    </g>
  </g>
</svg>