<?xml version="1.0" encoding="UTF-8"?>
<svg id="b" data-name="圖層 2" xmlns="http://www.w3.org/2000/svg" width="188.65" height="136.79" xmlns:xlink="http://www.w3.org/1999/xlink" viewBox="0 0 188.65 136.79">
  <defs>
    <clipPath id="d">
      <rect width="188.65" height="136.79" style="fill: none;"/>
    </clipPath>
    <clipPath id="e">
      <path d="M48.32,6.92c-2.18,2.86-1.66,25-.16,30.52,0,0-9.29,9.65-14.62,27.89,0,0-1.28,7.69-5.03,8.48l-23.11-3.1L-7.05,107.6s8.49,7.34,17.42,5.29c8.93-2.05,19.22-9.06,19.22-9.06l7.24-2.88s2.1,2.31-.05,5.01c0,0-2.37,2.18-1.61,4.33l1.01,1.28s1.79,1.24,3.56,1.3c1.77,.06,4.29-.95,4.29-.95l2.32-.83,1.66-.51s1.06-.75,1.29-.31,.98,.19,1.81,.37,1.4,.96,2.28,1.92-.42,.61,1.63,2.32c2.05,1.71,2.21,1.91,4.02,2.73,1.82,.82,1.27,.23,3.64,1.84s8.32,3.71,9.22,3.7,1.18,.27,4.65,.83,7.44-.22,9.24,0,2.29,.29,2.29,.29c0,0,3,.61,4.84,1.13,1.84,.53,1.87-2.07,4.44,1,2.57,3.07,2.83,5.24,3.28,6.14,.45,.89,.47,1.47,1.31,1.69s1.59-.04,2.09-.3,1.84-.36,2.28-2.15c.44-1.79-.16-2.04,.85-2.62s.79-2.18,3.26-3.96c2.47-1.78,2.9-2.51,3.52-3.01s1.49-1.21,1.95-1.71,.97-.83,1.72-1.17,.33-.39,1.2-.8,2.09-2.31,2.09-2.31c0,0,2.09,.55,2.53,.77s3.4,6.79,3.4,6.79l3.43,2.11,12.87,.18-4.22-9.32-1.23-6.56s9.5-5.37,10.28-6.54c.78-1.17,2.55-4.76,2.55-4.76,0,0-7.27-8.13-6.81-10.17,.47-2.03,2.22-9.84,2.22-9.84l6.96-18.35s2.24-6.12,1.39-11.55c-.75-4.78-3.07-10.19-4.45-10.83-1.38-.65-.54-.84-4.67,.55-6.02,2.03-17.59,2.5-19.68,.53-4.1-3.86-21.03-9.52-22.79-10.01-5.98-1.66-14.49-3.18-15.74-3s-5.79-5.54-5.79-5.54c0,0-4.97-5.73-6.75-10.64l-2.79-8.44s-8.75-3.08-12.97-.66c-4.22,2.42-7.9,4.79-7.9,4.79l-2.42,1.19Z" style="fill: none;"/>
    </clipPath>
  </defs>
  <g id="c" data-name="TEXT">
    <g style="clip-path: url(#d);">
      <g style="clip-path: url(#e);">
        <path d="M170.33,112.25l2.47,20.08,8.97,12.06s-1.67,9.38-1.85,10.52c-.17,1.14-.77,10.87-.77,10.87,0,0-2.57,8.49-3.58,9.75s-3.67,5.16-4.31,7.13c-.64,1.97-3.3,7.66-5.01,9.88-1.72,2.22-1.83,3.18-4.2,5.58-2.37,2.4-1.47,3.29-6.65,5.77-5.18,2.48-7.98,3.75-10,4.48s-11.98,3.24-13.83,3.43,2.45,.4-6.86,.34-9.85,.36-14.93-.51c-5.08-.86-17.54-.56-17.54-.56,0,0-11.14-4.04-14.02-5.57-2.88-1.53-3.47-1.53-7.07-3.9-3.6-2.37-4.62-3.49-7.56-5.45-2.94-1.95-4.61-2.9-5.63-2.83s-6.63-.38-6.63-.38c0,0-2.63-1.06-4.37-2.42-1.74-1.36-3.31-4.46-3.38-5.47-.07-1.01,1.79-5.46,1.79-5.46l5.74-2.41-.66-10.74,.49-6.99-.24-4.14-8.24,9.72-3.82,5.31,2.92,8.1s-.74,5.62-2.92,6.2c-2.18,.58-4.62,1.37-4.62,1.37l-6.74,1.77s-1.42-2.05-3.3-2.67c-1.88-.62-1.91-.23-3.35-.4s-1.85,.19-3.01,.11-2,.04-3.91-.48-3.35-1.89-4.4-2.33-4.13-1.94-4.13-1.94c0,0-1.36-1.93-2.61-2.04s-.98,.27-3.34-.1c-2.36-.37-1.46,.22-3.64-.4s-1.81,1.29-4.25-1.88c-2.44-3.18-3.53-.75-4.24-4.36s-.34-6.86-.55-7.73c-.21-.86-4.57-.3,1.59-3.95,6.16-3.65,7.58-3.58,9.03-3.7s1.86-2.27,5.95-.84c4.1,1.44,7.89,1.38,7.89,1.38,0,0,6.24-5.11,6.35-5.77,.12-.66-1.4,.34,2.03-5.3,3.43-5.63,5.68-8.57,5.68-8.57l.5-1.53,2.5-11,.92-10.57,.69-11.24-.95-11.23,4.33-7.78,1.02-9.5,13.84,.05s34.19,10.72,49.31,16.4c15.12,5.68,30.99,8.18,42.16,11.83,11.17,3.65,30.95,10,30.95,10Z" style="fill: #ede7dd;"/>
        <path d="M171.59,117.51l5.04-20.87,2.94-17.51-2.35-22.61-12.07-21.42-8.7-6.81-6.71-3.18-14.32,1.88s-10.51-.65-11.83-.88-10.34-5.81-10.92-6.35-11.75-10.59-11.75-10.59l-6.63-.38s-7.86,2.79-9.47,3.46-7.74,3.63-7.74,3.63l-5.27-2.71-3.33-7.44s-2.14,1.49-3.96,2.28c-1.82,.8-7.06,1.57-9.55,4.98-2.49,3.41-2.95,5.44-4.3,8.97-1.35,3.53-1.68,8.19-1.91,9.5-.23,1.31-1.39,3.52-2.56,4.13-1.17,.61-4.7,2.38-4.7,2.38,0,0,1.55,2.04-1.36,4.18-2.91,2.14-5.66,7.17-5.66,7.17,0,0-1.5,7.37-1.78,9.47-.29,2.09-1.07,6.92-1.07,9.98,0,3.05,1.74,11.09,1.74,11.09l132.2,42.17,6.03-4.51Z" style="fill: #ede7dd;"/>
        <circle cx="113.92" cy="74.54" r="18.9" style="fill: #fff;"/>
        <ellipse cx="70.15" cy="62.13" rx="17.39" ry="18.34" transform="translate(-10.68 109.54) rotate(-71.92)" style="fill: #fff;"/>
        <path id="f" data-name="path1991-7-3-1-4-2-3" d="M173.34,110.73c2.05-5.28,3.56-10.3,5.7-18.07,1.23-3.81,1.5-8.26,1.56-10.68-.08-12.51,.35-24.24-6.42-36.01-4.71-8.18-7.41-13.61-15.48-18.68-12.49-7.8-22.82-1.74-37.31-2.75-5.95-1.66-9.55-5.14-12.6-9.01-2.95-3.74-4.16-7.54-9.72-8.77-5.68-1.26-10.42,1.35-15.6,3.3-1.46,.55-5.37,3.86-6.81,3.72-.64-.06-1.23-2.1-1.59-2.62-1.57-2.24-2.8-7.29-6.46-7-2.63,.21-5.26,1.74-7.34,3.2-3.25,2.21-5.18,4.03-7.85,7.64-1.54,2.33-3.39,4.98-4.31,7.63-1.06,3.03-.95,6.47-2.04,9.47-.82,2.25-4.03,4-5.57,5.88-3.16,3.87-5.84,9-8.1,13.44-1.83,3.58-2.29,7.59-2.86,11.59-.45,3.15,.04,6.81-1.16,9.78-.67,1.65-3.35,1.98-4.63,1.83-4.97,.31-7.82,1.22-7.94,2.5,2.87,.94,6.3-.2,9.44-.18,4.83,.53,6.97,2.39,4.27,6.24-2.03,3.1-.72,7.63-2.38,8.9-1.11,.85-5.08,.89-6.4,1.01-2.65,.24-5.6,.64-7.91,2.06-7.46,4.22,6.62,.68,14.3,.09,.19,4.18-.5,8.66-.8,12.86,.41,12-2.81,26.43-9.19,36.6-2,3.18-4.81,8-8.38,9.6-2.72,1.22-5.28-.73-7.96-1.19-4.78-.82-11.31,.74-14.44,4.62-3.83,4.75-3.11,11.38-.07,16.26,1.06,1.71,4.65,6.18,6.92,4.51l.32,.1c1.06,2.48,5.85-.5,7.97,.22,1.8,.61,2.99,3.39,4.43,4.64,2.79,2.42,12.12,4.71,15.08,2.01,1.61,1.71,3.14,3.91,5.45,4.72,5.31,1.86,12.97-2.91,15.14-6.74-1.04,5.19,2.27,8.26,7.11,10.34,2.84,1.29,5.68,.52,8.72,1.15,2.5,1.23,4.31,4.02,6.54,5.67,3.91,2.89,8.29,5.06,12.79,6.88,6.59,2.66,13.93,3.59,20.91,4.5,10.85,1.42,22.35,2.89,33.25,.97,8.46-.68,14.02-2.07,20.66-5.82,4.5-3.34,10.08-6.82,14.39-13.12,.71-.95,2.28-3.35,2.92-4.32,2.59-3.91,4.73-7.89,6.5-12.21,4.26-10.4,9.6-24.53,5.75-35.89-2.38-7.01-8.83-11.29-10.45-18.8-.81-3.74,.35-8.53,1.66-12.04h0Zm-36.89-13.43c.14-4.79,3.25-9.91,4.01-14.77,.37-2.34,0-6.24,1.2-8.29,1.32-2.27,4.83-3.75,6.56-5.96,7.35-9.38,9.44-20.16,1.6-30.14-1.42-1.81-3.46-.41-5.26,.05-4.37,1.11-8.84,2.36-13.37,2.39-5.92,.04-10.02-4.46-15.33-6.61-6.83-2.78-13.97-5.29-21.17-6.9-2.55-.57-5.25-.28-7.76-.86-1.94-.45-6.82-5.57-6.42-7.69,.33-1.75,3.06-3.54,4.42-4.49,4.02-2.5,9.25-5.96,15.19-2.98,2.41,1.21,4.44,5.21,6.12,7.11,3.39,3.82,8.62,7.41,13.47,9.21,10.19,3.32,22.48-1.43,29.94-.42,7.46,1.01,12.71,7.09,14.7,10.3,5.43,8.78,3.21,23.86-1.27,32.76-2.79,5.53-7.57,8.85-11.48,13.35-.99,1.14-3,3.01-3.05,4.6-.11,3.19,3.82,3.54,6.37,3.13,4.87-.78,8.82-2.27,12.7-6.69,2.31-2.65,4.86-5.87,6.11-9.19,1.53-4.08,1.61-8.57,2.77-12.73,2.04,2.52,1.55,8.25,1.61,11.37,.07,3.57,.46,7.92-.44,11.39-1.97,7.63-9.72,14.58-15.96,18.77-5.25,3.42-12.48,5.02-18.61,8.44-4.71,3.62-3.61,10.81,3.03,9.86,6.77-.96,12.5-3.7,18.35-7.11,2.27-1.32,3.96-4.37,6.54-4.86-.8,2.45-2.04,5.09-2.14,7.69-.09,2.54,1.15,5.36-.34,7.91-.76,1.3-3.37,3.29-4.43,4.4-4.83,5.03-7.79,8.48-12.5,13.36,0,0-9.79-7.71-15.46-10.11-3.18-1.34-10.1-2.26-10.1-2.26l-4.13-.2-6.1-4.89,6.88-9.29c4.8,.27,9.72,1.25,12.91,3.63,1.22-.52,2.39-1.35,1.94-2.6-.79-2.22-14.88-5.24-14.88-5.24,2.97-2.07,5.64-4.06,8.07-6.81,1.27-1.44,2.23-3.88,3.77-4.97,2.85-2.01,7.15,.84,10.13-.32,1.9-.74,1.41-2.32-.31-2.83-2.5-.75-5.3-.51-7.87-.51M62.3,10.5c3.81-3,6.26-2.38,6.26-2.38,1.66,2.5-.86,3.23-3.53,4.39-2.95,2.06-4.15,3.47-4.94,4.39-2.43,2.83-3.86,5.96-4.61,8.69-.77,2.84,.93,8.3,3.57,8.04,5.77-.57,13.05-7.67,21.1-5.18,12.15,3.75,7.44,19.39,11.09,20.07,2.68,.5,1.99-17.78,10.02-14.8,1.84,1.05-7.46,14.32-6.58,21.55,4.91-6.2,10.95-18.49,13.66-18.43,8.58,2.58-9.9,10.05-5.49,11.6,1.71,.6,9.86-7.74,24.81-4.53,1.42,1.1,5.23,9.49,6.17,10.97,5.3,9,12.62,9.94,13.9-.38,.69-1.18,.95-2.84,1.08-4.19,.23-2.5-.37-4.94-.19-7.41,1.72,1.41,2.31,3.43,2.94,5.51,2.64,8.66-3.35,16.92-9.39,22.81l-.63-.21,.08-3.47c-3.48,.07-3.22,3.58-3.34,6.25-.31,5.04-.13,8.59-1.38,11.78-.75,1.66-1.13,2.72-5.25,2.94-4.61,3.76,4.11,5.31-.38,7.5-.34,.89-5.64,1.55-6.59,1.83-5.09,1.52-10.37,1.85-15.18,4.34-1.15,.59-2.93,.82-3.74,1.91-1.03,1.4,.72,2.76,2.07,2.67,2.29-.15,5.12-1.58,7.84-2.6,7.42-3.03,13.48-4.73,14.16-3.86,1.6,2.05-8.55,12.58-12.79,11.47-4.75-.27-21.87-.97-16.76,.99,.65,1.78,17.08,2.29,18.84,2.91-.31,.39-1.88,2.68-6.57,4.5-5.54,.95-16.3,1.79-22.67-1.8-6.38-3.59-11.62-7.88-12.2-13.19-.35-3.2,1.47-4.88,4.3-6.22,3.01-1.43,3.49,4.06,9.77,5.77,7.15,1.94,9.83-.34,10.81-3.01,1.51-6.18-10.87-12.58-9.3-19.92,2.08,3.34,4.31,7.54,7.97,9.56,1.86,1.02,4.17,1.25,6.2,1.65,10.86,2.14,22.42,.59,26.53-11.02,1.66-4.68,1.78-9.58-.14-14.3-1.33-3.25-4.02-9.09-8.25-11.56-3.84-2.24-8.3-2.52-13.16-1.93-2.66,.32-5.34,2.04-7.6,3.4-9.23,5.54-13.94,16.52-15.06,27.1,.15,5.68,7.54,8.38,4.89,13.23-2.65,4.85-9.12-3.22-13.02-4.11-3.9-.89-15.49-3.4-16.68-6.71-2.53-3.84,8.35-3.49,14.33-7.25,6.23-2.53,9.51-11.63,9.47-19.12-.02-2.98-.4-4.72-1.94-7.33-1.85-3.12-5.27-7.89-9.31-7.88-.49-1.96-3.5-2.89-5.38-2.81-4.62,.2-10,2.07-13.86,4.57-7.08,4.58-11.5,19.77-5,26.45,3.94,4.05,9.68,5.59,15.33,6.55-6.28,1.36-14.08,3.75-11.86,9.23,2,4.94,7.28,3.11,12.7,3.52,5.42,.42,8.39,9.48,3.99,12.41-17.59,7.39-30.89-3.21-30.89-3.21l-7.71-6.74c-.18-1.93,7.23,1.76,11.54,2.28,2.79,.62,6.48,1.95,5.9,.26-.39-.52-3.05-2.61-7.92-3.15-8.18-.91-8.97-2.93-9.45-3.44-1.51-1.58-1.57-3.9-1.19-7.13,.37-3.12,1.17-5.68,1.17-5.68,4.4,.12,17.08,10.63,17.26,9.89,.18-.74-.63-1.89-2.69-3.77-3.18-2.45-8.63-6.34-8.63-6.34-3.92-2.62-5.01-3.07-5.69-9.84,0,0,1.35-9,6.38-6.04,6.25,3.68,8.11-.79,5.49-3.43-2.83-1.92,.41-13.97,3.75-17.56,3.34-3.58,4.95-.83,5.68-3.44,.81-2.25-3.18-1.02-3.95-1.42-1.01-.53-.95-2.56-1.01-3.52-.6-8.84,3.73-17.46,10.87-22.66h0Zm57.99,47.42c13.59,6.36,15.47,25.89,1.22,32.37-5.23,2.37-13.86,.44-18.84-1.95-5.35-2.56-7.08-10.06-6.29-15.32,1.54-10.23,13.16-20.14,23.91-15.11m-46.49-12.9c3.49,3.05,7.71,4.53,10.51,8.48,1.68,2.37,2.67,5.8,2.45,8.69-.22,2.89-1.07,5.75-2.57,8.25-5.46,9.14-16.53,8.31-24.49,3.82-1.72-.97-3.94-1.76-5.2-3.33-3.04-3.79-2.48-11.48-.25-15.51,1.57-2.84,3.7-5.59,6.54-7.25,4.13-2.41,8.56-1.92,13.01-3.16m-32.96,4.23c-3.51,5.67-4.39,10.79-7.3,16.08-2.06-3.43,5.94-21.9,10.05-25.21,.61-.74,3.4-3.07,4.57-2.68,1.46,.65-3.81,6.13-7.32,11.81Zm74.14,13.61c-7.94-6.47-19.89,3.09-11.55,11.75,9.43,6.01,18.76-4.98,11.55-11.75Zm-55.49-14.7c.24,.08,0,.17-.14,.07l.14-.07m10.48-.03c-9.35-4.2-19.67,8.18-7.02,14.79,6.57,3.16,17.81-7.23,7.02-14.79Zm17.4,10.3l.04,.24-.04-.24m67.39,93.1s2.63-5.55,10.72-7.91c9.08-5.13,15.41,1.45,13.84,3.59-.77,1.05-3.73,.79-4.91,.89-3.76,.3-10.72,3.14-9.4,8.16,1.56,5.95,9.39,1.28,12.89,4.47,1.82,1.67-1.33,8.6-1.99,10.63-4.34-2.86-7.44-3.7-12.46-1.9-1.84,.66-4.06,1.54-4.65,3.65-1.62,5.83,5.33,5.43,8.61,7.12,1.15,.59,2.86,1.45,2.84,2.93-.02,1.63-3.49,7.94-5.31,7.69-1.19-.16-2.37-1.71-3.38-2.33-3.06-1.87-9.16-4.05-12.48-1.73-5.53,3.87,4.92,10.36,3.83,14.81-.48,1.94-7,5.23-8.87,4.29-1.39-.7-1.56-3.69-2.28-4.98-2.56-4.55-6.16-6.97-10.48-6.37,0,0-2.73-.05-3.49,4.1-.23,2.91,2.72,7.42,1.02,10.12-1.33,2.11-6.43,1.6-8.57,1.4,.15-4.32-.69-8.94-3.71-12.2-2.17-2.35-4.89-3.44-7.32-.55-2.59,3.08,.46,9.86-3.12,12.17-2.02,1.31-7.16-.74-9.4-1.17,.02-2.34,1.46-4.15,1.33-6.56-.08-1.49-.27-3.02-.75-4.44-.35-1.04-.87-2.05-1.66-2.83-.57-.57-1.31-.93-2.04-1.26-7.81-3.42-5.22,9.73-9.62,11.72-2.12,.96-7.33-2.93-9.22-3.96,2.37-3.53,5.83-12.01,.64-14.83,0,0-1.71-.81-3.11-.51-4.7,1.01-7.28,6.19-12.26,5.44l-5.31-8.38c3.07-.85,6.9-1.26,9.51-3.22,3.41-2.56,4.63-7.91,.13-10.23-3.29-1.7-9.37,.97-11.82-2.05-1.52-1.88,.56-7.22,1.19-9.29,4.72,2.08,7.48,4.84,12.88,1.96,4.04-2.15,4.46-9.93-.33-11.5l-2.22-2.82c.94-1.7,3.18-4.33,5.46-3.92,1.21,.22,1.47,2.57,1.83,3.5,.96,2.49,2.23,4.83,5.11,5.3,4.33,.7,7.61-7.16,4.08-9.29l.92-3.89,4.62-.24c-.08,2.99-.95,6.24,.61,9.07,1.22,2.22,3.92,3.61,6.11,1.76,2.23-1.88,2.15-6.86,4.3-8.07,.96-.54,2.05,.51,2.78,1.04,2.22,1.61,4.4,3.41,3.96,6.54-.45,3.21-7.56,4.23-10.11,4.81-7.87,1.79-18.42,3.6-21.23,12.58-3.25,10.37,5.28,18,13.75,22.12,16.82,8.18,39.75,7.38,56.85,.35,2.25-.93,3.36-2.72,4.91-4.46,4.74-5.31,8.51-13.52,8.1-20.78-.17-3.98-1.51-8.18-1.29-10.56h0Zm-50.55-12.55c-2.04,.53-2.95-.93-9.72-1.97,2.99-2.03,9.25-1.19,13.05-5.75,4.26-.37,5.58-3.08,9.15-.21l-.73,1.16c-6.06-1.83-6.97,5.91-11.75,6.77h0Zm30.85,8.91c.62-3.88-2-8.25,.32-10.83,6.33,3.7,13.37,8.31,15.24,11.8-1.61,1.09-2.92,1.53-4.47,3.01-2.59,2.48-3.77,6.35-6.5,8.69-4.03,3.46-8.41,4.35-11.4,9.24-2.04,3.35-1.56,12.94,4.4,10.89,2.14-.26,17.53-12.16,18.01-6.59,.68,7.85-18.63,12.87-21.67,13.9-2.99,1.01-37.58-2.64-45.81-5.73-3.18-1.94-8.73-5.53-8.68-9.74,.03-2.15,1.86-4.81,2.56-6.86,.78-2.25,1.41-5.29,3.54-6.59,1.16-.71,2.87-1.77,4.3-1.49,2.39,.48,3.86,4.98,2.53,6.9-1.74,2.51-6.93,.17-7.94,4.77-.73,3.36,5.74,8.08,8.81,6.55,1.75-.88,.17-6.86,.43-8.77,.95-6.92,5.99-13.32,13.05-13.92-.53,1.62-1.45,3.41-1.49,5.12-.09,3.91,3.47,6.67,7.16,5.28,3.55-1.34,7.22-8.48,5.36-12.04,2.37-4.08-1.73-8.59-2.51-12.46-.32-1.6,.85-2.95,1.36-4.35l11.45-.81-1.24,3.79c6.03,5.9-.69,16.18-4.63,21.22-2.08,2.66-5.31,5.07-3.66,8.88,3.03,7,9.98,.77,12.64-2.8,3.8-5.1,7.79-10.59,8.83-17.05h0Zm-60.48-37.41c2.72,.83,8.96,2.63,8.77,7.76-.52,2.15-1.39,2.87-3.18,2.97-.9,.05-2.41-.03-7.76-1.65-1.04-.32,1.99-4.12,.94-5.36-1.6,.69-1.37,6.4-4.17,4.14-1.48-.43-5.19-2.21-5.19-2.21-1.65-.67-1.54-2.27-.97-3.56,.61-3.39,4.62-4.56,11.56-2.08h0Zm-44.02-2.66c4.03-.04,5.03,3.81,7.78,6.17,3.32,2.77,7.2,6.21,10.59,9.08,7.87,6.66,10.1,10.15,15.64,11.25,7.9,1.57,9.98-1.45-3.49-6.47-3.88-1.45-7.83-10.58-6.34-10.37,2.35,.33,7.58,5.26,15.26,7.61,8.69,2.93,9.15-1.22,14.63,2.09,1.53,.92,8.92,2.12,3.53,5.01-5.39,2.9-22.31,5.39-30.28,13.24-2.62,2.58-3.61,6.3-6.06,8.86-1.88,1.96-4.36,3.3-6.25,5.3-2.63,2.77-4.66,6.15-6.64,9.37l-5.41-1.64-4.27,.27-2.34-4.65c3.17,1.04,6.23,2.49,9.64,1.54,3.95-1.11,6.61-4.19,2.81-7.54-3.26-2.87-8.8-3.88-12.79-5.35-1.46-.54-3.92-.7-4.92-2.03-1.08-1.43,2.41-5.47,3.28-6.62,1.81,1.11,3.45,2.35,5.3,3.42,3.84,2.22,7.56,5.4,12.22,5.41,8.41-.25,8.95-12.56-.64-14.11-3.15-1.48-7.1-2.58-9.75-4.84-.99-.84-1.85-2.37-2.24-3.69-.41-1.42,.12-3.25,.22-4.68,3.06,1.52,5.43,3.8,8.34,5.52,3.2,1.89,7.01,3.25,10.79,2.28,2.79-.71,2.83-2.99,.91-5.83-5.86-3.24-10-6.67-15.01-10.92-2.56-2.17-4.66-4.15-4.49-7.66m75.86,18.08c-1.41,2.23-1.7,6.78-3.33,6.78-.96,0-5.47-6.66-2.42-10.16,1.91,.2,5.62-.17,9.35-.79,.36,2.87-2.6,2.6-3.59,4.18Zm-67.32-14.84c-.65,.1-5.13,.61-1.61-2.86,1.39-1.37,.99-3.76,1.33-6.6,1.75,.5,4.44,3.68,7.21,4.19-3.09,4.7-4.7,4.94-6.93,5.27Zm88.06,63.97l.21,.42-.21-.42m-76.84-17.4l-1.24,7.99,.56,10.67c-3.37,2.2-5.16,3.74-7.04,7.14h0c1.67-6.71-1.83-9.94-1.77-14.92l9.5-10.89m2.05,2.65l.04,.24-.04-.24M6.81,177.35c2.4-.39,1.69-2.69,2.01-4.59,.54-3.25,1.5-8.04,4.4-10.07,5.27-3.69,13.2,2.21,13,8.06-.16,4.52-4.1,6.47-6.15,9.88,3.39,.02,6.27-3.78,7.85-6.53,.61-1.05,.8-2.97,1.95-3.57,6.4-3.33,11.15,5.73,9.54,10.82l-.32-.1-.67-4.86c-2.39,.36-4,4.08-5.12,6.12-.53,.97-.79,2.74-2.02,3.04-3.02,.73-5.18-2.55-7.79-3.02-1.62-.29-3.5,.87-5.1,1.09-2.82,.39-6.31-.6-8.81-1.92-1.97-1.03-2.88-4.73-4.7-5.19-4.37-1.11-14.02,2.33-15.14-4.73,3.13,.03,5.86-4.9,5.36-7.99-.26-1.65-2.23-1.54-3.4-1.02-.85,.38-1.54,1.06-2.33,1.55,.13-4.54,4.01-6.95,8.21-6.95,1.75,0,3.53,.75,5.2,.14l.32,.1c1.92,1.88,4.12,2.08,5.08,5.19,.58,1.88-1.36,4.49-1.75,6.39-.6,2.88,0,5.35,.36,8.16m3.5-12.85l.21,.42-.21-.42m46.11,27.99c-3.95,.04-8.38-1.21-10.5-4.72-2.26-3.74,1.21-7.55,4.34-8.49l6.16,13.21m-38.39-20.58c-3.78-2.93-9.79,6.73-6.06,8.94,2.94,1.74,8.01-6.41,5.33-7.78l.73-1.16m-26.39-1.62c-2.05-1.93-1.73-5.65,1.54-5.79l-1.54,5.79m45.78,9.7c.23,1.75-.69,3.66-2.61,3.7l2.61-3.7m-21.69-6.38c.39,2.21-.66,3.7-2.07,5.27l-.63-.21c.06-2.09,.86-3.76,2.39-5.17l.32,.1m-6.81,8.73l-.04-.24,.04,.24Z" style="fill: #534741;"/>
      </g>
    </g>
  </g>
</svg>