<?xml version="1.0" encoding="UTF-8"?>
<svg id="b" data-name="圖層 2" xmlns="http://www.w3.org/2000/svg" width="188.65" height="136.79" xmlns:xlink="http://www.w3.org/1999/xlink" viewBox="0 0 188.65 136.79">
  <defs>
    <clipPath id="d">
      <rect width="188.65" height="136.79" style="fill: none;"/>
    </clipPath>
    <clipPath id="e">
      <path d="M39.73,60.34l-3.96,1.12s-4.89-.2-5.14,1.69c0,0-3.87-3.64-7.5-2.97-3.63,.67-5.23,1.58-5.23,1.58l-7,.71-3.21,.27s-2.24,1.32-3.92,3.6l-1.66-.09-.91,4.31-.1,1.48-.64,6.32,21.5,16.17,36.79-7.79s-8.98-27.97-10.12-28.24-8.9,1.84-8.9,1.84Z" style="fill: none;"/>
    </clipPath>
    <clipPath id="g">
      <path d="M149.74,63.29l3.82,1.53s4.89,.32,4.93,2.22c0,0,4.23-3.21,7.77-2.16s5.03,2.12,5.03,2.12l2.65,2.97,3.97-.39s6.53-.63,6.96,3.48l1.66,.09,.45,4.38-.06,1.49-.03,6.35-23.09,13.81-35.76-11.64s11.89-26.86,13.05-27.01,8.66,2.77,8.66,2.77Z" style="fill: none;"/>
    </clipPath>
  </defs>
  <g id="c" data-name="TEXT">
    <g style="clip-path: url(#d);">
      <g style="clip-path: url(#e);">
        <path d="M-70.29-13.77L-77.57-.15l-9.7,6.12s-1.39,7.14-1.58,8c-.19,.86-2.44,7.95-2.44,7.95,0,0-.5,6.76-.13,7.93,.37,1.17,1.19,4.68,1.11,6.26-.08,1.58,.24,6.36,.85,8.42,.61,2.05,.43,2.76,1.46,5.13,1.03,2.36,.14,2.75,3.15,5.94,3.01,3.19,4.65,4.86,5.89,5.94s7.64,5.6,8.9,6.24-1.86-.39,4.79,2.13c6.65,2.52,6.91,2.96,10.77,3.75s12.64,4.42,12.64,4.42c0,0,9.05,.19,11.51-.11,2.47-.3,2.89-.14,6.11-.83,3.21-.7,4.25-1.22,6.88-1.8s4.08-.79,4.79-.47c.7,.33,4.82,1.55,4.82,1.55,0,0,2.17-.03,3.78-.52,1.61-.49,3.58-2.26,3.91-2.97,.33-.7,.22-4.38,.22-4.38l-3.43-3.29L.17,57.8l1.57-5.11,1.31-2.88,3.19,9.18,1.26,4.83-4.3,4.97s-1.02,4.2,.37,5.21c1.39,1.01,2.91,2.25,2.91,2.25l4.31,3.11s1.57-1.07,3.08-.99,1.42,.36,2.49,.64,1.26,.64,2.12,.91,1.41,.58,2.92,.73,2.91-.42,3.78-.45,3.48-.25,3.48-.25c0,0,1.5-1,2.42-.74s.62,.47,2.41,.85,.98,.56,2.7,.72,.93,1.42,3.54-.17,2.72,.43,4.22-1.94c1.5-2.37,2.13-4.79,2.52-5.35s3.34,1.04-.04-3.25c-3.38-4.29-4.41-4.64-5.41-5.12s-.7-2.13-4.01-2.23-6-1.18-6-1.18c0,0-3.03-5.36-2.94-5.86s.9,.63,.01-4.33c-.89-4.95-1.69-7.67-1.69-7.67l.06-1.22,1.25-8.52,2.25-7.78,2.6-8.2,3.77-7.73-.94-6.73,1.89-7.04-9.87-3.77S.11-9.09-12.22-9.2s-24.32-2.7-33.28-3.17-24.79-1.39-24.79-1.39Z" style="fill: #ede7dd;"/>
        <path d="M-72.63-10.38l2.15-16.25,2.72-13.28,7.89-15.46,14.49-11.93,8.07-2.46,5.65-.42,9.68,5.28s7.66,2.43,8.66,2.62,8.96-1.29,9.52-1.52,11.28-4.31,11.28-4.31l4.82,1.55s4.83,4.15,5.79,5.07c.96,.92,4.51,4.71,4.51,4.71l4.5-.48,4.42-4.38s1.11,1.65,2.19,2.71,4.6,3.06,5.43,6.17c.84,3.11,.61,4.68,.6,7.57,0,2.89-1.06,6.29-1.25,7.29s.02,2.89,.69,3.64,2.69,2.99,2.69,2.99c0,0-1.66,1.03-.18,3.35s2.06,6.66,2.06,6.66c0,0-.96,5.66-1.33,7.23-.37,1.57-1.14,5.22-1.98,7.4-.84,2.17-4.29,7.42-4.29,7.42L-69.58-5.51l-3.05-4.87Z" style="fill: #ede7dd;"/>
        <path id="f" data-name="path1991-7-3-1-4-2-3" d="M-72.01-15.68c-.03,2.86-.52,6.59-2.13,9.03-3.22,4.9-8.99,6.17-12.61,10.51-5.87,7.03-5.95,18.56-5.78,27.14,.07,3.56,.5,6.99,1.27,10.48,.19,.87,.64,3,.89,3.88,1.34,5.67,4.35,9.69,6.64,13.3,3.7,4.5,7.27,7.02,13.11,9.83,7.23,4.36,15.83,6.48,23.94,8.45,5.22,1.27,10.7,2.63,16.13,2.55,3.7-.06,7.42-.4,11-1.38,2.04-.56,4.1-2.05,6.22-2.24,2.34,.39,4.15,1.72,6.52,1.58,4.02-.15,7.22-1.42,7.91-5.4,.49,3.32,4.63,8.83,8.93,8.96,1.87,.06,3.57-1.08,5.18-1.86,1.37,2.73,8.64,3.67,11.29,2.71,1.37-.49,2.98-2.14,4.43-2.08,1.71,.07,4.3,3.5,5.74,2.03h.25c1.16,1.83,4.94-.37,6.17-1.3,3.5-2.64,5.84-7.16,4.42-11.6-1.16-3.62-5.39-6.53-9.01-7.26-2.04-.41-4.39,.28-6-1.34-2.1-2.12-2.78-6.32-3.33-9.14-1.75-8.99-.07-20.16,3.52-28.59,.94-3.07,1.68-6.45,2.96-9.38,5.3,2.53,14.36,8.93,10.2,3.87-1.25-1.65-3.25-2.74-5.07-3.64-.91-.45-3.73-1.57-4.28-2.48-.83-1.35,1.35-4.22,.75-6.99-.86-3.48,1.17-4.22,4.75-3.27,2.25,.85,4.37,2.6,6.67,2.73,.27-.95-1.51-2.38-4.97-3.97-.95-.24-2.77-1.22-2.79-2.57-.04-2.45,1.31-4.92,1.86-7.29,.7-3,1.47-5.99,1.16-9.04-.39-3.79-.89-8.17-2.07-11.8-.57-1.76-2.38-3.89-2.35-5.71,.05-2.44,1.07-4.86,1.15-7.31,.07-2.14-.52-4.53-.97-6.61-.9-3.3-1.78-5.13-3.49-7.6-1.08-1.61-2.53-3.42-4.35-4.3-2.52-1.21-4.79,2.05-6.52,3.21-.4,.27-1.38,1.56-1.85,1.43-1.06-.3-2.93-3.73-3.83-4.52-3.16-2.81-5.82-5.97-10.2-6.64-4.3-.65-6.21,1.72-9.34,3.57-3.23,1.92-6.76,3.4-11.45,2.95-10.6-3.27-16.28-10.42-27.33-8.3-7.14,1.39-10.56,4.52-16.16,9.04-8.06,6.52-10.98,14.99-14.48,23.88-.62,1.74-1.65,4.98-1.82,8.03-.61,6.12-.92,10.11-.91,14.43h0Zm29.97,.57c-1.83-.71-3.76-1.65-5.75-1.8-1.36-.11-2.14,.88-1,1.93,1.8,1.64,5.65,.8,7.12,3.01,.8,1.2,.81,3.2,1.32,4.57,.97,2.62,2.32,4.78,3.87,7.07,0,0-10.87-1.72-12.04-.36-.66,.77-.05,1.68,.67,2.38,2.93-.82,6.7-.16,10.19,.96l2.34,8.51-5.69,1.81-3-1s-5.18-1.25-7.81-1.17c-4.7,.15-13.79,2.95-13.79,2.95-2.01-4.77-3.17-8.04-5.22-12.95-.45-1.08-1.76-3.22-1.94-4.35-.36-2.23,1.3-3.89,1.93-5.72,.65-1.88,.49-4.1,.59-6.06,1.71,1.06,2.07,3.69,3.32,5.26C-63.69-6.04-60.36-2.51-55.81,.03c4.47,2.5,7.23-2.32,4.87-6.19-3.42-4.12-8.13-7.25-10.93-11.13-3.29-4.7-6.9-11.78-6.2-17.75,.32-2.72,1.79-5.71,2.82-8.23,.9-2.2,2.13-6.41,4.27-7.65-.32,3.29-1.5,6.5-1.53,9.83-.02,2.71,.91,5.71,1.82,8.23,1.55,4.21,3.95,6.36,7.2,8.26,1.71,1,4.6,1.83,5.4-.48,.4-1.14-.52-3.03-.91-4.11-1.55-4.28-4.04-7.96-4.51-12.67-.75-7.57,1.82-18.92,8.11-23.68,2.29-1.74,7.71-4.62,13.3-3.29,5.59,1.33,13.04,8.1,21.21,8.54,3.95,.05,8.66-1.06,12.13-2.85,1.71-.88,4.26-3.18,6.31-3.38,5.05-.49,7.82,3.41,9.99,6.3,.71,1.05,2.16,3.07,1.91,4.41-.3,1.62-5.19,3.92-6.69,3.71-1.95-.28-3.79-1.23-5.76-1.52-5.58-.83-11.35-1.01-16.98-.91-4.37,.07-8.53,2.15-12.73,.49-3.22-1.27-6.05-3.39-8.86-5.38-1.15-.82-2.22-2.38-3.73-1.48-8.33,4.95-9.8,13.21-7.15,21.91,.62,2.05,2.72,4.07,3.03,6.05,.29,1.79-1.04,4.46-1.43,6.23-.8,3.68,.01,8.17-1.21,11.62M34.62-56.51c3.65,5.67,4.36,13,1.5,19.13-.31,.67-.83,2.13-1.69,2.23-.66,.07-3.16-1.9-3.2-.07-.2,2.06,1.7,.54,3.1,4.01,1.4,3.47,.39,12.94-2.16,13.53-2.6,1.16-2.5,4.85,2.96,3.95,4.4-.73,2.88,6.06,2.88,6.06-2.35,4.63-3.24,4.66-6.76,5.44,0,0-4.95,1.27-7.89,2.14-1.99,.77-2.88,1.37-2.96,1.95-.08,.58,11.84-3.42,15.01-2.29,0,0-.13,2.05-.73,4.37-.61,2.41-1.29,4.04-2.81,4.75-.48,.23-1.6,1.45-7.68-.15-3.62-.96-6.09-.2-6.51,.06-.88,1.05,2.11,1.11,4.27,1.44,3.21,.82,9.5,.22,8.84,1.55l-7.35,2.68S11.1,18.15,.6,8.05C-1.73,4.75,2.88-.89,6.86,.31c3.98,1.19,7.23,3.95,10.01,.98,3.09-3.29-1.81-7.14-5.91-9.84,4.29,.87,8.8,1.35,12.72-.45,6.47-2.97,7.5-15,3.72-20.2-2.06-2.84-5.38-5.66-8.61-7.07-1.31-.57-3.71-.74-4.6,.52-2.87-1.12-6.63,1.34-8.8,3.05-1.82,1.44-2.57,2.57-3.4,4.69C-.1-22.69-.27-15.31,3.47-11.79,6.69-7.47,14.53-4.72,11.67-2.69c-1.76,2.03-10.7,.63-13.72,.19-3.02-.44-9.85,3.53-10.4-.65-.55-4.18,5.45-4.07,7.12-8.08,2.11-7.85,1.78-16.96-3.27-23.44-1.24-1.59-2.67-3.55-4.48-4.51-3.3-1.76-6.55-2.79-9.9-2.25-3.69,.59-7.21,4.01-9.05,5.96-2.67,2.83-3.93,6.36-4.03,10.14-.27,9.4,7.54,13.69,15.86,15.15,1.56,.27,3.27,.75,4.87,.53,3.16-.43,5.9-2.81,8.3-4.62-.9,5.66-11.47,6.82-12.1,11.63-.04,2.17,1.25,4.53,6.87,5.12C-7.32,3-5.47-.78-3.72,1.07c1.64,1.73,2.48,3.43,1.35,5.61-1.88,3.62-6.79,5.23-12.32,6.04-5.53,.8-12.96-2.75-16.64-4.95-2.84-2.59-3.32-4.65-3.44-5.01,1.42,.04,13.27,4.2,14.22,3.11,4.18,0-8.21-4.2-11.66-5.32-3.33-.38-7.66-10.67-5.95-11.69,.73-.44,4.57,2.45,9.02,6.64,1.66,1.47,3.28,3.27,4.87,4,.94,.43,2.56-.05,2.21-1.33-.27-1-1.48-1.65-2.14-2.39-2.74-3.09-6.41-4.79-9.62-7.27-.59-.46-4.19-2.39-4.18-3.12-2.6-2.79,4.04-1.5,1.79-5.45-2.88-1.29-2.86-2.15-2.93-3.54-.01-2.61,1.09-5.09,2.26-8.77,.65-1.94,1.8-4.36-.66-5.37l-.89,2.49-.51-.03c-2.68-5.85-4.67-13.38-.41-18.82,1.02-1.3,2-2.58,3.61-3.11-.55,1.81-1.66,3.38-2.18,5.22-.28,.99-.55,2.25-.38,3.28-1.92,7.7,3.54,9.05,9.79,4.1,1.07-.79,6.1-5.72,7.41-6.11,11.52,1.82,15.03,10.01,16.42,10.05,3.57,.11-7.54-10.29-.72-9.77,1.94,.7,2.87,11.11,4.66,16.88,2.61-4.91-.36-16.91,1.24-17.15,6.54,.09,1.02,12.91,3.07,13.3,2.78,.52,3.74-11.91,13.42-11.24,6.41,.45,9.65,7.5,13.6,9.49,1.81,.91,4.53-2.51,4.76-4.74,.22-2.15,.06-4.77-.89-7.46-.31-.87-.78-2.21-2.31-4.49-1.58-1.55-3.17-2.77-1.3-4.09,0,0,1.91,.23,3.8,3.41h0ZM-19.71-38.7c9.04-.62,14.59,9.63,12.87,17.33-.88,3.96-4.17,8.82-8.69,9.18-4.2,.33-10.89-.67-13.95-3.8-8.37-8.53-1.66-21.93,9.77-22.71m36.65,3.6c2.83,2.1,6.11,2.97,8.4,5.82,1.57,1.96,2.33,4.5,2.66,6.96,.48,3.48-1.24,9.11-4.45,10.97-1.33,.77-3.13,.73-4.62,.94-6.9,1-15.01-1.45-16.39-9.46-.38-2.2-.2-4.46,.44-6.58,.64-2.12,2.29-4.29,4.14-5.52,3.08-2.04,6.49-1.93,9.82-3.15m20.34,1.65c.94,.04,2.29,2.47,2.52,3.16,2.02,3.49,2.63,18.83,.22,20.71-.61-4.56,.16-8.45-.77-13.46-.94-5.01-3.18-10.37-1.97-10.42ZM-16.72-19.89c8.33-3.87,2.44-13.97-4.99-11.54-7,2.83-3.38,13.23,4.99,11.54ZM26.27-28.92l.08,.09c-.13,.04-.27-.1-.08-.09m-11.55,11.62c10.83-1.23,6.88-12.88-.93-12.46-9.76,2.42-4.61,12.91,.93,12.46ZM3.59-29.28l-.09,.16,.09-.16M-70,18.48c-.49,1.76-2.61,4.38-3.82,7.17-2.29,5.06-1.87,11.94,.05,17.03,.63,1.66,.92,3.24,2.27,4.52,10.24,9.71,26.35,16.58,40.58,15.39,7.17-.6,15.33-3.69,15.87-11.97,.47-7.17-6.55-11.36-11.66-14.8-1.66-1.12-6.44-3.8-5.88-6.21,.55-2.35,2.59-3.03,4.62-3.57,.66-.17,1.72-.63,2.26,.02,1.2,1.45-.23,4.97,.84,6.93,1.05,1.92,3.35,1.67,4.83,.43,1.89-1.59,2.16-4.14,2.93-6.29l3.23,1.44-.41,3.03c-3.1,.55-2.92,7.04,.35,7.74,2.18,.46,3.73-.86,5.1-2.37,.51-.57,1.34-2.17,2.26-1.99,1.73,.33,2.6,2.82,2.81,4.29l-2.36,1.4c-3.84-.2-5.68,5.45-3.39,8.1,3.05,3.54,5.78,2.33,9.71,2.15-.12,1.65-.11,6.02-1.71,6.94-2.58,1.48-6.18-2.09-8.98-1.79-3.84,.42-4.44,4.56-2.72,7.32,1.32,2.12,3.93,3.46,5.88,4.91l-6.08,4.5c-3.76-.83-4.17-5.23-7.24-7.24-.91-.6-2.35-.49-2.35-.49-4.47,.58-4.33,7.57-3.62,10.73-1.63,.21-6.41,1.55-7.66,.28-2.58-2.62,2.88-11.28-3.63-10.99-.61,.03-1.23,.09-1.8,.33-.77,.34-1.42,.92-1.96,1.56-.73,.87-1.29,1.92-1.75,2.95-.75,1.68-.22,3.37-.86,5.04-1.72-.31-5.94-.26-7.02-1.75-1.91-2.63,2.12-6.62,1.12-9.53-.93-2.73-3.17-2.69-5.36-1.62-3.05,1.49-4.92,4.55-6,7.66-1.58-.45-5.35-1.48-5.72-3.36-.47-2.39,2.87-4.79,3.51-6.92,.6-3.17-1.36-3.88-1.36-3.88-2.91-1.61-6.14-.88-9.21,1.66-.87,.72-1.81,2.8-3,2.92-1.59,.16-5.33-3.98-5.14-5.49,.44-3.47,9.67-5.22,6.8-9.5-1.73-2.57-6.67-2.69-9.36-2.2-.89,.16-2.16,.94-3.05,.73-1.37-.33-2.11-5.77-1.67-6.94,.4-1.06,1.85-1.2,2.83-1.31,2.81-.3,7.64,1.9,8.09-2.7,.16-1.66-1.18-2.9-2.3-3.88-3.08-2.66-5.52-2.92-9.39-2.08,.09-1.63-.25-7.43,1.5-8.12,3.37-1.31,7.66,4.16,10.41,.36,2.32-3.21-1.85-7.15-4.45-8.4-.82-.39-3-1.02-3.25-1.99-.53-1.96,5.79-4.9,10.85,1.25,5.11,3.9,5.46,8.58,5.46,8.58h0Zm39.45,4.97c-3.17-1.92-1.69-7.69-6.51-8.05l-.2-1.03c3.33-1.06,3.52,1.23,6.45,2.66,1.45,4.29,6.14,5.42,7.71,7.68-5.11-1.12-6.16-.33-7.46-1.27h0Zm-24.42-2.14c-1.04,4.88,.29,9.89,1.6,14.57,.91,3.28,4.15,9.62,8.23,5.47,2.22-2.26,.59-4.86-.16-7.33-1.42-4.67-3.38-13.84,2.54-16.38l.16-3.04,7.93,3.72c-.02,1.14,.44,2.43-.23,3.47-1.62,2.54-5.78,4.63-5.22,8.18-2.3,2.02-1.65,8.12,.51,10.05,2.24,2.01,5.54,1.02,6.55-1.79,.44-1.23,.28-2.76,.34-4.06,4.87,2.37,6.69,8.31,5.46,13.5-.34,1.44-3.11,5.26-2.11,6.37,1.77,1.94,7.67,.35,8.08-2.24,.55-3.55-3.79-3.32-4.34-5.58-.42-1.73,1.86-4.53,3.7-4.22,1.1,.19,2.02,1.42,2.66,2.24,1.16,1.51,.78,3.85,.71,5.67-.07,1.65,.51,4.05-.06,5.59-1.12,3.01-6.06,4.05-8.86,4.55-6.71-.06-32.35-6.98-34.2-8.52-1.89-1.57-14.25-10.46-11.61-15.86,1.87-3.84,9.56,8.88,11.01,9.65,3.68,3.1,6.66-3.6,6.12-6.54-.78-4.31-3.66-6.15-5.58-9.72-1.3-2.42-1.08-5.49-2.24-7.97-.69-1.47-1.51-2.15-2.35-3.37,2.29-1.97,8.57-3.31,14.1-4.21,.95,2.48-2.12,4.87-2.75,7.8h0ZM-1.62,11.31c5.62,.14,8.15,2.08,7.66,4.66,.06,1.07-.31,2.24-1.67,2.27,0,0-3.13,.25-4.3,.15-2.61,.84-.88-3.17-1.83-4.1-1.09,.6,.02,4.14-.81,4.08-4.26-.32-5.36-.67-5.98-.96-1.25-.57-1.67-1.32-1.45-2.99,1.27-3.7,6.21-3.26,8.38-3.11h0ZM30.45,21.52c-.85,2.55-2.89,3.38-5.31,4.22-4.74,1.64-8.63,2.95-13.69,3.64-2.15,1.49-2.75,3.12-.96,4.4,2.42,1.73,5.51,1.81,8.31,1.34,2.54-.42,4.86-1.39,7.45-1.63-.32,1.05-.45,2.5-1.13,3.4-.64,.84-1.67,1.69-2.61,2.02-2.51,.88-5.63,.58-8.28,.76-7.25-1.53-10.25,7.38-4.33,9.87,3.32,1.27,6.84,.03,10.19-.49,1.61-.25,3.12-.68,4.72-.98,.3,1.06,1.68,4.9,.51,5.62-1.08,.67-2.88,.11-4.06,.09-3.25-.05-7.47-.86-10.58,.29-3.63,1.34-2.58,4.27-.07,6.14,2.17,1.62,4.74,1.42,7.29,1.56l-2.95,2.67-2.97-1.37-4.3-.32c-.53-2.84-1.04-5.81-2.15-8.5-.8-1.94-2.2-3.58-2.99-5.5-1.04-2.5-.72-5.42-1.88-7.98-3.52-7.78-14.88-14.21-17.92-17.75-3.04-3.55,2.55-2.36,3.89-2.6,4.81-.84,4,2.23,10.99,2.54,6.11,.44,11.19-1.63,12.96-1.22,1.12,.26-4.2,5.68-7.37,5.64-10.98-.13-10.33,2.59-4.27,3.65,4.25,.74,6.8-1.13,14.23-3.71,3.21-1.11,6.91-2.5,10.04-3.55,2.6-.92,4.37-3.39,7.23-2.25M-29.94,9.57c2.48,1.47,5.02,2.75,6.44,3.14,1.21,3.33-3.83,6.84-4.52,6.57-1.16-.45-.12-3.77-.51-5.74-.27-1.4-2.45-2.02-1.41-3.96ZM20,15.82c2.11,.39,4.9-1.13,6.28-1.01-.54,2.12-1.48,3.71-.87,5.07,1.55,3.44-1.5,1.84-1.93,1.59-1.5-.85-2.58-1.46-3.49-5.66ZM-56.81,42.81l-.27,.24,.27-.24M2.69,51.55l3.77,10.36c-1.33,3.55-4.71,4.9-5.36,10.13h0c-.41-2.94-1.26-4.53-3.05-7.02l3.33-7.45,1.31-6.03m-2.19,1.32l-.09,.16,.09-.16m27.74,24.68c1.03-1.9,2.14-3.49,2.5-5.71,.24-1.46-.42-3.85,.51-5.03,1.54-1.95,3.17-1.49,5.05-2.3h.25c1.02,.91,2.5,.87,3.74,1.35,2.99,1.15,5.09,3.94,3.94,7.2-.42-.56-.73-1.24-1.23-1.74-.69-.69-2.06-1.3-2.7-.21-1.2,2.06-.61,6.33,1.62,7.16-2.74,4.72-8.67-.39-12.08-.8-1.42-.17-3.09,2.21-4.77,2.4-2.15,.25-4.9,0-6.8-1.06-1.08-.6-2.1-1.94-3.33-2.18-1.99-.39-4.43,1.36-6.38,0-.79-.55-.49-1.88-.6-2.72-.23-1.76-.36-4.85-1.96-5.76l-1.81,3.28h-.25c.25-4.08,6.13-9.23,9.77-5.09,.65,.74,.26,2.16,.4,3.08,.38,2.39,1.38,5.89,3.8,6.81-.52-2.99-2.79-5.46-1.66-8.73,1.46-4.22,8.74-6.24,11.47-2.16,1.51,2.24,.87,5.92,.37,8.38-.29,1.44-1.43,2.88,.17,3.82m1.04-10.11l-.27,.24,.27-.24m-40.53,7.25l8.02-7.71c1.97,1.53,3.39,5.2,.76,7.24-2.48,1.92-5.98,1.59-8.78,.48m32.99-4.09l.2,1.03c-2.29,.24-.92,7.43,1.66,7,3.26-.54,1.64-9.07-1.86-8.03m19.24,6.1l.5-4.55c2.29,1,1.49,3.73-.5,4.55m-35.27-5.68l.84,3.35c-1.36-.55-1.48-2.16-.84-3.35m17.2,1.42h.25c.7,1.44,.81,2.85,.28,4.35l-.51-.03c-.57-1.5-.91-2.86-.02-4.32m2.54,7.93l-.09,.16,.09-.16Z" style="fill: #534741;"/>
      </g>
      <g style="clip-path: url(#g);">
        <path d="M266.97,1.24l5.8,14.31,9,7.12s.63,7.25,.72,8.12c.1,.87,1.59,8.17,1.59,8.17,0,0-.21,6.77-.71,7.9-.49,1.13-1.68,4.53-1.77,6.11-.08,1.58-.91,6.3-1.74,8.28-.83,1.98-.72,2.7-1.99,4.95-1.27,2.24-.43,2.72-3.76,5.57s-5.14,4.35-6.49,5.28c-1.35,.94-8.19,4.76-9.52,5.27s1.89-.19-4.99,1.61c-6.88,1.8-7.19,2.22-11.1,2.59-3.92,.37-13.04,3.06-13.04,3.06,0,0-9.01-.77-11.44-1.33s-2.86-.44-5.98-1.47c-3.12-1.03-4.1-1.66-6.65-2.52s-3.98-1.22-4.71-.97-4.96,1.04-4.96,1.04c0,0-2.15-.26-3.7-.92-1.55-.66-3.32-2.63-3.57-3.36s.24-4.38,.24-4.38l3.75-2.91-2.62-7.79-1.02-5.25-.99-3.01-4.15,8.8-1.76,4.67,3.75,5.39s.57,4.29-.92,5.15c-1.49,.86-3.13,1.93-3.13,1.93l-4.61,2.64s-1.45-1.23-2.96-1.31-1.45,.21-2.55,.37-1.33,.51-2.2,.68-1.47,.43-2.98,.42-2.85-.73-3.71-.85-3.43-.61-3.43-.61c0,0-1.38-1.16-2.33-.99s-.67,.4-2.48,.59-1.03,.45-2.76,.43-1.08,1.31-3.51-.55-2.75,.14-3.99-2.38c-1.24-2.52-1.61-4.99-1.94-5.59-.33-.59-3.43,.68,.39-3.23,3.82-3.91,4.88-4.14,5.92-4.52s.92-2.04,4.22-1.8c3.31,.25,6.09-.54,6.09-.54,0,0,3.58-5,3.54-5.51s-.97,.53,.44-4.31c1.41-4.83,2.49-7.44,2.49-7.44l.06-1.22-.34-8.6-1.42-7.98-1.72-8.42-2.93-8.09,1.65-6.59L158.95,.02l10.21-2.71s27.32,1.12,39.6,2.32C221.03,.83,233.22-.48,242.18,0c8.96,.48,24.8,1.24,24.8,1.24Z" style="fill: #ede7dd;"/>
        <path d="M268.95,4.86l-.42-16.38-1.3-13.49-6.21-16.2-13.14-13.4-7.76-3.3-5.57-1.02-10.18,4.22s-7.88,1.6-8.89,1.69-8.78-2.23-9.31-2.51-10.76-5.48-10.76-5.48l-4.96,1.04s-5.24,3.62-6.3,4.43c-1.05,.81-4.99,4.21-4.99,4.21l-4.42-.96-3.93-4.83s-1.28,1.52-2.46,2.47c-1.18,.95-4.89,2.55-6.05,5.56-1.16,3.01-1.1,4.59-1.4,7.46-.3,2.87,.38,6.37,.47,7.38s-.33,2.87-1.07,3.55-2.99,2.69-2.99,2.69c0,0,1.55,1.2-.18,3.35-1.72,2.15-2.75,6.41-2.75,6.41,0,0,.36,5.73,.56,7.33,.2,1.6,.58,5.32,1.19,7.57,.6,2.25,3.48,7.83,3.48,7.83l105.81,4.89,3.55-4.52Z" style="fill: #ede7dd;"/>
        <path id="h" data-name="path1991-7-3-1-4-2-3" d="M268.89-.48c.47-4.3,.58-8.3,.63-14.45,.15-3.05-.53-6.38-.96-8.18-2.54-9.21-4.54-17.94-11.87-25.28-5.09-5.09-8.16-8.57-15.11-10.7-10.75-3.27-17.17,3.24-28.05,5.37-4.71-.05-8.06-1.9-11.07-4.14-2.91-2.17-4.56-4.73-8.91-4.54-4.43,.2-7.41,3.06-10.85,5.52-.97,.7-3.19,3.91-4.28,4.09-.48,.08-1.33-1.31-1.69-1.61-1.6-1.34-3.51-4.82-6.15-3.88-1.9,.68-3.54,2.33-4.78,3.81-1.96,2.27-3.02,4-4.27,7.18-.67,2.03-1.51,4.34-1.66,6.47-.18,2.44,.58,4.96,.37,7.39-.16,1.82-2.18,3.74-2.94,5.43-1.56,3.48-2.52,7.79-3.31,11.51-.64,3-.18,6.05,.19,9.11,.3,2.41,1.38,5.01,1.08,7.44-.16,1.35-2.08,2.12-3.05,2.26-3.6,1.22-5.52,2.45-5.36,3.42,2.3,.12,4.6-1.4,6.93-2,3.67-.57,5.61,.38,4.38,3.75-.88,2.69,.98,5.77,.01,7.03-.65,.84-3.57,1.66-4.52,2.01-1.9,.7-4,1.58-5.42,3.09-4.67,4.59,5.02-.81,10.56-2.77,.97,3.04,1.35,6.49,1.95,9.64,2.68,8.76,3.17,20.04,.48,28.8-.84,2.74-1.96,6.85-4.27,8.73-1.77,1.44-4.04,.51-6.1,.7-3.68,.34-8.19,2.79-9.73,6.27-1.88,4.26-.03,9.01,3.17,12,1.12,1.05,4.65,3.64,5.99,1.95h.25c1.28,1.63,4.22-1.51,5.92-1.4,1.45,.1,2.87,1.91,4.18,2.54,2.54,1.23,9.87,1.07,11.51-1.5,1.52,.94,3.09,2.26,4.95,2.4,4.28,.32,8.99-4.71,9.82-7.97,.26,4.03,3.31,5.64,7.29,6.21,2.35,.39,4.29-.74,6.65-.88,2.08,.41,3.97,2.11,5.94,2.89,3.46,1.36,7.11,2.09,10.79,2.54,5.38,.66,10.98-.11,16.3-.82,8.28-1.11,17.05-2.3,24.7-5.87,6.1-2.18,9.92-4.31,14.07-8.39,2.65-3.35,6.08-7.03,8.01-12.53,.34-.84,1.01-2.92,1.3-3.76,1.14-3.39,1.93-6.75,2.37-10.29,1.08-8.51,2.21-19.99-2.87-27.59-3.14-4.7-8.74-6.57-11.43-11.79-1.34-2.6-1.43-6.36-1.16-9.21h0Zm-29.86-2.59c-.85-3.56,.43-7.95,.03-11.69-.19-1.8-1.24-4.6-.76-6.35,.53-1.93,2.82-3.72,3.66-5.69,3.56-8.37,2.96-16.73-4.79-22.54-1.4-1.05-2.63,.39-3.87,1.08-3,1.68-6.05,3.49-9.38,4.41-4.36,1.2-8.27-1.3-12.61-1.83-5.59-.69-11.34-1.13-16.98-.89-1.99,.08-3.93,.83-5.89,.9-1.52,.05-6.13-2.76-6.26-4.4-.11-1.36,1.55-3.22,2.37-4.18,2.47-2.64,5.64-6.23,10.6-5.2,2.02,.42,4.3,2.96,5.92,4.03,3.25,2.14,7.82,3.75,11.76,4.12,8.17,.43,16.29-5.51,21.99-6.24,5.7-.73,10.78,2.71,12.88,4.68,5.74,5.4,7.1,16.96,5.56,24.4-.96,4.63-3.83,8.02-5.82,12.12-.5,1.03-1.61,2.81-1.34,3.99,.55,2.37,3.51,1.85,5.32,1.04,3.43-1.54,6.05-3.42,8.04-7.45,1.18-2.41,2.42-5.29,2.68-7.99,.32-3.31-.51-6.63-.48-9.93,2,1.46,2.78,5.77,3.44,8.06,.76,2.62,1.91,5.74,1.93,8.49,.06,6.02-4.28,12.67-8.05,17-3.19,3.56-8.21,6.17-12.05,9.91-2.75,3.6-.52,8.68,4.19,6.67,4.8-2.05,8.48-5.21,12.11-8.88,1.41-1.43,2.05-4.01,3.86-4.88-.1,1.96-.5,4.15-.05,6.09,.43,1.89,1.91,3.72,1.32,5.9-.3,1.11-1.83,3.09-2.39,4.12-2.56,4.67-4.06,7.79-6.56,12.33,0,0-8.74-3.75-13.4-4.39-2.61-.36-7.89,.33-7.89,.33l-3.08,.67-5.46-2.4,3.23-8.21c3.59-.75,7.41-1.01,10.24,.12,.79-.62,1.49-1.47,.92-2.3-1.02-1.48-12.01-.91-12.01-.91,1.78-2.11,3.35-4.11,4.6-6.62,.65-1.31,.87-3.3,1.79-4.41,1.7-2.05,5.43-.8,7.4-2.24,1.25-.92,.58-1.99-.79-2.02-1.99-.05-4.01,.68-5.91,1.18m-71.86-49.28c2.21-2.96,4.14-2.99,4.14-2.99,1.72,1.51,0,2.55-1.73,3.93-1.76,2.1-2.38,3.38-2.77,4.22-1.23,2.57-1.67,5.16-1.67,7.32,0,2.24,2.33,5.93,4.23,5.22,4.14-1.56,8.1-8.24,14.53-8,9.7,.36,9.33,12.82,12.15,12.6,2.08-.17-2.06-13.5,4.46-12.9,1.56,.41-2.66,12.03-.58,17.19,2.39-5.55,4.41-15.8,6.42-16.29,6.84,.2-5.31,9.37-1.75,9.63,1.38,.1,5.74-7.66,17.39-8.26,1.27,.53,5.74,5.96,6.72,6.86,5.69,5.58,11.27,4.82,10.17-3.04,.28-1,.14-2.29-.04-3.3-.32-1.89-1.25-3.57-1.61-5.42,1.55,.7,2.38,2.07,3.26,3.48,3.66,5.86,.88,13.14-2.4,18.67l-.51-.03-.63-2.57c-2.55,.74-1.67,3.27-1.22,5.27,.77,3.77,1.6,6.36,1.32,8.96-.22,1.37-.29,2.23-3.29,3.21-2.65,3.69,4.09,3.1,1.21,5.61-.07,.72-3.85,2.26-4.49,2.66-3.45,2.13-7.28,3.42-10.33,6.21-.73,.67-2,1.19-2.38,2.15-.48,1.24,1.08,1.89,2.06,1.56,1.66-.56,3.46-2.18,5.27-3.47,4.87-3.7,9-6.16,9.67-5.65,1.58,1.19-3.81,10.97-7.16,10.99-3.56,.74-16.32,3.62-12.16,4.05,.83,1.19,13.05-1.69,14.47-1.59-.15,.35-.85,2.35-3.95,4.62-3.89,1.8-11.66,4.55-17.07,3.17-5.41-1.38-10.13-3.51-11.61-7.31-.89-2.29,.12-3.89,1.94-5.44,1.93-1.65,3.38,2.31,8.34,2.32,5.65,.01,7.18-2.2,7.37-4.36-.11-4.85-10.51-7.12-10.8-12.84,2.2,2.05,4.67,4.71,7.77,5.47,1.57,.39,3.32,.1,4.9-.01,8.43-.57,16.65-4.01,17.37-13.38,.29-3.78-.58-7.41-2.94-10.51-1.62-2.13-4.76-5.91-8.37-6.89-3.28-.89-6.62-.21-10.09,1.19-1.9,.77-3.53,2.56-4.93,4.01-5.71,5.91-7,14.94-5.73,22.96,1.24,4.16,7.22,4.68,6.22,8.78-.99,4.1-7.36-.57-10.41-.45-3.05,.12-12.09,.56-13.62-1.64-2.62-2.33,5.47-4.23,9.12-8.19,4.09-3.1,4.71-10.46,3.19-15.97-.6-2.2-1.23-3.4-2.89-5.02-1.98-1.94-5.45-4.77-8.43-3.96-.75-1.35-3.16-1.43-4.52-1-3.36,1.06-6.96,3.51-9.31,6.12-4.31,4.78-4.56,16.85,1.56,20.48,3.71,2.2,8.24,2.21,12.6,1.79-4.36,2.25-9.64,5.56-6.92,9.16,2.45,3.24,5.98,.85,10.06,.08,4.08-.77,8.06,5.33,5.4,8.36-11.5,8.94-23.41,3.76-23.41,3.76l-7.02-3.44c-.51-1.39,5.68-.14,8.96-.61,2.18-.09,5.16,.15,4.4-.98-.39-.31-2.77-1.32-6.46-.75-6.21,.95-7.19-.38-7.65-.66-1.43-.86-1.93-2.56-2.29-5.02-.35-2.37-.26-4.42-.26-4.42,3.27-.78,14.69,4.45,14.68,3.87-.01-.58-.84-1.27-2.73-2.25-2.83-1.18-7.62-2.96-7.62-2.96-3.41-1.15-4.3-1.27-6.14-6.12,0,0-.79-6.9,3.51-5.72,5.34,1.47,5.82-2.19,3.36-3.62-2.47-.86-2.47-10.38-.71-13.69,1.75-3.3,3.48-1.59,3.5-3.66,.15-1.82-2.54-.12-3.19-.27-.85-.19-1.2-1.7-1.44-2.4-2.19-6.4-.71-13.61,3.52-18.86h0Zm52.14,23.46c11.28,1.99,16.54,16.02,7.31,23.62-3.38,2.79-10.13,3.07-14.28,2.3-4.45-.83-7.21-6.01-7.67-10.04-.89-7.85,5.71-17.45,14.63-15.87m-36.83-.29c3.18,1.56,6.58,1.81,9.43,4.17,1.71,1.41,3.12,3.75,3.53,5.92,.41,2.17,.35,4.45-.26,6.59-2.21,7.82-10.54,9.4-17.3,7.67-1.46-.37-3.26-.52-4.49-1.43-2.99-2.19-4.1-7.97-3.26-11.38,.59-2.41,1.62-4.86,3.39-6.64,2.57-2.59,5.93-3.11,8.96-4.9m-23.46,9.65c-1.46,4.88-1.1,8.83-2.19,13.3-2.2-2.12,.04-17.32,2.41-20.57,.3-.66,1.9-2.94,2.84-2.88,1.21,.19-1.6,5.28-3.06,10.16Zm61.51-1.92c-7.13-3.2-14.05,6.22-6.18,10.95,8.14,2.56,12.84-7.39,6.18-10.95Zm-47.98-2.57c.19,.01,.03,.13-.09,.08l.09-.08m12.5,.48c-7.72-1.24-12.88,9.93-2.25,12.29,5.47,1.03,11.7-8.86,2.25-12.29Zm10.09,1.56l.07,.17-.07-.17m68.13,55.27s.84-4.62,6.34-7.96c5.68-5.58,11.65-1.99,10.92-.09-.36,.93-2.59,1.32-3.45,1.63-2.71,.97-7.28,4.44-5.31,7.88,2.33,4.08,7.17-.92,10.39,.75,1.67,.87,.72,6.6,.64,8.23-3.77-1.25-6.22-1.25-9.56,1.07-1.22,.85-2.69,1.94-2.7,3.61-.04,4.62,5,2.94,7.76,3.54,.96,.21,2.4,.51,2.68,1.6,.31,1.21-1,6.54-2.39,6.72-.91,.12-2.09-.79-2.96-1.05-2.63-.77-7.55-1.17-9.54,1.2-3.31,3.95,5.68,6.66,5.76,10.16,.03,1.52-4.12,5.24-5.69,4.92-1.17-.24-1.88-2.41-2.67-3.22-2.79-2.84-5.92-3.92-8.98-2.62,0,0-2.02,.51-1.76,3.72,.41,2.19,3.48,4.93,2.76,7.26-.56,1.82-4.43,2.45-6.04,2.73-.74-3.21-2.28-6.45-5.15-8.26-2.07-1.3-4.28-1.57-5.5,1.04-1.3,2.79,2.29,7.18,.11,9.59-1.23,1.36-5.42,.87-7.16,1-.45-1.73,.25-3.35-.32-5.1-.35-1.08-.79-2.18-1.43-3.12-.47-.69-1.05-1.34-1.78-1.76-.54-.31-1.15-.43-1.75-.52-6.44-.97-1.92,8.21-4.77,10.54-1.37,1.13-5.99-.71-7.58-1.09,1.04-3.07,1.92-10.01-2.46-11.06,0,0-1.42-.26-2.39,.24-3.26,1.68-4.14,6.01-7.96,6.44l-5.57-5.12c2.1-1.23,4.83-2.29,6.37-4.26,2.01-2.57,1.84-6.75-1.93-7.57-2.76-.6-6.71,2.57-9.12,.83-1.49-1.08-1.02-5.43-.97-7.08,3.89,.6,6.47,2.09,9.88-1.11,2.55-2.39,1.32-8.21-2.52-8.41l-2.2-1.64c.36-1.44,1.49-3.82,3.24-3.97,.93-.08,1.59,1.6,2.04,2.22,1.2,1.64,2.61,3.12,4.82,2.89,3.33-.34,4.19-6.78,1.17-7.66l-.09-3.05,3.36-1.09c.54,2.22,.54,4.78,2.25,6.57,1.34,1.4,3.6,1.89,4.85,.09,1.27-1.83,.22-5.48,1.57-6.8,.6-.59,1.61-.03,2.25,.22,1.96,.75,3.92,1.64,4.21,4.03,.3,2.45-4.73,4.62-6.5,5.55-5.44,2.88-12.87,6.3-13.16,13.48-.34,8.29,7.46,12.22,14.52,13.58,14.02,2.69,30.76-2.44,41.98-11.01,1.48-1.13,1.93-2.67,2.73-4.26,2.44-4.86,3.6-11.65,1.85-16.92-.91-2.9-2.74-5.73-3.04-7.53h0Zm-39.75,.77c-1.4,.8-2.36-.1-7.55,.47,1.8-2.08,6.59-2.71,8.48-6.82,3.07-1.12,3.5-3.37,6.7-1.97l-.31,1c-4.83-.15-3.97,5.74-7.32,7.32h0Zm24.51,.46c-.31-2.99-3.11-5.69-1.91-8.05,5.4,1.47,11.5,3.48,13.57,5.68-.97,1.12-1.85,1.71-2.7,3.1-1.42,2.34-1.52,5.43-3.07,7.69-2.29,3.35-5.34,4.87-6.57,9.07-.84,2.87,1.41,9.85,5.4,7.15,1.52-.61,10.51-12.44,11.97-8.43,2.05,5.65-11.18,13.18-13.22,14.54-2,1.34-28.22,5.5-34.9,4.86-2.73-.8-7.53-2.35-8.33-5.46-.41-1.59,.42-3.92,.53-5.56,.13-1.81,0-4.18,1.3-5.56,.71-.75,1.77-1.88,2.88-1.95,1.86-.12,3.83,2.9,3.23,4.58-.79,2.19-5.08,1.5-4.91,5.09,.13,2.62,5.83,4.82,7.79,3.08,1.12-.99-1.24-5.09-1.42-6.55-.67-5.29,1.77-11.01,6.86-12.85-.07,1.3-.4,2.8-.09,4.07,.7,2.9,3.88,4.23,6.32,2.47,2.35-1.69,3.64-7.68,1.57-9.94,.94-3.47-2.98-5.99-4.32-8.69-.56-1.11,.04-2.34,.14-3.48l8.28-2.86-.16,3.04c5.61,3.16,2.7,12.07,.79,16.56-1.01,2.38-2.91,4.79-.94,7.27,3.62,4.56,7.51-1.41,8.76-4.57,1.79-4.51,3.64-9.35,3.13-14.32h0Zm-52-15.59c2.17,.08,7.13,.16,8,3.98,.05,1.68-.45,2.39-1.76,2.82-.65,.22-1.78,.46-6.05,.32-.83-.03,.65-3.43-.37-4.14-1.04,.82,.26,4.99-2.25,3.88-1.18-.03-4.26-.6-4.26-.6-1.35-.17-1.59-1.37-1.42-2.43-.22-2.62,2.5-4.28,8.11-3.83h0Zm-32.97,6.76c2.96-.83,4.46,1.81,6.95,3,3,1.38,6.53,3.15,9.61,4.6,7.12,3.35,9.45,5.48,13.76,5.19,6.14-.41,7.07-3.04-3.86-4.08-3.15-.3-7.87-6.25-6.73-6.39,1.8-.22,6.63,2.37,12.76,2.58,6.99,.43,6.5-2.71,11.2-1.36,1.31,.38,7-.21,3.6,3-3.4,3.2-15.38,8.4-19.7,15.76-1.42,2.42-1.41,5.36-2.71,7.73-.99,1.82-2.56,3.3-3.56,5.15-1.39,2.56-2.21,5.46-3.04,8.22l-4.31-.14-3.09,1.04-2.65-2.97c2.54,.14,5.09,.6,7.41-.78,2.69-1.6,4.04-4.4,.58-6.11-2.97-1.47-7.26-1.11-10.49-1.41-1.18-.11-3.03,.26-4.03-.52-1.08-.84,.7-4.51,1.1-5.53,1.56,.46,3.01,1.05,4.59,1.47,3.27,.88,6.64,2.48,10.08,1.57,6.15-1.85,4.11-11.03-3.27-10.27-2.61-.47-5.74-.5-8.15-1.63-.9-.42-1.84-1.38-2.38-2.28-.59-.97-.56-2.42-.76-3.5,2.55,.51,4.76,1.72,7.24,2.41,2.73,.76,5.81,1,8.4-.46,1.92-1.08,1.49-2.77-.49-4.47-4.96-1.23-8.69-2.94-13.23-5.07-2.32-1.09-4.26-2.13-4.83-4.76m59.5-1.7c-.59,1.92,.09,5.33-1.11,5.66-.71,.19-5.35-3.82-3.8-7.01,1.45-.23,4.11-1.24,6.73-2.44,.83,2.04-1.4,2.43-1.82,3.79Zm-52.57,2.4c-.46,.2-3.66,1.47-1.75-1.79,.75-1.29-.01-2.97-.32-5.13,1.39,.02,4,1.83,6.14,1.66-1.34,4.08-2.48,4.57-4.07,5.26Zm77.59,29.7l.24,.27-.24-.27m-60.09,2.4l.67,6.13,2.53,7.76c-2.05,2.29-3.06,3.78-3.78,6.66h0c-.1-5.27-3.32-6.97-4.26-10.64l4.84-9.91m2.03,1.55l.08,.17-.08-.17m-30.2,21.6c1.69-.76,.71-2.32,.57-3.78-.24-2.5-.49-6.23,1.25-8.29,3.15-3.76,10.17-.99,11.18,3.36,.78,3.36-1.74,5.58-2.58,8.5,2.5-.66,3.87-4.03,4.5-6.37,.24-.9,0-2.35,.73-3.02,4.06-3.72,9.36,2.01,9.18,6.08h-.25s-1.45-3.46-1.45-3.46c-1.69,.74-2.14,3.8-2.56,5.52-.2,.82-.04,2.18-.89,2.64-2.08,1.14-4.32-.85-6.34-.68-1.25,.11-2.41,1.33-3.55,1.81-2,.84-4.77,.8-6.88,.33-1.65-.37-3.06-2.91-4.49-2.9-3.44,.04-9.87,4.5-12.1-.49,2.31-.59,3.35-4.78,2.37-6.95-.52-1.16-1.95-.69-2.71-.08-.55,.45-.93,1.09-1.41,1.6-.8-3.37,1.58-5.92,4.68-6.75,1.29-.35,2.75-.15,3.86-.93h.25c1.78,1.02,3.45,.73,4.78,2.83,.8,1.27-.11,3.58-.03,5.06,.13,2.24,1.06,3.94,1.89,5.94m.03-10.16l.24,.27-.24-.27m39.53,11.5c-2.9,.81-6.41,.77-8.68-1.4-2.41-2.31-.6-5.8,1.52-7.12l7.16,8.52m-32.37-7.56c-3.37-1.41-5.88,6.9-2.7,7.79,2.52,.7,4.64-6.31,2.39-6.79l.31-1m-19.78,4.03c-1.89-1.02-2.39-3.83-.01-4.57v4.57m35.68-1.92c.51,1.25,.22,2.83-1.19,3.24l1.19-3.24m-17.26-.41c.72,1.55,.25,2.86-.48,4.29l-.51-.03c-.37-1.55-.11-2.94,.74-4.28h.25m-3.29,7.8l-.08-.17,.08,.17Z" style="fill: #534741;"/>
      </g>
    </g>
  </g>
</svg>