<?xml version="1.0" encoding="UTF-8"?>
<svg id="b" data-name="圖層 2" xmlns="http://www.w3.org/2000/svg" width="830.41" height="306" viewBox="0 0 830.41 306">
  <g id="c" data-name="TEXT">
    <g>
      <g>
        <g>
          <path d="M43.71,121.86l-13.37,28.54-19.12,13.53s-2.06,14.71-2.35,16.47-4.12,16.47-4.12,16.47c0,0-.29,13.82,.59,16.18s2.94,9.41,2.94,12.65c0,3.24,1.18,12.94,2.65,17.06,1.47,4.12,1.18,5.59,3.53,10.29,2.35,4.71,.59,5.59,7.06,11.77,6.47,6.18,10,9.41,12.65,11.47,2.65,2.06,16.18,10.59,18.82,11.77s-3.82-.59,10,3.82,14.41,5.29,22.35,6.47c7.94,1.18,32.55,3.56,32.55,3.56,0,0,12.16,3.49,17.16,2.61,5-.88,5.88-.59,12.35-2.35,6.47-1.76,8.53-2.94,13.82-4.41,5.29-1.47,8.24-2.06,9.71-1.47,1.47,.59,10,2.65,10,2.65,0,0,4.41-.29,7.65-1.47,3.24-1.18,7.06-5,7.65-6.47,.59-1.47-.02-8.96-.02-8.96l-7.34-6.34,6.18-15.59,2.65-10.59,2.35-6.02,7.5,18.37,3.09,9.71-8.24,10.59s-1.62,8.68,1.32,10.59c2.94,1.91,6.18,4.26,6.18,4.26l9.12,5.88s3.09-2.35,6.18-2.35,2.94,.59,5.15,1.03c2.21,.44,2.65,1.18,4.41,1.62,1.76,.44,2.94,1.03,6.03,1.18s5.88-1.18,7.65-1.32c1.76-.15,5.83-1.49,5.83-1.49,0,0,3.76-4.88,5.67-4.44,1.91,.44,1.99,1.77,5.67,2.35s.86,1.38,4.39,1.53c3.53,.15,3,4.84,8.15,1.31,5.15-3.53,5.59,.59,8.38-4.41s3.82-10,4.56-11.18c.74-1.18,2.09-2.25-.44-6.62-5.6-9.64-9.5-8.97-11.59-9.85-2.09-.88-1.65-4.26-8.41-4.12s-12.35-1.76-12.35-1.76c0,0-6.77-10.59-6.62-11.62,.15-1.03,1.91,1.18-.44-8.82s-4.26-15.44-4.26-15.44v-2.5l1.62-17.5,3.75-16.1,4.41-16.99,6.84-16.17-2.65-13.61,3.09-14.56-20.52-6.62s-55.81-.66-80.96,.44c-25.15,1.1-49.86-2.87-68.17-2.87-18.31,0-50.68-.16-50.68-.16Z" style="fill: #ede7dd;"/>
          <path d="M40.75,128.3l1.19-32.61,5.58-37.04,12.95-22.67,28.24-25.88,16.18-5.88,11.47-1.47,20.3,9.71s15.88,4.12,17.94,4.41c2.06,.29,16.87-.66,17.99-1.18,1.12-.52,23.78-12.94,23.78-12.94l10,2.65s10.29,7.94,12.35,9.71c2.06,1.76,9.71,9.12,9.71,9.12l9.12-1.47,6.16-11.07s5.28,.94,7.59,3c2.3,2.06,9.23,9.7,11.27,15.95,2.04,6.26,1.75,9.48,2.04,15.36s-1.47,12.94-1.76,15c-.29,2.06-.9,6.03,.54,7.5s-2.78,8.13-2.78,8.13c0,0,1.96,5.91,5.24,10.49,3.28,4.57,2.03,11.34,2.03,11.34,0,0,2.62,8.32,2.03,11.56-.59,3.24,1.76,9.99,.28,14.52-1.47,4.52-7.94,15.59-7.94,15.59l-216.19-1.47-5.31-10.33Z" style="fill: #ede7dd;"/>
        </g>
        <path d="M133.59,66.02l-13.05,10.69-4.17,16.05,1.5,12.84s3.96,9.31,6.53,10.27c2.57,.96,14.12,4.28,14.87,4.39s10.91-1.18,14.66-1.71c3.74-.53,7.92-1.07,12.63-3.21s6.08-2.67,7.54-5.24,2.52-2.14,2.09-6.53c-.43-4.39-2.09-16.05-2.09-16.05,0,0-4.65-10.16-5.82-11.45s-6.63-6.21-6.63-6.21l-6.53-4.71s-4.8-.86-6.68-.96-14.83,1.82-14.83,1.82Z" style="fill: #fff;"/>
        <path d="M206.45,66.25l-13.5,10.47-3.83,16.05,1.38,12.84s3.63,9.31,5.99,10.27,12.97,4.28,13.65,4.39,10.02-1.18,13.46-1.71c3.44-.53,7.27-1.07,11.59-3.21s5.59-2.67,6.92-5.24,3.9-4.71,3.51-9.09-.64-14.98-.64-14.98c0,0-7.13-8.67-8.21-9.95s-6.09-6.21-6.09-6.21l-5.99-4.71s-5.56,.97-7.29,.86-10.93,.23-10.93,.23Z" style="fill: #fff;"/>
        <path d="M249.34,301.57l-.17,.35,.17-.35Zm-6.06-15.94h.52c1.59,2.83,1.97,5.71,1.04,8.84h-1.04c-1.34-3.02-2.16-5.74-.52-8.84m-35.35-1.04l2.08,6.76c-2.83-.98-3.27-4.26-2.08-6.76m72.78,7.8l.52-9.36c4.79,1.79,3.46,7.48-.52,9.36m-40.03-10.4l.52,2.08c-4.65,.73-1.07,15.3,4.15,14.15,6.61-1.47,2.37-18.74-4.67-16.23m-67.06,11.96l15.58-16.65c4.19,2.92,4.91,9.28,1.35,13.25-4.87,4.19-10.65,4.61-16.92,3.4m82.14-19.24l-.52,.52,.52-.52m-1.04,20.79c1.9-4,4-7.38,4.5-11.96,.33-3.02-1.29-7.84,.49-10.35,2.94-4.15,6.32-3.39,10.08-5.25h.52c2.19,1.72,5.2,1.48,7.8,2.32,6.24,2.04,10.85,7.5,8.84,14.31-.93-1.11-1.63-2.46-2.71-3.43-1.48-1.33-4.35-2.45-5.55-.13-2.23,4.34-.57,13.01,4.1,14.48-5.09,9.95-17.77,.15-24.81-.32-2.92-.19-6.08,4.86-9.51,5.44-4.37,.73-10.04,.52-14.04-1.43-2.28-1.11-4.51-3.74-7.06-4.1-4.11-.58-8.92,3.26-13.05,.7-1.67-1.04-1.21-3.8-1.53-5.49-.67-3.58-1.27-9.88-4.64-11.58l-3.35,6.9h-.52c.08-8.35,11.54-19.51,19.44-11.45,1.42,1.45,.77,4.39,1.16,6.25,1.03,4.86,3.47,11.9,8.51,13.52-1.39-6.06-6.31-10.88-4.35-17.68,2.54-8.8,17.2-13.71,23.24-5.67,3.32,4.42,2.42,12.02,1.66,17.11-.45,2.98-2.62,6.05,.76,7.8m-59.44-47.48l-.17,.35,.17-.35m4.05-1.54l9.12,19.39c-5.57,6.99-9.11,10.53-9.88,21.31-1.15-5.97-3.06-9.13-7-14.04l6.01-15.6m-125.15-27.9l-.52,.52,.52-.52m155.35-57.88c4.36,.57,9.9-2.85,12.75-2.74-.87,4.39-2.62,7.76-1.22,10.47,3.54,6.87-2.86,3.92-3.78,3.47-3.16-1.57-5.44-2.71-7.75-11.19Zm-97.83-7.37c5.24,2.74,10.57,5.09,13.51,5.72,2.83,6.69-7.1,14.4-8.53,13.93-2.43-.79-.65-7.7-1.66-11.69-.71-2.83-5.24-3.87-3.31-7.96Zm123.19,16.22c-1.45,5.31-5.54,7.24-10.4,9.22-9.52,3.87-11.14,5.78-15.38,7.62-4.23,3.28-4.3,7.81-1.48,9.1,3.32,2.42,6.98,1.6,12.66,.35,5.15-1.14,2.04-.55,7.32-1.33-1.1,3.17-2.05,5.01-3.35,6.93-4.38,6.33-10.61,7.49-12.63,7.71-12.01,2.41-16.3,10.57-3.92,15.03,6.94,2.24,11.36,2.5,18.15,1.06,3.27-.69-2.86,.02,.37-.74,.73,2.13,3.97,9.83,1.66,11.43-2.13,1.48-5.88,.53-8.31,.62-6.65,.25-10.44,.29-14.56,1.21-7.28,3.13-5.7,6.01-.36,9.57,5.66,.61,5.81,3.98,8.9,5.92l-5.74,5.78-6.22-2.47-8.84-.19c-1.38-5.75-2.76-11.77-5.32-17.15-1.85-3.89-4.89-7.09-6.72-10.92-2.4-5-2.07-11.01-4.71-16.11-8.04-15.53-31.46-27.98-44.41-31.38,5.87-5.25,18.45,2.19,37.76,3.74,17.54-2.11,17.09-5.34,37.07-10.03,6.39-.53,9.93,5.44,28.46-4.96m-66.73-15.04c10.82-.04,16.2,3.1,16.18,8.01-.01,2.2-.4,8.79-3.17,8.98,0,0-6.37,.85-8.79,.77-5.26,2-2.15-10.54-4.19-12.34-2.17,1.33-.21,11.78-1.91,11.75-8.75-.19-10.33,.04-11.64-.47-2.62-1.02-4.26-5.27-3.28-10.12,2-5.9,10.32-6.57,16.8-6.57Zm-108.08,23.87c-1.59,10.1-1.32,15.23,1.86,24.65,2.23,6.61,9.54,19.24,17.44,10.3,4.3-4.87,.68-10.01-1.13-14.98-3.41-9.39-5.42-22.95,6.4-28.8l4.49-3c3.84,1.88,11.59,5.17,9.81,8.9-9.71,16.47-11.71,26.67-5.94,33.74,4.81,3.87,11.45,1.48,13.2-4.37,.77-2.57,.79,.14,.79-2.52,10.21,4.32,12.33,12.62,10.39,23.37-.53,2.97-1.3,9.41,.88,11.57,3.83,3.77,13.49,5.23,14.03-.11,.74-7.32-4.46-6.94-5.83-11.51-1.05-3.5-.34-8.91,3.45-8.46,2.27,.26,4.3,2.68,5.68,4.3,6.17,10.66,3.5,16.88-.64,23.55-3.27,5.26-10.66,7.94-16.44,8.68-33.84,4.38-63.16-9.18-67.11-12.13-4.03-3.01-32.08-20.44-27.26-31.79,3.42-8.05,16.05,13.13,19.1,14.55,7.85,5.95,13.23-8.08,11.82-14.05-2.07-8.73-3.66-8.19-7.98-15.29-2.92-4.8-2.8-11.12-5.45-16.07-1.58-2.94-3.32-4.24-5.18-6.64,4.48-4.27,17.18-7.71,28.39-10.14,2.21,4.96-3.82,10.19-4.78,16.26h0Zm50.19,1.72c-3.22-8.7-10.95-14.01-14.71-17.84,6.7-2.53,5.85,2.13,12,4.75,6.61,14.62,24.6,15.49,15.13,13.29-9.53-2.22-9.65,1.59-12.42-.19Zm-81.25-5.89c-.82,3.65-4.86,9.24-7.04,15.08-2.83,13.66-10.25,22.5,7.09,43.84,22.01,18.76,55.72,31.07,84.69,27.08,14.6-2.01,30.97-9.22,31.18-26.21,.18-14.72-14.64-22.53-25.46-29.01-3.51-2.1-13.58-7.07-12.7-12.06,.86-4.86,3.18-7.07,6.67,.16,2.45,16.62,19.48-.61,24.74-6.92l8.52,4.89c-1.71,9.09-8.22,15.11-1.08,19.03,4.5,.71,7.89-1.46,10.53-4.69,.99-1.21,2.51-4.58,4.41-4.32,3.58,.49,5.63,5.49,6.21,8.48l-3.8,6.12c-3.72,4.61-10.14,10.01-6.95,13.94,5.75,4.97,12.07,4.15,20.1,3.34-.07,3.39,.42,12.34-2.74,14.39-5.12,3.31-12.86-3.61-18.57-2.68-7.81,1.27-8.6,9.81-4.77,15.28,2.93,4.19,8.41,6.65,12.57,9.4l-11.96,9.88c-7.78-1.3-9.1-10.25-15.6-14.04-1.93-1.12-4.87-.75-4.87-.75-9.08,1.67-8.04,15.95-6.24,22.35-3.31,.61-12.95,3.86-15.63,1.41-5.57-5.09,4.42-20.64-8.86-19.35-3.19,.21-5.7,1.95-7.48,4.28-4.64,4.79-2.8,9.06-4.23,13.89-3.55-.45-12.18,.1-14.55-2.82-4.2-5.17-.12-7.79-2.48-13.63-2.21-5.48-6.78-5.17-11.15-2.73-6.07,3.39-6.58,1.12-14.43,3.37-13.65-2.74-25.27-10.01-29.53-13.8-10.45-9.21-14.39-18.17-19.56-29.13-3.67-11.45-6.51-22.58-6.48-32.69-.3-9.5,15.28-.9,17.84-8.69,3.49-10.61-16.23-12.88-12.48-24.32,2.24-6.78,12.02-11.71,21.97-5.32,10.88,7.43,12.1,16.96,12.1,16.96ZM192.67,79.59l-.17,.35,.17-.35m24.06,23.29c22.02-3.69,12.67-27.1-3.26-25.4-19.71,6-8.04,26.91,3.26,25.4Zm22.38-25.02l.17,.17c-.25,.08-.57-.17-.17-.17m-85.22,26.67c16.61-8.83,3.48-28.85-11.46-23.08-14.01,6.56-5.47,27.44,11.46,23.08Zm65.47-38.28c6.02,4,12.83,5.42,17.81,11,3.42,3.84,5.25,8.96,6.2,13.95,1.35,7.08-1.55,18.77-7.91,22.94-2.63,1.72-6.33,1.83-9.35,2.43-14.02,2.8-30.88-1.34-34.56-17.57-1.01-4.45-.89-9.11,.19-13.52,1.07-4.41,4.21-9.04,7.86-11.74,6.09-4.5,13.07-4.65,19.75-7.5m-73.62-.22c10.95-.26,30.77,17.84,28.1,33.8-1.37,8.2-9.22,15.6-18.42,16.82-8.57,1.13-20.58,3.34-27.2-2.73-18.05-16.55-6.79-45.2,11.89-47.18M253.21,20.5c8.09,11.2,10.33,26.12,5.16,38.97-.56,1.4-1.46,4.46-3.21,4.75-1.35,.22-6.67-3.54-6.56,.2-.18,4.24,3.54,.92,6.77,7.87,3.23,6.95,2.37,27.25-2.94,27.93-3.22,.41-4.59,10.22,6.49,7.76,4.92-1.09,3.8,10.29,3.8,10.29-.6,6.91-3.37,11.67-10.48,13.65,0,0-9.99,3.14-15.9,5.24-3.99,1.8-5.75,3.12-5.84,4.3-.09,1.19,23.86-8.27,30.45-6.32,0,0-.04,4.2-1.01,9.02-1,5-2.21,8.42-5.23,10.03-.97,.52-3.12,3.14-15.72,.52-7.51-1.56-12.47,.25-13.31,.84-1.68,2.24,4.44,2.05,8.89,2.48,6.67,1.33,19.47-.57,18.26,2.22l-16.41,6.28s-23.24,9.31-45.81-10.23c-5.12-6.49,3.69-18.52,11.96-16.51,8.26,2.01,14.18,4.89,19.54-1.48,5.96-7.07-7.42-13.61-16.09-18.68,8.87,1.32,13.97,5.39,29.95-.7,12.91-6.77,13.72-31.5,5.41-41.74-4.54-5.59-11.62-10.99-18.39-13.53-2.74-1.03-7.67-1.11-9.36,1.56-6-1.98-13.41,3.45-17.68,7.2-3.57,3.14-4.98,5.53-6.45,9.96-3.69,11.11-3.23,26.23,4.8,33.02,7.05,8.5,19.16,12.02,15.79,16.49-3.38,4.34-19.83,3.69-26.06,3.12-6.23-.57-19.76,8.29-21.35-.21-1.59-8.5,10.71-8.93,13.69-17.3,3.48-16.28,3.57-31.37-7.47-44.08-2.7-3.11-5.75-6.84-9.66-8.74-6.24-3.04-13.71-4.99-20.51-3.52-7.48,1.61-14.32,9-17.87,13.19-5.16,6.09-7.34,13.43-7.15,21.19,.47,19.26,15.98,28.09,29.42,27.68,3.24-.1,9.68-.77,12.93-1.39,6.42-1.22,13.53-2.87,18.25-6.82-1.22,11.68-22.01,8.93-22.76,18.84,.16,4.45,1.8,9.39,13.37,9.98,10.17,.51,12.3-4.92,16.08-1.34,3.55,3.37,5.45,6.75,3.37,11.33-3.45,7.61-13.32,11.45-24.55,13.69-11.23,2.25-26.82-4.23-34.59-8.33-6.09-4.99-7.3-9.15-7.58-9.88,2.92-.07,27.6,7.15,29.43,4.82,8.55-.43-22.62-8.7-29.82-10.61-5.45-4-11.45-20-8.08-22.27,1.44-.97,9.62,4.51,19.18,12.6,3.55,2.83,7.06,6.33,10.4,7.67,1.97,.79,5.23-.38,4.38-2.97-.67-2.01-3.21-3.22-4.63-4.66-5.94-6.03-13.64-9.09-20.46-13.82-1.27-.88-8.83-4.44-8.9-5.93,3.22-12-1.18-7.99-2.31-18.45-.31-5.34,1.88-9.94,3.86-17.58,1.13-4.04,2.02-9.52-3.12-11.32l-1.56,5.2h-1.04c-6.12-11.68-11.01-26.88-2.89-38.47,1.95-2.78,3.81-5.5,7.05-6.76-.94,3.76-3.02,7.09-3.88,10.92-.47,2.06-.89,4.67-.43,6.76-3.1,15.97,8.23,18.13,20.48,7.32,2.11-1.74,6.52-7.93,16.97-8,16.55,1.18,27.38,20.01,38.19,21.45,7.31-.15-24.77-29.06-10.76-28.73,6.58,.09,7.57,7.05,11.87,18.66,4.81-10.32,1.15-18.92,4.39-19.59,8.61,.6,1.52,26.87,5.75,27.43,5.75,.77,7.6-18.61,29.19-18.31,13.16,.19,17.6,8.16,25.89,11.81,3.8,1.67,8.19-6.06,8.42-10.65,.22-4.43-.1-7.33-2.33-12.73-.73-1.75-1.59-5.17-4.97-9.67-3.4-3.01-6.54-6.58-2.87-9.48,0,0,3.94,.27,8.15,6.57h0ZM97.19,113.05c-3.83-1.25-4.25-2.46-8.33-2.57-2.8-.08-4.29,2.04-1.83,4.05,3.87,3.17,9.04,1.28,12.3,5.66-.77,4.9,1.22,7.89,2.21,11.75,1.05,4.1,.54,7.55,3.96,12.07,0,0-14.01-.94-16.35-.26-5.78,1.65-5.6,4.54,1.33,4.51,4.12-1.31,10.72-.93,17.53,1.99l8.25,17.72-10.24,2.92-6.24-1.71s-10.74-1.99-16.12-1.54c-9.6,.81-27.89,7.52-27.89,7.52-4.62-9.55-7.35-16.1-12.09-25.93-1.04-2.16-3.96-6.39-4.45-8.69-.97-4.52,2.25-8.1,3.34-11.92,1.12-3.91,.55-8.44,.55-12.47,3.6,1.98,5.63,6.21,7.37,10.4,3.92,4.42,8.25,6.63,14.98,9.22,9.41,2.51,14.53-5.52,9.29-13.2-7.57-6.07-11.82-6.31-18.47-16.19-7.25-9.26-11.65-18.48-10.88-30.79,.35-5.61,3.04-11.89,4.87-17.16,1.6-4.6,3.66-13.35,7.92-16.12-.29,6.75-2.36,13.46-2.06,20.27,.25,5.55,2.47,11.58,4.62,16.63,3.62,8.46,8.78,12.6,15.64,16.12,3.6,1.85,9.61,3.24,11-1.56,.69-2.38-1.39-6.15-2.31-8.32-3.63-8.6-9.13-15.85-10.59-25.42-2.35-15.4,1.32-36.08,13.66-46.5,4.51-3.8,15.26-10.3,26.85-8.18,11.59,2.12,27.91,12.34,44.67,12.34,8.09-.32,17.61-3.12,24.5-7.15,3.41-1.99,9.15-3.58,13.32-4.21,10.27-1.56,14.96,3.62,20.35,8.41,3.68,2.94,7.5,5.8,4.39,8.82-1.68,3.34-10.18,8.59-13.28,8.32-4.01-.36-7.89-2.1-11.96-2.49-11.5-1.1-23.32-.83-34.83-.03-8.94,.62-17.21,5.32-25.99,2.38-6.72-2.25-12.75-6.28-18.71-10.05-2.45-1.55-4.81-4.62-7.8-2.62-16.5,11.04-18.62,28.08-12.25,45.6,1.5,4.12,6,8.03,6.87,12.04,.78,3.63-7.5,7.76-8.09,15.36-1.23,7.61,1.18,12.33,1.03,19.53m-57.76,4c.25,5.86-.36,13.54-3.38,18.71-6.06,10.38-17.72,13.61-24.66,22.87C.18,172.23-.86,195.13,.43,212.66c.53,7.29,1.79,14.25,3.74,21.31,3.75,14.9,8.76,23,16.02,33.18,8.05,8.8,18.58,16.41,29.63,21.68,16.03,7.64,34.7,10.41,51.53,13.57,10.82,2.03,22.18,4.22,33.27,3.46,7.57-.52,15.13-1.62,22.35-4.02,4.12-1.37,8.17-4.65,12.48-5.26,4.82,.54,8.67,3.07,13.52,2.53,8.21-.74,14.63-3.7,15.6-11.92,1.36,6.75,10.44,17.55,19.23,17.37,3.83-.08,7.18-2.6,10.4-4.37,3.09,5.45,18.07,6.57,23.39,4.32,2.75-1.16,5.86-4.71,8.84-4.74,3.5-.04,9.17,6.7,11.96,3.54h.52c2.57,3.59,10.07-1.33,12.48-3.35,6.88-5.78,11.18-15.29,7.79-24.2-2.77-7.29-11.73-12.77-19.23-13.88-4.21-.62-8.96,1.05-12.41-2.1-4.53-4.11-6.37-12.63-7.8-18.33-4.55-18.21-2.34-41.23,4.1-58.87,1.59-6.38,2.73-13.38,5.05-19.51,11.12,4.6,30.35,16.7,21.3,6.81-2.75-3.24-6.94-5.26-10.76-6.9-1.91-.82-7.8-2.81-9.03-4.61-1.85-2.68,.02-6.95,1.66-14.01,1.43-6.2,3.8-9.76,8.5-7.57,4.69,1.5,9.22,4.85,13.95,4.85,.44-1.97-3.35-4.7-10.59-7.57-1.96-.4-5.8-2.19-5.99-4.96-.09-15.1,.15-20.01-1.4-30.85-.77-5.4-1.94-9.86-2.88-14.79-1.05-5.49-2.88-13.69-3.07-16.48-1.37-3.54,.94-3.21,.81-6.95-.17-4.99,1.67-10.06,1.56-15.08-.08-4.38-1.55-9.21-2.7-13.43-2.21-6.65-4.2-10.3-7.96-15.16-2.38-3.17-5.55-6.73-9.36-8.32-5.29-2.2-9.58,4.72-13,7.28-.78,.59-2.87,3.76-3.64,3.12-2.08-1.74-6.41-7.31-8.32-8.84-6.76-5.41-11.74-9.44-20.82-9.09-9.75,.37-14.3,2.8-19.49,4.93-7.13,2.93-13.46,7.7-23.11,7.28C136.49,7.16,123.73-4.03,101.37,1.49c-14.46,3.62-24.47,11.1-31.73,17.44-15.79,14.21-20.85,31.87-27.03,50.43-1.08,3.63-2.83,10.37-2.86,16.64-.58,12.59-.78,20.78-.29,29.63Z" style="fill: #534741;"/>
      </g>
      <g>
        <path d="M501.97,168.87c0,10.52-8.53,19.03-19.03,19.03s-19.05-8.51-19.05-19.03,8.53-19.05,19.05-19.05,19.03,8.53,19.03,19.05Z" style="fill: #024737;"/>
        <path d="M403.56,67.37c0,10.52-8.53,19.03-19.05,19.03s-19.03-8.51-19.03-19.03,8.53-19.03,19.03-19.03,19.05,8.53,19.05,19.03Z" style="fill: #024737;"/>
        <path d="M452.75,67.37c0,10.52-8.53,19.03-19.03,19.03s-19.03-8.51-19.03-19.03,8.51-19.03,19.03-19.03,19.03,8.53,19.03,19.03Z" style="fill: #024737;"/>
        <path d="M501.9,67.37c0,10.52-8.53,19.03-19.03,19.03s-19.05-8.51-19.05-19.03,8.53-19.03,19.05-19.03,19.03,8.53,19.03,19.03Z" style="fill: #024737;"/>
        <path d="M551.09,67.37c0,10.52-8.51,19.03-19.03,19.03s-19.03-8.51-19.03-19.03,8.51-19.03,19.03-19.03,19.03,8.53,19.03,19.03Z" style="fill: #024737;"/>
        <path d="M403.56,117.57c0,10.52-8.53,19.03-19.05,19.03s-19.03-8.51-19.03-19.03,8.53-19.03,19.03-19.03,19.05,8.52,19.05,19.03Z" style="fill: #024737;"/>
        <path d="M452.75,117.57c0,10.52-8.53,19.03-19.03,19.03s-19.03-8.51-19.03-19.03,8.51-19.03,19.03-19.03,19.03,8.52,19.03,19.03Z" style="fill: #024737;"/>
        <path d="M551.09,117.57c0,10.52-8.51,19.03-19.03,19.03s-19.03-8.51-19.03-19.03,8.51-19.03,19.03-19.03,19.03,8.52,19.03,19.03Z" style="fill: #024737;"/>
        <path d="M830.41,129.73c0,10.31-8.34,18.65-18.65,18.65s-18.65-8.34-18.65-18.65,8.34-18.65,18.65-18.65,18.65,8.35,18.65,18.65Z" style="fill: #024737;"/>
        <path d="M403.6,168.63c0,10.52-8.51,19.05-19.03,19.05s-19.03-8.53-19.03-19.05,8.53-19.03,19.03-19.03,19.03,8.53,19.03,19.03Z" style="fill: #024737;"/>
        <path d="M452.8,168.63c0,10.52-8.53,19.05-19.03,19.05s-19.05-8.53-19.05-19.05,8.53-19.03,19.05-19.03,19.03,8.53,19.03,19.03Z" style="fill: #024737;"/>
        <path d="M551.14,168.63c0,10.52-8.53,19.05-19.03,19.05s-19.05-8.53-19.05-19.05,8.53-19.03,19.05-19.03,19.03,8.53,19.03,19.03Z" style="fill: #024737;"/>
        <path d="M630.32,128.09c0-1.26,.36-2.2,1.09-2.8,.73-.6,1.85-.9,3.38-.9h23.44v-14.82h-15.37c-1.97,0-3.46,.33-4.47,.96v-4.66c0-2.46,1.49-3.7,4.47-3.7h15.37v-7.69c0-3.11,.25-4.66,.77-4.66h6.16c.52,0,.77,1.55,.77,4.66v7.69h15c2.02,0,3.54-.31,4.55-.95v4.65c0,2.47-1.51,3.7-4.55,3.7h-15v14.82h19.26c2.03,0,3.55-.33,4.56-.95v4.65c0,2.4-1.52,3.6-4.56,3.6h-50.4c-2.98,0-4.47-1.2-4.47-3.6Zm-2.84-50.32c.12-1.7-.91-2.56-3.14-2.56h-6.55c-1.72,10.07-3.04,17.12-3.99,21.17-.19,.76-.29,1.39-.29,1.9,0,.57,.12,1.05,.37,1.42,.26,.38,.67,.73,1.24,1.05l7.41,4.76c2.59-6.71,4.24-15.96,4.94-27.73Zm-24.21,50.89c0-1.13,1.08-2.43,3.23-3.89,5.57-3.66,9.84-7.9,12.81-12.72-1.01-1.01-2.81-2.4-5.41-4.18-2.02-1.4-3.92-2.75-5.69-4.09-.76-.56-1.3-1.16-1.61-1.8-.33-.64-.48-1.39-.48-2.28,0-.81,.16-2.09,.48-3.79l3.79-20.42h-3.7c-1.47,0-2.69,.33-3.71,.96v-4.66c0-2.46,1.46-3.7,4.37-3.7h3.99l1.9-14.34c.25-1.76,.69-3.09,1.33-3.94,.64-.85,1.52-1.29,2.66-1.29,2.53,0,3.79,1.27,3.79,3.81l-1.99,15.57h8.26c4.82,0,7.22,2.34,7.22,7.03,0,5.07-.45,10.6-1.33,16.61-1.07,7.54-2.69,13.64-4.84,18.33,2.73,2.22,4.73,4.03,6.03,5.46,1.3,1.42,1.95,2.55,1.95,3.36,0,2.67-1.36,3.99-4.08,3.99-.57,0-1.4-.38-2.46-1.18-1.08-.79-2.32-1.98-3.71-3.57l-1.23-1.42c-1.91,2.85-3.86,5.44-5.9,7.78-1.7,2.02-3.89,3.95-6.55,5.79-2.53,1.78-4.39,2.65-5.6,2.65-2.34,0-3.52-1.36-3.52-4.08Zm32.38-44.52c0-2.47,1.51-3.7,4.55-3.7h18.04v-12.83h-14.15c-1.9,0-3.35,.32-4.36,.95v-4.65c0-2.4,1.45-3.6,4.36-3.6h14.15v-7.22c0-3.17,.25-4.74,.77-4.74h6.16c.52,0,.77,1.57,.77,4.74v7.22h14.23c1.08,0,2.13-.52,3.14-1.53v4.65c0,2.79-1.05,4.18-3.14,4.18h-14.23v12.83h19.08c1.96,0,3.45-.33,4.46-.96v4.66c0,2.46-1.49,3.7-4.46,3.7h-44.82c-2.02,0-3.54,.32-4.55,.95v-4.65Z" style="fill: #024737;"/>
        <path d="M756.12,133.02c-3.54,0-5.32-1.55-5.32-4.65,0-1.27,.38-2.28,1.14-3.04,.64-.64,2.69-1.05,6.17-1.24,5.38-.25,8.77-1.08,10.16-2.47,.82-.76,1.55-3.01,2.18-6.79,.64-3.76,1.12-8.91,1.43-15.42l1.14-20.32c.06-1.64-.35-2.89-1.24-3.75-.89-.86-2.11-1.29-3.7-1.29h-28.1c-.95,15.38-3.86,27.27-8.73,35.69-5.01,8.67-11.71,15.42-20.13,20.22-1.65,.95-2.98,1.64-3.99,2.09-1.02,.44-1.84,.66-2.47,.66-2.73,0-4.08-1.51-4.08-4.55,0-1.64,.95-2.94,2.85-3.89,11.01-5.57,18.96-13.68,23.83-24.31,1.21-2.65,2.16-6.07,2.86-10.21,.7-4.14,1.23-9.38,1.61-15.71h-23.54c-1.08,0-2.13,.5-3.14,1.52v-4.65c0-3.1,1.05-4.65,3.14-4.65h23.92l.18-13.1c.13-3.04,1.49-4.56,4.09-4.56,2.86,0,4.27,1.64,4.27,4.93,0,2.79-.06,7.03-.19,12.73h30.19c3.93,0,6.63,.77,8.12,2.32,1.49,1.55,2.23,4.17,2.23,7.84,0,7.03-.5,16.92-1.52,29.71-.76,9.37-1.64,15.54-2.65,18.51-1.9,5.57-8.79,8.36-20.69,8.36Z" style="fill: #024737;"/>
        <g>
          <path d="M617.23,186.27c-2.42,0-4.69-.55-6.82-1.64-2.15-1.13-3.84-2.73-5.07-4.82-1.23-2.09-1.85-4.47-1.85-7.17s.63-5.19,1.89-7.28c1.23-2.02,2.88-3.58,4.95-4.69,2.07-1.11,4.36-1.67,6.89-1.67,1.71,0,3.21,.21,4.51,.64,1.3,.43,2.6,1.03,3.9,1.82,.68,.48,1.03,1.09,1.03,1.84,0,.51-.21,1-.62,1.44-.41,.44-.87,.66-1.38,.66-.34,0-.72-.1-1.13-.31-1.2-.61-2.19-1.04-2.98-1.28-.78-.24-1.76-.36-2.92-.36-2.87,0-5.16,.83-6.84,2.49-1.69,1.66-2.54,3.89-2.54,6.69s.84,5.03,2.54,6.69c1.69,1.66,3.97,2.49,6.84,2.49,1.16,0,2.13-.12,2.92-.36,.79-.24,1.78-.67,2.98-1.28,.41-.21,.78-.31,1.13-.31,.51,0,.97,.22,1.38,.67,.41,.44,.62,.92,.62,1.44,0,.75-.34,1.37-1.03,1.84-1.3,.79-2.6,1.39-3.9,1.82-1.3,.43-2.8,.64-4.51,.64Z" style="fill: #024737;"/>
          <path d="M632.58,186.01c-.65,0-1.21-.23-1.67-.69-.46-.46-.69-1.02-.69-1.67v-21.98c0-1.13,.13-1.69,.41-1.69h3.95c.27,0,.41,.57,.41,1.69v2.05c2.36-3.14,5.02-4.72,7.99-4.72h.26c.58,0,1.14-.27,1.69-.82v2.51c0,1.95-.56,2.92-1.69,2.92h-.36c-1.6,0-3.08,.38-4.43,1.15-1.35,.77-2.5,1.87-3.46,3.31v15.58c0,.65-.24,1.21-.71,1.67-.48,.46-1.04,.69-1.69,.69Z" style="fill: #024737;"/>
          <path d="M663.69,170.43c.44,0,.65-.22,.62-.67-.14-1.37-.55-2.51-1.23-3.43-.75-1.1-1.68-1.92-2.79-2.46-1.11-.54-2.26-.82-3.46-.82-1.09,0-2.24,.25-3.44,.77-1.2,.58-2.14,1.45-2.84,2.59-.7,1.14-1.1,2.49-1.21,4.02h14.35Zm-5.84,15.84c-4.2,0-7.48-1.2-9.82-3.59-2.34-2.39-3.51-5.74-3.51-10.04,0-2.32,.44-4.56,1.33-6.72,.92-2.15,2.32-3.84,4.2-5.07,1.88-1.23,4.13-1.85,6.76-1.85s4.73,.58,6.61,1.74c1.78,1.16,3.16,2.73,4.15,4.69,.99,1.96,1.49,4.14,1.49,6.54,0,.65-.22,1.2-.67,1.66-.44,.47-1.03,.69-1.74,.69h-17.33c.31,2.42,1.22,4.28,2.74,5.56,1.52,1.28,3.58,1.92,6.18,1.92,1.37,0,2.59-.13,3.66-.39,1.08-.25,2.17-.66,3.26-1.2,.24-.14,.55-.21,.92-.21,.55,0,1.04,.2,1.46,.59,.43,.39,.64,.88,.64,1.46,0,.79-.46,1.44-1.38,1.95-1.43,.79-2.8,1.36-4.1,1.72-1.3,.36-2.92,.54-4.87,.54Z" style="fill: #024737;"/>
          <path d="M691.72,170.43c.44,0,.65-.22,.61-.67-.14-1.37-.54-2.51-1.23-3.43-.75-1.1-1.68-1.92-2.79-2.46-1.11-.54-2.27-.82-3.46-.82-1.09,0-2.23,.25-3.43,.77-1.2,.58-2.14,1.45-2.85,2.59-.7,1.14-1.1,2.49-1.2,4.02h14.35Zm-5.84,15.84c-4.2,0-7.48-1.2-9.81-3.59-2.34-2.39-3.51-5.74-3.51-10.04,0-2.32,.44-4.56,1.33-6.72,.93-2.15,2.32-3.84,4.2-5.07,1.88-1.23,4.13-1.85,6.76-1.85s4.73,.58,6.61,1.74c1.78,1.16,3.16,2.73,4.15,4.69,.99,1.96,1.48,4.14,1.48,6.54,0,.65-.22,1.2-.66,1.66-.44,.47-1.03,.69-1.75,.69h-17.32c.31,2.42,1.22,4.28,2.74,5.56,1.52,1.28,3.58,1.92,6.17,1.92,1.37,0,2.59-.13,3.67-.39,1.07-.25,2.16-.66,3.26-1.2,.24-.14,.54-.21,.92-.21,.54,0,1.03,.2,1.46,.59,.42,.39,.64,.88,.64,1.46,0,.79-.46,1.44-1.39,1.95-1.44,.79-2.8,1.36-4.1,1.72-1.3,.36-2.92,.54-4.87,.54Z" style="fill: #024737;"/>
          <path d="M712.99,181.81c2.6,0,4.64-.81,6.12-2.43,1.49-1.63,2.23-3.87,2.23-6.74s-.74-5.12-2.23-6.74c-1.49-1.62-3.53-2.43-6.12-2.43-1.5,0-2.95,.34-4.33,1.02-1.38,.68-2.62,1.61-3.72,2.77v10.76c1.1,1.16,2.33,2.09,3.72,2.77,1.38,.68,2.83,1.03,4.33,1.03Zm.67,4.46c-3.35,0-6.25-1.28-8.71-3.84v1.23c0,1.13-.24,1.48-.41,1.69-1.51,1.87-3.68,.48-3.95,0-.13-.24-.41-.57-.41-1.69v-33.26c0-1.13,.13-1.69,.41-1.69h3.95c.27,0,.41,.56,.41,1.69v12.45c2.46-2.56,5.36-3.84,8.71-3.84,2.22,0,4.23,.53,6.05,1.59,1.98,1.1,3.55,2.7,4.69,4.82,1.15,2.12,1.72,4.53,1.72,7.23s-.58,5.21-1.74,7.23c-1.16,2.05-2.69,3.63-4.59,4.74-1.89,1.11-3.94,1.67-6.12,1.67Z" style="fill: #024737;"/>
          <path d="M749.91,186.27c-2.43,0-4.7-.55-6.82-1.64-2.15-1.13-3.84-2.73-5.08-4.82-1.23-2.09-1.84-4.47-1.84-7.17s.63-5.19,1.89-7.28c1.23-2.02,2.88-3.58,4.94-4.69,2.07-1.11,4.37-1.67,6.9-1.67,1.7,0,3.21,.21,4.51,.64,1.3,.43,2.59,1.03,3.9,1.82,.68,.48,1.02,1.09,1.02,1.84,0,.51-.2,1-.61,1.44-.41,.44-.87,.66-1.38,.66-.34,0-.72-.1-1.13-.31-1.2-.61-2.19-1.04-2.97-1.28-.78-.24-1.76-.36-2.92-.36-2.87,0-5.15,.83-6.84,2.49-1.69,1.66-2.54,3.89-2.54,6.69s.85,5.03,2.54,6.69c1.69,1.66,3.97,2.49,6.84,2.49,1.17,0,2.14-.12,2.92-.36,.79-.24,1.78-.67,2.97-1.28,.41-.21,.78-.31,1.13-.31,.51,0,.97,.22,1.38,.67,.41,.44,.61,.92,.61,1.44,0,.75-.34,1.37-1.02,1.84-1.3,.79-2.6,1.39-3.9,1.82-1.3,.43-2.81,.64-4.51,.64Z" style="fill: #024737;"/>
          <path d="M774.27,181.91c1.4,0,2.75-.32,4.05-.97,1.33-.68,2.39-1.73,3.18-3.15,.78-1.42,1.18-3.15,1.18-5.2,0-2.15-.41-3.9-1.23-5.23-.75-1.3-1.75-2.29-3-2.97-1.25-.68-2.64-1.03-4.18-1.03-1.4,0-2.75,.31-4.05,.92-1.33,.69-2.39,1.73-3.18,3.13-.79,1.4-1.18,3.13-1.18,5.18,0,2.19,.41,3.95,1.23,5.28,.75,1.33,1.75,2.34,3,3.03,1.24,.68,2.64,1.02,4.18,1.02Zm0,4.36c-2.63,0-4.94-.56-6.92-1.69-1.99-1.16-3.52-2.78-4.62-4.87-1.09-2.09-1.64-4.44-1.64-7.07s.55-5.04,1.64-7.13c1.1-2.09,2.64-3.69,4.64-4.82,2-1.13,4.3-1.69,6.9-1.69s4.89,.57,6.87,1.69c2.02,1.16,3.57,2.77,4.66,4.84,1.1,2.06,1.64,4.43,1.64,7.1s-.54,5.02-1.64,7.07c-1.13,2.12-2.69,3.74-4.69,4.87-2,1.13-4.28,1.69-6.84,1.69Z" style="fill: #024737;"/>
        </g>
      </g>
    </g>
  </g>
</svg>