<?xml version="1.0" encoding="UTF-8"?>
<svg id="b" data-name="圖層 2" xmlns="http://www.w3.org/2000/svg" width="236.75" height="261.39" viewBox="0 0 236.75 261.39">
  <g id="c" data-name="TEXT">
    <g>
      <g>
        <g>
          <path d="M60.95,171.32l-6.54,13.96-9.35,6.62s-1.01,7.19-1.15,8.06-2.01,8.06-2.01,8.06c0,0-.14,6.76,.29,7.91s1.44,4.6,1.44,6.19c0,1.58,.58,6.33,1.29,8.34,.72,2.01,.58,2.73,1.73,5.04s.29,2.73,3.45,5.75c3.17,3.02,4.89,4.6,6.19,5.61,1.29,1.01,7.91,5.18,9.21,5.75s-1.87-.29,4.89,1.87c6.76,2.16,7.05,2.59,10.93,3.17s15.92,1.74,15.92,1.74c0,0,5.95,1.71,8.39,1.28,2.45-.43,2.88-.29,6.04-1.15s4.17-1.44,6.76-2.16c2.59-.72,4.03-1.01,4.75-.72s4.89,1.29,4.89,1.29c0,0,2.16-.14,3.74-.72,1.58-.58,3.45-2.45,3.74-3.17s0-4.38,0-4.38l-3.59-3.1,3.02-7.63,1.29-5.18,1.15-2.95,3.67,8.99,1.51,4.75-4.03,5.18s-.79,4.24,.65,5.18c1.44,.94,3.02,2.09,3.02,2.09l4.46,2.88s1.51-1.15,3.02-1.15,1.44,.29,2.52,.5c1.08,.22,1.29,.58,2.16,.79,.86,.22,1.44,.5,2.95,.58,1.51,.07,2.88-.58,3.74-.65s2.85-.73,2.85-.73c0,0,1.84-2.39,2.77-2.17,.94,.22,.98,.86,2.77,1.15s.42,.68,2.15,.75c1.73,.07,1.47,2.37,3.98,.64,2.52-1.73,2.73,.29,4.1-2.16,1.37-2.45,1.87-4.89,2.23-5.47s1.02-1.1-.22-3.24c-2.74-4.72-4.65-4.39-5.67-4.82s-.81-2.09-4.12-2.01-6.04-.86-6.04-.86c0,0-3.31-5.18-3.24-5.68s.94,.58-.22-4.32c-1.15-4.89-2.09-7.55-2.09-7.55v-1.22l.79-8.56,1.83-7.88,2.16-8.31,3.35-7.91-1.29-6.66,1.51-7.12-10.04-3.24s-27.3-.32-39.6,.22-24.39-1.4-33.34-1.4c-8.96,0-24.79-.08-24.79-.08Z" style="fill: #ede7dd;"/>
          <path d="M59.49,174.47l.58-15.95,2.73-18.12,6.34-11.09,13.81-12.66,7.91-2.88,5.61-.72,9.93,4.75s7.77,2.01,8.78,2.16,8.25-.32,8.8-.58,11.63-6.33,11.63-6.33l4.89,1.29s5.04,3.88,6.04,4.75,4.75,4.46,4.75,4.46l4.46-.72,3.01-5.42s2.58,.46,3.71,1.47,4.52,4.74,5.51,7.8c1,3.06,.85,4.64,1,7.51s-.72,6.33-.86,7.34c-.14,1.01-.44,2.95,.27,3.67s-1.36,3.98-1.36,3.98c0,0,.96,2.89,2.56,5.13s.99,5.55,.99,5.55c0,0,1.28,4.07,.99,5.65-.29,1.58,.86,4.89,.14,7.1-.72,2.21-3.88,7.63-3.88,7.63l-105.75-.72-2.6-5.05Z" style="fill: #ede7dd;"/>
        </g>
        <path d="M104.91,144.01l-6.38,5.23-2.04,7.85,.73,6.28s1.94,4.55,3.19,5.02c1.26,.47,6.91,2.09,7.27,2.15s5.34-.58,7.17-.84c1.83-.26,3.87-.52,6.18-1.57s2.98-1.31,3.69-2.56c.71-1.26,1.23-1.05,1.02-3.19s-1.02-7.85-1.02-7.85c0,0-2.27-4.97-2.85-5.6s-3.24-3.04-3.24-3.04l-3.19-2.3s-2.35-.42-3.27-.47c-.92-.05-7.25,.89-7.25,.89Z" style="fill: #fff;"/>
        <path d="M140.55,144.12l-6.6,5.12-1.87,7.85,.67,6.28s1.78,4.55,2.93,5.02c1.15,.47,6.34,2.09,6.68,2.15s4.9-.58,6.58-.84c1.68-.26,3.56-.52,5.67-1.57s2.73-1.31,3.38-2.56,1.91-2.3,1.72-4.45-.31-7.33-.31-7.33c0,0-3.49-4.24-4.02-4.87s-2.98-3.04-2.98-3.04l-2.93-2.3s-2.72,.47-3.57,.42-5.35,.11-5.35,.11Z" style="fill: #fff;"/>
        <path d="M161.52,259.23l-.09,.17,.09-.17Zm-2.97-7.8h.25c.78,1.39,.96,2.79,.51,4.32h-.51c-.65-1.48-1.06-2.81-.25-4.32m-17.29-.51l1.02,3.3c-1.39-.48-1.6-2.09-1.02-3.3m35.6,3.81l.25-4.58c2.34,.88,1.69,3.66-.25,4.58m-19.58-5.09l.25,1.02c-2.28,.36-.53,7.49,2.03,6.92,3.23-.72,1.16-9.17-2.28-7.94m-32.8,5.85l7.62-8.15c2.05,1.43,2.4,4.54,.66,6.48-2.38,2.05-5.21,2.26-8.28,1.67m40.18-9.41l-.25,.25,.25-.25m-.51,10.17c.93-1.96,1.96-3.61,2.2-5.85,.16-1.48-.63-3.83,.24-5.06,1.44-2.03,3.09-1.66,4.93-2.57h.25c1.07,.84,2.54,.72,3.81,1.14,3.05,1,5.31,3.67,4.32,7-.46-.54-.8-1.2-1.33-1.68-.72-.65-2.13-1.2-2.71-.06-1.09,2.12-.28,6.36,2,7.08-2.49,4.87-8.69,.07-12.13-.16-1.43-.09-2.98,2.38-4.65,2.66-2.14,.36-4.91,.25-6.87-.7-1.11-.54-2.21-1.83-3.45-2-2.01-.28-4.36,1.59-6.38,.34-.82-.51-.59-1.86-.75-2.69-.33-1.75-.62-4.83-2.27-5.66l-1.64,3.38h-.25c.04-4.08,5.65-9.54,9.51-5.6,.69,.71,.38,2.15,.57,3.06,.5,2.37,1.7,5.82,4.16,6.61-.68-2.96-3.09-5.32-2.13-8.65,1.24-4.3,8.41-6.7,11.37-2.77,1.63,2.16,1.18,5.88,.81,8.37-.22,1.46-1.28,2.96,.37,3.81m-29.07-23.22l-.09,.17,.09-.17m1.98-.75l4.46,9.48c-2.72,3.42-4.46,5.15-4.83,10.42-.56-2.92-1.5-4.46-3.42-6.87l2.94-7.63m-61.21-13.65l-.25,.25,.25-.25m75.99-28.31c2.13,.28,4.84-1.39,6.24-1.34-.43,2.15-1.28,3.79-.6,5.12,1.73,3.36-1.4,1.92-1.85,1.7-1.54-.77-2.66-1.32-3.79-5.48Zm-47.85-3.61c2.56,1.34,5.17,2.49,6.61,2.8,1.39,3.27-3.47,7.05-4.17,6.82-1.19-.39-.32-3.77-.81-5.72-.35-1.38-2.56-1.89-1.62-3.89Zm60.26,7.93c-.71,2.6-2.71,3.54-5.09,4.51-4.66,1.89-5.45,2.83-7.52,3.73-2.07,1.6-2.11,3.82-.73,4.45,1.62,1.19,3.42,.78,6.19,.17,2.52-.56,1-.27,3.58-.65-.54,1.55-1,2.45-1.64,3.39-2.14,3.1-5.19,3.66-6.18,3.77-5.87,1.18-7.97,5.17-1.92,7.35,3.39,1.1,5.55,1.22,8.88,.52,1.6-.34-1.4,0,.18-.36,.36,1.04,1.94,4.81,.81,5.59-1.04,.72-2.87,.26-4.06,.3-3.25,.12-5.11,.14-7.12,.59-3.56,1.53-2.79,2.94-.18,4.68,2.77,.3,2.84,1.95,4.36,2.89l-2.81,2.83-3.04-1.21-4.32-.09c-.68-2.81-1.35-5.76-2.6-8.39-.9-1.9-2.39-3.47-3.29-5.34-1.17-2.45-1.01-5.39-2.31-7.88-3.93-7.6-15.39-13.69-21.72-15.35,2.87-2.57,9.03,1.07,18.47,1.83,8.58-1.03,8.36-2.61,18.13-4.91,3.12-.26,4.86,2.66,13.92-2.43m-32.64-7.36c5.29-.02,7.93,1.51,7.91,3.92,0,1.08-.19,4.3-1.55,4.39,0,0-3.12,.41-4.3,.38-2.57,.98-1.05-5.16-2.05-6.04-1.06,.65-.1,5.76-.94,5.75-4.28-.09-5.05,.02-5.69-.23-1.28-.5-2.09-2.58-1.61-4.95,.98-2.89,5.05-3.21,8.22-3.21Zm-52.87,11.68c-.78,4.94-.64,7.45,.91,12.06,1.09,3.23,4.67,9.41,8.53,5.04,2.11-2.38,.33-4.9-.55-7.33-1.67-4.59-2.65-11.23,3.13-14.09l2.2-1.47c1.88,.92,5.67,2.53,4.8,4.35-4.75,8.06-5.73,13.04-2.91,16.5,2.35,1.89,5.6,.73,6.46-2.14,.38-1.26,.39,.07,.39-1.23,5,2.11,6.03,6.18,5.08,11.43-.26,1.45-.64,4.6,.43,5.66,1.87,1.85,6.6,2.56,6.86-.05,.36-3.58-2.18-3.39-2.85-5.63-.51-1.71-.17-4.36,1.69-4.14,1.11,.13,2.1,1.31,2.78,2.1,3.02,5.21,1.71,8.26-.31,11.52-1.6,2.57-5.21,3.88-8.04,4.25-16.55,2.14-30.89-4.49-32.83-5.93-1.97-1.47-15.69-10-13.34-15.55,1.67-3.94,7.85,6.42,9.34,7.12,3.84,2.91,6.47-3.95,5.78-6.87-1.01-4.27-1.79-4.01-3.9-7.48-1.43-2.35-1.37-5.44-2.66-7.86-.77-1.44-1.62-2.07-2.53-3.25,2.19-2.09,8.4-3.77,13.89-4.96,1.08,2.43-1.87,4.98-2.34,7.95h0Zm24.55,.84c-1.57-4.26-5.35-6.85-7.19-8.73,3.28-1.24,2.86,1.04,5.87,2.32,3.23,7.15,12.03,7.58,7.4,6.5-4.66-1.09-4.72,.78-6.07-.1Zm-39.74-2.88c-.4,1.79-2.38,4.52-3.44,7.37-1.38,6.68-5.02,11,3.47,21.44,10.77,9.18,27.25,15.2,41.42,13.25,7.14-.98,15.15-4.51,15.25-12.82,.09-7.2-7.16-11.02-12.46-14.19-1.72-1.03-6.64-3.46-6.21-5.9,.42-2.38,1.56-3.46,3.26,.08,1.2,8.13,9.53-.3,12.1-3.38l4.17,2.39c-.83,4.45-4.02,7.39-.53,9.31,2.2,.35,3.86-.71,5.15-2.29,.48-.59,1.23-2.24,2.16-2.11,1.75,.24,2.75,2.69,3.04,4.15l-1.86,2.99c-1.82,2.26-4.96,4.9-3.4,6.82,2.81,2.43,5.9,2.03,9.83,1.63-.03,1.66,.21,6.04-1.34,7.04-2.5,1.62-6.29-1.77-9.08-1.31-3.82,.62-4.21,4.8-2.33,7.47,1.43,2.05,4.12,3.25,6.15,4.6l-5.85,4.83c-3.81-.63-4.45-5.01-7.63-6.87-.94-.55-2.38-.37-2.38-.37-4.44,.81-3.93,7.8-3.05,10.93-1.62,.3-6.33,1.89-7.65,.69-2.73-2.49,2.16-10.1-4.33-9.46-1.56,.1-2.79,.95-3.66,2.09-2.27,2.34-1.37,4.43-2.07,6.79-1.73-.22-5.96,.05-7.12-1.38-2.05-2.53-.06-3.81-1.21-6.67-1.08-2.68-3.32-2.53-5.45-1.34-2.97,1.66-3.22,.55-7.06,1.65-6.67-1.34-12.36-4.9-14.45-6.75-5.11-4.51-7.04-8.89-9.57-14.25-1.79-5.6-3.19-11.05-3.17-15.99-.15-4.65,7.47-.44,8.73-4.25,1.71-5.19-7.94-6.3-6.11-11.9,1.09-3.31,5.88-5.73,10.75-2.6,5.32,3.63,5.92,8.3,5.92,8.3Zm71.11-51.7l-.08,.17,.08-.17m11.77,11.39c10.77-1.8,6.2-13.26-1.59-12.42-9.64,2.94-3.93,13.16,1.59,12.42Zm10.95-12.24l.08,.09c-.12,.04-.28-.09-.08-.09m-41.69,13.04c8.13-4.32,1.7-14.11-5.61-11.29-6.85,3.21-2.68,13.42,5.61,11.29Zm32.02-18.72c2.94,1.96,6.28,2.65,8.71,5.38,1.67,1.88,2.57,4.38,3.04,6.82,.66,3.46-.76,9.18-3.87,11.22-1.29,.84-3.1,.89-4.57,1.19-6.86,1.37-15.1-.65-16.9-8.6-.49-2.18-.43-4.46,.09-6.61,.53-2.16,2.06-4.42,3.85-5.74,2.98-2.2,6.39-2.28,9.66-3.67m-36.01-.11c5.36-.13,15.05,8.73,13.74,16.53-.67,4.01-4.51,7.63-9.01,8.23-4.19,.55-10.07,1.63-13.3-1.33-8.83-8.1-3.32-22.11,5.81-23.08m55.33-22.61c3.96,5.48,5.05,12.77,2.52,19.06-.28,.69-.71,2.18-1.57,2.32-.66,.11-3.26-1.73-3.21,.1-.09,2.07,1.73,.45,3.31,3.85,1.58,3.4,1.16,13.33-1.44,13.66-1.58,.2-2.25,5,3.17,3.8,2.41-.53,1.86,5.03,1.86,5.03-.3,3.38-1.65,5.71-5.13,6.68,0,0-4.89,1.54-7.78,2.56-1.95,.88-2.81,1.52-2.86,2.1-.04,.58,11.67-4.05,14.9-3.09,0,0-.02,2.05-.49,4.41-.49,2.45-1.08,4.12-2.56,4.91-.47,.25-1.53,1.54-7.69,.25-3.67-.76-6.1,.12-6.51,.41-.82,1.09,2.17,1,4.35,1.21,3.26,.65,9.52-.28,8.93,1.09l-8.03,3.07s-11.37,4.55-22.41-5c-2.51-3.17,1.81-9.06,5.85-8.07,4.04,.98,6.93,2.39,9.56-.72,2.92-3.46-3.63-6.66-7.87-9.14,4.34,.65,6.83,2.64,14.65-.34,6.31-3.31,6.71-15.41,2.65-20.42-2.22-2.74-5.69-5.37-8.99-6.62-1.34-.5-3.75-.54-4.58,.76-2.94-.97-6.56,1.69-8.65,3.52-1.75,1.54-2.43,2.7-3.15,4.87-1.81,5.43-1.58,12.83,2.35,16.15,3.45,4.16,9.37,5.88,7.72,8.07-1.65,2.12-9.7,1.81-12.75,1.53-3.05-.28-9.67,4.05-10.44-.1-.78-4.16,5.24-4.37,6.69-8.46,1.7-7.96,1.75-15.34-3.65-21.56-1.32-1.52-2.81-3.35-4.72-4.27-3.05-1.48-6.7-2.44-10.03-1.72-3.66,.79-7,4.4-8.74,6.45-2.52,2.98-3.59,6.57-3.5,10.37,.23,9.42,7.82,13.74,14.39,13.54,1.59-.05,4.73-.37,6.33-.68,3.14-.6,6.62-1.4,8.93-3.34-.6,5.71-10.76,4.37-11.13,9.22,.08,2.18,.88,4.59,6.54,4.88,4.97,.25,6.01-2.41,7.86-.66,1.74,1.65,2.67,3.3,1.65,5.54-1.69,3.72-6.51,5.6-12.01,6.7-5.49,1.1-13.12-2.07-16.92-4.07-2.98-2.44-3.57-4.48-3.71-4.83,1.43-.03,13.5,3.5,14.4,2.36,4.18-.21-11.07-4.26-14.58-5.19-2.67-1.96-5.6-9.78-3.95-10.89,.71-.48,4.71,2.2,9.38,6.17,1.74,1.39,3.45,3.1,5.09,3.75,.96,.38,2.56-.19,2.14-1.45-.33-.98-1.57-1.57-2.26-2.28-2.91-2.95-6.67-4.45-10.01-6.76-.62-.43-4.32-2.17-4.35-2.9,1.58-5.87-.58-3.91-1.13-9.03-.15-2.61,.92-4.86,1.89-8.6,.55-1.97,.99-4.66-1.53-5.54l-.76,2.54h-.51c-2.99-5.71-5.39-13.15-1.41-18.82,.95-1.36,1.86-2.69,3.45-3.31-.46,1.84-1.48,3.47-1.9,5.34-.23,1.01-.43,2.29-.21,3.31-1.52,7.81,4.02,8.87,10.02,3.58,1.03-.85,3.19-3.88,8.3-3.91,8.09,.58,13.39,9.79,18.68,10.49,3.58-.07-12.11-14.21-5.26-14.05,3.22,.05,3.71,3.45,5.8,9.13,2.35-5.05,.56-9.25,2.15-9.58,4.21,.29,.74,13.14,2.81,13.42,2.81,.38,3.72-9.1,14.28-8.96,6.43,.09,8.61,3.99,12.67,5.77,1.86,.82,4.01-2.97,4.12-5.21,.11-2.17-.05-3.59-1.14-6.22-.35-.86-.78-2.53-2.43-4.73-1.66-1.47-3.2-3.22-1.4-4.64,0,0,1.93,.13,3.98,3.21h0Zm-76.31,45.27c-1.87-.61-2.08-1.2-4.07-1.25-1.37-.04-2.1,1-.89,1.98,1.89,1.55,4.42,.63,6.02,2.77-.38,2.4,.6,3.86,1.08,5.75,.51,2,.26,3.69,1.94,5.9,0,0-6.85-.46-8-.13-2.83,.81-2.74,2.22,.65,2.21,2.01-.64,5.24-.46,8.58,.97l4.04,8.67-5.01,1.43-3.05-.84s-5.25-.97-7.88-.75c-4.69,.39-13.64,3.68-13.64,3.68-2.26-4.67-3.6-7.88-5.91-12.69-.51-1.06-1.93-3.12-2.18-4.25-.47-2.21,1.1-3.96,1.63-5.83,.55-1.91,.27-4.13,.27-6.1,1.76,.97,2.76,3.04,3.6,5.09,1.92,2.16,4.04,3.24,7.32,4.51,4.6,1.23,7.11-2.7,4.54-6.45-3.71-2.97-5.78-3.09-9.03-7.92-3.55-4.53-5.7-9.04-5.32-15.06,.17-2.74,1.49-5.81,2.38-8.39,.78-2.25,1.79-6.53,3.87-7.88-.14,3.3-1.15,6.59-1.01,9.92,.12,2.72,1.21,5.66,2.26,8.14,1.77,4.14,4.29,6.16,7.65,7.88,1.76,.91,4.7,1.58,5.38-.76,.34-1.17-.68-3.01-1.13-4.07-1.78-4.21-4.47-7.75-5.18-12.44-1.15-7.53,.65-17.65,6.68-22.75,2.2-1.86,7.47-5.04,13.13-4,5.67,1.04,13.65,6.03,21.85,6.04,3.96-.16,8.61-1.53,11.98-3.5,1.67-.98,4.47-1.75,6.52-2.06,5.02-.76,7.32,1.77,9.96,4.12,1.8,1.44,3.67,2.84,2.15,4.31-.82,1.63-4.98,4.2-6.5,4.07-1.96-.17-3.86-1.03-5.85-1.22-5.63-.54-11.41-.41-17.04-.01-4.37,.3-8.42,2.6-12.71,1.16-3.29-1.1-6.24-3.07-9.15-4.91-1.2-.76-2.35-2.26-3.81-1.28-8.07,5.4-9.11,13.74-5.99,22.3,.73,2.02,2.93,3.93,3.36,5.89,.38,1.77-3.67,3.79-3.96,7.51-.6,3.72,.58,6.03,.5,9.55m-28.25,1.96c.12,2.87-.17,6.62-1.65,9.15-2.96,5.08-8.67,6.66-12.06,11.19-5.5,7.34-6.01,18.55-5.38,27.12,.26,3.56,.87,6.97,1.83,10.42,1.83,7.29,4.29,11.25,7.84,16.23,3.94,4.3,9.09,8.03,14.49,10.6,7.84,3.74,16.98,5.09,25.2,6.64,5.29,.99,10.85,2.06,16.27,1.69,3.7-.25,7.4-.79,10.93-1.97,2.02-.67,4-2.27,6.1-2.57,2.36,.27,4.24,1.5,6.61,1.24,4.02-.36,7.15-1.81,7.63-5.83,.67,3.3,5.11,8.59,9.41,8.5,1.87-.04,3.51-1.27,5.09-2.14,1.51,2.66,8.84,3.21,11.44,2.11,1.35-.57,2.87-2.3,4.32-2.32,1.71-.02,4.49,3.28,5.85,1.73h.25c1.26,1.76,4.92-.65,6.1-1.64,3.37-2.82,5.47-7.48,3.81-11.84-1.35-3.57-5.74-6.25-9.4-6.79-2.06-.3-4.38,.51-6.07-1.03-2.21-2.01-3.12-6.18-3.81-8.97-2.23-8.9-1.14-20.17,2.01-28.8,.78-3.12,1.33-6.55,2.47-9.54,5.44,2.25,14.84,8.17,10.42,3.33-1.34-1.59-3.4-2.57-5.26-3.38-.93-.4-3.81-1.38-4.42-2.25-.9-1.31,0-3.4,.81-6.85,.7-3.04,1.86-4.77,4.16-3.71,2.29,.73,4.51,2.37,6.82,2.37,.22-.96-1.64-2.3-5.18-3.71-.96-.19-2.84-1.07-2.93-2.43-.04-7.39,.07-9.79-.69-15.09-.38-2.64-.95-4.82-1.41-7.24-.51-2.69-1.41-6.7-1.5-8.06-.67-1.73,.46-1.57,.4-3.4-.08-2.44,.81-4.92,.76-7.37-.04-2.14-.76-4.51-1.32-6.57-1.08-3.25-2.06-5.04-3.89-7.42-1.16-1.55-2.71-3.29-4.58-4.07-2.59-1.08-4.69,2.31-6.36,3.56-.38,.29-1.4,1.84-1.78,1.53-1.02-.85-3.14-3.58-4.07-4.32-3.31-2.65-5.74-4.62-10.18-4.45-4.77,.18-6.99,1.37-9.53,2.41-3.49,1.43-6.58,3.76-11.3,3.56-10.78-2.7-17.02-8.18-27.96-5.48-7.07,1.77-11.97,5.43-15.52,8.53-7.72,6.95-10.2,15.59-13.22,24.67-.53,1.78-1.38,5.07-1.4,8.14-.28,6.16-.38,10.17-.14,14.49Z" style="fill: #534741;"/>
      </g>
      <g>
        <path d="M121.12,57.6c0-.79,.23-1.38,.69-1.75,.46-.38,1.16-.56,2.12-.56h14.69v-9.29h-9.63c-1.23,0-2.17,.2-2.8,.6v-2.92c0-1.54,.93-2.32,2.8-2.32h9.63v-4.82c0-1.95,.16-2.92,.48-2.92h3.86c.32,0,.48,.97,.48,2.92v4.82h9.4c1.27,0,2.22-.2,2.85-.6v2.91c0,1.55-.95,2.32-2.85,2.32h-9.4v9.29h12.07c1.27,0,2.23-.2,2.86-.6v2.91c0,1.5-.96,2.26-2.86,2.26h-31.58c-1.87,0-2.8-.75-2.8-2.26Zm-1.78-31.53c.08-1.07-.57-1.6-1.96-1.6h-4.1c-1.07,6.31-1.9,10.72-2.5,13.27-.12,.47-.18,.87-.18,1.19,0,.35,.08,.65,.23,.89,.17,.24,.42,.46,.77,.65l4.64,2.98c1.63-4.21,2.66-10,3.09-17.38Zm-15.17,31.88c0-.71,.68-1.52,2.02-2.44,3.49-2.3,6.16-4.95,8.03-7.97-.63-.63-1.76-1.5-3.39-2.62-1.27-.87-2.45-1.72-3.57-2.56-.47-.35-.81-.73-1.01-1.13-.2-.4-.3-.87-.3-1.43,0-.51,.1-1.31,.3-2.38l2.38-12.79h-2.32c-.92,0-1.69,.2-2.33,.6v-2.92c0-1.54,.92-2.32,2.74-2.32h2.5l1.19-8.98c.16-1.11,.44-1.93,.83-2.47,.4-.54,.95-.81,1.66-.81,1.59,0,2.38,.8,2.38,2.38l-1.25,9.75h5.18c3.02,0,4.52,1.47,4.52,4.4,0,3.17-.28,6.64-.84,10.41-.67,4.73-1.69,8.55-3.03,11.48,1.71,1.39,2.96,2.53,3.78,3.42,.81,.89,1.22,1.6,1.22,2.11,0,1.67-.85,2.5-2.56,2.5-.35,0-.87-.24-1.54-.74-.68-.5-1.45-1.24-2.33-2.23l-.77-.89c-1.2,1.78-2.42,3.41-3.69,4.88-1.07,1.27-2.44,2.48-4.1,3.63-1.59,1.11-2.75,1.66-3.51,1.66-1.47,0-2.2-.85-2.2-2.56Zm20.29-27.89c0-1.55,.95-2.32,2.85-2.32h11.3v-8.04h-8.87c-1.19,0-2.1,.2-2.73,.59v-2.91c0-1.51,.91-2.26,2.73-2.26h8.87v-4.52c0-1.99,.16-2.97,.48-2.97h3.86c.32,0,.48,.99,.48,2.97v4.52h8.92c.68,0,1.33-.32,1.96-.96v2.91c0,1.75-.65,2.62-1.96,2.62h-8.92v8.04h11.96c1.23,0,2.16-.2,2.79-.6v2.92c0,1.54-.93,2.32-2.79,2.32h-28.08c-1.26,0-2.22,.2-2.85,.6v-2.91Z" style="fill: #024737;"/>
        <path d="M199.95,60.69c-2.22,0-3.33-.97-3.33-2.91,0-.8,.24-1.43,.71-1.9,.4-.4,1.69-.65,3.87-.77,3.37-.16,5.49-.68,6.36-1.55,.51-.47,.97-1.89,1.36-4.25,.4-2.36,.7-5.58,.89-9.66l.71-12.73c.04-1.03-.22-1.81-.77-2.35-.56-.54-1.32-.81-2.32-.81h-17.61c-.59,9.64-2.42,17.09-5.47,22.37-3.14,5.43-7.34,9.66-12.61,12.67-1.03,.59-1.87,1.03-2.5,1.31-.64,.28-1.15,.41-1.55,.41-1.71,0-2.56-.95-2.56-2.85,0-1.03,.6-1.84,1.78-2.44,6.9-3.49,11.88-8.57,14.93-15.23,.76-1.66,1.35-3.8,1.79-6.4,.44-2.6,.77-5.88,1.01-9.84h-14.75c-.68,0-1.33,.32-1.96,.95v-2.91c0-1.94,.65-2.91,1.96-2.91h14.99l.11-8.21c.08-1.9,.93-2.86,2.56-2.86,1.79,0,2.68,1.03,2.68,3.09,0,1.75-.04,4.4-.12,7.98h18.92c2.46,0,4.15,.48,5.09,1.45,.93,.97,1.4,2.61,1.4,4.91,0,4.4-.32,10.6-.96,18.62-.47,5.87-1.03,9.74-1.66,11.59-1.19,3.49-5.51,5.24-12.97,5.24Z" style="fill: #024737;"/>
        <path d="M236.75,58.8c0,4.61-3.74,8.35-8.35,8.35s-8.35-3.73-8.35-8.35,3.74-8.35,8.35-8.35,8.35,3.73,8.35,8.35Z" style="fill: #024737;"/>
        <path d="M59.85,52.85c0,4.61-3.74,8.35-8.35,8.35s-8.35-3.73-8.35-8.35,3.74-8.35,8.35-8.35,8.35,3.74,8.35,8.35Z" style="fill: #024737;"/>
        <path d="M16.7,8.35c0,4.61-3.74,8.35-8.35,8.35S0,12.96,0,8.35,3.74,0,8.35,0s8.35,3.74,8.35,8.35Z" style="fill: #024737;"/>
        <path d="M38.27,8.35c0,4.61-3.74,8.35-8.35,8.35s-8.35-3.73-8.35-8.35S25.31,0,29.92,0s8.35,3.74,8.35,8.35Z" style="fill: #024737;"/>
        <path d="M59.82,8.35c0,4.61-3.74,8.35-8.35,8.35s-8.35-3.73-8.35-8.35S46.86,0,51.47,0s8.35,3.74,8.35,8.35Z" style="fill: #024737;"/>
        <path d="M81.38,8.35c0,4.61-3.73,8.35-8.35,8.35s-8.35-3.73-8.35-8.35S68.43,0,73.04,0s8.35,3.74,8.35,8.35Z" style="fill: #024737;"/>
        <path d="M16.7,30.36c0,4.61-3.74,8.35-8.35,8.35S0,34.97,0,30.36s3.74-8.35,8.35-8.35,8.35,3.73,8.35,8.35Z" style="fill: #024737;"/>
        <path d="M38.27,30.36c0,4.61-3.74,8.35-8.35,8.35s-8.35-3.73-8.35-8.35,3.73-8.35,8.35-8.35,8.35,3.73,8.35,8.35Z" style="fill: #024737;"/>
        <path d="M81.38,30.36c0,4.61-3.73,8.35-8.35,8.35s-8.35-3.73-8.35-8.35,3.73-8.35,8.35-8.35,8.35,3.73,8.35,8.35Z" style="fill: #024737;"/>
        <path d="M16.71,52.74c0,4.61-3.73,8.35-8.35,8.35S.02,57.36,.02,52.74s3.74-8.35,8.35-8.35,8.35,3.74,8.35,8.35Z" style="fill: #024737;"/>
        <path d="M38.29,52.74c0,4.61-3.74,8.35-8.35,8.35s-8.35-3.74-8.35-8.35,3.74-8.35,8.35-8.35,8.35,3.74,8.35,8.35Z" style="fill: #024737;"/>
        <path d="M81.41,52.74c0,4.61-3.74,8.35-8.35,8.35s-8.35-3.74-8.35-8.35,3.74-8.35,8.35-8.35,8.35,3.74,8.35,8.35Z" style="fill: #024737;"/>
      </g>
    </g>
  </g>
</svg>