<?xml version="1.0" encoding="UTF-8"?>
<svg id="b" data-name="圖層 2" xmlns="http://www.w3.org/2000/svg" width="149.97" height="42.54" viewBox="0 0 149.97 42.54">
  <g id="c" data-name="圖層 2">
    <g>
      <path d="M76.73,36.49c0-.5,.14-.87,.43-1.11,.29-.24,.73-.36,1.34-.36h9.3v-5.88h-6.1c-.78,0-1.37,.13-1.77,.38v-1.85c0-.98,.59-1.47,1.77-1.47h6.1v-3.05c0-1.23,.1-1.85,.31-1.85h2.44c.21,0,.31,.61,.31,1.85v3.05h5.95c.8,0,1.41-.12,1.81-.38v1.85c0,.98-.6,1.47-1.81,1.47h-5.95v5.88h7.65c.81,0,1.41-.13,1.81-.38v1.85c0,.95-.61,1.43-1.81,1.43h-20.01c-1.18,0-1.77-.48-1.77-1.43Zm-1.13-19.97c.05-.68-.36-1.02-1.24-1.02h-2.6c-.68,4-1.21,6.79-1.58,8.4-.08,.3-.11,.55-.11,.75,0,.22,.05,.41,.15,.56,.1,.15,.27,.29,.49,.41l2.94,1.89c1.03-2.67,1.68-6.33,1.96-11.01Zm-9.61,20.2c0-.45,.43-.96,1.28-1.54,2.21-1.45,3.9-3.14,5.09-5.05-.4-.4-1.12-.95-2.15-1.66-.8-.55-1.55-1.09-2.26-1.62-.3-.22-.51-.46-.64-.72-.13-.25-.19-.55-.19-.91,0-.32,.06-.83,.19-1.51l1.51-8.1h-1.47c-.58,0-1.07,.13-1.47,.38v-1.85c0-.98,.58-1.47,1.74-1.47h1.58l.75-5.69c.1-.7,.28-1.23,.53-1.56,.25-.34,.6-.51,1.05-.51,1.01,0,1.51,.51,1.51,1.51l-.79,6.18h3.28c1.91,0,2.87,.93,2.87,2.79,0,2.01-.18,4.21-.53,6.59-.42,2.99-1.07,5.42-1.92,7.27,1.08,.88,1.88,1.6,2.39,2.17,.51,.56,.77,1.01,.77,1.34,0,1.06-.54,1.58-1.62,1.58-.22,0-.55-.15-.98-.47-.43-.31-.92-.79-1.47-1.42l-.49-.56c-.76,1.13-1.53,2.16-2.34,3.09-.68,.8-1.54,1.57-2.6,2.3-1.01,.71-1.74,1.05-2.22,1.05-.93,0-1.4-.54-1.4-1.62Zm12.85-17.67c0-.98,.6-1.47,1.81-1.47h7.16v-5.09h-5.62c-.75,0-1.33,.13-1.73,.38v-1.84c0-.95,.58-1.43,1.73-1.43h5.62v-2.87c0-1.26,.1-1.88,.31-1.88h2.44c.21,0,.31,.62,.31,1.88v2.87h5.65c.43,0,.84-.21,1.24-.61v1.84c0,1.11-.41,1.66-1.24,1.66h-5.65v5.09h7.57c.78,0,1.37-.13,1.77-.38v1.85c0,.98-.59,1.47-1.77,1.47h-17.79c-.8,0-1.41,.13-1.81,.38v-1.85Z" style="fill: #003e31;"/>
      <path d="M126.66,38.44c-1.41,0-2.11-.61-2.11-1.85,0-.51,.15-.91,.45-1.21,.25-.25,1.07-.41,2.45-.49,2.14-.1,3.48-.43,4.03-.98,.32-.3,.62-1.2,.86-2.69,.25-1.49,.44-3.54,.57-6.12l.45-8.07c.02-.65-.14-1.15-.49-1.49-.35-.34-.84-.51-1.47-.51h-11.15c-.38,6.11-1.53,10.83-3.46,14.17-1.99,3.44-4.65,6.12-7.99,8.03-.65,.38-1.18,.65-1.58,.83-.41,.18-.73,.26-.98,.26-1.08,0-1.62-.6-1.62-1.81,0-.65,.38-1.17,1.13-1.54,4.37-2.21,7.53-5.43,9.46-9.65,.48-1.05,.86-2.41,1.13-4.05,.28-1.65,.49-3.72,.64-6.24h-9.34c-.43,0-.84,.2-1.24,.6v-1.85c0-1.23,.41-1.85,1.24-1.85h9.5l.07-5.2c.05-1.21,.59-1.81,1.62-1.81,1.13,0,1.7,.65,1.7,1.96,0,1.11-.02,2.79-.08,5.05h11.98c1.56,0,2.63,.31,3.22,.92,.59,.62,.89,1.65,.89,3.11,0,2.79-.2,6.72-.61,11.79-.3,3.72-.65,6.17-1.05,7.35-.75,2.21-3.49,3.32-8.21,3.32Z" style="fill: #003e31;"/>
      <path d="M149.97,37.25c0,2.92-2.37,5.29-5.29,5.29s-5.29-2.36-5.29-5.29,2.37-5.29,5.29-5.29,5.29,2.36,5.29,5.29Z" style="fill: #003e31;"/>
      <path d="M37.91,33.48c0,2.92-2.37,5.29-5.29,5.29s-5.29-2.36-5.29-5.29,2.37-5.29,5.29-5.29,5.29,2.37,5.29,5.29Z" style="fill: #003e31;"/>
      <path d="M10.58,5.29c0,2.92-2.37,5.29-5.29,5.29S0,8.21,0,5.29,2.37,0,5.29,0s5.29,2.37,5.29,5.29Z" style="fill: #003e31;"/>
      <path d="M24.24,5.29c0,2.92-2.37,5.29-5.29,5.29s-5.29-2.36-5.29-5.29S16.03,0,18.95,0s5.29,2.37,5.29,5.29Z" style="fill: #003e31;"/>
      <path d="M37.89,5.29c0,2.92-2.37,5.29-5.29,5.29s-5.29-2.36-5.29-5.29S29.68,0,32.61,0s5.29,2.37,5.29,5.29Z" style="fill: #003e31;"/>
      <path d="M51.55,5.29c0,2.92-2.36,5.29-5.29,5.29s-5.29-2.36-5.29-5.29,2.36-5.29,5.29-5.29,5.29,2.37,5.29,5.29Z" style="fill: #003e31;"/>
      <path d="M10.58,19.23c0,2.92-2.37,5.29-5.29,5.29S0,22.15,0,19.23s2.37-5.29,5.29-5.29,5.29,2.37,5.29,5.29Z" style="fill: #003e31;"/>
      <path d="M24.24,19.23c0,2.92-2.37,5.29-5.29,5.29s-5.29-2.36-5.29-5.29,2.36-5.29,5.29-5.29,5.29,2.37,5.29,5.29Z" style="fill: #003e31;"/>
      <path d="M51.55,19.23c0,2.92-2.36,5.29-5.29,5.29s-5.29-2.36-5.29-5.29,2.36-5.29,5.29-5.29,5.29,2.37,5.29,5.29Z" style="fill: #003e31;"/>
      <path d="M10.59,33.41c0,2.92-2.36,5.29-5.29,5.29S.01,36.33,.01,33.41s2.37-5.29,5.29-5.29,5.29,2.37,5.29,5.29Z" style="fill: #003e31;"/>
      <path d="M24.25,33.41c0,2.92-2.37,5.29-5.29,5.29s-5.29-2.37-5.29-5.29,2.37-5.29,5.29-5.29,5.29,2.37,5.29,5.29Z" style="fill: #003e31;"/>
      <path d="M51.57,33.41c0,2.92-2.37,5.29-5.29,5.29s-5.29-2.37-5.29-5.29,2.37-5.29,5.29-5.29,5.29,2.37,5.29,5.29Z" style="fill: #003e31;"/>
    </g>
  </g>
</svg>