<?xml version="1.0" encoding="UTF-8"?>
<svg id="b" data-name="圖層 2" xmlns="http://www.w3.org/2000/svg" width="106.34" height="111.25" viewBox="0 0 106.34 111.25">
  <g id="c" data-name="TEXT">
    <g>
      <path d="M13.73,103.6c0-.63,.18-1.1,.55-1.4,.36-.3,.93-.45,1.69-.45h11.77v-7.44h-7.72c-.98,0-1.73,.16-2.24,.48v-2.34c0-1.24,.74-1.86,2.24-1.86h7.72v-3.86c0-1.56,.13-2.33,.38-2.33h3.1c.25,0,.38,.78,.38,2.33v3.86h7.53c1.02,0,1.78-.16,2.29-.48v2.33c0,1.24-.77,1.86-2.29,1.86h-7.53v7.44h9.68c1.02,0,1.78-.16,2.28-.48v2.33c0,1.21-.76,1.81-2.28,1.81H15.96c-1.49,0-2.24-.6-2.24-1.81Zm-1.43-25.26c.06-.86-.46-1.28-1.57-1.28h-3.29c-.86,5.05-1.52,8.59-2,10.63-.1,.38-.15,.7-.15,.95,0,.28,.07,.52,.19,.71,.13,.19,.33,.37,.62,.52l3.71,2.39c1.31-3.37,2.13-8.01,2.48-13.92ZM.14,103.89c0-.57,.54-1.22,1.62-1.95,2.8-1.84,4.94-3.97,6.44-6.38-.51-.51-1.42-1.21-2.72-2.1-1.02-.7-1.97-1.38-2.86-2.05-.39-.28-.65-.58-.81-.9-.16-.32-.23-.7-.23-1.15,0-.41,.08-1.05,.23-1.9l1.91-10.25H1.86c-.73,0-1.35,.16-1.86,.48v-2.33c0-1.24,.73-1.86,2.19-1.86h2l.95-7.2c.13-.89,.35-1.55,.66-1.98,.32-.43,.77-.65,1.34-.65,1.27,0,1.91,.64,1.91,1.91l-1,7.81h4.15c2.41,0,3.62,1.18,3.62,3.53,0,2.54-.22,5.32-.67,8.34-.54,3.79-1.35,6.85-2.43,9.2,1.36,1.11,2.37,2.02,3.03,2.74,.65,.71,.98,1.28,.98,1.69,0,1.34-.69,2-2.05,2-.29,0-.7-.2-1.24-.59-.54-.4-1.16-1-1.86-1.79l-.62-.71c-.95,1.43-1.94,2.73-2.95,3.91-.86,1.01-1.95,1.98-3.29,2.91-1.27,.89-2.21,1.33-2.81,1.33-1.18,0-1.76-.68-1.76-2.05Zm16.25-22.35c0-1.24,.77-1.86,2.29-1.86h9.05v-6.44h-7.1c-.95,0-1.68,.16-2.19,.48v-2.33c0-1.21,.73-1.81,2.19-1.81h7.1v-3.62c0-1.59,.13-2.39,.38-2.39h3.1c.25,0,.38,.8,.38,2.39v3.62h7.15c.54,0,1.07-.26,1.57-.77v2.33c0,1.4-.52,2.1-1.57,2.1h-7.15v6.44h9.58c.99,0,1.73-.16,2.24-.48v2.34c0,1.24-.75,1.86-2.24,1.86H18.68c-1.02,0-1.78,.16-2.29,.48v-2.33Z" style="fill: #fff;"/>
      <path d="M76.86,106.08c-1.78,0-2.66-.78-2.66-2.33,0-.64,.19-1.15,.57-1.52,.32-.32,1.35-.52,3.1-.62,2.7-.13,4.4-.54,5.1-1.24,.42-.38,.78-1.51,1.1-3.41,.32-1.89,.56-4.47,.72-7.74l.57-10.2c.04-.83-.17-1.45-.61-1.88-.45-.43-1.07-.65-1.86-.65h-14.11c-.48,7.72-1.94,13.69-4.38,17.91-2.51,4.35-5.88,7.74-10.1,10.15-.83,.48-1.49,.83-2,1.05-.51,.22-.92,.33-1.24,.33-1.37,0-2.05-.76-2.05-2.28,0-.83,.48-1.48,1.43-1.95,5.53-2.8,9.51-6.87,11.96-12.2,.6-1.33,1.08-3.04,1.43-5.12,.35-2.08,.62-4.71,.81-7.88h-11.82c-.54,0-1.06,.25-1.57,.76v-2.33c0-1.56,.52-2.33,1.57-2.33h12.01l.1-6.58c.07-1.52,.75-2.29,2.05-2.29,1.43,0,2.15,.83,2.15,2.48,0,1.4-.04,3.53-.1,6.39h15.16c1.97,0,3.33,.39,4.07,1.16,.75,.78,1.12,2.09,1.12,3.93,0,3.53-.25,8.5-.76,14.92-.38,4.7-.83,7.8-1.33,9.29-.95,2.8-4.42,4.2-10.39,4.2Z" style="fill: #fff;"/>
      <path d="M106.34,104.57c0,3.7-2.99,6.69-6.69,6.69s-6.69-2.99-6.69-6.69,2.99-6.69,6.69-6.69,6.69,2.99,6.69,6.69Z" style="fill: #fff;"/>
      <path d="M67.71,42.33c0,3.69-2.99,6.69-6.69,6.69s-6.69-3-6.69-6.69,2.99-6.69,6.69-6.69,6.69,3,6.69,6.69Z" style="fill: #fff;"/>
      <circle cx="26.46" cy="6.69" r="6.69" style="fill: #fff;"/>
      <circle cx="43.73" cy="6.69" r="6.69" style="fill: #fff;"/>
      <circle cx="61" cy="6.69" r="6.69" style="fill: #fff;"/>
      <path d="M84.96,6.69c0,3.69-3,6.69-6.69,6.69s-6.69-2.99-6.69-6.69,3-6.69,6.69-6.69,6.69,2.99,6.69,6.69Z" style="fill: #fff;"/>
      <path d="M33.14,24.32c0,3.69-3,6.69-6.69,6.69s-6.69-3-6.69-6.69,2.99-6.69,6.69-6.69,6.69,2.99,6.69,6.69Z" style="fill: #fff;"/>
      <path d="M50.42,24.32c0,3.69-2.99,6.69-6.69,6.69s-6.69-3-6.69-6.69,3-6.69,6.69-6.69,6.69,2.99,6.69,6.69Z" style="fill: #fff;"/>
      <path d="M84.96,24.32c0,3.69-3,6.69-6.69,6.69s-6.69-3-6.69-6.69,3-6.69,6.69-6.69,6.69,2.99,6.69,6.69Z" style="fill: #fff;"/>
      <path d="M33.16,42.25c0,3.69-3,6.69-6.69,6.69s-6.69-2.99-6.69-6.69,3-6.69,6.69-6.69,6.69,3,6.69,6.69Z" style="fill: #fff;"/>
      <path d="M50.44,42.25c0,3.69-3,6.69-6.69,6.69s-6.69-2.99-6.69-6.69,2.99-6.69,6.69-6.69,6.69,3,6.69,6.69Z" style="fill: #fff;"/>
      <path d="M84.98,42.25c0,3.69-2.99,6.69-6.69,6.69s-6.69-2.99-6.69-6.69,2.99-6.69,6.69-6.69,6.69,3,6.69,6.69Z" style="fill: #fff;"/>
    </g>
  </g>
</svg>