<?xml version="1.0" encoding="UTF-8"?>
<svg id="b" data-name="圖層 2" xmlns="http://www.w3.org/2000/svg" width="27.33" height="15.47" viewBox="0 0 27.33 15.47">
  <g id="c" data-name="燈箱">
    <g>
      <path d="M27.23,.74c-2.98,3.76-6.07,7.43-9.2,11.06-.41,.56-1.12,1.06-1.71,1.23-1.92,.56-4.08,.6-5.76-.66-1.49-1.54-2.91-3.12-4.34-4.7C4.15,5.38,2.1,3.09,.11,.75-.05,.56-.03,.27,.16,.11c.18-.15,.45-.14,.61,.02,3.3,3.22,6.51,6.51,9.68,9.85,.53,.51,1.09,1.25,1.46,1.39,1.09,.49,2.73,.5,3.88,.14,.53-.16,.73-.38,1.04-.75C20.01,7.16,23.22,3.61,26.54,.14c.38-.41,1.05,.16,.69,.6h0Z" style="fill: #cba671;"/>
      <path d="M20.1,9.41s-2.83,3.06-3.34,4.65c-.63,1.97-4.45,1.7-5.3,.29-.87-1.44,.05-1.07-3.45-4.7l4.34,2.93,4.77-.95,2.97-2.22Z" style="fill: #cba671;"/>
    </g>
  </g>
</svg>