<?xml version="1.0" encoding="UTF-8"?>
<svg id="b" data-name="圖層 2" xmlns="http://www.w3.org/2000/svg" width="30.24" height="30.24" viewBox="0 0 30.24 30.24">
  <g id="c" data-name="menu">
    <g>
      <circle cx="15.12" cy="15.12" r="14.47" transform="translate(-4.63 6.94) rotate(-22.5)" style="fill: none; stroke: #fff; stroke-miterlimit: 10; stroke-width: 1.3px;"/>
      <g>
        <path d="M25.1,18.39h-4.2c-.16,0-.29-.13-.29-.29h0v-6.53h0c0-.16,.13-.29,.29-.29h4.2c.16,0,.29,.13,.29,.29v1.06c0,.16-.13,.29-.29,.29h-2.86v1.1h2.86c.16,0,.29,.13,.29,.29v1.06c0,.16-.13,.29-.29,.29h-2.86v1.1h2.86c.16,0,.29,.13,.29,.29v1.06c0,.16-.13,.29-.29,.29" style="fill: #fff;"/>
        <path d="M9.54,18.39c.16,0,.29-.13,.29-.29v-1.06c0-.16-.13-.29-.29-.29h-2.86v-5.18c0-.16-.13-.29-.29-.29h-1.06c-.16,0-.29,.13-.29,.29v6.53h0c0,.16,.13,.29,.29,.29h4.2Z" style="fill: #fff;"/>
        <path d="M12.08,11.29h-1.06c-.16,0-.29,.13-.29,.29v6.53c0,.16,.13,.29,.29,.29h1.06c.16,0,.29-.13,.29-.29v-6.53c0-.16-.13-.29-.29-.29" style="fill: #fff;"/>
        <path d="M19.3,11.29h-1.06c-.16,0-.29,.13-.29,.29v3.88l-2.99-4.04s-.01-.02-.02-.03c0,0,0,0,0,0,0,0-.01-.01-.02-.02h0s-.01-.01-.02-.02h0s0-.01-.02-.02c0,0,0,0,0,0,0,0-.01,0-.02,0,0,0,0,0,0,0,0,0-.01,0-.02,0,0,0,0,0,0,0,0,0-.01,0-.02,0,0,0,0,0-.01,0,0,0-.01,0-.02,0,0,0,0,0-.01,0,0,0-.01,0-.02,0,0,0-.01,0-.02,0,0,0,0,0,0,0h-1.06c-.16,0-.29,.13-.29,.29v6.53c0,.16,.13,.29,.29,.29h1.06c.16,0,.29-.13,.29-.29v-3.88l2.99,4.04s.05,.05,.07,.07c0,0,0,0,0,0,0,0,.01,0,.02,.01,0,0,0,0,0,0,0,0,0,0,.01,0,0,0,0,0,.01,0,0,0,0,0,0,0,0,0,.01,0,.02,0,0,0,0,0,0,0,.02,0,.05,.01,.07,.01h1.06c.16,0,.29-.13,.29-.29v-6.53c0-.16-.13-.29-.29-.29" style="fill: #fff;"/>
      </g>
    </g>
  </g>
</svg>