<?xml version="1.0" encoding="UTF-8"?>
<svg id="b" data-name="圖層 2" xmlns="http://www.w3.org/2000/svg" width="116.97" height="125.93" viewBox="0 0 116.97 125.93">
  <g id="c" data-name="menu">
    <g>
      <g>
        <rect x="17.26" y="48.79" width="80.44" height="76.01" rx="35.35" ry="35.35" style="fill: #ede5db;"/>
        <path d="M62.35,125.93c-3.79-.09-10.19,.05-13.89-.39-11.42-1.35-21.8-8.5-27.29-18.55-4.42-7.62-4.89-16.61-4.4-25.2,.63-12.78,8.73-24.73,20.27-30.24,4.82-2.37,10.19-3.65,15.59-3.71l7.88-.07c13.97-.63,26.98,6.29,33.92,18.52,4.22,7.08,5.06,15.47,4.76,23.56-.09,20-16.93,36.36-36.83,36.1h0Zm0-2.25c18.44-.08,33.74-15.54,33.84-33.88,.31-7.58-.24-15.48-4.17-22.18-5.21-9.46-14.98-16.2-25.75-17.47-3.56-.43-10-.29-13.65-.37-18.77-.28-34.55,15.24-34.72,34.02-.29,7.71,.36,15.78,4.44,22.54,5.41,9.54,15.44,16.18,26.35,17.25,3.57,.36,10.01,.09,13.67,.1h0Z" style="fill: #968375;"/>
      </g>
      <g>
        <path d="M30.61,17.65c-.22,.09-.44,.09-.66,0-.22-.09-.38-.25-.47-.46l-3.62-8.65c-.09-.22-.09-.44,0-.66,.09-.22,.25-.38,.46-.47l.67-.28c.24-.1,.49-.12,.74-.07,.25,.06,.47,.18,.64,.37l3.17,3.42c.08,.09,.56,.66,1.42,1.69,.02,.01,.04,.02,.06,0,.02,0,.03-.02,.04-.05-.02-.22-.05-.58-.1-1.08-.05-.49-.08-.87-.11-1.12l-.25-4.65c-.02-.26,.04-.49,.18-.72s.33-.38,.56-.48l.67-.28c.23-.09,.45-.09,.67,0,.22,.09,.37,.25,.46,.46l3.62,8.65c.09,.22,.09,.44,0,.66-.09,.22-.24,.38-.47,.47l-.27,.11c-.22,.09-.44,.09-.66,0s-.38-.25-.47-.46l-1.46-3.47c-.25-.59-.63-1.73-1.16-3.44,0-.02,0-.03-.03-.02-.02,0-.03,.02-.02,.04l.17,2.72,.2,4.33c0,.19-.04,.36-.15,.52-.1,.16-.24,.28-.42,.35-.18,.07-.36,.09-.54,.05-.19-.04-.34-.13-.47-.26l-2.97-3.17-1.79-2.04s-.03-.02-.05-.01c-.02,0-.02,.02-.02,.04,.89,1.65,1.44,2.72,1.66,3.23l1.46,3.47c.09,.22,.09,.44,0,.66-.09,.22-.24,.38-.47,.47l-.24,.1Z" style="fill: #cba671;"/>
        <path d="M42.45,13.26c-.23,.05-.45,.01-.65-.12-.21-.13-.33-.31-.38-.54l-2.06-9.15c-.05-.23-.01-.44,.12-.65,.13-.2,.31-.33,.54-.38l4.96-1.12c.24-.05,.46-.02,.66,.11,.2,.13,.33,.31,.38,.54l.03,.11c.05,.24,.02,.46-.11,.65-.12,.2-.31,.32-.54,.38l-3.53,.79c-.07,.01-.09,.06-.07,.14l.51,2.29c.01,.07,.06,.09,.12,.08l2.86-.64c.23-.05,.45-.01,.65,.12,.2,.13,.33,.31,.38,.54l.03,.13c.05,.24,.01,.46-.12,.66-.13,.2-.31,.32-.54,.38l-2.86,.64c-.07,.02-.09,.06-.07,.14l.6,2.69c.02,.07,.06,.09,.12,.08l3.69-.83c.24-.05,.46-.02,.66,.12,.2,.13,.33,.31,.38,.54l.03,.13c.05,.23,.01,.44-.11,.65-.12,.2-.31,.33-.54,.39l-5.12,1.15Z" style="fill: #cba671;"/>
        <path d="M51.36,11.48c-.23,.01-.44-.06-.62-.23s-.27-.36-.28-.6l-.44-9.36c-.01-.23,.06-.44,.23-.62,.16-.18,.36-.27,.6-.28l.73-.03c.26-.01,.5,.05,.72,.19,.22,.14,.38,.33,.47,.57l1.8,4.3c.04,.12,.3,.81,.76,2.08,.01,.02,.03,.03,.05,.03,.02,0,.04-.01,.05-.03,.06-.22,.15-.57,.27-1.05,.12-.48,.22-.84,.29-1.09l1.36-4.45c.07-.25,.2-.45,.41-.61,.21-.16,.44-.25,.69-.26l.73-.03c.24-.01,.45,.06,.63,.23,.17,.16,.27,.36,.28,.6l.44,9.36c.01,.23-.06,.44-.22,.62-.16,.18-.36,.27-.6,.28h-.29c-.23,.02-.44-.05-.62-.21s-.27-.36-.28-.6l-.18-3.76c-.03-.63,0-1.84,.09-3.63,0-.02,0-.03-.02-.03s-.04,.01-.04,.03l-.77,2.62-1.3,4.14c-.06,.18-.17,.33-.32,.44-.15,.11-.32,.18-.51,.19-.19,0-.37-.04-.53-.14s-.28-.24-.36-.41l-1.7-4-.98-2.54s-.03-.03-.04-.03-.03,.01-.03,.03c.27,1.85,.42,3.06,.45,3.6l.18,3.76c.01,.23-.06,.44-.22,.62s-.36,.27-.6,.28h-.26Z" style="fill: #cba671;"/>
        <path d="M63.99,11.39c-.23-.03-.42-.14-.57-.33-.15-.19-.2-.4-.17-.64l1.25-9.29c.03-.23,.14-.42,.33-.57,.19-.15,.4-.2,.64-.17l2.79,.37c2.65,.36,3.86,1.44,3.61,3.25-.07,.51-.27,.97-.59,1.38-.33,.41-.72,.67-1.18,.79-.03,0-.04,0-.05,.04s0,.04,.02,.05c.6,.24,1.05,.6,1.36,1.08s.42,1.08,.32,1.79c-.14,1.06-.64,1.82-1.5,2.26s-1.92,.58-3.19,.41l-3.08-.41Zm1.59-1.62c0,.07,.02,.11,.09,.12l1.42,.19c1.55,.21,2.4-.24,2.55-1.36,.07-.53-.07-.95-.42-1.24-.35-.29-.92-.49-1.69-.6l-1.42-.19c-.07,0-.11,.03-.12,.1l-.4,2.98Zm.65-4.83c0,.07,.02,.11,.09,.12l1.18,.16c.68,.09,1.2,.03,1.56-.17,.36-.21,.58-.54,.64-.99,.06-.47-.05-.84-.35-1.1s-.78-.43-1.45-.52l-1.21-.16c-.07,0-.11,.02-.12,.09l-.35,2.58Z" style="fill: #cba671;"/>
        <path d="M73.96,13.11c-.22-.07-.39-.21-.51-.42s-.14-.43-.07-.66l2.67-8.99c.07-.22,.21-.39,.42-.51,.21-.11,.43-.14,.66-.07l4.87,1.45c.23,.07,.41,.21,.52,.42s.13,.43,.07,.65l-.03,.11c-.07,.23-.21,.41-.41,.52-.21,.11-.43,.13-.66,.06l-3.47-1.03c-.07-.02-.11,0-.13,.08l-.67,2.25c-.02,.07,0,.11,.07,.13l2.81,.83c.22,.07,.39,.21,.51,.42,.11,.21,.14,.43,.07,.66l-.04,.13c-.07,.23-.21,.41-.42,.52-.21,.11-.43,.13-.65,.07l-2.81-.83c-.07-.02-.11,0-.13,.08l-.79,2.64c-.02,.07,0,.11,.07,.13l3.62,1.08c.23,.07,.41,.21,.52,.42,.11,.21,.13,.43,.07,.65l-.04,.13c-.07,.22-.2,.4-.41,.51-.21,.12-.43,.14-.66,.07l-5.03-1.5Z" style="fill: #cba671;"/>
        <path d="M89.43,18.42c0,.09-.02,.17-.05,.24-.04,.07-.09,.14-.18,.2-.15,.11-.31,.13-.49,.04l-.67-.32c-.24-.11-.43-.28-.58-.5s-.23-.47-.24-.73l-.2-3.8c0-.08-.04-.13-.1-.16l-1.2-.57c-.06-.03-.11,0-.14,.06l-1.39,2.91c-.1,.21-.27,.36-.49,.44-.23,.08-.45,.07-.66-.03l-.45-.21c-.21-.1-.36-.27-.44-.49-.08-.23-.07-.45,.03-.66l4.03-8.46c.1-.21,.26-.36,.49-.44,.23-.08,.45-.07,.66,.03l2.71,1.29c2.51,1.2,3.29,2.81,2.32,4.84-.34,.71-.78,1.22-1.32,1.55-.54,.33-1.16,.47-1.85,.44-.07,0-.11,.03-.11,.09l.32,4.26Zm-1.51-10.24c-.06-.03-.11,0-.14,.06l-1.36,2.86c-.03,.06-.01,.11,.05,.14l1.2,.57c.64,.31,1.2,.41,1.67,.3,.47-.1,.83-.42,1.09-.95s.26-.98,.04-1.36-.67-.73-1.34-1.05l-1.2-.57Z" style="fill: #cba671;"/>
      </g>
      <g>
        <path d="M35.45,36.77c-.65,.27-1.3,.41-1.96,.42-.66,0-1.29-.12-1.91-.38-.61-.26-1.18-.67-1.71-1.24-.53-.57-.97-1.27-1.32-2.11-.34-.82-.53-1.62-.56-2.41-.03-.79,.08-1.5,.32-2.13,.25-.63,.61-1.19,1.08-1.68s1.04-.86,1.68-1.13c.86-.36,1.77-.43,2.73-.2,.25,.05,.44,.21,.55,.47,.08,.2,.09,.41,.02,.62l-.03,.09c-.07,.22-.21,.38-.43,.5-.03,.01-.05,.02-.08,.03-.19,.08-.38,.1-.58,.07-.5-.08-.97-.02-1.41,.16-.79,.33-1.31,.92-1.55,1.77-.24,.85-.14,1.81,.32,2.89,.46,1.11,1.07,1.88,1.82,2.31s1.53,.48,2.35,.13c.54-.23,.98-.6,1.31-1.12,.11-.17,.26-.3,.46-.38,.02,0,.04-.02,.05-.02,.22-.08,.43-.07,.63,.04l.08,.03c.21,.1,.36,.26,.45,.48,.11,.25,.1,.49-.02,.71-.49,.95-1.26,1.64-2.31,2.08Z" style="fill: #cba671;"/>
        <path d="M41.1,34.57c-.23,.06-.45,.02-.65-.1s-.34-.3-.4-.53l-2.26-9.1c-.06-.23-.02-.44,.1-.65,.12-.21,.3-.34,.53-.4l4.93-1.23c.24-.06,.46-.03,.66,.1s.33,.3,.39,.53l.03,.11c.06,.24,.03,.46-.09,.66-.12,.2-.3,.33-.54,.39l-3.51,.87c-.07,.02-.09,.06-.07,.14l.57,2.27c.02,.07,.06,.09,.12,.07l2.84-.71c.23-.06,.44-.02,.65,.1,.21,.12,.34,.3,.4,.53l.03,.13c.06,.24,.03,.46-.1,.66-.13,.2-.3,.33-.53,.39l-2.84,.71c-.07,.02-.09,.06-.07,.14l.67,2.67c.02,.07,.06,.09,.12,.07l3.67-.91c.24-.06,.46-.03,.66,.1,.2,.13,.33,.3,.39,.53l.03,.13c.06,.23,.02,.44-.09,.65-.12,.21-.3,.34-.54,.4l-5.09,1.27Z" style="fill: #cba671;"/>
        <path d="M50.01,32.64c-.23,.02-.44-.05-.63-.21-.18-.16-.29-.35-.31-.58l-.76-9.34c-.02-.23,.05-.44,.21-.63,.16-.18,.35-.29,.58-.3l.54-.04c.26-.02,.51,.03,.75,.14,.24,.12,.43,.29,.58,.51l3.22,4.91,1.29,2.26s.03,.04,.05,.04c.02,0,.04-.02,.03-.05-.34-1.77-.54-3.05-.6-3.82l-.29-3.55c-.02-.23,.05-.44,.21-.63,.16-.18,.35-.29,.58-.3l.38-.03c.23-.02,.44,.05,.63,.21,.18,.16,.29,.35,.3,.59l.76,9.34c.02,.23-.05,.44-.21,.63-.16,.18-.35,.29-.59,.3l-.53,.04c-.26,.02-.51-.03-.75-.14-.24-.12-.43-.29-.58-.51l-3.21-4.94-1.3-2.25s-.03-.03-.05-.03-.04,.01-.03,.03c.03,.14,.08,.44,.16,.88,.08,.44,.13,.79,.17,1.02,.04,.24,.08,.54,.14,.91,.05,.37,.09,.7,.12,.99l.29,3.58c.02,.23-.05,.44-.21,.63-.16,.18-.35,.29-.58,.31l-.38,.03Z" style="fill: #cba671;"/>
        <path d="M63.29,32.34c-.24-.02-.44-.12-.59-.3-.15-.18-.22-.39-.2-.63l.66-8.25c0-.08-.03-.12-.11-.13l-2.13-.17c-.24-.02-.44-.12-.59-.3-.15-.18-.22-.39-.2-.63v-.12c.03-.23,.13-.43,.31-.59,.18-.16,.39-.23,.63-.21l6.73,.54c.24,.02,.44,.12,.59,.3,.15,.18,.22,.39,.2,.63v.12c-.03,.24-.13,.44-.31,.59-.18,.15-.39,.22-.63,.2l-2.16-.17c-.08,0-.12,.03-.13,.11l-.66,8.25c-.02,.23-.12,.43-.3,.59-.18,.16-.39,.23-.63,.21l-.48-.04Z" style="fill: #cba671;"/>
        <path d="M77.52,34.18c.02,.08,.02,.17,0,.25-.02,.08-.06,.16-.13,.23-.12,.14-.28,.19-.47,.14l-.73-.17c-.26-.06-.48-.19-.67-.37-.19-.19-.32-.41-.39-.67l-.98-3.67c-.02-.08-.07-.12-.13-.14l-1.3-.31c-.07-.02-.11,.01-.13,.09l-.75,3.13c-.05,.23-.19,.41-.39,.53-.21,.13-.42,.16-.65,.11l-.48-.12c-.23-.06-.4-.19-.53-.39-.13-.21-.16-.42-.11-.65l2.2-9.11c.05-.23,.19-.4,.39-.53,.21-.13,.42-.16,.65-.11l2.92,.7c2.71,.65,3.79,2.07,3.27,4.25-.18,.76-.51,1.35-.97,1.78-.47,.43-1.04,.7-1.72,.81-.07,.01-.1,.05-.09,.11l1.2,4.1Zm-3.59-9.71c-.07-.02-.11,.01-.13,.09l-.74,3.08c-.02,.07,0,.11,.08,.12l1.3,.31c.69,.17,1.26,.15,1.7-.05s.73-.59,.87-1.15c.14-.57,.06-1.02-.24-1.34s-.81-.57-1.53-.75l-1.3-.31Z" style="fill: #cba671;"/>
        <path d="M80.05,35.95c-.22-.09-.37-.25-.46-.47s-.09-.44,0-.66l3.59-8.66c.09-.22,.25-.37,.47-.46,.22-.09,.44-.09,.66,0l4.7,1.94c.23,.09,.38,.25,.47,.47,.09,.22,.09,.44,0,.66l-.04,.11c-.09,.23-.25,.38-.46,.47-.22,.09-.44,.09-.66,0l-3.34-1.38c-.06-.03-.11,0-.14,.07l-.9,2.17c-.03,.06,0,.11,.06,.13l2.71,1.12c.22,.09,.37,.25,.46,.47,.09,.22,.09,.44,0,.66l-.05,.12c-.09,.23-.25,.38-.47,.47-.22,.09-.44,.09-.66,0l-2.71-1.12c-.06-.03-.11,0-.14,.07l-1.05,2.54c-.03,.06,0,.11,.05,.13l3.49,1.45c.23,.09,.38,.25,.47,.47s.09,.44,0,.66l-.05,.12c-.09,.22-.24,.37-.46,.47s-.44,.09-.67,0l-4.85-2.01Z" style="fill: #cba671;"/>
      </g>
      <g>
        <path d="M45.01,67.09c.55-.45,1.12-.68,1.74-.68h.38c.64,0,1.23,.22,1.79,.65,1.6,1.25,3.49,2.18,5.65,2.79,.23,.06,.38,.2,.44,.43,.02,.07,.03,.14,.03,.22,0,.14-.04,.26-.12,.37-.16,.23-.32,.47-.49,.73-.1,.17-.25,.29-.44,.36-.09,.03-.18,.05-.27,.05s-.19-.02-.29-.05c-.05-.02-.07,0-.07,.05v3.42c0,.28-.1,.52-.3,.72-.2,.19-.43,.29-.71,.29h-10.41c-.27,0-.51-.1-.71-.29-.2-.19-.3-.43-.3-.72v-3.42s-.01-.06-.03-.07c-.02-.01-.05-.02-.07-.02-.11,.05-.23,.07-.34,.07-.12,0-.24-.02-.36-.07-.24-.09-.43-.25-.56-.48l-.27-.41c-.09-.14-.14-.27-.14-.41,0-.08,.02-.16,.05-.24,.07-.23,.22-.37,.44-.44,1.01-.34,1.98-.76,2.92-1.27,.94-.5,1.75-1.04,2.43-1.59Zm-2.13,15.89c-.28,0-.52-.1-.71-.29-.19-.19-.29-.43-.29-.72v-4.11c0-.28,.1-.52,.29-.72,.19-.19,.43-.29,.71-.29h8.57c.28,0,.52,.1,.71,.29,.19,.19,.29,.43,.29,.72v4.04c0,.28-.1,.52-.29,.72-.19,.19-.43,.29-.71,.29h-1.29c-.09,0-.17-.03-.22-.08-.06-.06-.08-.13-.08-.22,0-.02-.02-.03-.05-.03h-5.38s-.05,.01-.05,.03c0,.11-.04,.2-.11,.27-.07,.07-.16,.1-.26,.1h-1.11Zm-.8-11.57s-.02,.02-.02,.03,0,.02,.02,.02h10s.03,0,.03-.02,0-.02-.02-.02c-.59-.26-1.2-.56-1.82-.89-.03-.02-.05-.01-.05,.03,0,.12-.05,.23-.14,.32s-.2,.14-.32,.14h-5.23c-.15,0-.27-.05-.37-.15s-.14-.22-.14-.36c0-.04-.02-.06-.07-.03-.58,.32-1.2,.62-1.87,.92Zm.95,3.41c0,.08,.04,.12,.14,.12h.49c.08,0,.11-.04,.1-.12-.02-.18-.06-.37-.1-.56-.01-.08-.02-.16-.02-.24,0-.18,.04-.36,.14-.53,.14-.24,.33-.39,.6-.46l.07-.02s.02,0,.02,0c0,0,0,0-.02,0h-1.28c-.09,0-.14,.04-.14,.12v1.7Zm6.81,3.78c0-.09-.05-.14-.14-.14h-5.21c-.09,0-.14,.05-.14,.14v.17c0,.09,.04,.14,.14,.14h5.21c.09,0,.14-.04,.14-.14v-.17Zm-5.48,2.23c0,.08,.04,.12,.14,.12h5.21c.09,0,.14-.04,.14-.12v-.2c0-.08-.05-.12-.14-.12h-5.21c-.09,0-.14,.04-.14,.12v.2Zm1.53-5.89c.08,0,.12-.04,.12-.12v-1.7c0-.08-.04-.12-.12-.12h-.6s-.06,.01-.08,.03c-.02,.02-.02,.05,0,.09,.08,.2,.15,.42,.22,.65,.02,.09,.03,.18,.03,.26,0,.16-.04,.31-.14,.46-.14,.22-.33,.36-.6,.43v.03h1.16Zm-.12-5.59s-.01,.03,0,.05c0,.02,.01,.03,.03,.03h2.5s.04-.01,.04-.03c0-.02,0-.04,0-.05-.44-.29-.85-.6-1.21-.92-.06-.06-.12-.06-.19,0-.35,.33-.74,.64-1.16,.92Zm3.05,3.76c.01-.08-.02-.12-.1-.12h-.54c-.09,0-.14,.04-.14,.12v1.7c0,.08,.04,.12,.14,.12h.94s.01-.02,0-.02c-.2-.06-.36-.18-.46-.37-.07-.11-.1-.23-.1-.36,0-.08,.01-.16,.03-.24,.09-.29,.17-.57,.24-.83Zm2.16,1.82c.08,0,.12-.04,.12-.12v-1.7c0-.08-.04-.12-.12-.12h-1.02s-.02,0-.02,0c0,0,0,0,.02,0h.02c.25,.06,.43,.2,.54,.43,.06,.12,.08,.24,.08,.36s-.03,.23-.08,.34c-.15,.32-.26,.54-.34,.68-.01,.03,0,.06,0,.09,.02,.02,.04,.03,.08,.03h.72Z" style="fill: #024737;"/>
        <path d="M73.2,78.87c0,.27-.1,.51-.3,.71s-.43,.3-.71,.3h-1.06s-.01,.03,0,.03c.93,.28,1.93,.61,3,.99,.21,.07,.32,.21,.36,.43,.01,.05,.02,.08,.02,.12,0,.17-.07,.31-.22,.41l-.66,.55c-.24,.18-.52,.29-.83,.34-.08,.01-.16,.02-.24,.02-.22,0-.43-.05-.65-.14-1.18-.47-2.45-.91-3.82-1.33-.19-.06-.31-.19-.34-.39v-.09c0-.16,.07-.28,.2-.37l.68-.49s.01-.03,0-.04-.02-.03-.04-.03h-4.14s-.02,0-.03,.03c-.01,.02,0,.03,.02,.04l.51,.38c.17,.12,.26,.29,.26,.49,0,.26-.11,.45-.34,.56-1.09,.52-2.28,.97-3.56,1.35-.14,.04-.28,.07-.43,.07s-.3-.02-.46-.07c-.29-.08-.56-.23-.78-.46-.16-.15-.32-.3-.48-.44-.07-.07-.11-.15-.14-.24-.02-.05-.03-.09-.03-.14s0-.08,.02-.12c.02-.09,.07-.17,.14-.24,.07-.07,.15-.11,.24-.14,.99-.27,1.97-.61,2.95-1.02,.02-.01,.03-.02,.03-.03s-.01-.02-.03-.02h-1.19c-.27,0-.51-.1-.71-.3-.2-.2-.3-.43-.3-.71v-5.89c0-.27,.1-.51,.3-.71s.43-.3,.71-.3h11.05c.27,0,.51,.1,.71,.3,.2,.2,.3,.43,.3,.71v5.89Zm-1.6-11.97c.28,0,.52,.1,.72,.3,.19,.2,.29,.43,.29,.71v2.62c0,.27-.1,.51-.29,.71s-.43,.3-.72,.3h-9.64c-.27,0-.51-.1-.71-.3-.2-.2-.3-.43-.3-.71v-2.62c0-.27,.1-.51,.3-.71,.2-.2,.43-.3,.71-.3h9.64Zm-8.81,6.76c-.09,0-.14,.05-.14,.14v.2c0,.08,.05,.12,.14,.12h7.63c.08,0,.12-.04,.12-.12v-.2c0-.09-.04-.14-.12-.14h-7.63Zm0,2.03c-.09,0-.14,.05-.14,.14v.19c0,.09,.05,.14,.14,.14h7.63c.08,0,.12-.05,.12-.14v-.19c0-.09-.04-.14-.12-.14h-7.63Zm0,2.03c-.09,0-.14,.05-.14,.14v.2c0,.09,.05,.14,.14,.14h7.63c.08,0,.12-.04,.12-.14v-.2c0-.09-.04-.14-.12-.14h-7.63Zm6.98-8.12c.08,0,.12-.05,.12-.14v-.49c0-.08-.04-.12-.12-.12h-6.15c-.08,0-.12,.04-.12,.12v.49c0,.09,.04,.14,.12,.14h6.15Z" style="fill: #024737;"/>
        <path d="M48.45,92.07c0,.09,.04,.14,.12,.14h4.91c.28,0,.52,.1,.72,.29,.19,.19,.29,.43,.29,.72v7.05c0,.28-.1,.52-.29,.71s-.43,.29-.72,.29h-.94c-.2,0-.38-.07-.52-.21-.14-.14-.21-.32-.21-.52,0-.06-.03-.08-.08-.08h-3.15c-.08,0-.12,.04-.12,.12v4.21c0,.28-.1,.52-.3,.72-.2,.19-.43,.29-.71,.29h-.68c-.27,0-.51-.1-.71-.29-.2-.19-.3-.43-.3-.72v-4.21c0-.08-.04-.12-.12-.12h-3.12c-.08,0-.12,.03-.12,.1,0,.23-.08,.42-.23,.57s-.34,.23-.57,.23h-.73c-.27,0-.51-.1-.71-.29-.2-.19-.3-.43-.3-.72v-7.14c0-.28,.1-.52,.3-.72,.2-.19,.43-.29,.71-.29h4.77c.08,0,.12-.05,.12-.14v-1.86c0-.27,.1-.51,.3-.71s.43-.3,.71-.3h.68c.27,0,.51,.1,.71,.3s.3,.43,.3,.71v1.86Zm-6.05,5.76c0,.09,.04,.14,.14,.14h3.1c.08,0,.12-.04,.12-.14v-3c0-.09-.04-.14-.12-.14h-3.1c-.09,0-.14,.05-.14,.14v3Zm6.05,0c0,.09,.04,.14,.12,.14h3.12c.08,0,.12-.04,.12-.14v-3c0-.09-.04-.14-.12-.14h-3.12c-.08,0-.12,.05-.12,.14v3Z" style="fill: #024737;"/>
        <path d="M59.71,96.03c.04-.27,.18-.49,.39-.65,.16-.11,.33-.17,.51-.17,.07,0,.14,0,.21,.02l.51,.1c.28,.06,.51,.2,.68,.43,.14,.19,.21,.4,.21,.63,0,.05,0,.1-.02,.15-.14,1.1-.31,2.08-.51,2.95-.16,.74-.38,1.4-.65,1.99-.11,.25-.31,.41-.58,.49-.09,.02-.18,.03-.27,.03-.17,0-.33-.04-.49-.14l-.66-.38c-.23-.14-.38-.33-.46-.6-.02-.1-.03-.21-.03-.31,0-.16,.03-.32,.1-.48,.5-1.07,.86-2.43,1.07-4.09Zm3.37-1.16c0-.27,.1-.51,.3-.71s.43-.3,.71-.3h.65c.27,0,.51,.1,.71,.3,.2,.2,.3,.43,.3,.71v7.1c0,.43,.05,.7,.14,.81,.09,.11,.32,.16,.7,.16h1.91c.37,0,.62-.19,.75-.56,.09-.27,.16-.78,.22-1.53,.01-.21,.11-.37,.31-.48,.1-.04,.2-.07,.3-.07s.2,.02,.3,.07c.17,.09,.35,.17,.54,.24,.27,.11,.49,.29,.67,.53,.14,.19,.2,.4,.2,.63,0,.05,0,.1-.02,.15-.15,1.11-.4,1.91-.75,2.4-.43,.61-1.19,.92-2.28,.92h-2.52c-1.21,0-2.04-.23-2.47-.7-.43-.46-.65-1.32-.65-2.57v-7.1Zm.94-3.65c-.23-.1-.37-.27-.43-.51-.01-.07-.02-.13-.02-.19,0-.17,.06-.32,.17-.46l.36-.43c.19-.23,.44-.38,.73-.46,.11-.03,.23-.05,.34-.05,.17,0,.34,.04,.51,.12,.69,.28,1.4,.63,2.13,1.04,.7,.38,1.33,.75,1.89,1.12,.23,.15,.36,.36,.41,.65v.15c0,.22-.07,.41-.2,.58l-.46,.63c-.17,.22-.39,.34-.67,.37h-.12c-.23,0-.43-.07-.61-.2-.51-.4-1.11-.8-1.8-1.21-.76-.43-1.5-.82-2.23-1.16Zm6.32,5.06c-.1-.15-.15-.31-.15-.48,0-.08,.01-.16,.03-.24,.07-.26,.22-.45,.46-.58l.53-.25c.17-.09,.35-.14,.53-.14,.1,0,.2,.01,.29,.03,.28,.07,.51,.22,.68,.46,.48,.71,.92,1.48,1.33,2.3,.39,.76,.69,1.47,.92,2.13,.03,.12,.05,.24,.05,.36,0,.16-.03,.31-.1,.46-.11,.27-.31,.47-.58,.6l-.78,.39c-.11,.06-.23,.08-.34,.08s-.23-.03-.34-.08c-.23-.11-.38-.29-.46-.53-.18-.65-.45-1.36-.82-2.15-.38-.85-.79-1.64-1.24-2.37Z" style="fill: #024737;"/>
      </g>
      <g>
        <path d="M1.89,12.78l16.05,30.95c.12,.23-.24,.44-.37,.2,0,0-17.44-30.19-17.44-30.19-.65-1.17,1.11-2.15,1.75-.96h0Z" style="fill: #cba671;"/>
        <path d="M116.82,13.74l-17.44,30.19c-.12,.22-.5,.04-.37-.2,0,0,16.05-30.95,16.05-30.95,.63-1.17,2.41-.22,1.75,.96h0Z" style="fill: #cba671;"/>
      </g>
    </g>
  </g>
</svg>