<?xml version="1.0" encoding="UTF-8"?>
<svg id="b" data-name="圖層 2" xmlns="http://www.w3.org/2000/svg" width="34.32" height="27.64" viewBox="0 0 34.32 27.64">
  <g id="c" data-name="圖層 2">
    <g>
      <path d="M.74,.04c7.95,2.79,15.85,5.76,23.71,8.79,.6,.26,1.25,.44,1.87,.74,3.42,1.52,3.18,6.64-.29,7.91-8.37,3.47-16.81,6.91-25.28,10.12-.65,.24-1.08-.73-.43-1.03,8.23-3.77,16.61-7.37,24.96-10.89,.93-.38,1.48-1.18,1.51-2.12,.07-1.34-.92-2.2-2.14-2.56-.56-.23-2.13-.83-2.71-1.07C14.7,7.07,7.49,4.15,.34,1.08-.3,.81,.07-.2,.74,.04H.74Z" style="fill: #958275;"/>
      <path d="M20.69,7.36s6.87,2.84,10.45,3.35c4.44,.63,3.82,4.47,.65,5.32s-2.42-.05-10.56,3.46l6.59-4.36-2.14-4.79-4.98-2.98Z" style="fill: #958275;"/>
    </g>
  </g>
</svg>