<?xml version="1.0" encoding="UTF-8"?>
<svg id="b" data-name="圖層 2" xmlns="http://www.w3.org/2000/svg" width="103.22" height="158.85" viewBox="0 0 103.22 158.85">
  <g id="c" data-name="design1">
    <path d="M52.46,157.35c-15.73,0-28.16-6.74-37.28-20.22S1.5,104.21,1.5,78.83,6.06,34.22,15.18,21.13,36.73,1.5,52.46,1.5s28.12,6.58,37.18,19.73c9.05,13.15,13.58,32.35,13.58,57.6s-4.56,44.81-13.68,58.3-21.48,20.22-37.08,20.22Zm0-23.2c15.07,0,22.6-18.44,22.6-55.32s-7.54-54.13-22.6-54.13c-3.44,0-6.48,.86-9.12,2.58-2.65,1.72-5.03,4.59-7.14,8.63-2.12,4.03-3.74,9.65-4.86,16.85-1.12,7.21-1.69,15.9-1.69,26.07,0,36.88,7.6,55.32,22.8,55.32Z" style="fill: #fff;"/>
    <g style="opacity: .7;">
      <path d="M52.46,157.35c-15.73,0-28.16-6.74-37.28-20.22S1.5,104.21,1.5,78.83,6.06,34.22,15.18,21.13,36.73,1.5,52.46,1.5s28.12,6.58,37.18,19.73c9.05,13.15,13.58,32.35,13.58,57.6s-4.56,44.81-13.68,58.3-21.48,20.22-37.08,20.22Zm0-23.2c15.07,0,22.6-18.44,22.6-55.32s-7.54-54.13-22.6-54.13c-3.44,0-6.48,.86-9.12,2.58-2.65,1.72-5.03,4.59-7.14,8.63-2.12,4.03-3.74,9.65-4.86,16.85-1.12,7.21-1.69,15.9-1.69,26.07,0,36.88,7.6,55.32,22.8,55.32Z" style="fill: #e8ded4;"/>
    </g>
    <g>
      <path d="M100.71,108.94c-2.7,17.64-11,36.05-27.37,44.82-9.79,5.15-21.49,6.14-32.18,3.57-14.53-3.42-25.22-15.23-31.15-28.4C-1.48,103.29-2.86,60.11,6.96,33.71,13.26,16.16,27.82,1.61,47.12,.32c7.3-.61,14.76,.13,21.66,2.73,13.87,5.14,23.4,17.96,27.91,31.56,0,0-.28,.11-.28,.11-4.06-9.73-10.31-18.86-19.11-24.83C62.93,.33,42.45,.48,28.19,10.19,16.68,18.16,9.84,31.43,6.52,44.8c-4.78,20.54-5.39,42.53-1.98,63.43,3.38,20.34,15.56,42.27,37.19,46.67,13.51,2.92,28.6,.26,38.99-9.27,7.86-7.01,13.27-16.56,16.72-26.5,1.17-3.36,2.12-6.79,2.98-10.26,0,0,.29,.06,.29,.06h0Z" style="fill: #968375;"/>
      <path d="M72.18,47.76c-2.45-7.89-5.63-16.93-13.57-20.61-5.55-2.33-12.58-1.2-16.84,3.13-12.17,12.95-12.03,38.87-11.19,55.77,1.15,13.49,2.56,39.72,16.71,45.6,8.67,3.09,15.84-1.4,19.83-9.17,4.04-7.61,5.59-16.39,7-24.88,0,0,.3,.03,.3,.03-.64,10.92-1.81,22.81-8.83,31.73-5.97,7.78-18.66,8.51-25.45,1.39-14.37-14.85-11.32-51.32-10.17-70.95,1.22-11.81,2.18-26.05,12.66-33.67,6.96-4.5,17.14-3.35,22.44,3.16,3.74,4.28,5.58,9.73,6.8,15.16,.24,1.07,.4,2.17,.6,3.24l-.29,.06h0Z" style="fill: #968375;"/>
    </g>
  </g>
</svg>