<?xml version="1.0" encoding="UTF-8"?>
<svg id="b" data-name="圖層 2" xmlns="http://www.w3.org/2000/svg" width="112.45" height="153.3" viewBox="0 0 112.45 153.3">
  <g id="c" data-name="design1">
    <path d="M99.65,90.13c3.17,0,5.85,1.09,8.03,3.27,2.18,2.18,3.27,4.86,3.27,8.03s-1.09,5.85-3.27,8.03c-2.18,2.18-4.86,3.27-8.03,3.27h-4.96c-1.06,0-1.59,.53-1.59,1.59v25.78c0,3.17-1.12,5.92-3.37,8.23-2.25,2.31-5.03,3.47-8.33,3.47h-4.36c-3.17,0-5.92-1.16-8.23-3.47-2.31-2.31-3.47-5.06-3.47-8.23v-25.78c0-1.06-.46-1.59-1.39-1.59H11.61c-2.91,0-5.32-.99-7.24-2.97-1.92-1.98-2.88-4.36-2.88-7.14,0-6.74,1.72-13.02,5.16-18.84L51.27,11.41c1.98-3.04,4.56-5.45,7.73-7.24,3.17-1.79,6.54-2.68,10.11-2.68h12.29c3.3,0,6.08,1.16,8.33,3.47,2.25,2.31,3.37,5.06,3.37,8.23V88.55c0,1.06,.53,1.59,1.59,1.59h4.96Zm-68.41-1.39c-.13,.27-.13,.56,0,.89,.13,.33,.33,.5,.59,.5H63.96c.92,0,1.39-.53,1.39-1.59v-29.15c0-3.44,.4-13.68,1.19-30.73,0-.26-.13-.4-.4-.4s-.46,.13-.6,.4c-3.84,8.46-7.73,16.46-11.7,23.99l-22.6,36.09Z" style="fill: #fff;"/>
    <g style="opacity: .7;">
      <path d="M99.65,90.13c3.17,0,5.85,1.09,8.03,3.27,2.18,2.18,3.27,4.86,3.27,8.03s-1.09,5.85-3.27,8.03c-2.18,2.18-4.86,3.27-8.03,3.27h-4.96c-1.06,0-1.59,.53-1.59,1.59v25.78c0,3.17-1.12,5.92-3.37,8.23-2.25,2.31-5.03,3.47-8.33,3.47h-4.36c-3.17,0-5.92-1.16-8.23-3.47-2.31-2.31-3.47-5.06-3.47-8.23v-25.78c0-1.06-.46-1.59-1.39-1.59H11.61c-2.91,0-5.32-.99-7.24-2.97-1.92-1.98-2.88-4.36-2.88-7.14,0-6.74,1.72-13.02,5.16-18.84L51.27,11.41c1.98-3.04,4.56-5.45,7.73-7.24,3.17-1.79,6.54-2.68,10.11-2.68h12.29c3.3,0,6.08,1.16,8.33,3.47,2.25,2.31,3.37,5.06,3.37,8.23V88.55c0,1.06,.53,1.59,1.59,1.59h4.96Zm-68.41-1.39c-.13,.27-.13,.56,0,.89,.13,.33,.33,.5,.59,.5H63.96c.92,0,1.39-.53,1.39-1.59v-29.15c0-3.44,.4-13.68,1.19-30.73,0-.26-.13-.4-.4-.4s-.46,.13-.6,.4c-3.84,8.46-7.73,16.46-11.7,23.99l-22.6,36.09Z" style="fill: #e8ded4;"/>
    </g>
    <g>
      <path d="M93.11,35.75c.63,17.32,.81,35.81,1.2,53.16,.15,.12,3.55,0,3.83,.02,10.01-1,17.01,8.57,13.13,17.84-2.11,4.85-7.3,7.8-12.51,7.44-.55,0-4.01,.02-4.24,0,.18-.15,.05-.25,.08,.4,.03,4.41,0,16.2-.02,20.76,0,0,0,3.46,0,3.46,.26,3.68-1.03,7.89-3.79,10.47-2.57,2.81-6.73,4.13-10.44,3.84,0,0-3.48-.03-3.48-.03-5.17,0-9.92-3.55-11.81-8.32-.96-2.28-.84-4.84-.79-7.25,0,0,.1-6.92,.1-6.92,.01-.88,.27-15.33,.29-15.57-.02-.83,.32-1.81-1.02-1.7-7.29-.18-15.22-.34-22.49-.61,6.64-.25,14.07-.4,20.76-.57,.83,.02,1.94-.16,2.78,.04,1.27,.33,1.39,1.77,1.36,2.83,.15,5.47,.3,17.1,.39,22.49,.02,.44,.02,2.14,.03,2.59-.04,5.48,4.93,10.44,10.43,10.36,1.88-.14,4.89,.17,6.63-.24,3.96-.74,7.29-4.29,7.96-8.22,.32-1.66,.1-4.84,.15-6.65-.01-4.62-.04-16.3-.02-20.76-.14-2.06,1.2-3.56,3.67-3.34,.57,0,3.81,0,4.32,.01,6.09,.26,10.98-5.71,9.82-11.65-.63-4.6-4.96-8.27-9.6-8.26-1.06-.01-4.07-.06-5.18-.07-.91,.06-2.14-.53-2.47-1.49-.31-.79-.21-1.42-.21-2.16,0,0,.04-3.46,.04-3.46,.23-15.75,.56-32.73,1.08-48.44h0Z" style="fill: #968375;"/>
      <path d="M1.5,102.63c-.45-7.27,1.56-14.67,5.39-20.85,1.32-2.3,5.14-8.81,6.54-11.2,5.03-8.62,12.6-20.98,17.87-29.63,5.38-8.63,12.97-20.87,18.44-29.28C53.6,5.28,60.89,.85,68.42,.93c4.35,.12,8.65,.34,12.99,.57-4.14,.21-8.78,.44-12.95,.59-6.97,.47-13.35,4.74-16.73,10.82-5.04,8.61-12.58,20.97-17.87,29.61,0,0-9.14,14.67-9.14,14.67-4.45,7.06-9.41,14.82-13.98,21.85-1.29,2.02-3.48,5.16-4.61,7.25-2.78,4.99-4.31,10.61-4.62,16.34h0Z" style="fill: #968375;"/>
      <path d="M31.24,88.75c-.21,.43-.06,1.03,.32,1.31,.14,.09,.31,.07,.47,.07h1.94c3.78-.06,7.9-.02,11.65-.11,6.13-.07,12.29-.24,18.42-.42,.86-.09,.68-.7,.68-1.65,0,0-.05-1.94-.05-1.94l-.21-7.77c-.05-2.99-.49-16.72-.44-19.42,.2-9.7,.59-19.45,1.03-29.14,0,0,.05-.97,.05-.97v-.06s0,.07,0,.1c0,.46,.62,1.01,1.04,.95,.07,0,.17-.02,.28-.07,.24-.11,.34-.27,.36-.34,0,0-.2,.42-.2,.42-3.73,7.94-7.82,15.72-12.1,23.37-6.69,10.03-16.97,25.56-23.27,35.68h0Zm0,0c6.27-9.95,16.01-26.39,21.92-36.45,3.76-7.62,7.5-15.99,10.93-23.79,.25-.6,.48-1.14,1.23-1.48,1.23-.57,2.75,.3,2.64,1.73-.19,6.14-.38,12.28-.67,18.42-.71,12.67-.97,28.04-1.32,40.76,.05,2.08-.64,2.93-2.86,2.71-5.82-.16-11.66-.32-17.48-.39-3.75-.06-7.88-.09-11.65-.1-.23-.04-2.21,.08-2.42-.09-.39-.28-.52-.89-.31-1.32h0Z" style="fill: #968375;"/>
    </g>
  </g>
</svg>