<?xml version="1.0" encoding="UTF-8"?>
<svg id="b" data-name="圖層 2" xmlns="http://www.w3.org/2000/svg" width="93.58" height="153.33" viewBox="0 0 93.58 153.33">
  <g id="c" data-name="design1">
    <g>
      <path d="M13.2,151.8c-3.17,0-5.92-1.16-8.23-3.47-2.31-2.31-3.47-5.06-3.47-8.23v-.79c0-3.17,1.16-5.91,3.47-8.23,2.31-2.31,5.06-3.47,8.23-3.47h19.04c1.06,0,1.59-.46,1.59-1.39V34.02c0-.92-.53-1.39-1.59-1.39H15.78c-2.51,0-4.66-.89-6.44-2.68-1.78-1.78-2.68-4-2.68-6.64s.82-4.99,2.48-7.04c1.65-2.05,3.8-3.4,6.44-4.06,5.95-1.59,11.3-3.44,16.06-5.55,7.8-3.44,14.8-5.16,21.02-5.16,3.04,0,5.62,1.09,7.73,3.27,2.11,2.18,3.17,4.79,3.17,7.83V126.22c0,.93,.53,1.39,1.59,1.39h15.07c3.17,0,5.91,1.16,8.23,3.47,2.31,2.31,3.47,5.06,3.47,8.23v.79c0,3.17-1.16,5.92-3.47,8.23-2.31,2.31-5.06,3.47-8.23,3.47H13.2Z" style="fill: #fff;"/>
      <g style="opacity: .7;">
        <path d="M13.2,151.8c-3.17,0-5.92-1.16-8.23-3.47-2.31-2.31-3.47-5.06-3.47-8.23v-.79c0-3.17,1.16-5.91,3.47-8.23,2.31-2.31,5.06-3.47,8.23-3.47h19.04c1.06,0,1.59-.46,1.59-1.39V34.02c0-.92-.53-1.39-1.59-1.39H15.78c-2.51,0-4.66-.89-6.44-2.68-1.78-1.78-2.68-4-2.68-6.64s.82-4.99,2.48-7.04c1.65-2.05,3.8-3.4,6.44-4.06,5.95-1.59,11.3-3.44,16.06-5.55,7.8-3.44,14.8-5.16,21.02-5.16,3.04,0,5.62,1.09,7.73,3.27,2.11,2.18,3.17,4.79,3.17,7.83V126.22c0,.93,.53,1.39,1.59,1.39h15.07c3.17,0,5.91,1.16,8.23,3.47,2.31,2.31,3.47,5.06,3.47,8.23v.79c0,3.17-1.16,5.92-3.47,8.23-2.31,2.31-5.06,3.47-8.23,3.47H13.2Z" style="fill: #e8ded4;"/>
      </g>
    </g>
    <path d="M13.2,151.8c-3.17,0-5.92-1.16-8.23-3.47-2.31-2.31-3.47-5.06-3.47-8.23v-.79c0-3.17,1.16-5.91,3.47-8.23,2.31-2.31,5.06-3.47,8.23-3.47h19.04c1.06,0,1.59-.46,1.59-1.39V34.02c0-.92-.53-1.39-1.59-1.39H15.78c-2.51,0-4.66-.89-6.44-2.68-1.78-1.78-2.68-4-2.68-6.64s.82-4.99,2.48-7.04c1.65-2.05,3.8-3.4,6.44-4.06,5.95-1.59,11.3-3.44,16.06-5.55,7.8-3.44,14.8-5.16,21.02-5.16,3.04,0,5.62,1.09,7.73,3.27,2.11,2.18,3.17,4.79,3.17,7.83V126.22c0,.93,.53,1.39,1.59,1.39h15.07c3.17,0,5.91,1.16,8.23,3.47,2.31,2.31,3.47,5.06,3.47,8.23v.79c0,3.17-1.16,5.92-3.47,8.23-2.31,2.31-5.06,3.47-8.23,3.47H13.2Z" style="fill: #fff;"/>
    <g style="opacity: .7;">
      <path d="M13.2,151.8c-3.17,0-5.92-1.16-8.23-3.47-2.31-2.31-3.47-5.06-3.47-8.23v-.79c0-3.17,1.16-5.91,3.47-8.23,2.31-2.31,5.06-3.47,8.23-3.47h19.04c1.06,0,1.59-.46,1.59-1.39V34.02c0-.92-.53-1.39-1.59-1.39H15.78c-2.51,0-4.66-.89-6.44-2.68-1.78-1.78-2.68-4-2.68-6.64s.82-4.99,2.48-7.04c1.65-2.05,3.8-3.4,6.44-4.06,5.95-1.59,11.3-3.44,16.06-5.55,7.8-3.44,14.8-5.16,21.02-5.16,3.04,0,5.62,1.09,7.73,3.27,2.11,2.18,3.17,4.79,3.17,7.83V126.22c0,.93,.53,1.39,1.59,1.39h15.07c3.17,0,5.91,1.16,8.23,3.47,2.31,2.31,3.47,5.06,3.47,8.23v.79c0,3.17-1.16,5.92-3.47,8.23-2.31,2.31-5.06,3.47-8.23,3.47H13.2Z" style="fill: #e8ded4;"/>
    </g>
    <g style="opacity: .7;">
      <path d="M33.67,76.65c-.47-13.18-.68-27.54-.89-40.78,0,0-.03-1.57-.03-1.57,0-.61-.08-.51-.05-.5-.02,0-.1-.04-.25-.05-.08,0-.15,0-.26,0,0,0-.39,0-.39,0-1.05-.02-3.64,.06-4.71,.04-2,.04-7.46,.06-9.41,.09,0,0-1.57,.01-1.57,.01-2.93,.16-6.02-1.13-7.96-3.29-6.13-6.5-1.66-17.55,6.64-19.56,2.94-.71,6.11-1.7,8.96-2.63,7.94-2.72,15.57-6.64,24.08-7.43,2.17-.2,4.25-.39,6.46-.11,5.55,.76,9.93,6.06,9.79,11.62-.29,34.51,.78,69.02,.9,103.52,0,1.91,.06,7.52,.06,9.41,0,0,0,.78,0,.78,0,.11,.03,.13,0,.05-.04-.09-.17-.18-.17-.17,0,0,.11,.03,.25,.02,0,0,12.52-.07,12.52-.07h1.57c4.08-.33,8.36,1.43,10.98,4.54,6.82,7.52,2.87,20.42-7.21,22.47-1.91,.42-4.63,.22-6.57,.25-17.2-.23-39.39-.35-56.46-.75,0,0-6.27-.12-6.27-.12-6.57,.25-12.68-5.73-12.31-12.33,0,0,.3,0,.3,0,.07,6.19,5.82,11.58,12.01,11.06,0,0,6.27-.12,6.27-.12,8.36-.13,16.73-.33,25.09-.41,4.58-.04,27.28-.31,31.37-.33,0,0,3.14-.02,3.14-.02,6.94,.41,12-6.19,10.62-12.8-.78-4.43-4.95-8.13-9.45-8.27-.76-.06-2.24,0-3.07-.03,0,0-12.58-.08-12.58-.08-.94,0-2.11-.41-2.62-1.41-.43-.81-.34-1.48-.34-2.25,0,0,.02-3.14,.02-3.14,.07-35.55,1.16-71.11,.96-106.65,0,0-.03-3.13-.03-3.13,0-3.01-1.38-5.91-3.67-7.86-3.09-2.88-7.44-2.6-11.34-2.01-8.32,1.06-15.69,5.26-23.47,8.13-2.96,1.05-6.03,2.01-9.05,2.83-2.7,.74-5.03,2.59-6.36,5.05-3.14,5.52,.23,12.96,6.96,12.71,4.15,.02,9.95,.1,14.12,.13,0,0,1.57,.02,1.57,.02,.43,.03,1.28-.08,2.13,.48,.76,.44,1.05,1.64,.96,2.31-.15,9.21-.3,20.65-.56,29.8-.1,4.18-.21,8.37-.36,12.55h-.3Z" style="fill: #968375;"/>
    </g>
  </g>
</svg>