<?xml version="1.0" encoding="UTF-8"?>
<svg id="b" data-name="圖層 2" xmlns="http://www.w3.org/2000/svg" width="103.73" height="156.14" viewBox="0 0 103.73 156.14">
  <g id="c" data-name="design1">
    <path d="M10.23,154.58c-2.38,0-4.43-.82-6.15-2.48-1.72-1.65-2.58-3.73-2.58-6.25,0-5.68,2.11-10.44,6.35-14.28,19.56-17.85,34.23-33.38,44.02-46.6,9.78-13.22,14.67-25.05,14.67-35.49,0-7.67-1.98-13.65-5.95-17.94-3.97-4.29-9.52-6.44-16.66-6.44-6.48,0-12.89,2.51-19.23,7.53-2.65,1.98-5.49,2.97-8.53,2.97s-5.69-1.06-7.93-3.17c-2.38-2.38-3.57-5.16-3.57-8.33s1.25-5.82,3.77-7.93C19.81,6.39,32.96,1.5,47.9,1.5c14.14,0,25.54,4.23,34.2,12.69,8.66,8.46,12.99,19.63,12.99,33.51,0,22.74-16.26,50.17-48.78,82.29-.27,.13-.33,.33-.2,.59,.13,.27,.33,.33,.59,.2,9.38-.92,16.98-1.39,22.8-1.39h21.02c3.17,0,5.91,1.16,8.23,3.47,2.31,2.31,3.47,5.06,3.47,8.23v1.78c0,3.17-1.16,5.92-3.47,8.23-2.31,2.31-5.06,3.47-8.23,3.47H10.23Z" style="fill: #fff;"/>
    <g style="opacity: .7;">
      <path d="M10.23,154.58c-2.38,0-4.43-.82-6.15-2.48-1.72-1.65-2.58-3.73-2.58-6.25,0-5.68,2.11-10.44,6.35-14.28,19.56-17.85,34.23-33.38,44.02-46.6,9.78-13.22,14.67-25.05,14.67-35.49,0-7.67-1.98-13.65-5.95-17.94-3.97-4.29-9.52-6.44-16.66-6.44-6.48,0-12.89,2.51-19.23,7.53-2.65,1.98-5.49,2.97-8.53,2.97s-5.69-1.06-7.93-3.17c-2.38-2.38-3.57-5.16-3.57-8.33s1.25-5.82,3.77-7.93C19.81,6.39,32.96,1.5,47.9,1.5c14.14,0,25.54,4.23,34.2,12.69,8.66,8.46,12.99,19.63,12.99,33.51,0,22.74-16.26,50.17-48.78,82.29-.27,.13-.33,.33-.2,.59,.13,.27,.33,.33,.59,.2,9.38-.92,16.98-1.39,22.8-1.39h21.02c3.17,0,5.91,1.16,8.23,3.47,2.31,2.31,3.47,5.06,3.47,8.23v1.78c0,3.17-1.16,5.92-3.47,8.23-2.31,2.31-5.06,3.47-8.23,3.47H10.23Z" style="fill: #e8ded4;"/>
    </g>
    <g>
      <path d="M54.65,154.73c-5.62,.04-33.12,.14-38.13,.17-2.24-.06-5.43,.15-7.67-.06-2.65-.34-5.03-1.96-6.46-4.2-2.59-4.54-1.05-10.7,1.43-14.98,1.32-2.23,3.24-4.07,5.13-5.78,3.73-3.45,7.42-6.94,11.04-10.5,17.67-18,49.48-48.12,45.25-75.24-2.99-20.8-26.01-22.53-39.91-10.6-4.32,3.36-10.7,4.43-15.58,1.49C2.78,31.13,1.06,20.46,7.57,15.28,15.87,8.01,26.09,2.88,37,1.02c10.27-1.69,20.99-1.28,30.84,2.35,21.13,7.82,31.25,29.2,28.26,50.88-4.44,29.66-28.65,55.89-49.28,76.26,0,0-.11,.1-.11,.1,0,0-.08,.03-.08,.03-.03,.01,.05,0,.11-.17,.05-.17-.01-.24,0-.2,.02,.04,0-.05-.17-.11-.23-.05-.26,.05-.09-.07,11.48-1.11,23.5-1.22,35.06-.84,0,0,0,.3,0,.3-5.19,.14-12.34,.13-17.43,.41-5.88,.26-13.05,1.14-17.99,1.55-1.01-.36-1.06-1.79-.15-2.17,0,0-.19,.13-.19,.13,17.07-17.56,33.76-36.52,43.16-59.38,7.68-18.6,6.46-42.61-9.65-56.37C62.63-.91,34.84,.11,16.72,11.64c-3.06,1.96-6.18,4.13-8.74,6.73-3.07,3.46-2.62,9.05,.38,12.44,3.78,4.75,11.07,4.57,15.63,.96,4.08-3.19,8.78-5.86,13.91-7.03,7.67-1.67,16.52-.45,22.39,5.1,7.81,7.45,8.37,19.63,5.8,29.5-6.67,25.29-37.37,53.47-56.46,71.27-1.89,1.68-3.7,3.36-5.02,5.53-3.79,6.05-4.56,16.42,4.34,17.98,4.21,.24,10.89,.08,15.2,.16,0,0,30.5,.14,30.5,.14v.3h0Z" style="fill: #968375;"/>
      <path d="M102.38,141.09c.95,5.61-2.06,11.41-7.39,13.65-1.72,.78-3.69,.99-5.57,1.03-3.54,.13-7.08,.52-10.63,.3-3.54-.2-7.08-.52-10.63-1.35v-.3c7.05-1.63,14.12-1.55,21.25-1.05,5.06,.68,10.02-2.43,11.85-7.16,.64-1.59,.71-3.34,.81-5.12h.3Z" style="fill: #968375;"/>
    </g>
  </g>
</svg>