<?xml version="1.0" encoding="UTF-8"?>
<svg id="b" data-name="圖層 2" xmlns="http://www.w3.org/2000/svg" width="102.02" height="158.85" viewBox="0 0 102.02 158.85">
  <g id="c" data-name="design1">
    <path d="M47.78,157.35c-16.66,0-30.6-4.29-41.84-12.89-2.65-1.98-4.1-4.69-4.36-8.13v-1.19c0-2.91,.92-5.62,2.78-8.13,1.85-2.51,4.36-3.9,7.54-4.16h1.39c2.51,0,4.89,.73,7.14,2.18,7.8,5.29,15.93,7.93,24.39,7.93,7.8,0,14.01-1.82,18.64-5.45,4.63-3.63,6.94-8.76,6.94-15.37,0-7-2.25-12.46-6.74-16.36-4.5-3.9-12.43-6.31-23.79-7.24-3.04-.26-5.62-1.45-7.73-3.57-2.12-2.11-3.17-4.62-3.17-7.53s1.06-5.45,3.17-7.63c2.11-2.18,4.63-3.4,7.53-3.67,17.32-1.98,25.98-9.45,25.98-22.41,0-5.95-1.75-10.57-5.25-13.88-3.5-3.3-8.5-4.96-14.97-4.96-6.48,.13-12.89,2.18-19.23,6.15-2.25,1.59-4.69,2.38-7.34,2.38-.53,0-.99-.07-1.39-.2-3.31-.26-5.95-1.59-7.93-3.97l-.2-.4c-1.85-2.11-2.78-4.56-2.78-7.34v-1.19c.4-3.17,1.92-5.68,4.56-7.54C22.33,5.27,34.23,1.5,46.79,1.5c14.94,0,26.8,3.5,35.59,10.51,8.79,7.01,13.19,16.85,13.19,29.54,0,7.93-2.12,14.81-6.35,20.62-4.23,5.82-10.31,10.31-18.24,13.48-.4,.13-.59,.37-.59,.69s.2,.56,.59,.69c8.85,2.51,15.99,6.91,21.42,13.19,5.42,6.28,8.13,14.11,8.13,23.5,0,13.35-5.09,23.96-15.27,31.82-10.18,7.87-22.67,11.8-37.48,11.8Z" style="fill: #fff;"/>
    <g style="opacity: .7;">
      <path d="M47.78,157.35c-16.66,0-30.6-4.29-41.84-12.89-2.65-1.98-4.1-4.69-4.36-8.13v-1.19c0-2.91,.92-5.62,2.78-8.13,1.85-2.51,4.36-3.9,7.54-4.16h1.39c2.51,0,4.89,.73,7.14,2.18,7.8,5.29,15.93,7.93,24.39,7.93,7.8,0,14.01-1.82,18.64-5.45,4.63-3.63,6.94-8.76,6.94-15.37,0-7-2.25-12.46-6.74-16.36-4.5-3.9-12.43-6.31-23.79-7.24-3.04-.26-5.62-1.45-7.73-3.57-2.12-2.11-3.17-4.62-3.17-7.53s1.06-5.45,3.17-7.63c2.11-2.18,4.63-3.4,7.53-3.67,17.32-1.98,25.98-9.45,25.98-22.41,0-5.95-1.75-10.57-5.25-13.88-3.5-3.3-8.5-4.96-14.97-4.96-6.48,.13-12.89,2.18-19.23,6.15-2.25,1.59-4.69,2.38-7.34,2.38-.53,0-.99-.07-1.39-.2-3.31-.26-5.95-1.59-7.93-3.97l-.2-.4c-1.85-2.11-2.78-4.56-2.78-7.34v-1.19c.4-3.17,1.92-5.68,4.56-7.54C22.33,5.27,34.23,1.5,46.79,1.5c14.94,0,26.8,3.5,35.59,10.51,8.79,7.01,13.19,16.85,13.19,29.54,0,7.93-2.12,14.81-6.35,20.62-4.23,5.82-10.31,10.31-18.24,13.48-.4,.13-.59,.37-.59,.69s.2,.56,.59,.69c8.85,2.51,15.99,6.91,21.42,13.19,5.42,6.28,8.13,14.11,8.13,23.5,0,13.35-5.09,23.96-15.27,31.82-10.18,7.87-22.67,11.8-37.48,11.8Z" style="fill: #e8ded4;"/>
    </g>
    <g>
      <path d="M32.01,85.08c-6.97-6.05-3.35-17.16,5.34-19.63,4.99-1,10.24-1.58,14.89-3.74,7.08-2.94,11.91-8.98,12.31-16.75,1.82-19.62-17.97-23.36-32.45-16.17-4.26,1.83-7.74,5.71-12.67,5.8-.67,.04-1.51,.07-2.37-.21l.29,.06c-1.64-.1-3.31-.47-4.86-1.19-1.6-.74-3.02-1.87-4.12-3.22,0,0-.08-.15-.08-.15,0,0-.2-.39-.2-.39l.2,.29c-1.13-1.27-2.06-2.78-2.6-4.45-.56-1.65-.66-3.45-.61-5.17,.6-7.47,8.08-10.65,13.87-13.73C30.56,.64,43.92-.91,56.68,1.13c6.32,.95,12.58,2.78,18.12,5.91,0,0-.13,.27-.13,.27C57.73,.46,36.64,1.08,20.34,9.3c-2.77,1.35-5.46,2.91-8.03,4.6-2.41,1.28-4.14,4.53-4.3,6.43-.19,2.75,.44,5.51,2.33,7.62,0,0,.13,.15,.13,.15,.01,.02,.24,.49,.26,.54,0,0-.17-.27-.17-.27,1.75,2.21,4.34,3.43,7.15,3.65,2.14,.59,4.73-.13,6.71-1.12,15.64-10.36,42.63-10.03,42.16,14.14,.1,8.86-5.2,15.86-13.32,19.06-4.88,2.17-10.17,2.68-15.37,3.42-7.63,1.82-11.27,11.28-5.68,17.33,0,0-.21,.21-.21,.21h0Z" style="fill: #968375;"/>
      <path d="M95.37,35.61c2.99,17.44-4.92,32.35-20.92,39.86-.85,.41-2.19,1-3.03,1.35-.13,.05-.06,.04,0-.02,.09-.06,.2-.27,.2-.39,.01-.08,0-.22-.09-.39-.2-.28-.33-.2,.1-.11,.59,.18,1.18,.33,1.77,.54,10.75,3.38,20.73,10.77,25.21,21.38,4.63,11.63,3.53,25.32-2.53,36.18-8.97,15.07-26.73,22.91-43.74,24.09-14.74,1.1-30.28-1.48-42.98-9.49-4.82-2.98-8.98-6.03-9.34-12.17-.22-3.48,.66-7.09,2.71-9.92,2.68-4.13,7.39-5.83,12.16-5.19,3.11,.28,5.83,1.94,8.32,3.64,3.1,1.96,6.42,3.52,9.87,4.67,12.73,4.33,32.93,2.39,36.14-13.3,1.36-7.19-.06-15.34-5.69-20.45,0,0,.2-.23,.2-.23,1.46,1.21,2.8,2.61,3.85,4.22,5.04,8.1,5,20.21-2.08,27.16-8.6,8.22-22.46,8.58-33.32,5.43-3.73-1.16-7.3-2.82-10.61-4.85-2.2-1.42-4.39-2.89-7.05-3.11-3.47-.45-7.03,.52-9.17,3.81-2.83,4.1-3.26,9.83,.06,13.64,5.21,4.76,11.73,8.05,18.37,10.4,17.97,5.83,39.46,6.06,56.11-3.76,8.31-4.85,15.34-12.41,18.03-21.78,5.55-20.23-2.32-38.53-21.97-46.71-1.65-.7-3.35-1.28-5.07-1.79-.15-.08-.93-.15-1.48-.96-.26-.42-.32-.88-.28-1.26,.01-.74,.84-1.51,1.42-1.64,0,0,.41-.16,.41-.16l.81-.33c10.49-4.19,19.52-12.69,22.24-23.92,1.21-4.65,1.4-9.57,1.05-14.42l.3-.04h0Z" style="fill: #968375;"/>
    </g>
  </g>
</svg>