<?xml version="1.0" encoding="UTF-8"?>
<svg id="b" data-name="圖層 2" xmlns="http://www.w3.org/2000/svg" width="102.05" height="156.08" viewBox="0 0 102.05 156.08">
  <g id="c" data-name="design1">
    <path d="M48.1,154.58c-16.13,0-30.14-4.29-42.04-12.89-2.65-1.85-4.1-4.49-4.36-7.93-.13-.53-.2-.99-.2-1.39,0-2.91,.86-5.48,2.58-7.73l.2-.2c1.72-2.38,4.16-3.77,7.34-4.16h1.39c2.64,0,5.02,.73,7.14,2.18,7.53,5.16,15.53,7.73,23.99,7.73s14.51-2.41,19.33-7.24c4.82-4.82,7.24-11.6,7.24-20.32s-2.28-15.27-6.84-20.03-10.74-7.14-18.54-7.14c-5.55,0-10.71,1.26-15.47,3.77-2.38,1.19-4.69,1.78-6.94,1.78-2.38,0-4.69-.72-6.94-2.18-4.23-2.78-6.35-6.61-6.35-11.5v-.99L12.6,13.2c.26-3.3,1.59-6.08,3.97-8.33,2.38-2.25,5.22-3.37,8.53-3.37h56.91c3.17,0,5.91,1.16,8.23,3.47,2.31,2.31,3.47,5.06,3.47,8.23v1.59c0,3.31-1.16,6.08-3.47,8.33-2.31,2.25-5.06,3.37-8.23,3.37H40.56c-.93,0-1.46,.53-1.59,1.59l-2.58,28.75c0,.4,.13,.69,.4,.89,.26,.2,.53,.23,.79,.1,5.42-2.51,10.97-3.77,16.66-3.77,13.48,0,24.59,4.07,33.31,12.19,8.72,8.13,13.09,20,13.09,35.59,0,10.84-2.48,20.32-7.44,28.45-4.96,8.13-11.37,14.21-19.23,18.24-7.87,4.03-16.49,6.05-25.88,6.05Z" style="fill: #fff;"/>
    <g style="opacity: .7;">
      <path d="M48.1,154.58c-16.13,0-30.14-4.29-42.04-12.89-2.65-1.85-4.1-4.49-4.36-7.93-.13-.53-.2-.99-.2-1.39,0-2.91,.86-5.48,2.58-7.73l.2-.2c1.72-2.38,4.16-3.77,7.34-4.16h1.39c2.64,0,5.02,.73,7.14,2.18,7.53,5.16,15.53,7.73,23.99,7.73s14.51-2.41,19.33-7.24c4.82-4.82,7.24-11.6,7.24-20.32s-2.28-15.27-6.84-20.03-10.74-7.14-18.54-7.14c-5.55,0-10.71,1.26-15.47,3.77-2.38,1.19-4.69,1.78-6.94,1.78-2.38,0-4.69-.72-6.94-2.18-4.23-2.78-6.35-6.61-6.35-11.5v-.99L12.6,13.2c.26-3.3,1.59-6.08,3.97-8.33,2.38-2.25,5.22-3.37,8.53-3.37h56.91c3.17,0,5.91,1.16,8.23,3.47,2.31,2.31,3.47,5.06,3.47,8.23v1.59c0,3.31-1.16,6.08-3.47,8.33-2.31,2.25-5.06,3.37-8.23,3.37H40.56c-.93,0-1.46,.53-1.59,1.59l-2.58,28.75c0,.4,.13,.69,.4,.89,.26,.2,.53,.23,.79,.1,5.42-2.51,10.97-3.77,16.66-3.77,13.48,0,24.59,4.07,33.31,12.19,8.72,8.13,13.09,20,13.09,35.59,0,10.84-2.48,20.32-7.44,28.45-4.96,8.13-11.37,14.21-19.23,18.24-7.87,4.03-16.49,6.05-25.88,6.05Z" style="fill: #e8ded4;"/>
    </g>
    <g>
      <path d="M74.49,149.53c-12.36,6.2-26.64,6.97-40.08,4.63-10.05-1.76-19.79-5.59-28.1-11.54-3-1.64-5.2-5.71-5.2-8.71-.98-5.02,1.86-10.45,6.07-12.91,3.33-1.86,7.45-1.79,10.96-.42,2.05,.84,3.66,2.25,5.57,3.27,3.63,2.09,7.55,3.67,11.62,4.58,7.97,1.69,17.02,1.35,23.93-3.28,10.7-6.99,12.11-21.99,8.62-33.31-4.07-12.7-17.39-16.99-29.65-14.14-4.26,.74-7.72,3.38-11.92,4.43-6.97,1.79-14.66-2.68-17.2-9.3-.84-2.15-1.03-4.62-.93-6.84,0,0,.79-12.75,.79-12.75,.5-8.5,1.13-16.99,1.7-25.48,0,0,2.25,.13,2.25,.13-.37,8.49-.7,16.98-1.15,25.46,0,0-.63,12.73-.63,12.73-.07,2.01,.04,3.87,.75,5.71,2.06,5.23,8.16,8.88,13.75,7.43,2.03-.43,3.65-1.41,5.62-2.3,2.04-.89,4.16-1.59,6.33-2.06,8.65-1.8,18.43-.82,25.38,5.08,3.43,2.9,5.97,6.85,7.3,11.12,3.62,12.36,1.69,28.31-9.96,35.71-11.31,7.04-26.28,4.75-37.33-1.66-1.83-.99-3.49-2.44-5.38-3.23-4.42-1.81-9.97-1.13-12.88,3.03-1.8,2.06-3.12,5.8-2.42,8.83,.2,3.28,1.87,6.17,4.72,7.89,2.74,1.93,5.6,3.65,8.59,5.14,17.46,8.47,40.44,10.13,57.84,.79,0,0,1.03,2,1.03,2h0Z" style="fill: #968375;"/>
      <path d="M34.73,.38c15.66,.31,31.37,.46,47.04,.49,6.15-.23,11.92,4.89,12.48,11.01,.6,5.38-1,10.55-5.8,13.47-2.88,1.98-6.6,1.88-9.93,1.84,0,0-9.9,.05-9.9,.05-3.64,.03-21.51,.18-24.76,.22,0,0-2.48,.02-2.48,.02-.57,.05-1.08-.14-1.27,.24-.25,.77-.31,3.52-.44,4.56-.25,3.19-1.69,21.08-1.97,24.66,0,0,0-.12,0-.12,0,.07,.02,.03-.04-.07-.1-.1-.02-.08-.27-.16-.13-.03-.28,0-.37,.04,0,0,.08-.04,.08-.04,2.94-1.37,6.01-2.43,9.19-3.1,18.96-3.68,41.08,4.29,50.12,22.1,3.61,6.99,5.04,14.81,5.27,22.46,0,0-2.25,.11-2.25,.11-.52-7.41-2.09-14.79-5.53-21.25-9.82-18.63-35.86-26.38-54.9-18.28,0,0-.62,.27-.62,.27-1.63,.95-3.45-.48-3.28-2.19,0,0,1.96-19.72,1.96-19.72,.23-2.27,.63-6.39,.86-8.63,.1-2.12,1.36-3.07,3.45-2.86,0,0,2.48,.02,2.48,.02,3.13,.04,21.21,.18,24.76,.22,3.34-.04,11.55,.17,14.77,0,4.66-.47,8.83-4.32,9.55-8.95,.23-1.53,.19-3.26,.09-4.78-.53-5.51-5.74-10.1-11.26-9.86,0,0-2.48,0-2.48,0-14.84,.05-29.73,.18-44.56,.48,0,0,0-2.25,0-2.25h0Z" style="fill: #968375;"/>
    </g>
  </g>
</svg>