<?xml version="1.0" encoding="UTF-8"?>
<svg id="b" data-name="圖層 2" xmlns="http://www.w3.org/2000/svg" width="104.13" height="158.55" viewBox="0 0 104.13 158.55">
  <g id="c" data-name="design1">
    <path d="M91.52,10.71c2.78,1.98,4.16,4.76,4.16,8.33,0,3.04-.99,5.68-2.97,7.93l-.4,.4c-1.98,2.25-4.63,3.44-7.93,3.57-.4,.13-.73,.2-.99,.2-2.91,0-5.55-.73-7.93-2.18-4.76-2.51-9.45-3.77-14.08-3.77-9.25,0-16.82,3.87-22.7,11.6-5.88,7.73-9.16,20.19-9.81,37.38,0,.27,.1,.43,.3,.5,.2,.07,.36,.03,.5-.1,3.97-4.49,8.76-8.1,14.38-10.81,5.62-2.71,10.81-4.06,15.57-4.06,13.09,0,23.53,3.96,31.33,11.9,7.8,7.93,11.7,19.7,11.7,35.29s-4.56,27.2-13.68,36.39c-9.12,9.19-20.23,13.78-33.31,13.78-7.4,0-14.28-1.49-20.62-4.46-6.34-2.97-12.06-7.47-17.15-13.48-5.09-6.01-9.09-13.98-12-23.89-2.91-9.91-4.36-21.28-4.36-34.11,0-13.48,1.59-25.48,4.76-35.99,3.17-10.51,7.5-18.87,12.99-25.08,5.48-6.21,11.63-10.91,18.44-14.08,6.81-3.17,14.11-4.76,21.91-4.76,11.9,0,22.54,3.17,31.92,9.52Zm-36.48,123.93c5.82,0,10.64-2.41,14.48-7.24,3.83-4.82,5.75-11.67,5.75-20.52s-1.88-15.1-5.65-19.53c-3.77-4.43-9.02-6.64-15.76-6.64-9.12,0-16.99,4.89-23.6,14.67-.66,.79-.93,1.72-.79,2.78,1.45,12.56,4.43,21.78,8.92,27.66,4.49,5.88,10.04,8.82,16.66,8.82Z" style="fill: #fff;"/>
    <g style="opacity: .7;">
      <path d="M91.52,10.71c2.78,1.98,4.16,4.76,4.16,8.33,0,3.04-.99,5.68-2.97,7.93l-.4,.4c-1.98,2.25-4.63,3.44-7.93,3.57-.4,.13-.73,.2-.99,.2-2.91,0-5.55-.73-7.93-2.18-4.76-2.51-9.45-3.77-14.08-3.77-9.25,0-16.82,3.87-22.7,11.6-5.88,7.73-9.16,20.19-9.81,37.38,0,.27,.1,.43,.3,.5,.2,.07,.36,.03,.5-.1,3.97-4.49,8.76-8.1,14.38-10.81,5.62-2.71,10.81-4.06,15.57-4.06,13.09,0,23.53,3.96,31.33,11.9,7.8,7.93,11.7,19.7,11.7,35.29s-4.56,27.2-13.68,36.39c-9.12,9.19-20.23,13.78-33.31,13.78-7.4,0-14.28-1.49-20.62-4.46-6.34-2.97-12.06-7.47-17.15-13.48-5.09-6.01-9.09-13.98-12-23.89-2.91-9.91-4.36-21.28-4.36-34.11,0-13.48,1.59-25.48,4.76-35.99,3.17-10.51,7.5-18.87,12.99-25.08,5.48-6.21,11.63-10.91,18.44-14.08,6.81-3.17,14.11-4.76,21.91-4.76,11.9,0,22.54,3.17,31.92,9.52Zm-36.48,123.93c5.82,0,10.64-2.41,14.48-7.24,3.83-4.82,5.75-11.67,5.75-20.52s-1.88-15.1-5.65-19.53c-3.77-4.43-9.02-6.64-15.76-6.64-9.12,0-16.99,4.89-23.6,14.67-.66,.79-.93,1.72-.79,2.78,1.45,12.56,4.43,21.78,8.92,27.66,4.49,5.88,10.04,8.82,16.66,8.82Z" style="fill: #e8ded4;"/>
    </g>
    <g>
      <path d="M37.93,155.04C5.89,141.84-.59,102.92,.78,72.01,1.76,48.08,9.08,21.59,30.61,8.19,37.53,3.77,45.54,.99,53.72,.37c0,0,.23,2.24,.23,2.24-11.7,1.47-22.54,7.11-30.79,15.44C-1.44,41.75-3.46,101.25,12.58,130.17c5.64,10.33,14.98,18.86,26.14,22.76,0,0-.79,2.1-.79,2.1h0Z" style="fill: #968375;"/>
      <path d="M81.85,63.49c16.32,8.98,21.62,26.57,21.48,44.15,.25,17.99-7.17,34.46-22.76,44.14-9.9,6.22-22.29,7.95-33.65,5.68,0,0,.37-2.22,.37-2.22,10.95,1.37,22.35-.3,31.75-5.96,14.86-8.86,22.78-24.53,22.84-41.66,.2-11.04-1.52-22.83-8.33-31.81-3.33-4.41-7.77-8-12.74-10.32,0,0,1.03-2,1.03-2h0Z" style="fill: #968375;"/>
      <path d="M92.17,9.8c8.94,6.74,3.1,21.79-7.77,21.75-1.47,.56-4.91-.12-6.91-.9-2.09-.91-4-2.15-6.16-2.88-13.25-5.15-27.11,.61-33.79,12.92-5.3,9.86-6.49,21.33-7.13,32.35,0,0-.04,.83-.04,.83v.21s-.02,.1-.02,.1v-.08c-.09-.83-1.2-1.22-1.78-.57,0,0,.14-.16,.14-.16,4.12-4.53,9.24-8.21,14.83-10.64,0,0,.98,2.03,.98,2.03-5.16,2.73-9.83,6.26-13.63,10.65-1.16,1.51-3.62,.61-3.52-1.29,0-.09,.05-1.05,.05-1.19,.57-11.49,2.16-23.33,8.03-33.46,6.17-10.44,17.5-16.57,29.64-14.72,3.46,.51,6.76,1.69,9.87,3.26,1.92,1.08,3.92,2.08,6.14,2.35,1.05,.11,2.16,.34,3.17-.04,2.25-.08,4.48-.73,6.2-2.13,5.17-3.83,6.31-12.92,.4-16.58,0,0,1.31-1.83,1.31-1.83h0Z" style="fill: #968375;"/>
      <path d="M55.04,133.52c8.82,.6,16.01-6.76,18.15-14.92,1.21-4.16,1.53-8.57,1.45-12.93-.17-14.46-7.56-25.47-23.19-23.71-8.63,.96-15.38,7.21-19.99,14.24-.33,.4-.55,.82-.55,1.32,.92,7.88,2.41,15.99,5.87,23.17,1.26,2.6,2.87,5,4.82,7.12,0,0-1.59,1.59-1.59,1.59-4.61-4.26-7.33-10.17-9.13-16.06-1.49-5.25-2.56-10.54-2.92-15.98,.05-1.06,.51-2.15,1.18-2.91l-.09,.12c6.55-9.83,16.8-16.78,29.05-14.54,12.79,2,17.88,13.9,17.76,25.62,.4,10.95-2.92,24.1-14,28.71-2.16,.9-4.49,1.32-6.81,1.42,0,0,0-2.25,0-2.25h0Z" style="fill: #968375;"/>
    </g>
  </g>
</svg>