<?xml version="1.0" encoding="UTF-8"?>
<svg id="b" data-name="圖層 2" xmlns="http://www.w3.org/2000/svg" width="102.94" height="153.3" viewBox="0 0 102.94 153.3">
  <g id="c" data-name="design1">
    <path d="M59.99,140.1c-.27,3.31-1.56,6.08-3.87,8.33-2.31,2.25-5.12,3.37-8.43,3.37h-6.94c-3.17,0-5.82-1.12-7.93-3.37-1.98-2.11-2.97-4.56-2.97-7.34,0-18.64,3.7-39.06,11.1-61.27,5.68-17.05,14.8-34.43,27.36-52.15,.13-.26,.13-.53,0-.79-.13-.26-.33-.4-.59-.4H13.2c-3.17,0-5.92-1.12-8.23-3.37-2.31-2.25-3.47-5.02-3.47-8.33v-1.59c0-3.17,1.16-5.91,3.47-8.23C7.28,2.66,10.03,1.5,13.2,1.5H92.32c2.51,0,4.66,.89,6.44,2.68,1.78,1.78,2.68,3.93,2.68,6.44,0,5.82-1.85,11.17-5.55,16.06-6.87,8.99-12.53,17.65-16.95,25.97-4.43,8.33-7.93,17.15-10.51,26.47-2.58,9.32-4.46,18.54-5.65,27.66-1.19,9.12-2.12,20.23-2.78,33.31Z" style="fill: #fff;"/>
    <g style="opacity: .7;">
      <path d="M59.99,140.1c-.27,3.31-1.56,6.08-3.87,8.33-2.31,2.25-5.12,3.37-8.43,3.37h-6.94c-3.17,0-5.82-1.12-7.93-3.37-1.98-2.11-2.97-4.56-2.97-7.34,0-18.64,3.7-39.06,11.1-61.27,5.68-17.05,14.8-34.43,27.36-52.15,.13-.26,.13-.53,0-.79-.13-.26-.33-.4-.59-.4H13.2c-3.17,0-5.92-1.12-8.23-3.37-2.31-2.25-3.47-5.02-3.47-8.33v-1.59c0-3.17,1.16-5.91,3.47-8.23C7.28,2.66,10.03,1.5,13.2,1.5H92.32c2.51,0,4.66,.89,6.44,2.68,1.78,1.78,2.68,3.93,2.68,6.44,0,5.82-1.85,11.17-5.55,16.06-6.87,8.99-12.53,17.65-16.95,25.97-4.43,8.33-7.93,17.15-10.51,26.47-2.58,9.32-4.46,18.54-5.65,27.66-1.19,9.12-2.12,20.23-2.78,33.31Z" style="fill: #e8ded4;"/>
    </g>
    <g>
      <path d="M47.7,153.3l-4.55-.05c-3.26,.07-6.82-.18-9.48-2.29-3.46-2.5-5.41-6.71-5.03-10.96,.06-3.81,.25-7.66,.6-11.44,3.59-36.41,16.69-71.88,37.93-101.7-.34,.41-.12,.93,.43,1.04-9.19,.09-25.76-.15-35.55-.2,0,0-18.63-.3-18.63-.3-6.76,.21-12.88-6.03-12.37-12.61h.91c-.04,6.11,5.63,11.21,11.46,10.79l18.63-.3c8.61-.05,24.15-.24,32.6-.22,.73,.03,2.73-.04,3.46,.04,1.53,.27,2.2,2.23,1.37,3.4-10.45,14.74-19.94,30.35-26.12,47.4-6,17.03-10.43,34.83-11.81,52.85-.31,4.44-.58,8.96-.38,13.4,.54,4.72,5.01,8.52,9.71,8.23,0,0,2.27-.03,2.27-.03,0,0,4.55-.05,4.55-.05,0,0,0,3,0,3h0Z" style="fill: #968375;"/>
      <path d="M27.06,0c11.53,.18,34.67,.39,46.19,.45,0,0,11.55,.03,11.55,.03,0,0,5.77,.02,5.77,.02,4.24-.39,8.54,1.39,10.62,5.29,2.68,5.23,.57,12.65-1.93,17.59-1.84,3.51-4.39,6.41-6.56,9.66-2.19,3.14-4.29,6.34-6.3,9.59-8.24,12.91-14.44,26.9-18.28,41.75-1.99,7.4-3.63,14.89-4.91,22.47,0,0-.9-.12-.9-.12,.73-7.69,2.01-15.33,3.76-22.87,3.3-15.15,9.47-29.77,17.97-42.73,2.13-3.24,4.35-6.42,6.66-9.53,2.19-3.09,4.86-5.95,6.71-9.22,1.79-3.24,2.83-6.87,3.02-10.58,.13-1.82-.03-3.51-.93-5.08-1.78-3.27-5.33-4.6-8.93-4.23,0,0-5.77,.02-5.77,.02l-11.55,.03c-11.5,.07-34.69,.28-46.19,.45,0,0,0-3,0-3h0Z" style="fill: #968375;"/>
    </g>
  </g>
</svg>