<?xml version="1.0" encoding="UTF-8"?>
<svg id="b" data-name="圖層 2" xmlns="http://www.w3.org/2000/svg" width="24.25" height="13.73" viewBox="0 0 24.25 13.73">
  <g id="c" data-name="TEXT">
    <g>
      <path d="M24.16,.66c-2.54,3.2-5.17,6.33-7.83,9.42-.44,.57-1.15,1.31-1.85,1.47-1.8,.55-4.21,.52-5.52-1-1.14-1.25-2.33-2.5-3.45-3.76C3.68,4.77,1.86,2.74,.1,.67-.05,.5-.03,.24,.14,.1,.3-.04,.54-.03,.69,.11c1.96,1.9,3.86,3.84,5.76,5.79,1.32,1.25,2.79,3.12,4.12,4.18,.97,.43,2.42,.44,3.44,.12,.65-.19,.82-.58,1.27-1.05C17.98,6.1,20.72,3.08,23.55,.13c.34-.36,.93,.14,.61,.53h0Z" style="fill: #968375;"/>
      <path d="M17.83,8.35s-2.51,2.71-2.96,4.13c-.56,1.75-3.95,1.51-4.71,.26-.77-1.28,.04-.95-3.06-4.17l3.85,2.6,4.23-.85,2.64-1.97Z" style="fill: #968375;"/>
    </g>
  </g>
</svg>