<?xml version="1.0" encoding="UTF-8"?>
<svg id="b" data-name="圖層 2" xmlns="http://www.w3.org/2000/svg" width="34.32" height="27.64" viewBox="0 0 34.32 27.64">
  <g id="c" data-name="圖層 2">
    <g>
      <path d="M33.58,27.6c-7.95-2.79-15.85-5.76-23.71-8.79-.6-.26-1.25-.44-1.87-.74-3.42-1.52-3.18-6.64,.29-7.91C16.66,6.69,25.1,3.25,33.57,.04c.65-.24,1.08,.73,.43,1.03-8.23,3.77-16.61,7.37-24.96,10.89-.93,.38-1.48,1.18-1.51,2.12-.07,1.34,.92,2.2,2.14,2.56,.56,.23,2.13,.83,2.71,1.07,7.24,2.85,14.45,5.78,21.6,8.84,.64,.27,.27,1.28-.41,1.04h0Z" style="fill: #958275;"/>
      <path d="M13.63,20.28s-6.87-2.84-10.45-3.35c-4.44-.63-3.82-4.47-.65-5.32s2.42,.05,10.56-3.46l-6.59,4.36,2.14,4.79,4.98,2.98Z" style="fill: #958275;"/>
    </g>
  </g>
</svg>