<?xml version="1.0" encoding="UTF-8"?>
<svg id="b" data-name="圖層 2" xmlns="http://www.w3.org/2000/svg" width="15.7" height="45.32" viewBox="0 0 15.7 45.32">
  <g id="c" data-name="設計">
    <g>
      <path d="M6.54,3.68c0-.99,.29-1.88,.88-2.66,.11-.16,.27-.23,.47-.23,.16,0,.3,.05,.42,.16,.13,.11,.2,.25,.21,.42v.05c0,.16-.04,.3-.13,.42-.43,.59-.64,1.21-.64,1.86,0,.53,.11,.94,.34,1.24s.53,.44,.91,.44c.16,0,.3-.03,.42-.08s.23-.11,.31-.18,.17-.17,.26-.32,.16-.28,.21-.37,.11-.25,.21-.47l.53-1.23c.51-1.2,1.28-1.79,2.32-1.79,.7,0,1.28,.27,1.74,.82s.7,1.24,.7,2.09-.25,1.57-.74,2.24c-.1,.14-.25,.21-.43,.21-.15,0-.28-.05-.39-.14-.12-.1-.18-.23-.2-.39,0-.02-.01-.05-.01-.07,0-.13,.04-.25,.12-.36,.3-.46,.45-.96,.45-1.49,0-.45-.1-.81-.31-1.08s-.49-.4-.84-.4c-.14,0-.27,.03-.4,.09s-.23,.12-.31,.2-.16,.19-.25,.33-.15,.27-.19,.37-.11,.24-.18,.44l-.52,1.21c-.25,.58-.56,1.02-.93,1.34s-.86,.47-1.46,.47c-.73,0-1.35-.28-1.83-.85s-.73-1.32-.73-2.27Z" style="fill: #fff;"/>
      <path d="M6.54,11.89c0-1.14,.4-2.08,1.21-2.82s1.92-1.11,3.33-1.11c.7,0,1.35,.1,1.93,.31s1.07,.49,1.46,.85,.69,.78,.9,1.27,.32,1,.32,1.56c0,.77-.24,1.47-.73,2.09-.1,.13-.24,.2-.42,.2-.16,0-.29-.05-.41-.15s-.18-.23-.19-.39v-.05c0-.14,.04-.27,.12-.39,.28-.39,.42-.82,.42-1.29,0-.77-.3-1.39-.91-1.86s-1.42-.71-2.44-.71-1.87,.23-2.48,.69-.91,1.08-.91,1.86c0,.57,.18,1.08,.55,1.54,.09,.12,.13,.25,.13,.39v.04c0,.15-.07,.27-.18,.38-.12,.1-.27,.15-.42,.15-.17,0-.32-.06-.43-.19-.57-.66-.86-1.44-.86-2.34Z" style="fill: #fff;"/>
      <path d="M7.29,22.25c-.06,.04-.13,.06-.19,.06s-.13-.02-.21-.06c-.13-.08-.2-.2-.2-.35v-.19c0-.21,.05-.41,.16-.6s.25-.33,.43-.43l2.89-1.62s.07-.08,.07-.14v-1.24c0-.06-.03-.09-.08-.09h-2.79c-.19,0-.35-.07-.49-.2s-.21-.3-.21-.49h0c0-.2,.07-.36,.21-.5s.3-.21,.49-.21h7.45c.19,0,.35,.07,.49,.21s.21,.3,.21,.49v2.2c0,2.12-.85,3.19-2.55,3.19-.65,0-1.18-.15-1.6-.46s-.72-.74-.91-1.29c-.02-.05-.06-.07-.11-.04l-3.07,1.77Zm7.11-4.57c0-.06-.03-.09-.08-.09h-2.86c-.06,0-.09,.03-.09,.09v1.24c0,1.32,.54,1.98,1.61,1.98,.52,0,.88-.16,1.1-.49s.33-.82,.33-1.49v-1.24Z" style="fill: #fff;"/>
      <path d="M7.79,30.2c-.83-.71-1.25-1.64-1.25-2.79s.42-2.08,1.25-2.78,1.95-1.06,3.36-1.06,2.52,.35,3.33,1.06,1.22,1.63,1.22,2.78-.41,2.08-1.22,2.79-1.92,1.07-3.32,1.07-2.53-.36-3.36-1.07Zm.88-4.55c-.61,.44-.92,1.02-.92,1.76s.31,1.32,.92,1.76,1.44,.66,2.48,.66,1.85-.22,2.44-.66,.9-1.03,.9-1.76-.3-1.32-.9-1.76-1.41-.66-2.44-.66-1.87,.22-2.48,.66Z" style="fill: #fff;"/>
      <path d="M6.7,33.78c0-.19,.07-.35,.21-.49s.3-.21,.49-.21h7.45c.19,0,.35,.07,.49,.21s.21,.3,.21,.49h0c0,.21-.07,.37-.21,.5s-.3,.2-.49,.2H7.96c-.06,0-.09,.03-.09,.09v3.05c0,.16-.06,.3-.17,.42s-.25,.18-.42,.18-.3-.06-.42-.18-.17-.26-.17-.42v-3.84Z" style="fill: #fff;"/>
      <path d="M6.7,40.46c0-.19,.07-.35,.21-.49s.3-.21,.49-.21h7.45c.19,0,.35,.07,.49,.21s.21,.3,.21,.49h0c0,.21-.07,.37-.21,.5s-.3,.2-.49,.2H7.96c-.06,0-.09,.03-.09,.09v3.05c0,.16-.06,.3-.17,.42s-.25,.18-.42,.18-.3-.06-.42-.18-.17-.26-.17-.42v-3.84Z" style="fill: #fff;"/>
    </g>
    <line x1=".3" x2=".3" y2="45.32" style="fill: none; stroke: #fff; stroke-miterlimit: 10; stroke-width: .6px;"/>
  </g>
</svg>