<?xml version="1.0" encoding="UTF-8"?>
<svg id="b" data-name="圖層 2" xmlns="http://www.w3.org/2000/svg" width="17.41" height="28.97" viewBox="0 0 17.41 28.97">
  <g id="c" data-name="menu">
    <path d="M17.38,.65c-2.68,7.5-6.19,16.78-9.07,24.25-.24,.56-.96,2.67-1.27,3.17-.82,1.38-3.08,1.13-3.61-.37-.16-.37-.56-1.42-.73-1.8C1.74,23.49,.84,21.06,.03,18.59c-.19-.56,.65-.9,.91-.38,.8,1.54,1.54,3.1,2.26,4.67,.54,1.13,1.07,2.4,1.57,3.55,.17,.29,.23,.95,.71,.78,.17-.05,.23-.36,.31-.52,0,0,.95-2.41,.95-2.41,1.19-3.07,4.49-11.26,5.77-14.42,1.3-3.2,2.62-6.39,3.96-9.57,.23-.56,1.13-.24,.91,.36h0Z" style="fill: #c1272d;"/>
  </g>
</svg>