<?xml version="1.0" encoding="UTF-8"?>
<svg id="b" data-name="圖層 2" xmlns="http://www.w3.org/2000/svg" width="30.23" height="28.57" viewBox="0 0 30.23 28.57">
  <g id="c" data-name="圖層 4">
    <path d="M16.61,28.56c-1.03-.08-3.27,.02-4.28-.11C2.93,27.62-1.43,18.96,.42,10.3,1.68,4.5,7.16,.09,13.12,.06c0,0,2.83-.04,2.83-.04,2.95-.13,5.99,.62,8.42,2.35,5.17,3.38,6.72,10.21,5.43,15.99-1.31,5.96-7.15,10.39-13.19,10.21h0Zm0-1.31c5.43-.04,10.32-4.06,11.48-9.3,.61-3.46,.62-7.27-1.11-10.41C23.95,2.13,18.97,.93,13.12,1.19,7.62,1.03,2.38,5.07,1.15,10.47c-1.75,7.55,1.78,15.38,9.91,16.68,1.75,.26,3.66,.09,5.55,.09h0Z" style="fill: #968375;"/>
  </g>
</svg>