<?xml version="1.0" encoding="UTF-8"?>
<svg id="b" data-name="圖層 2" xmlns="http://www.w3.org/2000/svg" width="17.64" height="14.21" viewBox="0 0 17.64 14.21">
  <g id="c" data-name="背景">
    <g>
      <path d="M.38,.02C4.47,1.45,8.53,2.98,12.57,4.54c.31,.13,.64,.23,.96,.38,1.76,.78,1.64,3.41-.15,4.07-4.3,1.78-8.64,3.55-13,5.2-.33,.12-.56-.37-.22-.53,4.23-1.94,8.54-3.79,12.83-5.6,.48-.19,.76-.6,.78-1.09,.04-.69-.47-1.13-1.1-1.32-.29-.12-1.1-.43-1.39-.55C7.56,3.63,3.85,2.13,.17,.55-.16,.42,.03-.1,.38,.02H.38Z" style="fill: #968375;"/>
      <path d="M10.64,3.78s3.53,1.46,5.37,1.72c2.28,.32,1.96,2.3,.33,2.74s-1.24-.02-5.43,1.78l3.39-2.24-1.1-2.46-2.56-1.53Z" style="fill: #968375;"/>
    </g>
  </g>
</svg>