<?xml version="1.0" encoding="UTF-8"?>
<svg id="b" data-name="圖層 2" xmlns="http://www.w3.org/2000/svg" width="135.74" height="31.57" viewBox="0 0 135.74 31.57">
  <g id="c" data-name="設計">
    <g>
      <path d="M98.64,27.24c0,2.4-1.94,4.33-4.33,4.33s-4.33-1.94-4.33-4.33,1.94-4.33,4.33-4.33,4.33,1.94,4.33,4.33Z" style="fill: #736357;"/>
      <path d="M10.14,27.72c-1.79,0-3.46-.4-5.03-1.21-1.59-.83-2.84-2.02-3.74-3.55-.91-1.54-1.36-3.3-1.36-5.29s.47-3.83,1.4-5.37c.91-1.49,2.12-2.64,3.65-3.46,1.52-.82,3.22-1.23,5.09-1.23,1.26,0,2.37,.16,3.33,.47,.96,.32,1.92,.76,2.88,1.34,.5,.35,.76,.8,.76,1.36,0,.38-.15,.73-.46,1.06-.3,.32-.64,.49-1.02,.49-.25,0-.53-.07-.83-.23-.88-.45-1.61-.77-2.2-.95-.58-.18-1.3-.26-2.15-.26-2.12,0-3.81,.61-5.05,1.83-1.25,1.22-1.87,2.87-1.87,4.94s.62,3.71,1.87,4.93c1.25,1.22,2.93,1.84,5.05,1.84,.86,0,1.57-.09,2.15-.27,.58-.18,1.31-.49,2.2-.95,.3-.15,.58-.23,.83-.23,.38,0,.72,.16,1.02,.49,.31,.33,.46,.68,.46,1.06,0,.55-.25,1.01-.76,1.36-.96,.58-1.92,1.03-2.88,1.34-.96,.32-2.07,.47-3.33,.47Z" style="fill: #736357;"/>
      <path d="M21.46,27.54c-.48,0-.89-.17-1.23-.51-.34-.34-.51-.75-.51-1.23V9.57c0-.83,.1-1.25,.3-1.25h2.91c.2,0,.3,.42,.3,1.25v1.51c1.74-2.32,3.71-3.48,5.9-3.48h.19c.43,0,.84-.2,1.25-.6v1.85c0,1.44-.41,2.16-1.25,2.16h-.27c-1.18,0-2.27,.28-3.27,.85-1,.57-1.85,1.38-2.55,2.44v11.5c0,.48-.18,.89-.53,1.23-.36,.34-.77,.51-1.25,.51Z" style="fill: #736357;"/>
      <path d="M44.42,16.04c.33,0,.48-.16,.46-.49-.1-1.01-.41-1.85-.91-2.53-.55-.81-1.24-1.41-2.06-1.82-.82-.4-1.67-.6-2.55-.6-.81,0-1.65,.19-2.54,.57-.88,.43-1.58,1.07-2.1,1.91-.52,.84-.81,1.84-.89,2.97h10.59Zm-4.31,11.69c-3.1,0-5.52-.88-7.25-2.65-1.73-1.76-2.59-4.23-2.59-7.41,0-1.71,.33-3.37,.98-4.96,.68-1.59,1.72-2.84,3.1-3.74,1.39-.91,3.05-1.36,4.99-1.36s3.49,.43,4.88,1.29c1.31,.86,2.33,2.01,3.06,3.46,.73,1.45,1.1,3.06,1.1,4.82,0,.48-.16,.89-.49,1.23-.33,.34-.76,.51-1.29,.51h-12.79c.23,1.79,.9,3.16,2.02,4.11,1.12,.94,2.64,1.42,4.56,1.42,1.01,0,1.91-.09,2.7-.29,.8-.19,1.6-.48,2.4-.89,.18-.1,.4-.15,.68-.15,.41,0,.77,.15,1.08,.43,.32,.29,.47,.65,.47,1.08,0,.58-.34,1.06-1.02,1.44-1.06,.58-2.07,1-3.03,1.27-.96,.26-2.16,.4-3.59,.4Z" style="fill: #736357;"/>
      <path d="M65.1,16.04c.33,0,.48-.16,.45-.49-.1-1.01-.4-1.85-.91-2.53-.56-.81-1.24-1.41-2.06-1.82-.82-.4-1.67-.6-2.56-.6-.8,0-1.65,.19-2.53,.57-.88,.43-1.58,1.07-2.1,1.91-.51,.84-.81,1.84-.89,2.97h10.59Zm-4.31,11.69c-3.1,0-5.52-.88-7.24-2.65-1.73-1.76-2.59-4.23-2.59-7.41,0-1.71,.32-3.37,.98-4.96,.68-1.59,1.71-2.84,3.1-3.74,1.39-.91,3.05-1.36,4.99-1.36s3.49,.43,4.88,1.29c1.31,.86,2.33,2.01,3.07,3.46,.73,1.45,1.09,3.06,1.09,4.82,0,.48-.16,.89-.49,1.23-.33,.34-.76,.51-1.29,.51h-12.78c.23,1.79,.9,3.16,2.02,4.11,1.12,.94,2.64,1.42,4.56,1.42,1.01,0,1.91-.09,2.71-.29,.79-.19,1.59-.48,2.4-.89,.18-.1,.4-.15,.68-.15,.4,0,.76,.15,1.08,.43,.31,.29,.47,.65,.47,1.08,0,.58-.34,1.06-1.02,1.44-1.06,.58-2.07,1-3.02,1.27-.96,.26-2.16,.4-3.59,.4Z" style="fill: #736357;"/>
      <path d="M80.8,24.43c1.92,0,3.42-.6,4.52-1.8,1.1-1.2,1.65-2.86,1.65-4.97s-.55-3.78-1.65-4.98c-1.1-1.2-2.6-1.79-4.52-1.79-1.11,0-2.18,.25-3.2,.75-1.02,.5-1.93,1.19-2.74,2.04v7.94c.81,.86,1.72,1.54,2.74,2.04,1.02,.5,2.09,.76,3.2,.76Zm.49,3.29c-2.47,0-4.61-.95-6.43-2.84v.91c0,.83-.18,1.09-.3,1.25-1.12,1.38-2.72,.35-2.91,0-.1-.18-.3-.42-.3-1.25V1.25c0-.84,.1-1.25,.3-1.25h2.91c.2,0,.3,.41,.3,1.25V10.44c1.82-1.89,3.96-2.84,6.43-2.84,1.64,0,3.12,.39,4.46,1.17,1.46,.81,2.62,1.99,3.46,3.55,.85,1.57,1.27,3.34,1.27,5.34s-.43,3.84-1.29,5.33c-.86,1.51-1.99,2.68-3.39,3.5-1.4,.82-2.91,1.23-4.52,1.23Z" style="fill: #736357;"/>
      <path d="M108.04,27.72c-1.79,0-3.47-.4-5.03-1.21-1.59-.83-2.84-2.02-3.75-3.55-.91-1.54-1.36-3.3-1.36-5.29s.46-3.83,1.4-5.37c.91-1.49,2.12-2.64,3.65-3.46,1.53-.82,3.22-1.23,5.09-1.23,1.26,0,2.37,.16,3.33,.47,.96,.32,1.91,.76,2.88,1.34,.5,.35,.75,.8,.75,1.36,0,.38-.15,.73-.45,1.06-.3,.32-.64,.49-1.02,.49-.25,0-.53-.07-.83-.23-.88-.45-1.61-.77-2.19-.95-.58-.18-1.3-.26-2.16-.26-2.12,0-3.8,.61-5.05,1.83-1.25,1.22-1.88,2.87-1.88,4.94s.62,3.71,1.88,4.93c1.25,1.22,2.93,1.84,5.05,1.84,.86,0,1.58-.09,2.16-.27,.58-.18,1.31-.49,2.19-.95,.3-.15,.58-.23,.83-.23,.38,0,.72,.16,1.02,.49,.3,.33,.45,.68,.45,1.06,0,.55-.25,1.01-.75,1.36-.96,.58-1.92,1.03-2.88,1.34-.96,.32-2.07,.47-3.33,.47Z" style="fill: #736357;"/>
      <path d="M126.02,24.51c1.03,0,2.03-.24,2.99-.72,.98-.5,1.76-1.28,2.34-2.32,.58-1.05,.87-2.33,.87-3.84,0-1.59-.3-2.88-.91-3.86-.56-.96-1.29-1.69-2.21-2.19-.92-.5-1.95-.76-3.08-.76-1.04,0-2.03,.23-2.99,.68-.98,.51-1.77,1.27-2.34,2.31-.58,1.03-.87,2.31-.87,3.82,0,1.61,.3,2.91,.91,3.89,.55,.98,1.29,1.73,2.21,2.23,.92,.5,1.94,.75,3.08,.75Zm0,3.22c-1.94,0-3.64-.41-5.11-1.25-1.46-.86-2.6-2.05-3.41-3.59-.8-1.54-1.21-3.28-1.21-5.22s.41-3.72,1.21-5.26c.81-1.54,1.95-2.72,3.42-3.55,1.48-.83,3.17-1.25,5.09-1.25s3.61,.42,5.07,1.25c1.49,.86,2.64,2.05,3.44,3.58,.81,1.52,1.21,3.27,1.21,5.24s-.4,3.71-1.21,5.22c-.83,1.56-1.98,2.76-3.46,3.59-1.47,.83-3.16,1.25-5.05,1.25Z" style="fill: #736357;"/>
    </g>
  </g>
</svg>