<?xml version="1.0" encoding="UTF-8"?>
<svg id="b" data-name="圖層 2" xmlns="http://www.w3.org/2000/svg" width="3015.74" height="148.45" viewBox="0 0 3015.74 148.45">
  <g id="c" data-name="設計">
    <g style="opacity: .7;">
      <g>
        <path d="M53.68,115.86c-4.61,1.91-9.46,2.86-14.53,2.86s-9.92-.96-14.53-2.86-8.69-4.61-12.23-8.11c-3.54-3.49-6.38-7.92-8.52-13.27-2.14-5.36-3.21-11.25-3.21-17.68s1.07-12.34,3.21-17.75c2.14-5.4,4.98-9.87,8.52-13.41s7.62-6.26,12.23-8.17c4.61-1.91,9.45-2.87,14.53-2.87s9.92,.96,14.53,2.87c4.61,1.91,8.69,4.63,12.23,8.17,3.54,3.54,6.38,8.01,8.52,13.41,2.14,5.4,3.21,11.32,3.21,17.75s-1.07,12.32-3.21,17.68c-2.14,5.36-4.99,9.78-8.52,13.27-3.54,3.49-7.62,6.2-12.23,8.11Zm-27.04-20.96c2.98,4.43,7.15,6.64,12.51,6.64s9.52-2.21,12.51-6.64c2.98-4.42,4.47-10.46,4.47-18.1s-1.49-13.72-4.47-18.24c-2.98-4.52-7.15-6.78-12.51-6.78s-9.53,2.26-12.51,6.78c-2.98,4.52-4.47,10.6-4.47,18.24s1.49,13.67,4.47,18.1Z" style="fill: none; stroke: #e8ded4; stroke-miterlimit: 10; stroke-width: 1.3px;"/>
        <path d="M100.64,116.77c-2.33,0-4.29-.81-5.87-2.45-1.58-1.63-2.38-3.56-2.38-5.8V44.95c0-2.33,.79-4.28,2.38-5.87s3.54-2.38,5.87-2.38h.7c2.33,0,4.38,.77,6.15,2.31,1.77,1.54,2.84,3.47,3.21,5.8l.28,2.1c0,.19,.09,.28,.28,.28s.37-.05,.56-.14c8.48-8.29,17.05-12.44,25.71-12.44,16.58,0,24.87,10.76,24.87,32.28v41.64c0,2.24-.82,4.17-2.45,5.8s-3.56,2.45-5.8,2.45h-4.61c-2.24,0-4.17-.81-5.8-2.45-1.63-1.63-2.45-3.56-2.45-5.8v-39.13c0-6.05-.89-10.36-2.65-12.93-1.77-2.56-4.66-3.84-8.66-3.84-2.98,0-5.61,.65-7.9,1.96-2.28,1.31-4.96,3.45-8.04,6.43-.56,.47-.84,1.03-.84,1.68v45.83c0,2.24-.79,4.17-2.38,5.8-1.58,1.63-3.54,2.45-5.87,2.45h-4.33Z" style="fill: none; stroke: #e8ded4; stroke-miterlimit: 10; stroke-width: 1.3px;"/>
        <path d="M215.99,118.73c-11.55,0-21.08-3.77-28.58-11.32-7.5-7.55-11.25-17.75-11.25-30.6,0-6.24,1.05-12.06,3.14-17.47,2.1-5.4,4.89-9.87,8.38-13.42,3.49-3.54,7.48-6.31,11.95-8.31,4.47-2,9.08-3,13.83-3,10.71,0,18.98,3.54,24.8,10.62,5.82,7.08,8.73,16.35,8.73,27.81v1.4c-.09,2.33-1.05,4.26-2.87,5.8-1.82,1.54-3.94,2.31-6.36,2.31h-40.11c-.75,0-1.03,.37-.84,1.12,.93,6.15,3.35,10.85,7.27,14.11,3.91,3.26,8.8,4.89,14.67,4.89,3.91,0,7.73-.75,11.46-2.24,1.12-.46,2.24-.7,3.35-.7,.84,0,1.63,.09,2.38,.28,2.05,.56,3.54,1.72,4.47,3.49,.65,1.21,.98,2.47,.98,3.77s-.33,2.54-.98,3.7c-.65,1.17-1.58,2.03-2.79,2.58-7.08,3.45-14.3,5.17-21.66,5.17Zm-19.56-50.87c0,.56,.33,.84,.98,.84h30.46c.74,0,1.12-.33,1.12-.98-.19-5.31-1.54-9.43-4.05-12.37-2.52-2.93-6.24-4.4-11.18-4.4-4.19,0-7.92,1.45-11.18,4.33-4.1,3.73-6.15,7.92-6.15,12.58Z" style="fill: none; stroke: #e8ded4; stroke-miterlimit: 10; stroke-width: 1.3px;"/>
        <path d="M325,118.73c-11.46,0-20.85-3.75-28.16-11.25-7.31-7.5-10.97-17.72-10.97-30.67,0-8.57,1.91-16.12,5.73-22.64,3.82-6.52,8.8-11.41,14.95-14.67,6.15-3.26,12.9-4.89,20.26-4.89,5.96,0,11.46,1.4,16.49,4.19,2.05,1.12,3.21,2.84,3.49,5.17,.09,.37,.14,.79,.14,1.26,0,1.77-.56,3.4-1.68,4.89l-.28,.28c-1.21,1.77-2.98,2.79-5.31,3.07-.65,.19-1.31,.28-1.96,.28-1.58,0-3.12-.33-4.61-.98-1.68-.65-3.45-.98-5.31-.98-6.06,0-10.97,2.28-14.74,6.85-3.77,4.57-5.66,10.62-5.66,18.17s1.84,13.44,5.52,17.96c3.68,4.52,8.45,6.78,14.32,6.78,2.89,0,5.82-.65,8.8-1.96,1.3-.65,2.66-.98,4.05-.98,.65,0,1.35,.05,2.1,.14,2.14,.47,3.72,1.58,4.75,3.35,.93,1.49,1.4,3.03,1.4,4.61,0,.65-.05,1.26-.14,1.82-.47,2.33-1.68,4.05-3.63,5.17-6.06,3.35-12.58,5.03-19.56,5.03Z" style="fill: none; stroke: #e8ded4; stroke-miterlimit: 10; stroke-width: 1.3px;"/>
        <path d="M371.6,116.77c-2.33,0-4.29-.81-5.87-2.45-1.58-1.63-2.38-3.56-2.38-5.8V44.95c0-2.33,.79-4.28,2.38-5.87s3.54-2.38,5.87-2.38h.7c2.33,0,4.35,.77,6.08,2.31,1.72,1.54,2.72,3.47,3,5.8l.56,5.73c0,.19,.09,.28,.28,.28s.33-.09,.42-.28c2.89-5.03,6.33-8.94,10.34-11.74,4-2.79,8.1-4.19,12.3-4.19h1.4c2.33,.09,4.1,1.17,5.31,3.21,.84,1.4,1.26,2.93,1.26,4.61,0,.65-.05,1.31-.14,1.96l-.42,2.1c-.47,2.05-1.63,3.68-3.49,4.89-1.87,1.21-3.96,1.82-6.29,1.82h-.28c-3.35,0-6.66,1.21-9.92,3.63-3.26,2.42-5.96,6.15-8.11,11.18-.28,.65-.42,1.31-.42,1.96v38.57c0,2.24-.79,4.17-2.38,5.8-1.59,1.63-3.54,2.45-5.87,2.45h-4.33Z" style="fill: none; stroke: #e8ded4; stroke-miterlimit: 10; stroke-width: 1.3px;"/>
        <path d="M433.44,23.71c-3.63,0-6.64-1.07-9.01-3.21-2.38-2.14-3.56-4.89-3.56-8.25s1.16-6.08,3.49-8.17c2.33-2.1,5.36-3.14,9.08-3.14s6.5,1.05,8.87,3.14c2.38,2.1,3.56,4.82,3.56,8.17s-1.19,6.1-3.56,8.25c-2.38,2.14-5.33,3.21-8.87,3.21Zm-2.38,93.07c-2.33,0-4.29-.81-5.87-2.45-1.58-1.63-2.38-3.56-2.38-5.8V44.95c0-2.33,.79-4.28,2.38-5.87s3.54-2.38,5.87-2.38h4.33c2.33,0,4.28,.79,5.87,2.38,1.58,1.58,2.38,3.54,2.38,5.87v63.58c0,2.24-.79,4.17-2.38,5.8-1.59,1.63-3.54,2.45-5.87,2.45h-4.33Z" style="fill: none; stroke: #e8ded4; stroke-miterlimit: 10; stroke-width: 1.3px;"/>
        <path d="M503.66,118.73c-7.45,0-14.58-3.4-21.38-10.2-.09-.09-.21-.14-.35-.14s-.21,.05-.21,.14l-.28,.7c-.47,2.24-1.56,4.05-3.28,5.45-1.72,1.4-3.7,2.1-5.94,2.1h-.56c-2.33,0-4.29-.79-5.87-2.38-1.58-1.58-2.38-3.54-2.38-5.87V10.85c0-2.33,.79-4.28,2.38-5.87,1.58-1.58,3.54-2.38,5.87-2.38h4.33c2.33,0,4.28,.79,5.87,2.38,1.58,1.59,2.38,3.54,2.38,5.87V31.39l-.28,11.74c0,.19,.07,.33,.21,.42,.14,.09,.3,.09,.49,0,6.8-5.96,13.93-8.94,21.38-8.94,9.78,0,17.49,3.7,23.13,11.11,5.64,7.41,8.45,17.26,8.45,29.55,0,6.71-.93,12.83-2.79,18.38-1.86,5.54-4.38,10.13-7.55,13.76-3.17,3.63-6.8,6.43-10.9,8.38-4.1,1.96-8.34,2.93-12.72,2.93Zm-4.75-17.33c5.12,0,9.27-2.19,12.44-6.57,3.17-4.38,4.75-10.76,4.75-19.14,0-15.84-5.31-23.76-15.93-23.76-4.84,0-9.88,2.51-15.09,7.55-.56,.47-.84,1.07-.84,1.82v33.12c0,.75,.28,1.31,.84,1.68,4.38,3.54,8.99,5.31,13.83,5.31Z" style="fill: none; stroke: #e8ded4; stroke-miterlimit: 10; stroke-width: 1.3px;"/>
        <path d="M621.19,1.21c2.14,.47,3.77,1.68,4.89,3.63,.75,1.31,1.12,2.66,1.12,4.05,0,.75-.09,1.49-.28,2.24-.47,2.05-1.63,3.59-3.49,4.61-1.68,1.03-3.54,1.54-5.59,1.54-.19,0-.37-.05-.56-.14h-.7c-6.52,0-9.78,4.19-9.78,12.58v5.87c0,.75,.37,1.12,1.12,1.12h5.73c2.24,0,4.17,.79,5.8,2.38,1.63,1.58,2.45,3.54,2.45,5.87s-.82,4.29-2.45,5.87c-1.63,1.58-3.56,2.38-5.8,2.38h-5.73c-.75,0-1.12,.37-1.12,1.12v54.22c0,2.24-.82,4.17-2.45,5.8s-3.56,2.45-5.8,2.45h-4.61c-2.24,0-4.17-.81-5.8-2.45-1.63-1.63-2.45-3.56-2.45-5.8V54.31c0-.74-.33-1.12-.98-1.12h-1.82c-2.24,0-4.1-.75-5.59-2.24-1.49-1.49-2.24-3.31-2.24-5.45s.74-4.17,2.24-5.8c1.49-1.63,3.31-2.54,5.45-2.72l1.96-.14c.65,0,.98-.37,.98-1.12v-5.59c0-8.94,2.26-16.09,6.78-21.45,4.52-5.36,11.57-8.03,21.17-8.03,2.51,0,5.03,.19,7.55,.56Z" style="fill: none; stroke: #e8ded4; stroke-miterlimit: 10; stroke-width: 1.3px;"/>
        <path d="M679.04,115.86c-4.61,1.91-9.46,2.86-14.53,2.86s-9.92-.96-14.53-2.86-8.69-4.61-12.23-8.11c-3.54-3.49-6.38-7.92-8.52-13.27-2.14-5.36-3.21-11.25-3.21-17.68s1.07-12.34,3.21-17.75c2.14-5.4,4.98-9.87,8.52-13.41s7.62-6.26,12.23-8.17c4.61-1.91,9.45-2.87,14.53-2.87s9.92,.96,14.53,2.87c4.61,1.91,8.69,4.63,12.23,8.17,3.54,3.54,6.38,8.01,8.52,13.41,2.14,5.4,3.21,11.32,3.21,17.75s-1.07,12.32-3.21,17.68c-2.14,5.36-4.99,9.78-8.52,13.27-3.54,3.49-7.62,6.2-12.23,8.11Zm-27.04-20.96c2.98,4.43,7.15,6.64,12.51,6.64s9.52-2.21,12.51-6.64c2.98-4.42,4.47-10.46,4.47-18.1s-1.49-13.72-4.47-18.24c-2.98-4.52-7.15-6.78-12.51-6.78s-9.53,2.26-12.51,6.78c-2.98,4.52-4.47,10.6-4.47,18.24s1.49,13.67,4.47,18.1Z" style="fill: none; stroke: #e8ded4; stroke-miterlimit: 10; stroke-width: 1.3px;"/>
        <path d="M726,116.77c-2.33,0-4.29-.81-5.87-2.45-1.58-1.63-2.38-3.56-2.38-5.8V44.95c0-2.33,.79-4.28,2.38-5.87s3.54-2.38,5.87-2.38h.7c2.33,0,4.35,.77,6.08,2.31,1.72,1.54,2.73,3.47,3,5.8l.56,5.73c0,.19,.09,.28,.28,.28s.33-.09,.42-.28c2.89-5.03,6.33-8.94,10.34-11.74,4-2.79,8.1-4.19,12.3-4.19h1.4c2.33,.09,4.1,1.17,5.31,3.21,.84,1.4,1.26,2.93,1.26,4.61,0,.65-.05,1.31-.14,1.96l-.42,2.1c-.47,2.05-1.63,3.68-3.49,4.89-1.86,1.21-3.96,1.82-6.29,1.82h-.28c-3.35,0-6.66,1.21-9.92,3.63-3.26,2.42-5.96,6.15-8.1,11.18-.28,.65-.42,1.31-.42,1.96v38.57c0,2.24-.79,4.17-2.38,5.8-1.58,1.63-3.54,2.45-5.87,2.45h-4.33Z" style="fill: none; stroke: #e8ded4; stroke-miterlimit: 10; stroke-width: 1.3px;"/>
        <path d="M854.77,115.86c-4.61,1.91-9.46,2.86-14.53,2.86s-9.92-.96-14.53-2.86c-4.61-1.91-8.69-4.61-12.23-8.11-3.54-3.49-6.38-7.92-8.52-13.27-2.14-5.36-3.21-11.25-3.21-17.68s1.07-12.34,3.21-17.75c2.14-5.4,4.98-9.87,8.52-13.41,3.54-3.54,7.62-6.26,12.23-8.17,4.61-1.91,9.46-2.87,14.53-2.87s9.92,.96,14.53,2.87c4.61,1.91,8.69,4.63,12.23,8.17,3.54,3.54,6.38,8.01,8.52,13.41,2.14,5.4,3.21,11.32,3.21,17.75s-1.07,12.32-3.21,17.68c-2.14,5.36-4.98,9.78-8.52,13.27-3.54,3.49-7.62,6.2-12.23,8.11Zm-27.04-20.96c2.98,4.43,7.15,6.64,12.51,6.64s9.52-2.21,12.51-6.64c2.98-4.42,4.47-10.46,4.47-18.1s-1.49-13.72-4.47-18.24c-2.98-4.52-7.15-6.78-12.51-6.78s-9.53,2.26-12.51,6.78c-2.98,4.52-4.47,10.6-4.47,18.24s1.49,13.67,4.47,18.1Z" style="fill: none; stroke: #e8ded4; stroke-miterlimit: 10; stroke-width: 1.3px;"/>
        <path d="M901.73,116.77c-2.33,0-4.29-.81-5.87-2.45-1.58-1.63-2.38-3.56-2.38-5.8V44.95c0-2.33,.79-4.28,2.38-5.87s3.54-2.38,5.87-2.38h.7c2.33,0,4.38,.77,6.15,2.31,1.77,1.54,2.84,3.47,3.21,5.8l.28,2.1c0,.19,.09,.28,.28,.28s.37-.05,.56-.14c8.48-8.29,17.05-12.44,25.71-12.44,16.58,0,24.87,10.76,24.87,32.28v41.64c0,2.24-.82,4.17-2.45,5.8s-3.56,2.45-5.8,2.45h-4.61c-2.24,0-4.17-.81-5.8-2.45-1.63-1.63-2.45-3.56-2.45-5.8v-39.13c0-6.05-.89-10.36-2.66-12.93-1.77-2.56-4.66-3.84-8.66-3.84-2.98,0-5.61,.65-7.89,1.96-2.28,1.31-4.96,3.45-8.04,6.43-.56,.47-.84,1.03-.84,1.68v45.83c0,2.24-.79,4.17-2.38,5.8-1.59,1.63-3.54,2.45-5.87,2.45h-4.33Z" style="fill: none; stroke: #e8ded4; stroke-miterlimit: 10; stroke-width: 1.3px;"/>
        <path d="M1017.09,118.73c-11.55,0-21.08-3.77-28.58-11.32-7.5-7.55-11.25-17.75-11.25-30.6,0-6.24,1.05-12.06,3.14-17.47,2.1-5.4,4.89-9.87,8.38-13.42,3.49-3.54,7.48-6.31,11.95-8.31,4.47-2,9.08-3,13.83-3,10.71,0,18.98,3.54,24.8,10.62,5.82,7.08,8.73,16.35,8.73,27.81v1.4c-.09,2.33-1.05,4.26-2.86,5.8s-3.94,2.31-6.36,2.31h-40.1c-.75,0-1.03,.37-.84,1.12,.93,6.15,3.35,10.85,7.27,14.11,3.91,3.26,8.8,4.89,14.67,4.89,3.91,0,7.73-.75,11.46-2.24,1.12-.46,2.24-.7,3.35-.7,.84,0,1.63,.09,2.38,.28,2.05,.56,3.54,1.72,4.47,3.49,.65,1.21,.98,2.47,.98,3.77s-.33,2.54-.98,3.7c-.65,1.17-1.59,2.03-2.79,2.58-7.08,3.45-14.3,5.17-21.66,5.17Zm-19.56-50.87c0,.56,.32,.84,.98,.84h30.46c.74,0,1.12-.33,1.12-.98-.19-5.31-1.54-9.43-4.05-12.37-2.52-2.93-6.24-4.4-11.18-4.4-4.19,0-7.92,1.45-11.18,4.33-4.1,3.73-6.15,7.92-6.15,12.58Z" style="fill: none; stroke: #e8ded4; stroke-miterlimit: 10; stroke-width: 1.3px;"/>
        <path d="M1121.34,118.73c-17.61,0-26.41-10.01-26.41-30.04V54.31c0-.74-.33-1.12-.98-1.12h-2.52c-2.14,0-3.96-.75-5.45-2.24-1.49-1.49-2.24-3.31-2.24-5.45s.74-4.17,2.24-5.8c1.49-1.63,3.31-2.54,5.45-2.72l3.49-.28c.74,0,1.12-.37,1.12-1.12l1.4-12.16c.28-2.33,1.3-4.28,3.07-5.87,1.77-1.58,3.82-2.38,6.15-2.38h1.12c2.24,0,4.17,.82,5.8,2.45,1.63,1.63,2.45,3.56,2.45,5.8v12.16c0,.75,.33,1.12,.98,1.12h10.48c2.33,0,4.28,.79,5.87,2.38,1.58,1.58,2.38,3.54,2.38,5.87s-.79,4.29-2.38,5.87-3.54,2.38-5.87,2.38h-10.48c-.65,0-.98,.37-.98,1.12v34.38c0,9.04,3.63,13.55,10.9,13.55h.42c2.14,0,4.1,.47,5.87,1.4,1.77,1.03,2.84,2.52,3.21,4.47,.19,.65,.28,1.31,.28,1.96,0,1.49-.37,2.89-1.12,4.19-1.12,1.96-2.75,3.17-4.89,3.63-3.17,.56-6.29,.84-9.36,.84Z" style="fill: none; stroke: #e8ded4; stroke-miterlimit: 10; stroke-width: 1.3px;"/>
        <path d="M1157.46,116.77c-2.33,0-4.29-.81-5.87-2.45-1.58-1.63-2.38-3.56-2.38-5.8V44.95c0-2.33,.79-4.28,2.38-5.87s3.54-2.38,5.87-2.38h.7c2.33,0,4.35,.77,6.08,2.31,1.72,1.54,2.72,3.47,3,5.8l.56,5.73c0,.19,.09,.28,.28,.28s.33-.09,.42-.28c2.89-5.03,6.33-8.94,10.34-11.74,4-2.79,8.11-4.19,12.3-4.19h1.4c2.33,.09,4.1,1.17,5.31,3.21,.84,1.4,1.26,2.93,1.26,4.61,0,.65-.05,1.31-.14,1.96l-.42,2.1c-.47,2.05-1.63,3.68-3.49,4.89-1.86,1.21-3.96,1.82-6.29,1.82h-.28c-3.35,0-6.66,1.21-9.92,3.63-3.26,2.42-5.96,6.15-8.1,11.18-.28,.65-.42,1.31-.42,1.96v38.57c0,2.24-.79,4.17-2.38,5.8-1.58,1.63-3.54,2.45-5.87,2.45h-4.33Z" style="fill: none; stroke: #e8ded4; stroke-miterlimit: 10; stroke-width: 1.3px;"/>
        <path d="M1242.08,118.73c-11.55,0-21.08-3.77-28.58-11.32-7.5-7.55-11.25-17.75-11.25-30.6,0-6.24,1.05-12.06,3.14-17.47,2.1-5.4,4.89-9.87,8.38-13.42,3.49-3.54,7.48-6.31,11.95-8.31,4.47-2,9.08-3,13.83-3,10.71,0,18.98,3.54,24.8,10.62,5.82,7.08,8.73,16.35,8.73,27.81v1.4c-.09,2.33-1.05,4.26-2.86,5.8s-3.94,2.31-6.36,2.31h-40.1c-.75,0-1.03,.37-.84,1.12,.93,6.15,3.35,10.85,7.27,14.11,3.91,3.26,8.8,4.89,14.67,4.89,3.91,0,7.73-.75,11.46-2.24,1.12-.46,2.24-.7,3.35-.7,.84,0,1.63,.09,2.38,.28,2.05,.56,3.54,1.72,4.47,3.49,.65,1.21,.98,2.47,.98,3.77s-.33,2.54-.98,3.7c-.65,1.17-1.58,2.03-2.79,2.58-7.08,3.45-14.3,5.17-21.66,5.17Zm-19.56-50.87c0,.56,.33,.84,.98,.84h30.46c.74,0,1.12-.33,1.12-.98-.19-5.31-1.54-9.43-4.05-12.37-2.52-2.93-6.24-4.4-11.18-4.4-4.19,0-7.92,1.45-11.18,4.33-4.1,3.73-6.15,7.92-6.15,12.58Z" style="fill: none; stroke: #e8ded4; stroke-miterlimit: 10; stroke-width: 1.3px;"/>
        <path d="M1322.22,118.73c-11.55,0-21.08-3.77-28.58-11.32-7.5-7.55-11.25-17.75-11.25-30.6,0-6.24,1.05-12.06,3.14-17.47,2.1-5.4,4.89-9.87,8.38-13.42,3.49-3.54,7.48-6.31,11.95-8.31,4.47-2,9.08-3,13.83-3,10.71,0,18.98,3.54,24.8,10.62,5.82,7.08,8.73,16.35,8.73,27.81v1.4c-.09,2.33-1.05,4.26-2.86,5.8s-3.94,2.31-6.36,2.31h-40.1c-.75,0-1.03,.37-.84,1.12,.93,6.15,3.35,10.85,7.27,14.11,3.91,3.26,8.8,4.89,14.67,4.89,3.91,0,7.73-.75,11.46-2.24,1.12-.46,2.24-.7,3.35-.7,.84,0,1.63,.09,2.38,.28,2.05,.56,3.54,1.72,4.47,3.49,.65,1.21,.98,2.47,.98,3.77s-.33,2.54-.98,3.7c-.65,1.17-1.58,2.03-2.79,2.58-7.08,3.45-14.3,5.17-21.66,5.17Zm-19.56-50.87c0,.56,.33,.84,.98,.84h30.46c.74,0,1.12-.33,1.12-.98-.19-5.31-1.54-9.43-4.05-12.37-2.52-2.93-6.24-4.4-11.18-4.4-4.19,0-7.92,1.45-11.18,4.33-4.1,3.73-6.15,7.92-6.15,12.58Z" style="fill: none; stroke: #e8ded4; stroke-miterlimit: 10; stroke-width: 1.3px;"/>
        <path d="M1426.47,118.73c-17.61,0-26.41-10.01-26.41-30.04V54.31c0-.74-.33-1.12-.98-1.12h-2.52c-2.14,0-3.96-.75-5.45-2.24-1.49-1.49-2.24-3.31-2.24-5.45s.74-4.17,2.24-5.8c1.49-1.63,3.31-2.54,5.45-2.72l3.49-.28c.74,0,1.12-.37,1.12-1.12l1.4-12.16c.28-2.33,1.3-4.28,3.07-5.87,1.77-1.58,3.82-2.38,6.15-2.38h1.12c2.24,0,4.17,.82,5.8,2.45,1.63,1.63,2.45,3.56,2.45,5.8v12.16c0,.75,.33,1.12,.98,1.12h10.48c2.33,0,4.28,.79,5.87,2.38,1.58,1.58,2.38,3.54,2.38,5.87s-.79,4.29-2.38,5.87-3.54,2.38-5.87,2.38h-10.48c-.65,0-.98,.37-.98,1.12v34.38c0,9.04,3.63,13.55,10.9,13.55h.42c2.14,0,4.1,.47,5.87,1.4,1.77,1.03,2.84,2.52,3.21,4.47,.19,.65,.28,1.31,.28,1.96,0,1.49-.37,2.89-1.12,4.19-1.12,1.96-2.75,3.17-4.89,3.63-3.17,.56-6.29,.84-9.36,.84Z" style="fill: none; stroke: #e8ded4; stroke-miterlimit: 10; stroke-width: 1.3px;"/>
        <path d="M1500.96,115.86c-4.61,1.91-9.46,2.86-14.53,2.86s-9.92-.96-14.53-2.86-8.69-4.61-12.23-8.11c-3.54-3.49-6.38-7.92-8.52-13.27-2.14-5.36-3.21-11.25-3.21-17.68s1.07-12.34,3.21-17.75c2.14-5.4,4.98-9.87,8.52-13.41,3.54-3.54,7.62-6.26,12.23-8.17,4.61-1.91,9.45-2.87,14.53-2.87s9.92,.96,14.53,2.87c4.61,1.91,8.69,4.63,12.23,8.17,3.54,3.54,6.38,8.01,8.52,13.41,2.14,5.4,3.21,11.32,3.21,17.75s-1.07,12.32-3.21,17.68c-2.14,5.36-4.98,9.78-8.52,13.27-3.54,3.49-7.62,6.2-12.23,8.11Zm-27.04-20.96c2.98,4.43,7.15,6.64,12.51,6.64s9.52-2.21,12.51-6.64c2.98-4.42,4.47-10.46,4.47-18.1s-1.49-13.72-4.47-18.24c-2.98-4.52-7.15-6.78-12.51-6.78s-9.53,2.26-12.51,6.78c-2.98,4.52-4.47,10.6-4.47,18.24s1.49,13.67,4.47,18.1Z" style="fill: none; stroke: #e8ded4; stroke-miterlimit: 10; stroke-width: 1.3px;"/>
        <path d="M1592.14,118.73c-8.01,0-15.98-2.24-23.9-6.71-1.86-1.02-2.98-2.7-3.35-5.03-.09-.46-.14-.88-.14-1.26,0-1.77,.56-3.4,1.68-4.89,1.3-1.77,3.07-2.84,5.31-3.21h1.54c1.68,0,3.21,.42,4.61,1.26,5.03,2.79,9.97,4.19,14.81,4.19,3.82,0,6.71-.77,8.66-2.31s2.93-3.61,2.93-6.22c0-1.02-.3-2.03-.91-3-.61-.98-1.28-1.79-2.03-2.45-.75-.65-1.91-1.37-3.49-2.17-1.59-.79-2.89-1.4-3.91-1.82-1.03-.42-2.56-1.05-4.61-1.89-.84-.28-1.45-.51-1.82-.7-2.98-1.12-5.59-2.26-7.83-3.42-2.24-1.16-4.52-2.68-6.85-4.54-2.33-1.86-4.12-4.1-5.38-6.71-1.26-2.61-1.89-5.5-1.89-8.66,0-7.27,2.72-13.18,8.17-17.75,5.45-4.56,12.65-6.85,21.59-6.85,7.17,0,14.07,1.87,20.68,5.59,1.96,1.03,3.07,2.61,3.35,4.75,.09,.47,.14,.93,.14,1.4,0,1.68-.51,3.17-1.54,4.47-1.31,1.77-3.07,2.84-5.31,3.21-.56,.09-1.17,.14-1.82,.14-1.49,0-2.93-.33-4.33-.98-3.73-1.86-7.27-2.79-10.62-2.79s-6.06,.7-7.83,2.1c-1.77,1.4-2.66,3.26-2.66,5.59,0,.65,.07,1.26,.21,1.82s.42,1.1,.84,1.61c.42,.51,.81,.98,1.19,1.4,.37,.42,.95,.84,1.75,1.26,.79,.42,1.44,.77,1.96,1.05,.51,.28,1.3,.63,2.38,1.05,1.07,.42,1.89,.75,2.45,.98,.56,.23,1.47,.58,2.72,1.05,1.26,.47,2.17,.79,2.72,.98,2.61,1.03,4.77,1.91,6.5,2.66,1.72,.75,3.68,1.84,5.87,3.28,2.19,1.45,3.93,2.93,5.24,4.47,1.3,1.54,2.42,3.49,3.35,5.87,.93,2.38,1.4,5.01,1.4,7.89,0,7.36-2.79,13.42-8.38,18.17-5.59,4.75-13.42,7.13-23.48,7.13Z" style="fill: none; stroke: #e8ded4; stroke-miterlimit: 10; stroke-width: 1.3px;"/>
        <path d="M1656.78,118.73c-7.08,0-12.81-2.24-17.19-6.71-4.38-4.47-6.57-10.15-6.57-17.05,0-8.48,3.58-15.07,10.76-19.77,7.17-4.7,18.63-7.94,34.38-9.71,.65-.09,.98-.46,.98-1.12-.65-8.57-5.17-12.86-13.55-12.86-4.57,0-9.6,1.31-15.09,3.91-1.21,.56-2.42,.84-3.63,.84-.84,0-1.68-.14-2.52-.42-2.05-.56-3.59-1.77-4.61-3.63-.75-1.3-1.12-2.61-1.12-3.91,0-.74,.14-1.49,.42-2.24,.56-2.14,1.82-3.73,3.77-4.75,9.04-4.47,17.89-6.71,26.55-6.71,10.15,0,17.82,3,22.99,9.01,5.17,6.01,7.76,14.79,7.76,26.34v38.57c0,2.24-.79,4.17-2.38,5.8-1.58,1.63-3.54,2.45-5.87,2.45h-1.12c-2.24,0-4.22-.72-5.94-2.17-1.72-1.44-2.77-3.28-3.14-5.52l-.14-.7c-.09-.09-.21-.14-.35-.14s-.26,.05-.35,.14c-8.2,6.9-16.21,10.34-24.04,10.34Zm6.85-16.35c4.94,0,9.87-2.42,14.81-7.27,.46-.47,.7-1.02,.7-1.68v-14.11c0-.65-.28-.98-.84-.98-.09,0-.19,.05-.28,.14-8.85,1.21-15.21,3.05-19.07,5.52-3.87,2.47-5.8,5.57-5.8,9.29,0,3.07,.95,5.36,2.87,6.85,1.91,1.49,4.45,2.24,7.62,2.24Z" style="fill: none; stroke: #e8ded4; stroke-miterlimit: 10; stroke-width: 1.3px;"/>
        <path d="M1745.02,116.77c-2.42,0-4.66-.72-6.71-2.17-2.05-1.44-3.45-3.33-4.19-5.66l-22.08-64.56c-.19-.65-.28-1.3-.28-1.96,0-1.12,.37-2.24,1.12-3.35,1.21-1.58,2.79-2.38,4.75-2.38h4.75c2.42,0,4.61,.72,6.57,2.17,1.96,1.45,3.31,3.33,4.05,5.66l9.36,32c.75,3.07,1.91,7.55,3.49,13.42,1.58,5.87,2.51,9.41,2.79,10.62,.09,.19,.25,.28,.49,.28s.4-.09,.49-.28c1.12-4.75,3.21-12.76,6.29-24.04l9.36-32c.74-2.33,2.1-4.21,4.05-5.66,1.96-1.44,4.14-2.17,6.57-2.17h3.63c2.05,0,3.68,.79,4.89,2.38,.75,1.12,1.12,2.24,1.12,3.35,0,.65-.09,1.35-.28,2.1l-21.52,64.42c-.84,2.33-2.26,4.22-4.26,5.66-2,1.45-4.22,2.17-6.64,2.17h-7.83Z" style="fill: none; stroke: #e8ded4; stroke-miterlimit: 10; stroke-width: 1.3px;"/>
        <path d="M1831.88,118.73c-11.55,0-21.08-3.77-28.58-11.32-7.5-7.55-11.25-17.75-11.25-30.6,0-6.24,1.05-12.06,3.14-17.47,2.1-5.4,4.89-9.87,8.38-13.42,3.49-3.54,7.48-6.31,11.95-8.31,4.47-2,9.08-3,13.83-3,10.71,0,18.98,3.54,24.8,10.62,5.82,7.08,8.73,16.35,8.73,27.81v1.4c-.09,2.33-1.05,4.26-2.86,5.8s-3.94,2.31-6.36,2.31h-40.1c-.75,0-1.03,.37-.84,1.12,.93,6.15,3.35,10.85,7.27,14.11,3.91,3.26,8.8,4.89,14.67,4.89,3.91,0,7.73-.75,11.46-2.24,1.12-.46,2.24-.7,3.35-.7,.84,0,1.63,.09,2.38,.28,2.05,.56,3.54,1.72,4.47,3.49,.65,1.21,.98,2.47,.98,3.77s-.33,2.54-.98,3.7c-.65,1.17-1.58,2.03-2.79,2.58-7.08,3.45-14.3,5.17-21.66,5.17Zm-19.56-50.87c0,.56,.33,.84,.98,.84h30.46c.74,0,1.12-.33,1.12-.98-.19-5.31-1.54-9.43-4.05-12.37-2.52-2.93-6.24-4.4-11.18-4.4-4.19,0-7.92,1.45-11.18,4.33-4.1,3.73-6.15,7.92-6.15,12.58Z" style="fill: none; stroke: #e8ded4; stroke-miterlimit: 10; stroke-width: 1.3px;"/>
        <path d="M1954.78,115.86c-4.61,1.91-9.46,2.86-14.53,2.86s-9.92-.96-14.53-2.86-8.69-4.61-12.23-8.11c-3.54-3.49-6.38-7.92-8.52-13.27-2.14-5.36-3.21-11.25-3.21-17.68s1.07-12.34,3.21-17.75c2.14-5.4,4.98-9.87,8.52-13.41,3.54-3.54,7.62-6.26,12.23-8.17,4.61-1.91,9.45-2.87,14.53-2.87s9.92,.96,14.53,2.87c4.61,1.91,8.69,4.63,12.23,8.17,3.54,3.54,6.38,8.01,8.52,13.41,2.14,5.4,3.21,11.32,3.21,17.75s-1.07,12.32-3.21,17.68c-2.14,5.36-4.98,9.78-8.52,13.27-3.54,3.49-7.62,6.2-12.23,8.11Zm-27.04-20.96c2.98,4.43,7.15,6.64,12.51,6.64s9.52-2.21,12.51-6.64c2.98-4.42,4.47-10.46,4.47-18.1s-1.49-13.72-4.47-18.24c-2.98-4.52-7.15-6.78-12.51-6.78s-9.53,2.26-12.51,6.78c-2.98,4.52-4.47,10.6-4.47,18.24s1.49,13.67,4.47,18.1Z" style="fill: none; stroke: #e8ded4; stroke-miterlimit: 10; stroke-width: 1.3px;"/>
        <path d="M2017.25,118.73c-16.4,0-24.59-10.67-24.59-32V44.95c0-2.33,.79-4.28,2.38-5.87,1.58-1.58,3.54-2.38,5.87-2.38h4.47c2.33,0,4.28,.79,5.87,2.38,1.58,1.58,2.38,3.54,2.38,5.87v39.13c0,6.06,.88,10.34,2.66,12.86,1.77,2.51,4.61,3.77,8.52,3.77,3.17,0,5.92-.7,8.25-2.1,2.33-1.4,4.8-3.77,7.41-7.13,.46-.46,.7-1.07,.7-1.82V44.95c0-2.33,.79-4.28,2.38-5.87s3.54-2.38,5.87-2.38h4.47c2.33,0,4.28,.79,5.87,2.38,1.58,1.58,2.38,3.54,2.38,5.87v63.58c0,2.24-.79,4.17-2.38,5.8-1.58,1.63-3.54,2.45-5.87,2.45h-.56c-2.42,0-4.52-.77-6.29-2.31-1.77-1.54-2.79-3.47-3.07-5.8l-.42-3.07c-.09-.19-.23-.28-.42-.28s-.33,.09-.42,.28c-7.55,8.76-16.02,13.13-25.43,13.13Z" style="fill: none; stroke: #e8ded4; stroke-miterlimit: 10; stroke-width: 1.3px;"/>
        <path d="M2089.98,116.77c-2.33,0-4.29-.81-5.87-2.45-1.58-1.63-2.38-3.56-2.38-5.8V44.95c0-2.33,.79-4.28,2.38-5.87s3.54-2.38,5.87-2.38h.7c2.33,0,4.35,.77,6.08,2.31,1.72,1.54,2.72,3.47,3,5.8l.56,5.73c0,.19,.09,.28,.28,.28s.33-.09,.42-.28c2.89-5.03,6.33-8.94,10.34-11.74,4-2.79,8.11-4.19,12.3-4.19h1.4c2.33,.09,4.1,1.17,5.31,3.21,.84,1.4,1.26,2.93,1.26,4.61,0,.65-.05,1.31-.14,1.96l-.42,2.1c-.47,2.05-1.63,3.68-3.49,4.89-1.86,1.21-3.96,1.82-6.29,1.82h-.28c-3.35,0-6.66,1.21-9.92,3.63-3.26,2.42-5.96,6.15-8.1,11.18-.28,.65-.42,1.31-.42,1.96v38.57c0,2.24-.79,4.17-2.38,5.8-1.58,1.63-3.54,2.45-5.87,2.45h-4.33Z" style="fill: none; stroke: #e8ded4; stroke-miterlimit: 10; stroke-width: 1.3px;"/>
        <path d="M2179,116.77c-2.33,0-4.29-.81-5.87-2.45-1.58-1.63-2.38-3.56-2.38-5.8V10.85c0-2.33,.79-4.28,2.38-5.87,1.58-1.58,3.54-2.38,5.87-2.38h4.33c2.33,0,4.28,.79,5.87,2.38,1.58,1.59,2.38,3.54,2.38,5.87V31.39l-.7,13.97c0,.19,.07,.33,.21,.42,.14,.09,.3,.05,.49-.14,8.01-7.36,16.12-11.04,24.32-11.04,16.58,0,24.87,10.76,24.87,32.28v41.64c0,2.24-.82,4.17-2.45,5.8s-3.56,2.45-5.8,2.45h-4.61c-2.24,0-4.17-.81-5.8-2.45-1.63-1.63-2.45-3.56-2.45-5.8v-39.13c0-6.05-.89-10.36-2.66-12.93-1.77-2.56-4.66-3.84-8.66-3.84-2.98,0-5.61,.65-7.9,1.96-2.28,1.31-4.96,3.45-8.04,6.43-.56,.47-.84,1.03-.84,1.68v45.83c0,2.24-.79,4.17-2.38,5.8-1.58,1.63-3.54,2.45-5.87,2.45h-4.33Z" style="fill: none; stroke: #e8ded4; stroke-miterlimit: 10; stroke-width: 1.3px;"/>
        <path d="M2307.43,115.86c-4.61,1.91-9.46,2.86-14.53,2.86s-9.92-.96-14.53-2.86-8.69-4.61-12.23-8.11c-3.54-3.49-6.38-7.92-8.52-13.27-2.14-5.36-3.21-11.25-3.21-17.68s1.07-12.34,3.21-17.75c2.14-5.4,4.98-9.87,8.52-13.41,3.54-3.54,7.62-6.26,12.23-8.17,4.61-1.91,9.45-2.87,14.53-2.87s9.92,.96,14.53,2.87c4.61,1.91,8.69,4.63,12.23,8.17,3.54,3.54,6.38,8.01,8.52,13.41,2.14,5.4,3.21,11.32,3.21,17.75s-1.07,12.32-3.21,17.68c-2.14,5.36-4.98,9.78-8.52,13.27-3.54,3.49-7.62,6.2-12.23,8.11Zm-27.04-20.96c2.98,4.43,7.15,6.64,12.51,6.64s9.52-2.21,12.51-6.64c2.98-4.42,4.47-10.46,4.47-18.1s-1.49-13.72-4.47-18.24c-2.98-4.52-7.15-6.78-12.51-6.78s-9.53,2.26-12.51,6.78c-2.98,4.52-4.47,10.6-4.47,18.24s1.49,13.67,4.47,18.1Z" style="fill: none; stroke: #e8ded4; stroke-miterlimit: 10; stroke-width: 1.3px;"/>
        <path d="M2354.38,116.77c-2.33,0-4.29-.81-5.87-2.45-1.58-1.63-2.38-3.56-2.38-5.8V44.95c0-2.33,.79-4.28,2.38-5.87s3.54-2.38,5.87-2.38h.7c2.33,0,4.38,.77,6.15,2.31,1.77,1.54,2.84,3.47,3.21,5.8l.28,2.24c0,.19,.09,.28,.28,.28s.37-.05,.56-.14c3.82-4,7.64-7.1,11.46-9.29,3.82-2.19,8.11-3.28,12.86-3.28,10.34,0,17.56,4.38,21.66,13.14,.28,.56,.65,.61,1.12,.14,4.1-4.19,8.08-7.45,11.95-9.78,3.87-2.33,8.13-3.49,12.79-3.49,8.38,0,14.62,2.79,18.73,8.38,4.1,5.59,6.15,13.55,6.15,23.9v41.64c0,2.24-.79,4.17-2.38,5.8-1.58,1.63-3.54,2.45-5.87,2.45h-4.47c-2.33,0-4.29-.81-5.87-2.45-1.59-1.63-2.38-3.56-2.38-5.8v-39.13c0-6.05-.89-10.36-2.66-12.93-1.77-2.56-4.61-3.84-8.52-3.84-4.38,0-9.27,2.75-14.67,8.25-.56,.56-.84,1.17-.84,1.82v45.83c0,2.24-.79,4.17-2.38,5.8-1.59,1.63-3.54,2.45-5.87,2.45h-4.47c-2.33,0-4.29-.81-5.87-2.45-1.58-1.63-2.38-3.56-2.38-5.8v-39.13c0-6.05-.89-10.36-2.66-12.93-1.77-2.56-4.61-3.84-8.52-3.84-4.38,0-9.27,2.75-14.67,8.25-.56,.56-.84,1.17-.84,1.82v45.83c0,2.24-.79,4.17-2.38,5.8-1.58,1.63-3.54,2.45-5.87,2.45h-4.33Z" style="fill: none; stroke: #e8ded4; stroke-miterlimit: 10; stroke-width: 1.3px;"/>
        <path d="M2515.99,118.73c-11.55,0-21.08-3.77-28.58-11.32-7.5-7.55-11.25-17.75-11.25-30.6,0-6.24,1.05-12.06,3.14-17.47,2.1-5.4,4.89-9.87,8.38-13.42,3.49-3.54,7.48-6.31,11.95-8.31,4.47-2,9.08-3,13.83-3,10.71,0,18.98,3.54,24.8,10.62,5.82,7.08,8.73,16.35,8.73,27.81v1.4c-.09,2.33-1.05,4.26-2.86,5.8s-3.94,2.31-6.36,2.31h-40.1c-.75,0-1.03,.37-.84,1.12,.93,6.15,3.35,10.85,7.27,14.11,3.91,3.26,8.8,4.89,14.67,4.89,3.91,0,7.73-.75,11.46-2.24,1.12-.46,2.24-.7,3.35-.7,.84,0,1.63,.09,2.38,.28,2.05,.56,3.54,1.72,4.47,3.49,.65,1.21,.98,2.47,.98,3.77s-.33,2.54-.98,3.7c-.65,1.17-1.58,2.03-2.79,2.58-7.08,3.45-14.3,5.17-21.66,5.17Zm-19.56-50.87c0,.56,.33,.84,.98,.84h30.46c.74,0,1.12-.33,1.12-.98-.19-5.31-1.54-9.43-4.05-12.37-2.52-2.93-6.24-4.4-11.18-4.4-4.19,0-7.92,1.45-11.18,4.33-4.1,3.73-6.15,7.92-6.15,12.58Z" style="fill: none; stroke: #e8ded4; stroke-miterlimit: 10; stroke-width: 1.3px;"/>
        <path d="M2599.15,147.8c-2.33,0-4.29-.79-5.87-2.38s-2.38-3.54-2.38-5.87V45.23c0-2.33,.79-4.28,2.38-5.87,1.58-1.58,3.54-2.38,5.87-2.38h1.4c2.14,0,4.05,.7,5.73,2.1s2.7,3.17,3.07,5.31l.14,.56c0,.19,.09,.28,.28,.28s.37-.05,.56-.14c8.01-6.71,15.79-10.06,23.34-10.06,9.78,0,17.47,3.68,23.06,11.04,5.59,7.36,8.38,17.24,8.38,29.62,0,6.71-.93,12.83-2.79,18.38-1.86,5.54-4.38,10.11-7.55,13.69-3.17,3.59-6.8,6.38-10.9,8.38-4.1,2-8.34,3-12.72,3-6.62,0-13-2.7-19.14-8.11-.19-.09-.35-.09-.49,0-.14,.09-.21,.23-.21,.42l.42,12.02v16.07c0,2.33-.79,4.28-2.38,5.87-1.58,1.58-3.54,2.38-5.87,2.38h-4.33Zm27.25-45.97c5.12,0,9.27-2.19,12.44-6.57,3.17-4.38,4.75-10.81,4.75-19.28,0-15.84-5.31-23.76-15.93-23.76-4.84,0-9.88,2.56-15.09,7.69-.56,.47-.84,1.03-.84,1.68v33.12c0,.75,.28,1.35,.84,1.82,4.47,3.54,9.08,5.31,13.83,5.31Z" style="fill: none; stroke: #e8ded4; stroke-miterlimit: 10; stroke-width: 1.3px;"/>
        <path d="M2699.83,118.73c-6.99,0-12.02-2.1-15.09-6.29s-4.61-10.25-4.61-18.17V10.85c0-2.33,.79-4.28,2.38-5.87,1.58-1.58,3.54-2.38,5.87-2.38h4.33c2.33,0,4.28,.79,5.87,2.38,1.58,1.59,2.38,3.54,2.38,5.87V95.25c0,2.98,.84,4.94,2.52,5.87,.09,.09,.51,.33,1.26,.7,.74,.37,1.26,.65,1.54,.84,.28,.19,.67,.47,1.19,.84,.51,.37,.86,.77,1.05,1.19,.19,.42,.33,.86,.42,1.33l.56,3.07c.09,.56,.14,1.12,.14,1.68,0,1.68-.47,3.26-1.4,4.75-1.21,1.86-2.93,2.89-5.17,3.07-1.03,.09-2.1,.14-3.21,.14Z" style="fill: none; stroke: #e8ded4; stroke-miterlimit: 10; stroke-width: 1.3px;"/>
        <path d="M2741.97,118.73c-7.08,0-12.81-2.24-17.19-6.71-4.38-4.47-6.57-10.15-6.57-17.05,0-8.48,3.58-15.07,10.76-19.77,7.17-4.7,18.63-7.94,34.38-9.71,.65-.09,.98-.46,.98-1.12-.65-8.57-5.17-12.86-13.55-12.86-4.57,0-9.6,1.31-15.09,3.91-1.21,.56-2.42,.84-3.63,.84-.84,0-1.68-.14-2.52-.42-2.05-.56-3.59-1.77-4.61-3.63-.75-1.3-1.12-2.61-1.12-3.91,0-.74,.14-1.49,.42-2.24,.56-2.14,1.82-3.73,3.77-4.75,9.04-4.47,17.89-6.71,26.55-6.71,10.15,0,17.82,3,22.99,9.01,5.17,6.01,7.76,14.79,7.76,26.34v38.57c0,2.24-.79,4.17-2.38,5.8-1.58,1.63-3.54,2.45-5.87,2.45h-1.12c-2.24,0-4.22-.72-5.94-2.17-1.72-1.44-2.77-3.28-3.14-5.52l-.14-.7c-.09-.09-.21-.14-.35-.14s-.26,.05-.35,.14c-8.2,6.9-16.21,10.34-24.04,10.34Zm6.85-16.35c4.94,0,9.87-2.42,14.81-7.27,.46-.47,.7-1.02,.7-1.68v-14.11c0-.65-.28-.98-.84-.98-.09,0-.19,.05-.28,.14-8.85,1.21-15.21,3.05-19.07,5.52-3.87,2.47-5.8,5.57-5.8,9.29,0,3.07,.95,5.36,2.87,6.85,1.91,1.49,4.45,2.24,7.62,2.24Z" style="fill: none; stroke: #e8ded4; stroke-miterlimit: 10; stroke-width: 1.3px;"/>
        <path d="M2812.19,116.77c-2.33,0-4.29-.81-5.87-2.45-1.58-1.63-2.38-3.56-2.38-5.8V44.95c0-2.33,.79-4.28,2.38-5.87s3.54-2.38,5.87-2.38h.7c2.33,0,4.38,.77,6.15,2.31,1.77,1.54,2.84,3.47,3.21,5.8l.28,2.1c0,.19,.09,.28,.28,.28s.37-.05,.56-.14c8.48-8.29,17.05-12.44,25.71-12.44,16.58,0,24.87,10.76,24.87,32.28v41.64c0,2.24-.82,4.17-2.45,5.8s-3.56,2.45-5.8,2.45h-4.61c-2.24,0-4.17-.81-5.8-2.45-1.63-1.63-2.45-3.56-2.45-5.8v-39.13c0-6.05-.89-10.36-2.66-12.93-1.77-2.56-4.66-3.84-8.66-3.84-2.98,0-5.61,.65-7.9,1.96-2.28,1.31-4.96,3.45-8.04,6.43-.56,.47-.84,1.03-.84,1.68v45.83c0,2.24-.79,4.17-2.38,5.8-1.58,1.63-3.54,2.45-5.87,2.45h-4.33Z" style="fill: none; stroke: #e8ded4; stroke-miterlimit: 10; stroke-width: 1.3px;"/>
        <path d="M2927.55,118.73c-11.55,0-21.08-3.77-28.58-11.32-7.5-7.55-11.25-17.75-11.25-30.6,0-6.24,1.05-12.06,3.14-17.47,2.1-5.4,4.89-9.87,8.38-13.42,3.49-3.54,7.48-6.31,11.95-8.31,4.47-2,9.08-3,13.83-3,10.71,0,18.98,3.54,24.8,10.62,5.82,7.08,8.73,16.35,8.73,27.81v1.4c-.09,2.33-1.05,4.26-2.86,5.8s-3.94,2.31-6.36,2.31h-40.1c-.75,0-1.03,.37-.84,1.12,.93,6.15,3.35,10.85,7.27,14.11,3.91,3.26,8.8,4.89,14.67,4.89,3.91,0,7.73-.75,11.46-2.24,1.12-.46,2.24-.7,3.35-.7,.84,0,1.63,.09,2.38,.28,2.05,.56,3.54,1.72,4.47,3.49,.65,1.21,.98,2.47,.98,3.77s-.33,2.54-.98,3.7c-.65,1.17-1.58,2.03-2.79,2.58-7.08,3.45-14.3,5.17-21.66,5.17Zm-19.56-50.87c0,.56,.33,.84,.98,.84h30.46c.74,0,1.12-.33,1.12-.98-.19-5.31-1.54-9.43-4.05-12.37-2.52-2.93-6.24-4.4-11.18-4.4-4.19,0-7.92,1.45-11.18,4.33-4.1,3.73-6.15,7.92-6.15,12.58Z" style="fill: none; stroke: #e8ded4; stroke-miterlimit: 10; stroke-width: 1.3px;"/>
        <path d="M2999.72,118.73c-17.61,0-26.41-10.01-26.41-30.04V54.31c0-.74-.33-1.12-.98-1.12h-2.52c-2.14,0-3.96-.75-5.45-2.24-1.49-1.49-2.24-3.31-2.24-5.45s.74-4.17,2.24-5.8c1.49-1.63,3.31-2.54,5.45-2.72l3.49-.28c.74,0,1.12-.37,1.12-1.12l1.4-12.16c.28-2.33,1.3-4.28,3.07-5.87,1.77-1.58,3.82-2.38,6.15-2.38h1.12c2.24,0,4.17,.82,5.8,2.45,1.63,1.63,2.45,3.56,2.45,5.8v12.16c0,.75,.33,1.12,.98,1.12h10.48c2.33,0,4.28,.79,5.87,2.38,1.58,1.58,2.38,3.54,2.38,5.87s-.79,4.29-2.38,5.87-3.54,2.38-5.87,2.38h-10.48c-.65,0-.98,.37-.98,1.12v34.38c0,9.04,3.63,13.55,10.9,13.55h.42c2.14,0,4.1,.47,5.87,1.4,1.77,1.03,2.84,2.52,3.21,4.47,.19,.65,.28,1.31,.28,1.96,0,1.49-.37,2.89-1.12,4.19-1.12,1.96-2.75,3.17-4.89,3.63-3.17,.56-6.29,.84-9.36,.84Z" style="fill: none; stroke: #e8ded4; stroke-miterlimit: 10; stroke-width: 1.3px;"/>
      </g>
    </g>
  </g>
</svg>