<?xml version="1.0" encoding="UTF-8"?>
<svg id="b" data-name="圖層 2" xmlns="http://www.w3.org/2000/svg" width="19.25" height="8.66" viewBox="0 0 19.25 8.66">
  <g id="c" data-name="menu">
    <g>
      <path d="M19.16,.49c-2.1,2.07-4.24,4.09-6.42,6.08-1.26,1.26-3.52,1.21-5.09,.52-.69-.48-2.49-2.12-3.17-2.67C3.01,3.13,1.54,1.83,.09,.5-.02,.39-.03,.21,.08,.09,.18-.02,.34-.03,.46,.06,2.71,1.78,5.16,3.78,7.36,5.59c.15,.11,.65,.56,.79,.63,1.02,.42,2.43,.42,3.46,0C13.98,4.21,16.34,2.04,18.78,.07c.27-.23,.64,.18,.38,.43h0Z" style="fill: #968375;"/>
      <path d="M14.18,5.28s-2,1.7-2.36,2.59c-.45,1.1-3.15,.95-3.75,.16s.03-.6-2.44-2.62l3.07,1.63,3.37-.53,2.1-1.24Z" style="fill: #968375;"/>
    </g>
  </g>
</svg>