<?xml version="1.0" encoding="UTF-8"?>
<svg id="b" data-name="圖層 2" xmlns="http://www.w3.org/2000/svg" width="45.15" height="45.15" viewBox="0 0 45.15 45.15">
  <g id="c" data-name="圖層 2">
    <g>
      <path d="M31.83,16.18s-6.16-7.6-15.74-2.14c0,0-5.82,3.38-3.76,9.9,0,0,1.86,5.03,8.33,5.9,0,0,1.84,.08,1.19,1.98-.64,1.9,.91,1.13,.91,1.13,0,0,5.69-2.72,9.06-7.09,3.38-4.36,1.25-8.13,0-9.67Zm-13.39,7.94h-2.29c-.25,0-.46-.21-.46-.46v-4.31c0-.29,.23-.52,.52-.52s.52,.23,.52,.52v3.71s.03,.07,.07,.07h1.64c.27,0,.5,.22,.5,.5s-.22,.5-.5,.5Zm2.1-.33c0,.29-.23,.52-.52,.52s-.52-.23-.52-.52v-4.44c0-.29,.23-.52,.52-.52s.52,.23,.52,.52v4.44Zm5.23-.19c0,.39-.32,.71-.71,.71-.18,0-.36-.09-.46-.25l-2.1-3.22s-.08-.02-.08,.02v2.92c0,.29-.23,.52-.52,.52s-.52-.23-.52-.52v-4.23c0-.4,.32-.72,.73-.72,.17,0,.33,.09,.42,.23l2.11,3.25s.08,.02,.08-.02v-2.93c0-.29,.23-.52,.52-.52s.52,.23,.52,.52v4.25Zm2.01-2.56h1.56c.28,0,.5,.22,.5,.5s-.22,.5-.5,.5h-1.56s-.05,.02-.05,.05v1.01s.02,.05,.05,.05h1.55c.28,0,.51,.23,.51,.51s-.23,.51-.51,.51h-2.18c-.25,0-.45-.2-.45-.45v-4.36c0-.25,.2-.45,.45-.45h2.19c.28,0,.51,.23,.51,.51s-.23,.51-.51,.51h-1.55s-.05,.02-.05,.05v1.01s.02,.05,.05,.05Z" style="fill: #8c786b;"/>
      <circle cx="22.58" cy="22.58" r="21.58" style="fill: none; stroke: #8c786b; stroke-miterlimit: 10; stroke-width: 2px;"/>
    </g>
  </g>
</svg>