<?xml version="1.0" encoding="UTF-8"?>
<svg id="b" data-name="圖層 2" xmlns="http://www.w3.org/2000/svg" width="15.96" height="17.67" viewBox="0 0 15.96 17.67">
  <g id="c" data-name="圖層 4">
    <path d="M.86,17.67c-.09-.04-.19-.06-.27-.11C.21,17.36,0,17.05,0,16.61,0,15.1,0,13.6,0,12.09c0-.6,.45-1.06,1.04-1.07,.58,0,1.05,.46,1.06,1.07,0,.5,0,.99,0,1.49,0,.66,0,1.31,0,1.98H13.85c0-.06,0-.13,0-.19,0-1.08,0-2.16,0-3.25,0-.59,.38-1.02,.95-1.09,.55-.07,1.1,.37,1.15,.93,0,.09,0,.19,0,.28,0,1.38-.01,2.75,0,4.13,0,.6-.14,1.07-.87,1.3H.86Z" style="fill: #595757;"/>
    <path d="M6.93,9.18c0-.06,0-.12,0-.18,0-2.64,0-5.28,0-7.92C6.93,.46,7.39,0,8,0c.55,0,1,.45,1.03,.99,0,.07,0,.13,0,.2,0,2.61,0,5.21,0,7.82v.21c.07-.06,.11-.1,.15-.14,.6-.6,1.2-1.21,1.81-1.81,.59-.58,1.55-.32,1.76,.47,.1,.4-.02,.75-.31,1.05-.6,.6-1.2,1.2-1.8,1.8-.61,.61-1.23,1.23-1.84,1.84-.52,.52-1.12,.52-1.64,0-1.21-1.21-2.43-2.42-3.64-3.64-.45-.45-.47-1.1-.04-1.52,.41-.41,1.06-.42,1.49,0,.61,.6,1.21,1.2,1.81,1.81,.04,.04,.08,.09,.12,.14,.01,0,.03-.01,.04-.02Z" style="fill: #595757;"/>
  </g>
</svg>