<?xml version="1.0" encoding="UTF-8"?>
<svg id="b" data-name="圖層 2" xmlns="http://www.w3.org/2000/svg" width="45.15" height="45.15" viewBox="0 0 45.15 45.15">
  <g id="c" data-name="圖層 2">
    <g>
      <path d="M21.15,26.11s-.06,.09-.1,.13c-.61,.61-1.22,1.22-1.83,1.83-.33,.33-.71,.59-1.17,.72-1.16,.33-2.27-.34-2.47-1.52-.12-.7,.13-1.3,.56-1.83,.06-.07,.13-.14,.19-.21,1.16-1.16,2.32-2.31,3.47-3.48,.89-.9,2.28-1.06,3.19-.17,.43,.42,1.16,.34,1.55-.1,.42-.47,.41-1.15-.04-1.59-.84-.82-1.86-1.22-3.03-1.2-1.29,.02-2.38,.53-3.3,1.44-1.16,1.16-2.32,2.32-3.48,3.48-.66,.66-1.13,1.44-1.34,2.36-.06,.24-.38,1.16,.17,2.52,.7,1.85,2.59,2.94,4.56,2.63,1.06-.16,1.95-.65,2.7-1.4,1.03-1.03,2.06-2.06,3.09-3.09,.03-.03,.05-.06,.07-.08-.99,.23-1.91,.07-2.82-.44Z" style="fill: #8c786b;"/>
      <path d="M31.17,15.65c-.94-2.27-4.18-3.94-7.11-1.38-1.16,1.02-2.19,2.17-3.28,3.26-.01,.01-.02,.03-.02,.04,.99-.21,1.91-.06,2.8,.45,.03-.04,.07-.09,.12-.14,.61-.61,1.2-1.22,1.82-1.82,.23-.22,.49-.43,.78-.57,1.25-.65,2.66,.03,2.87,1.38,.12,.75-.16,1.4-.68,1.93-1.21,1.23-2.43,2.45-3.65,3.65-.83,.81-2.18,.96-3.07,.1-.45-.44-1.16-.37-1.57,.07-.43,.46-.43,1.16,.03,1.6,.21,.21,.45,.4,.7,.56,1.67,1.05,3.88,.79,5.29-.52,1.36-1.27,2.77-2.5,3.96-3.93,1.94-2.33,1.36-3.87,1.01-4.7Z" style="fill: #8c786b;"/>
    </g>
    <circle cx="22.58" cy="22.58" r="21.58" style="fill: none; stroke: #8c786b; stroke-miterlimit: 10; stroke-width: 2px;"/>
  </g>
</svg>