<?xml version="1.0" encoding="UTF-8"?>
<svg id="b" data-name="圖層 2" xmlns="http://www.w3.org/2000/svg" width="161.96" height="34.44" viewBox="0 0 161.96 34.44">
  <g id="c" data-name="圖層 2">
    <g>
      <path d="M44.66,24.42c-2.15,0-4.11-.62-5.88-1.87-.34-.24-.53-.57-.56-1-.02-.05-.03-.09-.03-.13,0-.38,.13-.71,.38-1l.28-.33c.26-.32,.6-.5,1.02-.54h.18c.34,0,.67,.09,.97,.28,1.24,.82,2.49,1.23,3.73,1.23,.99,0,1.75-.2,2.28-.59,.53-.39,.79-.94,.79-1.64,0-.63-.2-1.1-.61-1.42-.41-.31-1.11-.69-2.1-1.11-.09-.03-.15-.06-.18-.08l-2.61-1.1c-1.12-.48-2.06-1.14-2.8-1.99-.74-.85-1.11-1.93-1.11-3.22,0-1.6,.63-2.94,1.89-4,1.26-1.06,2.87-1.6,4.81-1.6,1.81,0,3.44,.5,4.91,1.51,.36,.24,.55,.58,.59,1.02v.13c0,.38-.13,.71-.38,1l-.05,.08c-.26,.32-.6,.51-1.02,.56-.09,.02-.17,.03-.26,.03-.32,0-.63-.08-.92-.26-.89-.49-1.84-.74-2.86-.74-.85,0-1.53,.18-2.05,.54s-.77,.86-.77,1.51c0,.32,.07,.6,.21,.84,.14,.24,.36,.46,.68,.67,.32,.2,.6,.37,.84,.49,.25,.12,.63,.27,1.14,.46,.09,.03,.15,.06,.18,.08l2.53,1.07c1.28,.53,2.25,1.21,2.92,2.03,.67,.83,1,1.91,1,3.24,0,1.65-.64,3.04-1.93,4.17-1.29,1.13-3.02,1.69-5.2,1.69Z" style="fill: #baa38a;"/>
      <path d="M57.23,24.06c-.41,0-.76-.15-1.06-.45-.3-.3-.45-.65-.45-1.06V6.18c0-.41,.15-.76,.45-1.06,.3-.3,.65-.45,1.06-.45h.87c.41,0,.76,.15,1.06,.45s.45,.65,.45,1.06v5.93c0,.12,.06,.18,.18,.18h6.96c.12,0,.18-.06,.18-.18V6.18c0-.41,.15-.76,.45-1.06,.3-.3,.65-.45,1.06-.45h.84c.41,0,.76,.15,1.06,.45s.45,.65,.45,1.06V22.55c0,.41-.15,.76-.45,1.06-.3,.3-.65,.45-1.06,.45h-.84c-.41,0-.76-.15-1.06-.45-.3-.3-.45-.65-.45-1.06v-6.68c0-.14-.06-.2-.18-.2h-6.96c-.12,0-.18,.07-.18,.2v6.68c0,.41-.15,.76-.45,1.06-.3,.3-.65,.45-1.06,.45h-.87Z" style="fill: #baa38a;"/>
      <path d="M88.03,24.06c-.44,0-.84-.14-1.2-.41-.36-.27-.6-.62-.72-1.05l-.89-3.32c-.04-.14-.12-.2-.26-.2h-5.91c-.12,0-.2,.07-.23,.2l-.92,3.32c-.12,.43-.35,.78-.7,1.05-.35,.27-.75,.41-1.19,.41h-.92c-.38,0-.67-.15-.89-.46-.14-.19-.21-.39-.21-.61,0-.12,.02-.24,.05-.36l5.29-16.52c.14-.43,.38-.77,.74-1.04,.36-.26,.77-.4,1.23-.4h1.53c.44,0,.85,.13,1.21,.4,.37,.26,.62,.61,.75,1.04l5.32,16.52c.03,.12,.05,.24,.05,.36,0,.22-.08,.43-.23,.61-.22,.31-.51,.46-.87,.46h-1.05Zm-8.26-8.18c-.02,.05-.01,.1,.01,.14s.06,.06,.12,.06h4.22c.05,0,.09-.02,.13-.06s.04-.09,.03-.14l-.54-1.92c-.22-.77-.53-1.91-.92-3.41-.39-1.51-.65-2.47-.77-2.88,0-.03-.02-.05-.05-.05s-.06,.02-.08,.05c-.49,2.08-1.04,4.18-1.64,6.29l-.51,1.92Z" style="fill: #baa38a;"/>
      <path d="M107.51,22.75c.07,.14,.1,.28,.1,.42s-.04,.29-.13,.45c-.15,.29-.4,.43-.74,.43h-1.3c-.46,0-.89-.12-1.29-.36-.4-.24-.71-.56-.93-.97l-3.17-5.83c-.07-.12-.16-.18-.28-.18h-2.33c-.12,0-.18,.07-.18,.2v5.63c0,.41-.15,.76-.45,1.06-.3,.3-.65,.45-1.06,.45h-.87c-.41,0-.76-.15-1.06-.45-.3-.3-.45-.65-.45-1.06V6.18c0-.41,.15-.76,.45-1.06,.3-.3,.65-.45,1.06-.45h5.24c4.86,0,7.29,1.96,7.29,5.88,0,1.36-.31,2.51-.92,3.43-.61,.92-1.47,1.61-2.58,2.07-.12,.05-.15,.13-.1,.23l3.71,6.47Zm-10.08-15.01c-.12,0-.18,.07-.18,.2v5.52c0,.12,.06,.18,.18,.18h2.33c1.24,0,2.2-.26,2.86-.78s1-1.29,1-2.31-.32-1.75-.96-2.17c-.64-.43-1.61-.64-2.9-.64h-2.33Z" style="fill: #baa38a;"/>
      <path d="M113.25,24.06c-.41,0-.76-.15-1.06-.45-.3-.3-.45-.65-.45-1.06V6.18c0-.41,.15-.76,.45-1.06,.3-.3,.65-.45,1.06-.45h8.88c.43,0,.78,.15,1.07,.45,.29,.3,.43,.65,.43,1.06v.21c0,.43-.15,.78-.43,1.07-.29,.29-.65,.44-1.07,.44h-6.32c-.12,0-.18,.07-.18,.2v4.09c0,.12,.06,.18,.18,.18h5.12c.41,0,.76,.15,1.06,.45,.3,.3,.45,.65,.45,1.06v.23c0,.43-.15,.78-.45,1.07-.3,.29-.65,.44-1.06,.44h-5.12c-.12,0-.18,.07-.18,.2v4.81c0,.12,.06,.18,.18,.18h6.6c.43,0,.78,.15,1.07,.45,.29,.3,.43,.65,.43,1.06v.23c0,.41-.14,.76-.43,1.06-.29,.3-.65,.45-1.07,.45h-9.16Z" style="fill: #baa38a;"/>
    </g>
    <g>
      <path d="M3.81,1.12L19.93,33.83c.24,.46-.47,.86-.74,.4,0,0-18.89-31.2-18.89-31.2C-1.05,.65,2.51-1.32,3.81,1.12h0Z" style="fill: #d7bdae;"/>
      <path d="M161.66,3.04l-18.89,31.2c-.26,.44-.98,.07-.74-.4,0,0,16.12-32.71,16.12-32.71,1.29-2.42,4.86-.49,3.51,1.92h0Z" style="fill: #d7bdae;"/>
    </g>
  </g>
</svg>