<?xml version="1.0" encoding="UTF-8"?>
<svg id="b" data-name="圖層 2" xmlns="http://www.w3.org/2000/svg" width="45.15" height="45.15" viewBox="0 0 45.15 45.15">
  <g id="c" data-name="圖層 2">
    <g>
      <g>
        <path d="M20.02,33.99v-13.2h-2.15v-2.12h2.15v-.73c0-2.15,.47-4.12,1.77-5.35,1.04-1.01,2.44-1.42,3.74-1.42,.98,0,1.84,.22,2.37,.44l-.38,2.15c-.41-.19-.98-.35-1.77-.35-2.38,0-2.98,2.09-2.98,4.43v.82h3.7v2.12h-3.7v13.2h-2.76Z" style="fill: #8c786b;"/>
        <path d="M23.45,34.66h-4.11v-13.2h-2.15v-3.48l2.15-.05c0-2.62,.67-4.59,1.98-5.84,1.07-1.04,2.56-1.61,4.2-1.61,1.3,0,2.27,.35,2.63,.49l.5,.21-.62,3.55-.79-.36c-.42-.19-.92-.29-1.49-.29-1.07,0-2.3,.43-2.3,3.75v.15h3.7v3.48h-3.7v13.2Zm-2.76-1.35h1.4v-13.2h3.7v-.77h-3.7v-1.5c0-4.22,1.99-5.11,3.65-5.11,.44,0,.86,.05,1.24,.13l.14-.81c-.39-.11-.95-.22-1.61-.22-.75,0-2.16,.16-3.26,1.23-1.04,.99-1.57,2.63-1.57,4.87v1.4h-2.15v.77h2.15v13.2Z" style="fill: #8c786b;"/>
      </g>
      <circle cx="22.58" cy="22.58" r="21.58" style="fill: none; stroke: #8c786b; stroke-miterlimit: 10; stroke-width: 2px;"/>
    </g>
  </g>
</svg>