<?xml version="1.0" encoding="UTF-8"?>
<svg id="b" data-name="圖層 2" xmlns="http://www.w3.org/2000/svg" width="137.19" height="166.94" viewBox="0 0 137.19 166.94">
  <g id="c" data-name="設計">
    <g>
      <g>
        <path d="M98.85,156.09c-1.83-.02-3.66-.05-5.49-.07l.02,.02v-5.48h-5.62v5.48l.02-.02c-1.8,.02-3.6,.03-5.4,.05l.02,.02c-.02-2.03-.06-4.07-.06-6.1,0-5.11,0-10.21,0-15.32,0-.25,.04-.5,.07-.75l-.02,.02h5.39v-16.34h5.53v-5.49h5.45v-5.45h-10.91v5.47h-5.48l.02,.02c-.02-1.91-.05-3.82-.06-5.72,0-3.4,0-6.79,0-10.19,0-.17,0-.34,0-.56h5.45v5.37h10.98v-10.98c1.87,0,3.67,0,5.47,0l-.02-.03v5.62h5.62l-.02-.02c0,5.37-.01,10.73-.01,16.1,0,.14,.06,.29,.09,.43-1.85,0-3.69,0-5.57,0v5.35h5.47c0-.57,0-1.1,0-1.62,.02-1.25,.06-2.49,.09-3.74,1.8-.01,3.59-.02,5.39-.04,0,0-.02-.02-.02-.02,0,5.15,.01,10.31,.02,15.46,0,.3,0,.6,0,.94h5.35c.05,.23,.14,.47,.14,.71,.01,1.58,0,3.16,0,4.82h-5.44v5.51h5.44v5.46h5.49v-5.39h5.48v10.91h5.46v5.45h-10.9v-5.4h-11.02v10.89l.02-.02c-2.21,.02-4.42,.04-6.62,.06-1.43,0-2.86,0-4.36,0v5.44h-5.47c0-3.63,0-7.24,0-10.86,.27-.02,.55-.05,.82-.05,3.09,0,6.18,0,9.27,0h.83v-5.52h-5.5v-5.43h-5.46c0,1.04,0,2.05,0,3.05,.01,2.66,.03,5.32,.05,7.99Zm10.9-16.58v-16.39h-16.37v16.39h16.37Z" style="fill: #bda88f;"/>
        <path d="M76.95,79.21c-.04,.8-.09,1.59-.11,2.39-.02,.98,0,1.95,0,2.89-.12,.06-.16,.1-.21,.1-3.57,0-7.14-.02-10.71-.03,0-1.79,0-3.59,0-5.38h-11v10.86h5.46v-5.43c.41,0,.73,0,1.06,0,1.51-.02,3.01-.04,4.52-.07-.03,.3-.08,.59-.08,.89,0,4.9,0,9.8,0,14.71v.91h-11.02l.02,.03v-5.46h-5.46l.03,.03c-.02-1.99-.04-3.97-.04-5.96,0-5.11,0-10.21,0-15.32,0-.22,.02-.44,.04-.72h5.37v-21.96h-5.4v-5.48h-5.46v-5.49h10.89v5.46h5.51v27.4h5.51v-16.51c1.86,0,3.63,0,5.41,0,0,0-.01-.01-.01-.01,.03,.32,.08,.65,.08,.97,0,6.72,0,13.44,0,20.15v1.05h5.64s-.02-.02-.02-.02Z" style="fill: #bda88f;"/>
        <path d="M38.34,68.11H0V29.77H38.34v38.34ZM5.48,62.62h27.4v-27.36H5.48v27.36Z" style="fill: #bda88f;"/>
        <path d="M98.83,68.09V29.74h38.34v38.34h-38.34Zm5.49-32.86v27.4h27.36v-27.4h-27.36Z" style="fill: #bda88f;"/>
        <path d="M38.34,166.94H0v-38.37H38.34v38.37Zm-32.86-5.5h27.39v-27.35H5.48v27.35Z" style="fill: #bda88f;"/>
        <path d="M10.85,89.97c.03-1.81,.07-3.61,.08-5.42,.01-3.35,0-6.69,0-10.04,0-.25,0-.5,0-.82h5.5v5.43h5.5v10.99h5.44v5.5h-5.4v10.94h21.91c0,.45,0,.81,0,1.18-.04,1.48-.08,2.95-.11,4.43,0,0,.02-.01,.02-.01-.15-.02-.3-.05-.44-.05-5.13,0-10.26,0-15.38,0-.15,0-.3,.02-.59,.04v5.41l.02-.02h-10.92v-27.41c-1.56,0-3.03,0-4.5,0-.37,0-.73-.09-1.1-.13h0Z" style="fill: #bda88f;"/>
        <path d="M76.97,79.23c-.04-.22-.12-.44-.12-.65,0-5.16,0-10.32,0-15.48,0-.1,.02-.2,.04-.37h5.44v10.84h5.45v-16.35h5.5v32.84h-10.91v-10.85c-1.86,0-3.63,0-5.4,0,0,0,.02,.02,.02,.02Z" style="fill: #bda88f;"/>
        <path d="M54.87,156.04v-11h-5.41c-.03-.24-.07-.4-.07-.57,0-3.29,0-6.59,0-9.88,0-.22,.05-.45,.08-.67,0,0-.02,.02-.02,.02,1.3,.03,2.61,.06,3.91,.08,.47,0,.94,0,1.48,0v5.49h5.49v10.98h5.5v5.48h5.45v10.96h-5.39v-5.49h-5.62l.03,.03v-5.46h-5.46l.02,.02Z" style="fill: #bda88f;"/>
        <path d="M54.81,123.16h-5.36c-.02,.13-.05,.3-.05,.47,0,3.29,0,6.58,0,9.87,0,.15,.04,.29,.06,.44,0,0,.02-.02,.02-.02-1.83,0-3.66,0-5.6,0v-.83c0-6.69,0-13.39,0-20.08,0-.29-.06-.59-.09-.88,0,0-.02,.01-.02,.02,2.1-.02,4.2-.06,6.3-.07,3.11-.01,6.21,0,9.32,0,.27,0,.54-.04,.82-.06h0c.05,.1,.14,.21,.14,.32,0,1.7,0,3.4,0,5.18h-5.55v5.66l.02-.02Z" style="fill: #bda88f;"/>
        <path d="M65.81,123.05h-5.41v-5.45h10.89v27.36h-5.41v-5.39h-5.46v-5.53h5.4v-10.98Z" style="fill: #bda88f;"/>
        <path d="M104.16,84.66c2.13-.02,4.27-.04,6.4-.05,1.53,0,3.06,0,4.67,0v-5.41h5.52v5.44h5.56l-.02-.02v5.48h-5.52v5.52h-10.97l.02,.02v-5.54c-.61,0-1.09,0-1.56,0-1.35-.02-2.7-.05-4.06-.08l.02,.03c-.02-1.8-.04-3.6-.06-5.4l-.02,.02Z" style="fill: #bda88f;"/>
        <path d="M82.4,46.32c-.02,1.83-.06,3.65-.07,5.48-.01,1.75,0,3.5,0,5.3-.23,.02-.4,.05-.57,.05-3.29,0-6.57,0-9.86,0-.22,0-.44-.06-.66-.09,0,0,.01,.01,.01,.01,.02-1.48,.06-2.95,.07-4.43,.01-2.11,0-4.21,0-6.43h-5.4c0-1.94,0-3.77,0-5.59,0,0-.02,.02-.02,.02,3.31,.02,6.63,.03,9.94,.05,.3,0,.59,0,.97,0v5.51c1.27,0,2.47-.02,3.66,0,.64,.01,1.28,.09,1.92,.14h0Z" style="fill: #bda88f;"/>
        <path d="M126.34,106.72v-5.64h5.38v-5.43h5.46v16.38h-5.42v-5.44c-.64,0-1.21-.01-1.77,0-1.22,.03-2.44,.08-3.66,.12,0,0,.01,.01,.01,.01Z" style="fill: #bda88f;"/>
        <path d="M126.32,84.64c-.01-1.82-.03-3.64-.04-5.46l-.02,.02c1.51-.02,3.01-.04,4.52-.07,.29,0,.59,0,.95,0v-5.46h5.45v16.37h-5.41v-5.43c-1.87,0-3.67,0-5.47,0,0,0,.02,.03,.02,.03Z" style="fill: #bda88f;"/>
        <path d="M60.22,35.29c-1.83-.03-3.66-.07-5.5-.07-3.57-.01-7.14,0-10.78,0v-5.46h16.41c0,1.27,.01,2.52,0,3.76,0,.59-.09,1.19-.13,1.78h0Z" style="fill: #bda88f;"/>
        <path d="M5.55,89.96c-.34,.05-.68,.13-1.03,.14-1.48,.02-2.96,0-4.51,0v-16.43H5.46v.91c0,4.86,0,9.71,0,14.57,0,.27,.05,.54,.08,.81,0,0,0,0,0,0Z" style="fill: #bda88f;"/>
        <path d="M43.76,95.69c1.89-.02,3.78-.03,5.68-.05l-.03-.03v5.46h5.46l-.02-.03c0,1.81,0,3.61,0,5.48h-10.97c0-.31,0-.58,0-.85,0-3.06,0-6.13,0-9.19,0-.27-.06-.54-.1-.8,0,0-.01,.01-.01,.01Z" style="fill: #bda88f;"/>
        <path d="M10.85,89.96c.02,.1,.07,.19,.07,.29,0,3.57,0,7.14,0,10.77H.01v-5.38H5.55c0-1.94,0-3.81,0-5.68,0,0,0,0,0,0,.23,.05,.47,.13,.7,.13,1.3,.01,2.6,.01,3.9,0,.24,0,.47-.08,.71-.13,0,0,0,0,0,0Z" style="fill: #bda88f;"/>
        <path d="M27.36,117.52h10.98v5.5h-10.96c0-1.86,0-3.69,0-5.51,0,0-.02,.02-.02,.02Z" style="fill: #bda88f;"/>
        <path d="M49.34,68.12h-5.4v-10.93h5.4v10.93Z" style="fill: #bda88f;"/>
        <path d="M93.36,156.01c-.01,3.29-.03,6.57-.04,9.86,0,.32,0,.65,0,1.04h-5.54c0-3.64,0-7.27,0-10.9,0,0-.02,.02-.02,.02h5.62l-.02-.02Z" style="fill: #bda88f;"/>
        <path d="M131.65,123.18c.7-.04,1.39-.1,2.09-.11,1.13-.02,2.25,0,3.44,0v10.91h-5.44v-.79c0-3.06,0-6.13,0-9.19,0-.27-.05-.54-.07-.81,0,0,0,0,0,0Z" style="fill: #bda88f;"/>
        <path d="M33.03,79.23c-.04-.77-.1-1.54-.11-2.32-.02-1.07,0-2.14,0-3.25h10.9v5.44c-.26,.01-.52,.03-.79,.03-3.07,0-6.13,0-9.2,0-.27,0-.54,.05-.81,.08,0,0,0,0,0,0Z" style="fill: #bda88f;"/>
        <path d="M115.26,112.1v-5.45c.26-.03,.45-.06,.64-.06,3.24,0,6.48,0,9.72,0,.24,0,.48,.08,.72,.13,0,0-.01-.01-.01-.01-.02,1.43-.05,2.86-.07,4.28,0,.32,0,.65,0,1.08-3.71,0-7.36,0-11.02,0,0,0,.02,.02,.02,.02Z" style="fill: #bda88f;"/>
        <path d="M0,112.11H10.88v5.39H0v-5.39Z" style="fill: #bda88f;"/>
        <path d="M82.38,156.06c-.02,3.32-.03,6.63-.05,9.95,0,.3,0,.59,0,.93h-5.44v-10.86c1.86,0,3.68,0,5.51,0,0,0-.02-.02-.02-.02Z" style="fill: #bda88f;"/>
        <path d="M82.4,133.91c-.8,.04-1.59,.09-2.39,.11-1.02,.02-2.05,0-3.12,0v-10.9h5.44v.77c0,3.07,0,6.14,0,9.21,0,.27,.03,.55,.05,.82,0,0,.02-.02,.02-.02Z" style="fill: #bda88f;"/>
        <path d="M104.23,79.17c.01-1.6,.06-3.21,.03-4.81-.01-.62,.2-.76,.78-.75,1.55,.03,3.1,.01,4.7,.01v5.53c-1.84,0-3.68,0-5.53,0,0,0,.02,.02,.02,.02Z" style="fill: #bda88f;"/>
        <path d="M126.27,79.18h-5.47v-5.49h5.45c0,1.86,0,3.69,0,5.52,0,0,.02-.02,.02-.02Z" style="fill: #bda88f;"/>
        <path d="M49.47,155.98h-5.54v-5.42h5.52c0,1.84,0,3.64,0,5.44,0,0,.02-.02,.02-.02Z" style="fill: #bda88f;"/>
        <path d="M49.43,161.47v5.46h-5.49v-5.44h5.51l-.02-.02Z" style="fill: #bda88f;"/>
        <path d="M71.36,101.12h5.43v5.41h-5.43v-5.41Z" style="fill: #bda88f;"/>
        <path d="M131.78,161.52h5.41v5.41h-5.41v-5.41Z" style="fill: #bda88f;"/>
        <path d="M76.91,29.74h5.38v5.41h-5.38v-5.41Z" style="fill: #bda88f;"/>
        <path d="M60.21,35.29h5.69c0,1.76,0,3.55,0,5.34,0,0,.02-.02,.03-.02-1.82,0-3.65,0-5.58,0,0-1.48,0-2.97,0-4.47,0-.29-.08-.57-.13-.86,0,0,0,0,0,0Z" style="fill: #bda88f;"/>
        <path d="M82.41,46.33v-5.6h5.35v5.46c-1.3,0-2.6-.01-3.89,0-.49,0-.97,.08-1.46,.13,0,0,0,0,0,0Z" style="fill: #bda88f;"/>
        <path d="M33.03,84.54h-5.58v-5.31c1.89,0,3.74,0,5.59,0,0,0,0,0,0,0-.03,.81-.1,1.62-.1,2.44,0,.96,.06,1.93,.09,2.89l.02-.02Z" style="fill: #bda88f;"/>
        <path d="M60.2,112.02c.05-.26,.14-.51,.15-.77,.01-1.53,0-3.05,0-4.62h5.46v5.38c-1.88,0-3.75,0-5.62,0,0,0,0,0,0,0Z" style="fill: #bda88f;"/>
        <path d="M120.61,128.48c.05-.26,.13-.52,.14-.78,.01-1.51,0-3.01,0-4.64,.73,0,1.4-.01,2.07,0,1.17,.03,2.35,.08,3.52,.11h-.01c-.02,1.42-.05,2.85-.07,4.27,0,.32,0,.65,0,1.02-1.91,0-3.78,0-5.65,0,0,0,0,0,0,0Z" style="fill: #bda88f;"/>
        <path d="M126.34,123.18v-5.59h5.3c0,1.89,0,3.74,0,5.59,0,0,0,0,0,0-.71-.04-1.42-.11-2.14-.1-1.06,0-2.13,.06-3.19,.1,0,0,.01,.01,.01,.01Z" style="fill: #bda88f;"/>
        <path d="M38.45,95.68c0-1.91,0-3.81,0-5.72,0,0-.02,.02-.02,.02,.59,.04,1.18,.11,1.78,.12,1.18,.02,2.36,0,3.66,0,0,.68,.01,1.3,0,1.91-.03,1.23-.07,2.45-.11,3.68,0,0,.01-.01,.01-.01-1.78,0-3.56-.01-5.35-.02l.02,.02Z" style="fill: #bda88f;"/>
        <path d="M60.27,161.44v5.5h-5.4c0-1.85,0-3.67,0-5.49l-.02,.02c1.82,0,3.64,0,5.46,0l-.03-.03Z" style="fill: #bda88f;"/>
        <path d="M115.27,161.44h5.42v5.5h-5.4c0-1.86,0-3.69,0-5.52,0,0-.02,.02-.02,.02Z" style="fill: #bda88f;"/>
        <path d="M104.18,84.65h-5.33v-5.47c1.79,0,3.58,0,5.38,0,0,0-.02-.02-.02-.02-.02,1.84-.03,3.67-.05,5.51,0,0,.02-.02,.02-.02Z" style="fill: #bda88f;"/>
        <path d="M54.79,123.18c.8-.04,1.59-.09,2.39-.11,1.02-.02,2.05,0,3.12,0v5.44h-5.49c0-1.79,0-3.57,0-5.34,0,0-.02,.02-.02,.02Z" style="fill: #bda88f;"/>
        <path d="M38.43,95.66v5.38h-5.46v-5.36c1.84,0,3.66,0,5.48,0,0,0-.02-.02-.02-.02Z" style="fill: #bda88f;"/>
        <path d="M82.37,112.11v5.38h-5.49v-5.36c1.86,0,3.69,0,5.51,0,0,0-.02-.02-.02-.02Z" style="fill: #bda88f;"/>
        <path d="M33.01,84.55h5.42c0,1.89,0,3.66,0,5.43,0,0,.02-.02,.02-.02-.29,.05-.57,.13-.86,.13-1.52,.01-3.04,0-4.68,0,0-.93-.01-1.79,0-2.66,.02-.97,.07-1.94,.11-2.9,0,0-.01,.02-.01,.02Z" style="fill: #bda88f;"/>
        <path d="M49.45,161.49c0-1.84,0-3.67,.02-5.51,0,0-.02,.02-.02,.02,1.81,.01,3.61,.02,5.42,.04l-.02-.02c0,1.82,0,3.64,0,5.45l.02-.02c-1.81,0-3.62,.01-5.43,.02,0,0,.02,.02,.02,.02Z" style="fill: #bda88f;"/>
        <path d="M98.82,133.97v-5.38h5.42v5.38h-5.42Z" style="fill: #bda88f;"/>
        <path d="M10.97,57.1v-16.36H27.34v16.36H10.97Z" style="fill: #bda88f;"/>
        <path d="M126.22,57.11h-16.38v-16.39h16.38v16.39Z" style="fill: #bda88f;"/>
        <path d="M11,139.57H27.35v16.39H11v-16.39Z" style="fill: #bda88f;"/>
      </g>
      <g>
        <path d="M43.02,12c-.25,0-.47-.09-.65-.27-.18-.18-.27-.4-.27-.65V1.08c0-.25,.09-.47,.27-.65s.4-.27,.65-.27h.53c.25,0,.47,.09,.65,.27,.18,.18,.27,.4,.27,.65V9.91c0,.07,.04,.11,.11,.11h3.77c.25,0,.47,.09,.65,.27,.18,.18,.27,.4,.27,.65v.14c0,.25-.09,.47-.27,.65s-.4,.27-.65,.27h-5.33Z" style="fill: #bda88f;"/>
        <path d="M52.24,12c-.25,0-.47-.09-.65-.27-.18-.18-.27-.4-.27-.65V1.08c0-.25,.09-.47,.27-.65s.4-.27,.65-.27h.53c.25,0,.47,.09,.65,.27,.18,.18,.27,.4,.27,.65V11.08c0,.25-.09,.47-.27,.65s-.4,.27-.65,.27h-.53Z" style="fill: #bda88f;"/>
        <path d="M57.5,12c-.25,0-.47-.09-.65-.27-.18-.18-.27-.4-.27-.65V1.08c0-.25,.09-.47,.27-.65s.4-.27,.65-.27h.58c.28,0,.54,.07,.79,.22,.24,.15,.43,.34,.57,.59l3,5.5,1.17,2.52s.03,.05,.05,.05,.04-.02,.04-.05c-.21-1.92-.31-3.29-.31-4.11V1.08c0-.25,.09-.47,.27-.65s.4-.27,.65-.27h.41c.25,0,.47,.09,.65,.27,.18,.18,.27,.4,.27,.65V11.08c0,.25-.09,.47-.27,.65s-.4,.27-.65,.27h-.56c-.28,0-.54-.07-.79-.22-.25-.15-.44-.34-.57-.59l-2.98-5.53-1.19-2.5s-.03-.03-.05-.03-.04,.01-.04,.03c.02,.16,.05,.47,.09,.95,.04,.48,.07,.85,.09,1.1,.02,.26,.04,.58,.07,.98,.03,.4,.04,.75,.04,1.06v3.83c0,.25-.09,.47-.27,.65s-.4,.27-.65,.27h-.41Z" style="fill: #bda88f;"/>
        <path d="M69.47,12c-.25,0-.47-.09-.65-.27-.18-.18-.27-.4-.27-.65V1.08c0-.25,.09-.47,.27-.65s.4-.27,.65-.27h5.42c.26,0,.48,.09,.66,.27,.18,.18,.27,.4,.27,.65v.12c0,.26-.09,.48-.27,.66s-.4,.27-.66,.27h-3.86c-.07,0-.11,.04-.11,.12v2.5c0,.07,.04,.11,.11,.11h3.12c.25,0,.47,.09,.65,.27,.18,.18,.27,.4,.27,.65v.14c0,.26-.09,.48-.27,.66-.18,.18-.4,.27-.65,.27h-3.12c-.07,0-.11,.04-.11,.12v2.94c0,.07,.04,.11,.11,.11h4.03c.26,0,.48,.09,.66,.27,.18,.18,.27,.4,.27,.65v.14c0,.25-.09,.47-.27,.65-.18,.18-.4,.27-.66,.27h-5.59Z" style="fill: #bda88f;"/>
        <path d="M88.19,15.06c-.92,0-1.78-.14-2.58-.42-.8-.28-1.52-.7-2.14-1.24s-1.12-1.26-1.48-2.12c-.37-.87-.55-1.86-.55-2.96,0-1.22,.22-2.35,.65-3.4,.43-1.05,1.01-1.93,1.74-2.64,.73-.71,1.58-1.27,2.55-1.67,.97-.4,2-.6,3.07-.6,1.92,0,3.45,.58,4.59,1.75,1.15,1.17,1.72,2.69,1.72,4.58,0,.79-.12,1.51-.37,2.16-.25,.65-.56,1.17-.95,1.56-.39,.4-.82,.7-1.28,.91-.46,.21-.93,.32-1.4,.32-.52,0-.97-.12-1.34-.36-.37-.24-.6-.58-.7-1.02,0,0,0-.02-.02-.02-.01,0-.02,0-.03,.02-.26,.35-.59,.64-1,.87-.41,.22-.8,.34-1.19,.34-.69,0-1.25-.24-1.68-.73-.43-.48-.65-1.14-.65-1.96,0-.71,.15-1.4,.46-2.07,.31-.67,.74-1.22,1.3-1.66,.56-.43,1.18-.65,1.84-.65s1.1,.29,1.39,.88c0,.01,0,.02,.02,.02,0,0,.02,0,.03-.02l.02-.06c.07-.2,.2-.36,.37-.48s.36-.19,.57-.19h.02c.2,0,.35,.07,.47,.22,.09,.12,.14,.23,.14,.36,0,.04,0,.09-.02,.14l-.64,3.19c-.07,.28-.11,.53-.11,.73,0,.65,.32,.97,.97,.97,.58,0,1.1-.31,1.56-.95,.46-.63,.69-1.45,.69-2.45,0-.69-.1-1.33-.3-1.91-.2-.59-.49-1.11-.88-1.57-.39-.46-.91-.82-1.56-1.08-.65-.26-1.4-.39-2.24-.39-.78,0-1.54,.16-2.29,.49-.75,.33-1.41,.78-1.99,1.35-.58,.57-1.05,1.29-1.41,2.16-.35,.87-.53,1.8-.53,2.8,0,.87,.14,1.64,.42,2.34,.28,.69,.67,1.26,1.16,1.69,.49,.43,1.05,.76,1.7,.99,.64,.23,1.33,.34,2.07,.34s1.44-.15,2.16-.44c.09-.03,.19-.05,.28-.05,.08,0,.17,.02,.25,.05,.18,.06,.3,.18,.38,.36,.04,.09,.06,.19,.06,.3,0,.08-.02,.17-.05,.27-.07,.19-.2,.32-.39,.41-.88,.38-1.84,.56-2.89,.56Zm-.19-5.44c.4,0,.81-.27,1.25-.8,.05-.06,.09-.13,.11-.22l.42-2.33c0-.07,0-.14-.05-.2-.23-.33-.53-.5-.89-.5s-.7,.15-1,.45c-.3,.3-.53,.65-.67,1.05-.15,.41-.22,.81-.22,1.22,0,.44,.09,.77,.28,.99,.19,.22,.44,.34,.77,.34Z" style="fill: #bda88f;"/>
      </g>
    </g>
  </g>
</svg>