<?xml version="1.0" encoding="UTF-8"?>
<svg id="b" data-name="圖層 2" xmlns="http://www.w3.org/2000/svg" width="133.89" height="41.79" viewBox="0 0 133.89 41.79">
  <g id="c" data-name="設計">
    <g>
      <rect x="0" y="0" width="133.89" height="41.79" rx="20.89" ry="20.89" style="fill: #024737;"/>
      <circle cx="25.78" cy="20.36" r="14.93" style="fill: #fff;"/>
      <g>
        <path d="M25.46,19.76c0,1.28,0,2.55,0,3.83,0,.5-.1,.93-.68,1.05-.62,.13-1.02-.21-1.03-.92-.02-2.23-.03-4.47,.02-6.7,0-.33,.32-.87,.55-.91,.34-.06,.86,.16,1.08,.44,.99,1.23,1.89,2.53,2.83,3.8,.17,.23,.36,.45,.54,.67,.07-.02,.14-.03,.22-.05,0-.39,0-.78,0-1.17,0-.98,0-1.96,0-2.94,.01-.56,.33-.84,.89-.83,.54,.02,.78,.33,.8,.83,.01,.3,0,.6,0,.9,0,1.91,.03,3.82-.03,5.72-.01,.38-.25,.93-.56,1.1-.48,.28-.89-.11-1.2-.55-.89-1.24-1.8-2.46-2.71-3.69-.17-.23-.36-.45-.54-.68-.07,.03-.14,.05-.21,.08Z" style="fill: #024737;"/>
        <path d="M32.1,20.28c0-1.04,0-2.07,0-3.11,0-.94,.21-1.14,1.17-1.15,1.04,0,2.07,0,3.11,0,.51,0,.85,.19,.89,.73,.05,.58-.27,.87-.81,.9-.65,.04-1.31,.06-1.96,.03-.79-.03-.66,.51-.68,.99-.02,.49,.02,.86,.68,.82,.62-.04,1.25-.01,1.88,0,.54,0,.89,.25,.9,.83,.01,.58-.33,.85-.87,.87-.63,.03-1.26,.05-1.88,0-.7-.05-.72,.35-.72,.87,0,.52-.04,1.01,.73,.96,.62-.04,1.25,0,1.88,0,.56,.01,.87,.28,.85,.86-.02,.54-.34,.77-.86,.77-1.09,0-2.18-.01-3.27,0-.72,.01-1.05-.32-1.04-1.04,.01-1.12,0-2.24,0-3.35Z" style="fill: #024737;"/>
        <path d="M14.28,20.29c0-1.04,0-2.07,0-3.11,0-.59,.12-1.12,.86-1.14,.76-.02,.88,.5,.88,1.1,0,1.58,0,3.16,0,4.74q0,1.15,1.19,1.15c.46,0,.93,0,1.39,0,.55,0,.92,.28,.92,.82,0,.54-.34,.82-.91,.81-1.06-.01-2.12,0-3.19,0-.87,0-1.12-.25-1.13-1.11-.01-1.09,0-2.18,0-3.27Z" style="fill: #024737;"/>
        <path d="M22.22,20.41c0,1.09,0,2.18,0,3.27,0,.56-.18,.97-.82,.98-.63,0-.89-.39-.89-.94-.02-2.23-.02-4.47,0-6.7,0-.59,.27-1,.94-.98,.66,.03,.78,.48,.78,1.02,0,1.12,0,2.23,0,3.35Z" style="fill: #024737;"/>
      </g>
      <g>
        <path d="M55.68,15.19s-.02,.57-.02,.8c-.31,7.43-.57,10.05-1.2,10.86-.37,.5-.71,.68-1.24,.77-.47,.07-1.18,.07-1.93,.04-.02-.47-.21-1.18-.47-1.65,.68,.05,1.29,.07,1.6,.07,.26,0,.42-.07,.61-.31,.44-.52,.73-2.82,.97-8.98h-2.12c-.21,4.35-.84,8.55-2.96,11.25-.3-.4-.85-.89-1.29-1.15,1.95-2.37,2.49-6.16,2.65-10.1h-2.23v-1.58h2.28c.02-1.03,.02-2.07,.02-3.06h1.64c0,.99-.02,2.04-.03,3.06h3.73Zm7.26-1.04v13.48h-1.67v-1.11h-2.91v1.25h-1.6V14.15h6.18Zm-1.67,10.81V15.72h-2.91v9.24h2.91Z" style="fill: #fff;"/>
        <path d="M81.52,19.93c-.78,1.45-1.78,2.77-2.94,3.95,.57,1.62,1.25,2.59,1.97,2.59,.42,0,.63-.85,.71-3.01,.37,.38,.92,.77,1.36,.91-.28,2.96-.82,3.76-2.23,3.76-1.32,0-2.35-1.15-3.12-3.01-1.08,.92-2.23,1.71-3.45,2.35-.26-.4-.7-.94-1.11-1.31,1.43-.66,2.79-1.58,4.02-2.66-.42-1.41-.71-3.08-.92-4.88h-3.85v2.44l2.91-.57,.12,1.44c-.99,.23-2.02,.47-3.03,.68v3.46c0,.96-.23,1.43-.84,1.69-.61,.26-1.58,.31-2.98,.31-.09-.45-.37-1.2-.61-1.64,1.06,.03,2.07,.03,2.37,.02,.31-.02,.42-.1,.42-.38v-3.1c-1.24,.26-2.37,.5-3.36,.71l-.45-1.62c1.03-.17,2.37-.42,3.81-.7v-2.75h-3.52v-1.53h3.52v-2.4c-1.03,.17-2.05,.31-2.99,.44-.09-.37-.3-.99-.5-1.34,2.42-.37,5.19-.92,6.88-1.51l1.13,1.36c-.85,.28-1.85,.52-2.87,.73v2.73h3.69c-.14-1.57-.21-3.2-.23-4.86h1.67c-.02,1.67,.05,3.33,.19,4.86h4.94v1.53h-4.77c.17,1.31,.37,2.47,.63,3.53,.78-.89,1.46-1.85,1.98-2.84l1.45,.61Zm-.91-3.6c-.49-.82-1.62-2.07-2.59-2.94l1.22-.84c.97,.84,2.14,2.02,2.68,2.84l-1.31,.94Z" style="fill: #fff;"/>
        <path d="M91.7,17.11c-.04,1.88-.3,4.16-1.31,6.34,.85,.77,1.62,1.51,2.12,2.11l-1.08,1.36c-.45-.57-1.11-1.27-1.86-1.98-.77,1.13-1.78,2.21-3.12,3.19-.24-.35-.78-.89-1.15-1.15,1.38-.94,2.37-2.02,3.08-3.13-.92-.84-1.88-1.64-2.72-2.33,.33-1.08,.66-2.54,.96-4.06l-1.2,.07-.17-1.55,1.65-.07c.19-1.31,.37-2.61,.47-3.78l1.58,.09c-.12,1.13-.3,2.37-.49,3.62l1.74-.09v-1.2h1.5v1.11l.98-.05-.02,1.45-.97,.07Zm-3.5,.23c-.24,1.31-.52,2.56-.78,3.64,.56,.44,1.15,.92,1.72,1.41,.8-1.81,1.01-3.62,1.06-5.19l-2,.14Zm13.09,3.52h-3.67v5.38c0,.89-.19,1.32-.82,1.57-.61,.24-1.5,.28-2.86,.28-.09-.45-.33-1.11-.56-1.55,.96,.04,1.93,.04,2.19,.02,.28,0,.38-.07,.38-.33v-5.36h-3.85v-1.55h3.85v-1.85c.82-.71,1.67-1.76,2.32-2.72h-5.43v-1.48h6.55l.37-.09,1.11,.78c-.84,1.27-2.02,2.75-3.26,3.83v1.51h3.67v1.55Z" style="fill: #fff;"/>
        <path d="M117.9,18.87c-.64,2.42-1.78,4.27-3.24,5.73,1.48,.92,3.26,1.58,5.38,1.95-.37,.35-.82,1.03-1.04,1.48-2.21-.49-4.07-1.25-5.61-2.37-1.46,1.08-3.13,1.85-4.94,2.4-.21-.44-.61-1.04-.92-1.39,1.67-.42,3.24-1.1,4.58-2.05-1.08-1.04-1.97-2.3-2.68-3.74-.78,2.44-2.02,4.86-4,6.6-.31-.4-.85-.82-1.39-1.11,3.06-2.49,4.27-6.7,4.74-9.96h-4.11v-1.57h4.32c.12-1.27,.14-2.26,.17-2.77h1.67c-.04,.59-.07,1.55-.19,2.77h8.97v1.57h-9.18c-.09,.64-.21,1.36-.35,2.07h6.44l.31-.07,1.08,.47Zm-7.26,1.17c.64,1.38,1.55,2.59,2.7,3.57,1.03-.98,1.86-2.18,2.44-3.57h-5.14Z" style="fill: #fff;"/>
      </g>
    </g>
  </g>
</svg>