<?xml version="1.0" encoding="UTF-8"?>
<svg id="b" data-name="圖層 2" xmlns="http://www.w3.org/2000/svg" width="350.25" height="58.17" viewBox="0 0 350.25 58.17">
  <g id="c" data-name="圖層 1">
    <circle cx="54.45" cy="9.97" r="9.97" style="fill: #024737;"/>
    <path d="M52.79,13.67c-.18,0-.34-.07-.47-.2-.13-.13-.2-.29-.2-.47v-.05c0-.18,.07-.34,.2-.47,.13-.13,.29-.2,.47-.2h1.09c.06,0,.09-.03,.09-.08V6.95c0-.05-.03-.08-.09-.08h-.94c-.14,0-.27-.05-.37-.15-.1-.1-.15-.23-.15-.38s.05-.28,.14-.4,.22-.19,.37-.23c.34-.09,.65-.2,.92-.32,.44-.2,.84-.29,1.2-.29,.17,0,.32,.06,.44,.19,.12,.12,.18,.27,.18,.45v6.48c0,.05,.03,.08,.09,.08h.86c.18,0,.34,.07,.47,.2,.13,.13,.2,.29,.2,.47v.05c0,.18-.07,.34-.2,.47-.13,.13-.29,.2-.47,.2h-3.82Z" style="fill: #ede5db;"/>
    <circle cx="290.33" cy="9.97" r="9.97" style="fill: #ede5db;"/>
    <path d="M290.24,13.83c-.95,0-1.75-.25-2.39-.74-.15-.11-.23-.27-.25-.46v-.07c0-.17,.05-.32,.16-.46,.11-.14,.25-.22,.43-.24h.08c.14,0,.28,.04,.41,.12,.44,.3,.91,.45,1.39,.45,.44,0,.8-.1,1.06-.31,.26-.21,.4-.5,.4-.88,0-.4-.13-.71-.38-.93-.26-.22-.71-.36-1.36-.41-.17-.01-.32-.08-.44-.2s-.18-.26-.18-.43,.06-.31,.18-.44c.12-.12,.26-.19,.43-.21,.99-.11,1.48-.54,1.48-1.28,0-.34-.1-.6-.3-.79-.2-.19-.48-.28-.85-.28-.37,0-.74,.12-1.1,.35-.13,.09-.27,.14-.42,.14-.03,0-.06,0-.08-.01-.19-.01-.34-.09-.45-.23v-.02c-.12-.12-.17-.26-.17-.42v-.07c.02-.18,.11-.32,.26-.43,.64-.43,1.32-.64,2.04-.64,.85,0,1.53,.2,2.03,.6s.75,.96,.75,1.69c0,.45-.12,.84-.36,1.18-.24,.33-.59,.59-1.04,.77-.02,0-.03,.02-.03,.04s.01,.03,.03,.04c.51,.14,.91,.39,1.22,.75,.31,.36,.46,.8,.46,1.34,0,.76-.29,1.37-.87,1.82-.58,.45-1.29,.67-2.14,.67Z" style="fill: #024737;"/>
    <path d="M215.67,28.62h119.53c8.01,0,14.51,6.5,14.51,14.51v14.51H215.67V28.62h0Z" style="fill: #fff; stroke: #ddd8ce; stroke-miterlimit: 10; stroke-width: 1.07px;"/>
    <path d="M99.83,28.62h119.53c8.01,0,14.51,6.5,14.51,14.51h0c0,8.01-6.5,14.51-14.51,14.51H99.83V28.62h0Z" style="fill: #fff; stroke: #ddd8ce; stroke-miterlimit: 10; stroke-width: 1.07px;"/>
    <path d="M14.51,28.62H116.93v14.51c0,8.01-6.5,14.51-14.51,14.51H14.51C6.5,57.63,0,51.13,0,43.12H0C0,35.12,6.5,28.62,14.51,28.62Z" transform="translate(116.93 86.25) rotate(-180)" style="fill: #736357;"/>
    <g>
      <path d="M43.67,39.13c.14,.14,.21,.31,.21,.51s-.07,.37-.21,.51c-.14,.14-.31,.21-.5,.21h-5.25c-.07,0-.1,.03-.11,.09-.04,.63-.08,1.12-.11,1.45,0,.06,.02,.08,.07,.08h4.02c.2,0,.36,.07,.49,.21,.12,.13,.18,.28,.18,.46,0,1.13-.13,2.37-.39,3.72-.15,.8-.35,1.33-.6,1.61-.32,.33-.77,.52-1.34,.57-.2,.02-.48,.03-.84,.03h-.57c-.2,0-.37-.08-.52-.21-.15-.13-.26-.31-.33-.52-.02-.04-.03-.08-.05-.12-.02-.06-.04-.11-.04-.17,0-.08,.02-.16,.07-.23,.07-.12,.18-.18,.32-.18h.02c.42,.03,.87,.04,1.38,.04,.28,0,.48-.05,.6-.16,.31-.27,.54-1.45,.71-3.55,0-.06-.02-.09-.07-.09h-3.27c-.06,0-.09,.03-.11,.09-.16,.72-.39,1.38-.67,1.96-.29,.61-.71,1.21-1.27,1.79-.41,.42-.88,.8-1.4,1.12-.12,.07-.24,.1-.35,.1-.07,0-.13,0-.2-.02-.19-.05-.35-.15-.48-.32-.04-.06-.09-.11-.13-.16-.1-.11-.15-.23-.15-.37v-.08c.02-.17,.11-.3,.26-.38,.23-.14,.44-.28,.62-.43,.37-.29,.69-.57,.95-.86,.26-.29,.48-.62,.67-1,.19-.38,.33-.73,.44-1.04,.11-.32,.2-.7,.27-1.14s.12-.82,.15-1.13c.02-.29,.05-.65,.07-1.06,0-.06-.03-.1-.1-.1h-2.76c-.2,0-.37-.07-.51-.21-.14-.14-.21-.31-.21-.51s.07-.37,.21-.51c.14-.14,.31-.21,.51-.21h3.98c.06,0,.09-.03,.09-.1v-1.21c0-.2,.07-.36,.21-.51,.14-.14,.31-.21,.51-.21h.1c.2,0,.36,.07,.51,.21,.14,.14,.21,.31,.21,.51v1.21c0,.07,.03,.1,.09,.1h4.15c.2,0,.36,.07,.5,.21Z" style="fill: #fff;"/>
      <path d="M57.73,45.04c.12,.12,.18,.27,.18,.43s-.06,.31-.18,.43c-.12,.12-.26,.18-.43,.18h-3.14s-.02,0-.02,.02c0,.01,0,.02,.01,.02,.94,.54,2.08,.96,3.39,1.25,.15,.03,.24,.12,.29,.27,.02,.05,.04,.1,.04,.15,0,.09-.03,.17-.1,.26-.02,.04-.05,.08-.09,.11-.13,.18-.29,.31-.49,.39-.11,.04-.23,.06-.34,.06-.09,0-.18-.01-.26-.04-1.38-.42-2.58-1.04-3.6-1.86-.02,0-.03,0-.05,0-.02,0-.02,.02-.02,.04v1.42c0,.2-.07,.38-.21,.51-.14,.14-.31,.21-.51,.21h-.02c-.2,0-.37-.07-.51-.21-.14-.14-.21-.31-.21-.51v-1.34s-.01-.03-.03-.04c-.02,0-.03,0-.04,.01-.98,.77-2.14,1.37-3.5,1.78-.08,.02-.17,.04-.26,.04-.11,0-.23-.02-.34-.06-.2-.08-.36-.21-.49-.39-.02-.02-.03-.03-.05-.05-.06-.08-.09-.17-.09-.27,0-.04,0-.09,.02-.15,.05-.15,.15-.24,.29-.27,1.33-.31,2.44-.74,3.34-1.29,.02,0,.02-.02,.02-.03,0-.01-.01-.02-.03-.02h-3.11c-.16,0-.31-.06-.43-.18s-.18-.27-.18-.43,.06-.31,.18-.43c.12-.12,.26-.18,.43-.18h4.16c.06,0,.1-.03,.1-.08v-.6c0-.06-.03-.08-.1-.07-.81,.18-1.85,.32-3.12,.43h-.06c-.15,0-.29-.04-.42-.13-.15-.11-.27-.24-.34-.42-.02-.06-.04-.12-.04-.18s.02-.13,.06-.21c.06-.12,.17-.19,.32-.2,1.33-.09,2.39-.22,3.19-.39,.02,0,.02,0,.02-.02,0-.01,0-.02-.02-.02-.03,0-.18-.04-.45-.1-.27-.06-.47-.1-.6-.13-.02,0-.04,0-.05,.01-.07,.08-.16,.12-.26,.12-.03,0-.07,0-.1-.01l-.51-.15c-.15-.04-.26-.14-.31-.29-.02-.05-.02-.1-.02-.15,0-.11,.04-.2,.11-.29,.08-.09,.23-.27,.44-.54,.02,0,.02-.02,.01-.04,0-.02-.02-.03-.04-.03h-1.79c-.16,0-.3-.06-.41-.17-.11-.11-.17-.25-.17-.42s.05-.3,.17-.41c.11-.11,.25-.17,.41-.17h2.69c.06,0,.1-.02,.13-.07,.35-.47,.54-.73,.57-.77,0-.02,0-.03,0-.05,0-.02-.02-.02-.04-.02h-2.39c-.06,0-.09,.02-.09,.07,0,.17-.06,.32-.18,.43-.12,.12-.26,.18-.43,.18h-.07c-.19,0-.35-.07-.48-.2s-.2-.29-.2-.48v-.51c0-.2,.07-.36,.21-.51,.14-.14,.31-.21,.51-.21h3.77c.06,0,.1-.03,.1-.08h0c0-.22,.07-.39,.21-.52,.14-.14,.31-.21,.51-.21h.04c.2,0,.37,.07,.51,.21,.14,.14,.21,.31,.21,.51h0c0,.07,.03,.1,.1,.1h3.81c.2,0,.37,.07,.51,.21,.14,.14,.21,.31,.21,.51v.48c0,.2-.07,.36-.21,.51-.14,.14-.31,.21-.51,.21h-.1c-.17,0-.32-.06-.43-.18-.12-.12-.18-.26-.18-.43,0-.05-.03-.07-.09-.07h-4.86s-.01,0-.01,0c0,0,0,.01,.01,.02l.44,.12c.15,.05,.24,.15,.29,.29,.02,.06,.04,.11,.04,.16,0,.09-.03,.17-.1,.26,0,.02,0,.03,0,.04,0,.01,.02,.02,.04,.02h5.18c.16,0,.3,.06,.41,.17,.11,.11,.17,.25,.17,.41s-.05,.3-.17,.42c-.11,.11-.25,.17-.41,.17h-1.53c-.07,0-.11,.03-.13,.09-.21,.46-.5,.86-.85,1.2-.02,.02-.02,.04-.02,.05,0,.02,.02,.03,.04,.03,.73,.21,1.36,.41,1.89,.59,.16,.06,.26,.16,.31,.32,.02,.05,.02,.09,.02,.13,0,.11-.04,.22-.12,.31-.13,.15-.3,.26-.5,.3-.07,.02-.15,.02-.23,.02-.12,0-.24-.02-.35-.06-.66-.24-1.45-.5-2.37-.77-.06-.02-.11-.01-.17,.01-.36,.15-.77,.28-1.23,.39,0,.02,0,.02,.01,.02h.34c.2,0,.37,.07,.51,.21,.14,.14,.21,.31,.21,.51v.04c0,.06,.03,.08,.1,.08h4.27c.17,0,.32,.06,.43,.18Zm-6.68-3.66c-.06,0-.11,.03-.15,.07l-.23,.29s0,.03,0,.05c0,.02,.02,.03,.04,.04,.71,.13,1.42,.29,2.15,.48,.06,0,.12,0,.17-.02,.33-.22,.59-.5,.81-.83,.02-.02,.02-.03,0-.05-.01-.02-.03-.03-.04-.03h-2.75Z" style="fill: #fff;"/>
      <path d="M71.46,47.2c.16,0,.3,.06,.42,.18,.12,.12,.18,.26,.18,.43s-.06,.31-.18,.43c-.12,.12-.26,.18-.42,.18h-4.1s-.06,.02-.06,.06c0,.11-.04,.21-.13,.3-.08,.09-.19,.13-.3,.13h-.27c-.2,0-.36-.07-.5-.21-.14-.14-.21-.3-.21-.49v-4.71s0-.03-.02-.02c-.07,.05-.14,.07-.22,.06-.08,0-.15-.04-.2-.11-.18-.21-.34-.39-.49-.55-.02-.02-.03-.02-.05-.01-.02,0-.02,.02-.02,.04v3.79c0,.2-.07,.37-.21,.51-.14,.14-.31,.21-.51,.21h-1.44c-.07,0-.1,.03-.1,.1v.28c0,.16-.06,.3-.18,.42-.12,.12-.26,.18-.42,.18s-.3-.06-.42-.18c-.12-.12-.18-.26-.18-.42v-2.46s0-.03-.02-.03c-.01,0-.02,0-.03,.02-.08,.12-.19,.18-.33,.18h-.04c-.15,0-.27-.08-.35-.23-.02-.05-.05-.1-.09-.16-.11-.2-.17-.41-.17-.62,0-.2,.05-.39,.16-.6,.55-1.05,.97-2.54,1.25-4.47,.02-.06,0-.09-.07-.09h-.44c-.19,0-.35-.07-.48-.2-.13-.13-.2-.29-.2-.48s.07-.35,.2-.48c.13-.13,.29-.2,.48-.2h3.42c.11,0,.2,.04,.27,.11s.11,.16,.11,.27c0,.03,.02,.05,.05,.05h2.39c.06,0,.11-.03,.12-.09,.04-.13,.08-.26,.12-.39,.06-.2,.17-.35,.33-.45,.13-.08,.26-.12,.4-.12,.05,0,.1,0,.15,.01,.19,.03,.33,.13,.44,.29,.06,.11,.1,.21,.1,.33,0,.07,0,.13-.02,.18,0,.04-.02,.09-.04,.15,0,.02,0,.04,0,.06,.01,.02,.03,.03,.06,.03h2.08c.2,0,.37,.07,.51,.21,.14,.14,.21,.31,.21,.51v.9c0,.18-.06,.33-.19,.46-.13,.13-.28,.19-.46,.19s-.34-.06-.46-.19c-.13-.13-.19-.28-.19-.46v-.28c0-.07-.03-.1-.1-.1h-1.86c-.06,0-.1,.03-.12,.08-.18,.43-.42,.9-.71,1.4,0,.02,0,.03,0,.05,0,.02,.02,.02,.05,.02h.82c.06,0,.1-.03,.12-.08,.07-.19,.14-.36,.2-.51,.06-.19,.18-.33,.35-.43,.11-.07,.24-.11,.37-.11,.06,0,.11,0,.16,.03,.18,.03,.31,.13,.38,.29,.04,.07,.06,.15,.06,.23s-.02,.16-.06,.24c-.04,.08-.09,.17-.13,.27,0,.02,0,.03,0,.05,0,.02,.02,.02,.05,.02h.89c.17,0,.32,.06,.44,.18,.12,.12,.18,.27,.18,.43s-.06,.31-.18,.43-.27,.18-.44,.18h-1.17c-.07,0-.1,.03-.1,.08v.66c0,.06,.03,.09,.1,.09h.98c.15,0,.27,.05,.38,.16,.11,.11,.16,.23,.16,.38s-.05,.28-.16,.38c-.11,.11-.23,.16-.38,.16h-.98c-.07,0-.1,.03-.1,.1v.71c0,.06,.03,.08,.1,.08h.98c.15,0,.27,.05,.38,.16,.11,.11,.16,.23,.16,.38s-.05,.27-.16,.38c-.11,.11-.23,.16-.38,.16h-.98c-.07,0-.1,.03-.1,.1v.7c0,.07,.03,.1,.1,.1h1.48Zm-7.9-1.09c.06,0,.09-.03,.09-.1v-3.03c0-.06-.03-.08-.09-.08h-.83c-.07,0-.1,.03-.1,.08v3.03c0,.07,.03,.1,.1,.1h.83Zm.7-4.49c.18,0,.33,.06,.45,.19,.12,.13,.18,.28,.18,.46,0,0,0,.02,.02,.03,.02,.01,.03,.01,.05,0,.87-.67,1.57-1.53,2.11-2.59,0-.02,0-.03,0-.05,0-.02-.02-.03-.05-.03h-.68c-.07,0-.1,.03-.1,.1v.31c0,.17-.06,.32-.18,.44-.12,.12-.27,.18-.45,.18s-.32-.06-.45-.18c-.12-.12-.18-.27-.18-.44v-.63c0-.06-.03-.09-.1-.09h-1.57c-.07,0-.1,.03-.11,.09-.1,.7-.23,1.41-.4,2.14-.02,.06,0,.08,.07,.08h1.38Zm4.17,1.64c.06,0,.09-.03,.09-.09v-.66c0-.06-.03-.08-.09-.08h-1.04c-.07,0-.1,.03-.1,.08v.66c0,.06,.03,.09,.1,.09h1.04Zm0,1.98c.06,0,.09-.03,.09-.08v-.71c0-.07-.03-.1-.09-.1h-1.04c-.07,0-.1,.03-.1,.1v.71c0,.06,.03,.08,.1,.08h1.04Zm-1.04,1.07c-.07,0-.1,.03-.1,.1v.7c0,.07,.03,.1,.1,.1h1.04c.06,0,.09-.03,.09-.1v-.7c0-.06-.03-.1-.09-.1h-1.04Z" style="fill: #fff;"/>
      <path d="M78.34,39.29c.16,0,.3,.06,.42,.17,.12,.11,.18,.25,.18,.42s-.06,.3-.18,.42c-.12,.11-.26,.17-.42,.17h-3.36c-.16,0-.3-.06-.42-.17-.11-.11-.17-.25-.17-.42s.06-.3,.17-.42c.11-.11,.25-.17,.42-.17h3.36Zm-.45,5.18c.2,0,.36,.07,.51,.21,.14,.14,.21,.31,.21,.51v2.2s0,.03,.02,.03c.01,0,.02,0,.03-.02,.3-.44,.52-1.07,.66-1.89,.03-.16,.11-.29,.24-.38,.09-.07,.19-.1,.29-.1,.05,0,.1,0,.15,.02,.16,.04,.29,.13,.39,.28,.08,.11,.12,.24,.12,.37,0,.03,0,.06-.01,.1-.05,.36-.11,.69-.2,.99-.08,.31-.18,.58-.31,.84-.09,.18-.23,.29-.43,.33-.07,.02-.12,.02-.17,.02-.14,0-.27-.04-.4-.12l-.33-.2s-.03,0-.04,0c-.01,0-.02,.01-.02,.03,0,.15-.05,.29-.16,.39-.11,.11-.24,.16-.39,.16h-1.86s-.06,.02-.06,.05c0,.12-.04,.23-.13,.31-.08,.09-.19,.13-.3,.13h-.18c-.17,0-.32-.06-.43-.18-.12-.12-.18-.26-.18-.43v-2.93c0-.2,.07-.37,.21-.51,.14-.14,.31-.21,.51-.21h2.25Zm.13-3.44c.16,0,.3,.05,.41,.17,.11,.11,.17,.24,.17,.4s-.05,.29-.17,.4-.25,.16-.41,.16h-2.5c-.15,0-.29-.05-.4-.16s-.17-.24-.17-.4,.05-.29,.17-.4c.11-.11,.24-.17,.4-.17h2.5Zm-2.51,2.82c-.15,0-.27-.05-.38-.16-.11-.11-.17-.24-.17-.39s.05-.29,.17-.4c.11-.11,.24-.17,.38-.17h2.53c.15,0,.29,.05,.4,.17,.11,.11,.17,.24,.17,.4s-.05,.29-.17,.39c-.11,.11-.24,.16-.4,.16h-2.53Zm2.49-6.24c.15,0,.29,.05,.4,.17s.16,.24,.16,.4-.06,.29-.16,.4c-.11,.11-.24,.16-.4,.16h-2.44c-.15,0-.29-.05-.4-.16-.11-.11-.16-.24-.16-.4s.06-.29,.16-.4,.24-.17,.4-.17h2.44Zm-.72,9.47c.06,0,.1-.03,.1-.1v-1.26c0-.06-.03-.08-.1-.08h-1.04c-.07,0-.1,.03-.1,.08v1.26c0,.07,.03,.1,.1,.1h1.04Zm2.61-6.53c-.15-.05-.24-.15-.29-.29-.02-.06-.02-.11-.02-.16,0-.09,.02-.17,.07-.26,.11-.16,.24-.26,.42-.32,.09-.03,.18-.05,.26-.05s.17,.02,.25,.05c.13,.04,.3,.1,.51,.18,.06,.02,.09,0,.11-.06,.06-.2,.11-.41,.15-.61,0-.06-.02-.08-.07-.08h-1.17c-.17,0-.32-.06-.43-.18-.12-.12-.18-.27-.18-.44s.06-.32,.18-.43c.12-.12,.26-.18,.43-.18h4.86c.2,0,.37,.07,.51,.21,.13,.13,.2,.29,.2,.48,0,.94-.07,1.95-.22,3.04-.08,.62-.2,1.02-.37,1.21-.2,.27-.48,.43-.82,.48-.15,.02-.37,.04-.63,.05h-.02c-.19,0-.35-.07-.5-.2-.15-.14-.26-.31-.32-.51-.06-.2-.12-.37-.18-.51-.02-.05-.07-.09-.12-.12-.18-.12-.35-.23-.52-.33-.06-.03-.1-.01-.13,.04-.37,.64-.88,1.18-1.53,1.61-.11,.07-.22,.11-.33,.11-.06,0-.11,0-.17-.03-.17-.05-.32-.15-.44-.3-.09-.1-.13-.21-.13-.34,0-.03,0-.06,.01-.09,.02-.16,.11-.29,.24-.38,.47-.32,.86-.71,1.16-1.17,.03-.05,.02-.08-.04-.11-.25-.11-.49-.2-.71-.29Zm2.4,6.97h.66c.1,0,.17-.04,.21-.12,.04-.08,.07-.25,.09-.51,.02-.15,.09-.26,.22-.33,.06-.04,.13-.06,.21-.06,.06,0,.13,.02,.18,.05,.19,.07,.33,.19,.44,.35,.09,.12,.13,.25,.13,.39,0,.04,0,.08-.01,.12-.09,.53-.23,.89-.43,1.09-.2,.2-.49,.3-.87,.3h-1.03c-.58,0-.96-.12-1.14-.35-.18-.23-.27-.67-.27-1.3v-2.05c0-.2,.07-.36,.2-.49s.29-.2,.48-.2,.35,.07,.48,.2,.2,.3,.2,.49v2.04c0,.17,.01,.28,.04,.32,.03,.04,.1,.06,.21,.06Zm-.83-3.65c-.13-.08-.2-.2-.22-.35,0-.02-.01-.05-.01-.07,0-.12,.05-.23,.15-.33,.13-.12,.28-.2,.46-.23h.11c.14,0,.27,.03,.39,.1,.47,.28,.88,.56,1.22,.84,.14,.11,.21,.27,.21,.46,0,.18-.07,.33-.2,.46-.12,.13-.27,.2-.45,.2s-.34-.06-.48-.18c-.33-.29-.73-.59-1.18-.89Zm2.78-4.83c0-.06-.02-.08-.09-.08h-1.38c-.06,0-.09,.03-.11,.08-.07,.42-.15,.81-.27,1.16-.02,.07,0,.11,.06,.13,.15,.07,.3,.15,.43,.22,.18,.09,.29,.23,.34,.43,0,.06,.01,.11,.01,.17,0,.13-.04,.26-.11,.38l-.17,.27s0,.03,0,.05c0,.02,.02,.03,.05,.03,.15,0,.31,.01,.5,.01,.11,0,.19,0,.24-.04,.1-.05,.17-.15,.22-.29,.11-.31,.2-1.15,.27-2.53Zm-.23,6.62c-.05-.09-.07-.18-.07-.28,0-.06,.01-.12,.04-.18,.06-.16,.16-.28,.32-.34,.1-.04,.2-.06,.29-.06,.08,0,.16,.02,.24,.05,.18,.06,.31,.17,.4,.33,.35,.59,.63,1.21,.83,1.86,.03,.07,.05,.15,.05,.23,0,.11-.03,.22-.09,.33-.1,.18-.24,.31-.43,.39-.07,.03-.15,.05-.22,.05-.1,0-.19-.02-.28-.07-.15-.09-.26-.22-.32-.4-.18-.63-.44-1.27-.77-1.89Z" style="fill: #fff;"/>
    </g>
    <g>
      <path d="M137.07,45.54c.12,.12,.18,.27,.18,.44s-.06,.32-.18,.44c-.12,.12-.26,.18-.43,.18h-1.64s-.01,0-.02,.02c0,.01,0,.02,0,.03,.73,.44,1.33,.82,1.78,1.14,.11,.09,.17,.2,.17,.34,0,.2-.08,.33-.24,.42l-.07,.04c-.15,.07-.31,.11-.48,.11-.05,0-.1,0-.15-.01-.21-.03-.4-.11-.57-.24-.33-.27-.7-.54-1.1-.82-.15-.1-.22-.24-.22-.42,0-.16,.07-.29,.21-.39l.22-.16s.01-.02,0-.03c0-.01-.01-.02-.02-.02h-2.91s-.01,0-.02,.01c0,0,0,.01,0,.01l.52,.18c.15,.06,.25,.16,.28,.32,0,.03,.01,.07,.01,.1,0,.12-.05,.22-.16,.29-.51,.41-1.1,.77-1.77,1.1-.14,.07-.28,.1-.42,.1-.07,0-.13,0-.2-.02-.21-.04-.4-.14-.55-.29-.02-.02-.03-.03-.05-.05-.09-.08-.13-.18-.13-.29,0-.03,0-.07,.01-.1,.03-.15,.12-.26,.27-.3,.81-.3,1.43-.63,1.87-1,.02,0,.02-.02,.01-.03,0-.01-.02-.02-.04-.02h-1.42c-.2,0-.37-.07-.51-.21-.14-.14-.21-.31-.21-.51v-.16s-.01-.03-.03-.04c-.02-.01-.04-.01-.05,0-.86,.39-1.66,.75-2.38,1.07-.09,.04-.18,.06-.28,.06-.08,0-.17-.02-.26-.06-.18-.07-.31-.2-.38-.39l-.05-.13c-.03-.08-.05-.16-.05-.24,0-.11,.02-.21,.07-.31,.08-.18,.22-.3,.4-.37,.22-.09,.48-.19,.78-.31,.06-.02,.09-.06,.09-.12v-3.19c0-.07-.03-.1-.1-.1h-.46c-.2,0-.36-.07-.5-.21-.14-.14-.21-.31-.21-.5s.07-.36,.21-.5c.14-.14,.31-.21,.5-.21h.46c.06,0,.1-.03,.1-.09v-2c0-.19,.07-.35,.2-.48,.13-.13,.29-.2,.48-.2s.35,.07,.48,.2c.13,.13,.2,.29,.2,.48v2c0,.06,.03,.09,.1,.09h.32c.2,0,.36,.07,.5,.21,.14,.14,.21,.3,.21,.5s-.07,.36-.21,.5c-.14,.14-.31,.21-.5,.21h-.32c-.07,0-.1,.03-.1,.1v2.62s.01,.04,.03,.05c.02,.01,.04,.01,.06,0,.17-.07,.31-.13,.42-.18,.08-.03,.16-.05,.23-.05,.1,0,.19,.02,.27,.07,.17,.08,.28,.21,.32,.39l.13,.56c.02,.08,0,.14-.09,.18h6.9c.17,0,.32,.06,.43,.18Zm-4.62-5.68c.06,0,.09-.03,.09-.1v-.38c0-.06-.03-.08-.09-.08h-2.32c-.17,0-.32-.06-.43-.18-.12-.12-.18-.26-.18-.43s.06-.31,.18-.43c.12-.12,.26-.18,.43-.18h2.32c.06,0,.09-.03,.09-.09v-.06c0-.2,.07-.37,.21-.51,.14-.14,.31-.21,.51-.21h.01c.2,0,.36,.07,.51,.21,.14,.14,.21,.31,.21,.51v.06c0,.06,.03,.09,.09,.09h2.38c.16,0,.3,.06,.42,.18,.12,.12,.18,.26,.18,.43s-.06,.31-.18,.43c-.12,.12-.26,.18-.42,.18h-2.38c-.06,0-.09,.03-.09,.08v.38c0,.07,.03,.1,.09,.1h1.39c.2,0,.37,.07,.51,.21,.14,.14,.21,.31,.21,.51v3.54c0,.2-.07,.37-.21,.51-.14,.14-.31,.21-.51,.21h-4.32c-.2,0-.36-.07-.51-.21-.14-.14-.21-.31-.21-.51v-3.54c0-.2,.07-.37,.21-.51,.14-.14,.31-.21,.51-.21h1.31Zm2.23,1.38c.06,0,.09-.03,.09-.08v-.28c0-.06-.03-.09-.09-.09h-2.82c-.06,0-.09,.03-.09,.09v.28c0,.06,.03,.08,.09,.08h2.82Zm0,1.35c.06,0,.09-.03,.09-.1v-.29c0-.06-.03-.1-.09-.1h-2.82c-.06,0-.09,.03-.09,.1v.29c0,.07,.03,.1,.09,.1h2.82Zm0,1.34c.06,0,.09-.03,.09-.1v-.31c0-.06-.03-.08-.09-.08h-2.82c-.06,0-.09,.03-.09,.08v.31c0,.06,.03,.1,.09,.1h2.82Z" style="fill: #604c3f;"/>
      <path d="M144,44.5s-.02,.03-.01,.05c0,.02,.02,.03,.05,.03h5.71c.2,0,.36,.07,.49,.21,.13,.13,.2,.29,.2,.46,0,.7-.07,1.43-.21,2.18-.08,.47-.2,.79-.34,.95-.22,.25-.53,.4-.94,.44-.2,.02-.47,.04-.82,.04h-.09c-.19,0-.35-.06-.49-.19-.14-.13-.24-.29-.3-.48,0-.05-.01-.09-.01-.13,0-.1,.03-.19,.09-.27,.07-.11,.18-.17,.32-.17h.02c.13,0,.25,.01,.35,.01h.2c.2,0,.33-.04,.42-.13,.14-.15,.24-.7,.31-1.65,0-.07-.02-.1-.09-.1h-6.01c-.06,0-.11,.02-.16,.06-.09,.07-.22,.17-.38,.28-.02,0-.02,.02-.02,.04,0,.02,.01,.02,.03,.02,.15,.05,.27,.14,.35,.28,.06,.09,.09,.18,.09,.28,0,.05,0,.1-.02,.15-.15,.56-.33,1.02-.55,1.38-.1,.15-.24,.24-.43,.27-.05,0-.1,.01-.15,.01-.13,0-.26-.03-.38-.1-.14-.08-.22-.2-.24-.35,0-.04-.01-.08-.01-.12,0-.11,.03-.22,.1-.33,.17-.28,.31-.59,.43-.94,0-.02,0-.03,0-.04-.01-.01-.03-.01-.04,0-.1,.06-.2,.13-.32,.18-.11,.06-.23,.08-.35,.08-.07,0-.15-.01-.22-.04-.2-.06-.36-.17-.49-.34-.07-.11-.11-.21-.11-.32,0-.05,0-.1,.01-.16,.05-.16,.15-.28,.32-.35,.99-.43,1.78-.97,2.37-1.62,0,0,.01-.02,0-.04,0-.02-.02-.02-.04-.02h-.38c-.2,0-.37-.07-.51-.21-.14-.14-.21-.31-.21-.51v-2.54c0-.19,.07-.34,.21-.46,.11-.09,.24-.13,.38-.13,.04,0,.08,0,.12,.01h.02c.06,0,.11,0,.17-.01,.52-.14,.98-.28,1.37-.42,.11-.05,.23-.07,.34-.07,.06,0,.13,0,.2,.02,.19,.03,.35,.11,.48,.24,.08,.08,.12,.17,.12,.28,0,.03,0,.07-.01,.1-.03,.15-.12,.24-.26,.29-.49,.16-1.07,.31-1.73,.45-.06,0-.09,.04-.09,.11v.27c0,.07,.03,.1,.1,.1h1.48c.14,0,.25,.05,.35,.14,.09,.09,.14,.21,.14,.34s-.05,.25-.14,.35c-.09,.1-.21,.15-.35,.15h-1.48c-.07,0-.1,.03-.1,.09v.32c0,.07,.03,.1,.1,.1h4.91c.06,0,.1-.03,.1-.1v-.32c0-.06-.03-.09-.1-.09h-1.46c-.14,0-.25-.05-.35-.15-.09-.1-.14-.21-.14-.35s.05-.25,.14-.34c.09-.09,.21-.14,.35-.14h1.46c.06,0,.1-.03,.1-.1v-.32c0-.06-.03-.09-.1-.09h-1.67c-.13,0-.24-.05-.34-.15s-.15-.22-.15-.35,.05-.26,.15-.35,.21-.15,.34-.15h2.39c.2,0,.37,.07,.51,.21,.14,.14,.21,.31,.21,.51v2.54c0,.2-.07,.37-.21,.51-.14,.14-.31,.21-.51,.21h-4.13c-.06,0-.1,.02-.13,.07-.09,.14-.19,.28-.31,.43Zm2.14-6.51c0,.06,.03,.09,.1,.09h3.85c.2,0,.37,.07,.51,.21,.14,.14,.21,.31,.21,.51v1.15c0,.2-.07,.36-.2,.49s-.3,.2-.49,.2-.36-.07-.49-.2-.2-.3-.2-.49v-.5c0-.06-.03-.09-.1-.09h-7.86c-.07,0-.1,.03-.1,.09v.52c0,.19-.07,.35-.2,.48-.13,.13-.29,.2-.48,.2s-.35-.06-.48-.2c-.13-.13-.2-.29-.2-.48v-1.17c0-.2,.07-.36,.21-.51,.14-.14,.31-.21,.51-.21h3.83c.06,0,.1-.03,.1-.09v-.04c0-.2,.07-.37,.21-.51,.14-.14,.31-.21,.51-.21h.04c.2,0,.37,.07,.51,.21,.14,.14,.21,.31,.21,.51v.04Zm-2.77,8.81v-.11c0-.1,.03-.19,.09-.28,.08-.12,.2-.19,.34-.21h.09c.13,0,.25,.04,.35,.11,.14,.08,.23,.2,.27,.35,.09,.38,.15,.74,.2,1.09v.07c0,.14-.04,.26-.13,.37-.11,.13-.26,.21-.43,.23h-.07c-.12,0-.24-.04-.34-.13-.12-.11-.19-.24-.2-.4-.03-.37-.09-.73-.16-1.09Zm1.77-.02c-.02-.06-.04-.11-.04-.17,0-.07,.02-.14,.05-.21,.06-.13,.15-.21,.29-.24,.06,0,.11-.01,.16-.01,.1,0,.19,.02,.28,.06,.14,.07,.24,.17,.31,.31,.12,.27,.22,.53,.29,.78,.02,.06,.02,.11,.02,.16,0,.09-.03,.18-.09,.27-.08,.14-.2,.23-.35,.27-.05,.02-.1,.02-.15,.02-.09,0-.18-.03-.27-.08-.12-.07-.2-.19-.24-.34-.07-.26-.16-.53-.27-.81Zm2.95-.22c.05,.08,.07,.16,.07,.24,0,.05,0,.1-.02,.16-.06,.14-.15,.24-.29,.3-.07,.03-.15,.05-.22,.05-.07,0-.13-.01-.2-.04-.14-.06-.25-.15-.33-.28-.07-.11-.15-.23-.23-.35-.07-.11-.09-.22-.06-.35,.03-.13,.11-.21,.22-.26,.09-.04,.18-.06,.28-.06,.06,0,.11,0,.16,.01,.15,.03,.28,.11,.38,.23,.08,.11,.16,.23,.24,.34Z" style="fill: #604c3f;"/>
      <path d="M163.68,46.08c0,.2-.07,.36-.21,.51-.14,.14-.31,.21-.51,.21h-1.34s-.02,0-.02,.01,0,.02,.01,.02c.96,.34,1.9,.72,2.82,1.12,.12,.06,.18,.15,.18,.29,0,.13-.07,.23-.19,.27l-.38,.15c-.19,.07-.37,.11-.56,.11-.25,0-.5-.07-.74-.2-.59-.29-1.24-.58-1.95-.87-.13-.06-.2-.16-.21-.3-.01-.14,.04-.25,.17-.32l.43-.24s.01-.02,.01-.03c0-.01,0-.02-.02-.02h-3.47s-.01,0-.02,.02c0,.01,0,.02,0,.02l.4,.17c.15,.07,.22,.18,.22,.35,0,.14-.06,.24-.18,.3-.74,.39-1.6,.74-2.59,1.06-.11,.03-.23,.05-.34,.05-.1,0-.2-.01-.29-.04-.21-.06-.4-.16-.56-.32-.02-.03-.05-.06-.07-.08-.07-.07-.11-.16-.11-.26,0-.03,0-.07,.01-.11,.04-.15,.13-.24,.28-.27,1.07-.24,1.95-.53,2.65-.87,0,0,.01,0,.01-.02,0-.01,0-.02-.02-.02h-1.03c-.2,0-.36-.07-.51-.21-.14-.14-.21-.31-.21-.51v-3.64c0-.2,.07-.36,.21-.51,.14-.14,.31-.21,.51-.21h1.81s.03,0,.04-.02c.01-.02,.01-.03,0-.05-.18-.33-.36-.59-.55-.78,0,.03,0,.05-.04,.06-1.07,.31-1.89,.54-2.44,.71-.08,.02-.16,.02-.23,.02-.11,0-.23-.02-.34-.07-.18-.09-.31-.23-.39-.42-.03-.07-.05-.15-.05-.22,0-.09,.02-.18,.07-.27,.09-.16,.22-.26,.4-.29,.53-.11,1.26-.28,2.19-.5,.06-.02,.11-.03,.16-.03,.13,0,.25,.04,.37,.12,.15,.11,.24,.26,.26,.45l.04,.32c0,.07,.04,.09,.1,.07,.9-.15,1.55-.35,1.97-.61s.7-.61,.84-1.04c0-.02,0-.03,0-.05-.01-.02-.03-.03-.06-.03h-.72c-.06,0-.11,.02-.15,.07-.15,.17-.3,.33-.45,.49-.13,.13-.29,.2-.49,.2h-.01c-.19,0-.36-.05-.51-.15-.15-.09-.22-.22-.22-.39,0-.13,.05-.24,.15-.33,.4-.35,.74-.74,1.01-1.17,.11-.17,.24-.3,.42-.39,.13-.07,.26-.11,.4-.11,.05,0,.1,0,.15,.01h.05c.15,.04,.27,.12,.34,.26,.03,.07,.05,.13,.05,.2s-.02,.13-.06,.21c0,.02,0,.03,0,.04,0,.01,.02,.02,.04,.02h3.32c.44,0,.77,.03,1,.09,.13,.03,.22,.11,.27,.23,.05,.12,.05,.24,0,.35-.2,.36-.39,.67-.59,.95-.11,.15-.25,.25-.43,.31-.08,.02-.17,.04-.26,.04s-.18-.02-.27-.05c-.14-.04-.23-.13-.27-.27-.02-.05-.02-.1-.02-.15,0-.09,.02-.17,.07-.24,.03-.04,.06-.08,.09-.12,0-.02,0-.03,0-.05,0-.02-.02-.03-.04-.03h-1.21s-.04,.01-.06,.03c-.01,.02-.01,.04,0,.05,.15,.39,.43,.72,.84,.98,.41,.26,1.05,.47,1.92,.62,.15,.03,.26,.12,.32,.26,.03,.07,.05,.13,.05,.18,0,.08-.02,.16-.07,.24-.11,.19-.26,.33-.45,.43-.12,.06-.25,.1-.38,.1-.07,0-.13,0-.2-.03,0,0-.02,0-.02-.01-.07,0-.1,.02-.1,.07v4.05Zm-6.81-8.02c.16,.06,.27,.17,.32,.34,.02,.07,.04,.13,.04,.18,0,.1-.03,.2-.09,.29-.1,.15-.24,.26-.42,.32-.07,.02-.15,.02-.22,.02-.1,0-.2-.02-.31-.06-.44-.2-.92-.38-1.44-.55-.15-.05-.24-.15-.29-.29-.02-.05-.02-.1-.02-.16,0-.08,.02-.16,.07-.23,.1-.15,.23-.26,.39-.33,.1-.04,.2-.06,.29-.06,.07,0,.15,.01,.22,.04,.5,.15,.99,.31,1.45,.49Zm-.02,4.55c-.06,0-.09,.03-.09,.1v.35c0,.06,.03,.08,.09,.08h5.24c.06,0,.09-.03,.09-.08v-.35c0-.07-.03-.1-.09-.1h-5.24Zm0,1.38c-.06,0-.09,.03-.09,.08v.35c0,.06,.03,.1,.09,.1h5.24c.06,0,.09-.03,.09-.1v-.35c0-.06-.03-.08-.09-.08h-5.24Zm0,1.37c-.06,0-.09,.03-.09,.1v.37c0,.06,.03,.09,.09,.09h5.24c.06,0,.09-.03,.09-.09v-.37c0-.07-.03-.1-.09-.1h-5.24Zm2.04-3.66s-.01,0-.01,.01,0,.01,.01,.01h4s.01,0,.02-.01c0,0,0-.01,0-.01-.79-.3-1.38-.72-1.77-1.25-.04-.05-.08-.05-.11,0-.44,.54-1.15,.95-2.14,1.25Z" style="fill: #604c3f;"/>
      <path d="M172.28,44.39c.13,.15,.2,.34,.2,.56s-.07,.4-.2,.56h-.01c-.1,.13-.22,.2-.35,.2-.02,0-.04,0-.06-.01-.16-.02-.29-.1-.37-.24-.17-.32-.35-.62-.52-.9,0,0-.02-.01-.03-.01-.01,0-.02,0-.02,.02v3.61c0,.19-.07,.35-.2,.48-.13,.13-.3,.2-.48,.2s-.35-.07-.48-.2c-.13-.13-.2-.29-.2-.48v-3.64s0-.01-.02-.01c-.01,0-.02,0-.02,.01-.33,.95-.68,1.74-1.03,2.37-.07,.11-.16,.17-.28,.17h-.05c-.14-.02-.24-.09-.31-.23-.03-.07-.07-.15-.1-.22-.08-.18-.12-.36-.12-.54,0-.23,.07-.46,.22-.7,.46-.73,.85-1.59,1.2-2.56,0-.02,0-.03,0-.05-.01-.02-.03-.03-.05-.03h-.63c-.2,0-.36-.07-.49-.2-.13-.13-.2-.3-.2-.49s.07-.35,.2-.49,.3-.2,.49-.2h1.1c.06,0,.1-.03,.1-.1v-3.31c0-.19,.07-.35,.2-.48s.29-.2,.48-.2,.35,.07,.48,.2,.2,.29,.2,.48v3.31c0,.07,.03,.1,.1,.1h1.06c.19,0,.35,.07,.49,.2,.14,.13,.21,.3,.21,.49s-.07,.35-.21,.49c-.14,.13-.3,.2-.49,.2h-1.11s-.05,.01-.05,.04,.01,.05,.04,.08c.28,.28,.72,.79,1.33,1.53Zm-3.03-4.13v.1c0,.12-.04,.24-.11,.35-.1,.13-.22,.21-.38,.26-.05,.02-.09,.02-.13,.02-.09,0-.18-.03-.27-.1-.12-.08-.19-.2-.21-.35-.07-.56-.2-1.16-.37-1.78,0-.05-.01-.1-.01-.15,0-.09,.02-.18,.06-.26,.07-.13,.18-.22,.32-.26,.06,0,.11-.01,.16-.01,.09,0,.18,.02,.27,.06,.13,.07,.22,.18,.27,.33,.17,.59,.31,1.18,.4,1.78Zm2.38-1.72c.03-.17,.12-.3,.26-.4,.11-.07,.22-.11,.34-.11,.04,0,.09,0,.13,.01,.17,.04,.3,.13,.38,.28,.06,.09,.09,.18,.09,.28,0,.07-.01,.13-.04,.18-.28,.87-.48,1.49-.62,1.86-.05,.13-.13,.22-.26,.28-.08,.04-.16,.06-.24,.06-.05,0-.1,0-.15-.02-.13-.03-.23-.11-.29-.23-.06-.12-.08-.24-.04-.36,.16-.57,.31-1.18,.44-1.83Zm7.59,5.99s.01,.08,.01,.12c0,.15-.04,.29-.13,.42-.11,.15-.26,.25-.45,.28l-.72,.13c-.06,.02-.09,.05-.09,.11v2.59c0,.19-.07,.35-.21,.49-.14,.14-.31,.21-.5,.21s-.36-.07-.49-.21c-.13-.14-.2-.3-.2-.49v-2.33c0-.07-.03-.09-.1-.09l-2.7,.49s-.09,.01-.13,.01c-.14,0-.27-.04-.39-.12-.15-.11-.25-.27-.28-.46,0-.04-.01-.08-.01-.12,0-.14,.04-.27,.13-.4,.11-.16,.26-.25,.45-.29l2.93-.51c.06-.02,.1-.05,.1-.11v-6.34c0-.2,.07-.36,.2-.49s.3-.2,.49-.2,.36,.07,.5,.2c.14,.13,.21,.3,.21,.49v6.08c0,.06,.03,.09,.09,.07l.49-.08s.09-.01,.13-.01c.14,0,.27,.04,.39,.12,.15,.11,.25,.26,.28,.45Zm-5.82-2.15c-.15-.1-.24-.23-.27-.4-.02-.05-.02-.1-.02-.15,0-.11,.04-.22,.11-.33,.1-.15,.23-.25,.4-.29,.06-.02,.11-.02,.17-.02,.11,0,.22,.03,.33,.1,.37,.22,.7,.44,1,.67,.16,.12,.26,.28,.29,.48v.13c0,.15-.04,.3-.12,.43-.1,.15-.24,.24-.42,.27h-.09c-.15,0-.28-.05-.39-.15-.3-.24-.63-.49-1-.73Zm2.25-3.44c.15,.12,.24,.28,.26,.48v.09c0,.16-.05,.31-.15,.45-.1,.15-.23,.22-.4,.23h-.05c-.15,0-.29-.05-.39-.16-.28-.24-.6-.5-.98-.78-.14-.11-.22-.24-.24-.4,0-.03-.01-.07-.01-.11,0-.12,.04-.24,.11-.34,.11-.15,.24-.24,.4-.27,.05,0,.09-.01,.13-.01,.12,0,.24,.04,.34,.11,.37,.24,.7,.48,.98,.72Z" style="fill: #604c3f;"/>
      <path d="M191.35,40.8c.06-.02,.13-.02,.18-.02,.1,0,.2,.02,.29,.06l.28,.11c.15,.06,.26,.15,.33,.29,.05,.09,.07,.18,.07,.28,0,.05,0,.1-.02,.16-.48,1.79-1.26,3.26-2.34,4.41-.04,.05-.03,.09,.02,.12,.75,.45,1.58,.8,2.5,1.05,.15,.04,.26,.14,.31,.29,.02,.06,.02,.11,.02,.16,0,.1-.03,.19-.1,.27-.07,.09-.13,.18-.2,.28-.12,.19-.28,.32-.48,.4-.11,.04-.22,.06-.33,.06-.09,0-.18-.01-.26-.04-1.04-.33-1.97-.77-2.8-1.34-.05-.03-.1-.03-.16,0-.73,.51-1.56,.95-2.48,1.31-.09,.03-.18,.05-.28,.05s-.2-.02-.29-.06c-.2-.07-.35-.2-.46-.38-.02-.04-.05-.08-.07-.12-.07-.09-.1-.19-.1-.29,0-.05,0-.1,.02-.16,.05-.16,.15-.27,.32-.33,.8-.27,1.51-.62,2.15-1.04,.05-.03,.05-.07,.01-.11-.76-.77-1.41-1.75-1.95-2.92,0-.02-.02-.02-.04-.02-.02,0-.02,.01-.02,.03-.37,1.99-1.17,3.62-2.39,4.89-.11,.11-.25,.17-.4,.17h-.07c-.19-.02-.34-.11-.46-.26-.05-.06-.1-.12-.15-.18-.12-.14-.18-.3-.18-.49,0-.2,.06-.37,.2-.51,.38-.41,.71-.85,.99-1.34,.28-.49,.5-.96,.65-1.4,.15-.45,.27-.93,.36-1.45,.09-.52,.15-.97,.17-1.36,.02-.38,.04-.8,.04-1.24v-.75c0-.06-.03-.08-.1-.08h-1.17c-.2,0-.36-.07-.51-.21-.14-.14-.21-.31-.21-.51h0c0-.22,.07-.39,.21-.53,.14-.14,.31-.21,.51-.21h5.77s.04,0,.06-.01c.09-.02,.18-.03,.28-.03,.06,0,.13,0,.18,.01l.35,.05c.15,.03,.28,.11,.38,.24,.06,.1,.1,.2,.1,.32,0,.03,0,.07-.01,.11-.11,.52-.26,1.25-.48,2.17-.02,.06,0,.1,.07,.1h1.61s.04,0,.06-.01Zm-3.04-1.42c.02-.06,0-.08-.07-.08h-2.39c-.06,0-.09,.03-.09,.08v.33c0,.07,0,.13,.02,.18,.6,2.26,1.59,4.02,2.97,5.27,.05,.04,.09,.04,.13,0,.8-.82,1.4-1.79,1.81-2.89,0-.02,0-.04,0-.06-.01-.02-.03-.03-.05-.03h-1.32s-.07,.02-.09,.06c-.03,.14-.11,.25-.23,.33-.09,.07-.19,.1-.29,.1-.03,0-.06,0-.09-.01l-.35-.05c-.2-.03-.35-.13-.45-.29-.07-.11-.1-.22-.1-.34,0-.06,0-.11,.01-.17,.2-.76,.39-1.57,.59-2.43Z" style="fill: #604c3f;"/>
      <path d="M198.23,37.96c.08-.19,.21-.33,.39-.41,.11-.05,.21-.07,.32-.07,.08,0,.16,.01,.24,.04l.1,.04c.19,.06,.32,.17,.4,.35,.04,.09,.06,.18,.06,.27s-.02,.17-.06,.26c-.27,.63-.55,1.23-.85,1.78-.03,.06-.05,.11-.05,.17v7.78c0,.2-.07,.36-.21,.51-.14,.14-.31,.21-.51,.21h-.09c-.2,0-.36-.07-.51-.21-.14-.14-.21-.31-.21-.51v-5.44s0-.03-.02-.04c-.02,0-.03,0-.04,.01-.11,.13-.22,.26-.33,.39-.1,.11-.21,.17-.34,.17-.03,0-.06,0-.09-.01-.17-.02-.3-.11-.38-.27-.06-.1-.11-.2-.17-.29-.09-.15-.13-.31-.13-.48,0-.03,0-.07,.01-.11,.02-.2,.09-.39,.23-.55,.9-1.01,1.65-2.2,2.23-3.58Zm8.28,1.95c.2,0,.37,.07,.51,.21,.14,.14,.21,.31,.21,.51v.06c0,.2-.07,.37-.21,.51-.14,.14-.31,.21-.51,.21h-.56c-.06,0-.09,.03-.09,.09v5.59c0,.47-.06,.82-.19,1.06-.13,.23-.34,.4-.64,.52-.43,.16-1.17,.24-2.21,.24-.2,0-.39-.06-.56-.18-.16-.13-.29-.3-.37-.5-.02-.05-.03-.1-.05-.15-.02-.06-.04-.11-.04-.17,0-.09,.02-.17,.07-.26,.08-.13,.2-.2,.35-.2h.01c.42,0,.76,.01,1.05,.01,.24,0,.44,0,.59-.01,.15,0,.26-.03,.33-.08,.06-.05,.1-.15,.1-.29v-5.59c0-.06-.03-.09-.1-.09h-3.96c-.2,0-.36-.07-.51-.21-.14-.14-.21-.31-.21-.51v-.06c0-.2,.07-.37,.21-.51,.14-.14,.31-.21,.51-.21h3.96c.06,0,.1-.03,.1-.1v-1.73c0-.2,.07-.38,.21-.51,.14-.14,.31-.21,.51-.21h.11c.2,0,.36,.07,.51,.21,.14,.14,.21,.31,.21,.51v1.73c0,.07,.03,.1,.09,.1h.56Zm-3.71,4.65c.06,.11,.1,.22,.1,.33,0,.07-.01,.14-.04,.21-.06,.2-.18,.34-.35,.43l-.15,.07c-.1,.05-.2,.07-.31,.07-.07,0-.15-.02-.23-.05-.18-.06-.31-.18-.4-.35-.24-.46-.55-1.04-.95-1.73-.06-.1-.09-.2-.09-.32,0-.07,0-.13,.02-.21,.06-.18,.18-.31,.35-.39h.01c.11-.06,.23-.09,.34-.09,.08,0,.16,.01,.24,.04,.2,.06,.35,.17,.45,.35,.45,.72,.78,1.27,.99,1.64Z" style="fill: #604c3f;"/>
      <path d="M215.53,43.81c.12,.12,.18,.26,.18,.43s-.06,.32-.18,.43-.27,.18-.44,.18h-1.62c-.07,0-.1,.03-.1,.1v2.55c0,.33-.03,.59-.1,.76-.07,.17-.2,.31-.4,.41-.23,.11-.53,.19-.92,.22h-.05c-.17,0-.32-.06-.45-.17-.15-.12-.26-.28-.32-.48-.02-.05-.02-.1-.02-.15,0-.1,.03-.19,.09-.27,.09-.13,.21-.2,.37-.2h.26c.06,0,.11-.01,.13-.04,.02-.03,.03-.07,.03-.13v-2.51c0-.07-.03-.1-.09-.1h-1.71c-.17,0-.32-.06-.43-.18-.12-.12-.18-.26-.18-.43s.06-.32,.18-.43c.12-.12,.26-.18,.43-.18h4.91c.17,0,.32,.06,.44,.18Zm-5.35,1.9c.05-.17,.14-.3,.28-.4,.11-.07,.23-.11,.35-.11h.11c.17,.03,.31,.12,.4,.26,.06,.1,.1,.2,.1,.32,0,.05,0,.1-.01,.15-.16,.61-.37,1.16-.61,1.65-.08,.15-.21,.24-.38,.28-.06,.02-.11,.02-.17,.02-.11,0-.22-.02-.32-.07-.14-.07-.23-.19-.28-.34-.02-.06-.02-.11-.02-.17,0-.1,.02-.19,.07-.28,.2-.37,.35-.8,.48-1.29Zm1.7-5.64c.06,0,.09-.03,.09-.08v-.46c0-.06-.03-.08-.09-.08h-1.54c-.17,0-.32-.06-.43-.18-.12-.12-.18-.26-.18-.43s.06-.31,.18-.43c.12-.12,.26-.18,.43-.18h1.54c.06,0,.09-.03,.09-.1v-.13c0-.2,.07-.36,.21-.49,.14-.13,.3-.2,.49-.2s.35,.07,.49,.2,.2,.3,.2,.49v.13c0,.06,.03,.1,.1,.1h1.5c.16,0,.3,.06,.42,.18,.12,.12,.18,.26,.18,.43s-.06,.31-.18,.43c-.12,.12-.26,.18-.42,.18h-1.5c-.07,0-.1,.03-.1,.08v.46c0,.06,.03,.08,.1,.08h1.23c.16,0,.3,.06,.42,.18,.12,.12,.18,.26,.18,.43s-.06,.31-.18,.42c-.12,.11-.26,.17-.42,.17h-4.05c-.17,0-.31-.06-.43-.17-.11-.11-.17-.25-.17-.42s.06-.31,.17-.43c.11-.12,.26-.18,.43-.18h1.25Zm7.09,.76c-.06,0-.09,.03-.09,.09v1.22c0,.32,.03,.67,.09,1.05,.06,.38,.15,.81,.29,1.27,.14,.46,.34,.93,.61,1.41,.27,.48,.59,.9,.95,1.26,.14,.15,.22,.32,.24,.51,0,.03,.01,.07,.01,.1,0,.15-.05,.3-.15,.44-.02,.04-.05,.08-.07,.12-.11,.16-.26,.26-.45,.28-.03,0-.07,.01-.1,.01-.15,0-.28-.06-.39-.17-.47-.49-.85-1.08-1.15-1.77-.29-.69-.49-1.33-.6-1.92,0,0,0-.01-.01-.01,0,0-.01,0-.01,.01-.1,.59-.32,1.22-.67,1.92-.35,.69-.8,1.29-1.36,1.81-.11,.09-.24,.13-.37,.13-.04,0-.09,0-.13-.01-.18-.04-.33-.14-.44-.31,0,0-.02-.02-.02-.04-.08-.13-.12-.27-.12-.42,0-.04,0-.08,.01-.12,.02-.19,.11-.35,.26-.49,.42-.37,.77-.79,1.07-1.27,.3-.48,.52-.96,.67-1.44,.14-.48,.24-.91,.31-1.29,.06-.38,.09-.74,.09-1.07v-1.22c0-.06-.03-.09-.1-.09h-.05c-.07,0-.11,.03-.12,.09-.19,.65-.41,1.23-.67,1.73-.08,.16-.21,.26-.39,.29h-.12c-.14,0-.26-.04-.38-.13-.12-.09-.24-.17-.35-.24-.03-.02-.05-.02-.05,.02,0,.13-.05,.24-.14,.34-.09,.09-.21,.14-.34,.14h-4.03c-.16,0-.3-.06-.42-.18-.12-.12-.18-.26-.18-.43s.06-.31,.18-.42c.12-.11,.26-.17,.42-.17h4.41c.06,0,.11-.03,.13-.08,.47-.93,.83-2.21,1.06-3.86,.03-.2,.13-.35,.28-.48,.13-.1,.27-.15,.43-.15,.03,0,.06,0,.1,.01h.06c.2,.02,.37,.12,.49,.28,.09,.13,.13,.27,.13,.41v.12c-.07,.45-.15,.87-.23,1.26-.02,.06,0,.08,.07,.08h2.37c.06-.02,.12-.02,.18-.02,.07,0,.14,0,.21,.02l.31,.09c.14,.03,.25,.11,.33,.23,.06,.1,.1,.2,.1,.32v.09c-.13,.9-.27,1.7-.43,2.4-.03,.16-.12,.29-.27,.37-.09,.05-.18,.07-.28,.07-.06,0-.11,0-.17-.02-.16-.05-.29-.15-.38-.29-.07-.11-.11-.24-.11-.37,0-.04,0-.08,.01-.12,.06-.4,.11-.84,.16-1.32,0-.06-.02-.09-.07-.09h-.62Zm-5.02,5.22c-.03-.08-.05-.16-.05-.23s.02-.15,.05-.22c.06-.15,.16-.25,.31-.31,.08-.03,.16-.05,.24-.05,.07,0,.15,.01,.23,.04,.15,.06,.27,.16,.35,.32,.11,.22,.2,.43,.28,.63,.03,.08,.05,.16,.05,.23,0,.09-.02,.17-.06,.26-.08,.16-.2,.28-.37,.35-.07,.03-.15,.05-.22,.05-.08,0-.16-.02-.24-.06-.15-.07-.25-.19-.31-.34-.08-.23-.17-.45-.27-.67Z" style="fill: #604c3f;"/>
    </g>
    <g>
      <path d="M270.17,47.36h1.25c.16,0,.28-.05,.34-.15,.06-.1,.11-.31,.13-.63,.02-.16,.09-.28,.23-.35,.08-.05,.17-.07,.26-.07,.06,0,.13,.01,.2,.04h.01c.2,.09,.36,.22,.48,.39,.09,.14,.13,.28,.13,.43,0,.04,0,.08-.01,.13-.1,.6-.27,1.02-.51,1.24-.24,.22-.62,.34-1.13,.34h-1.6c-.72,0-1.2-.12-1.44-.37-.24-.25-.37-.72-.37-1.41v-2.44c0-.07-.03-.1-.09-.1h-1.44c-.07,0-.1,.03-.11,.1-.07,.53-.16,.99-.28,1.37-.12,.39-.31,.77-.55,1.14s-.58,.7-.99,.98c-.42,.29-.93,.53-1.54,.73-.08,.03-.16,.05-.24,.05-.11,0-.22-.02-.33-.07-.19-.09-.34-.22-.45-.4-.02-.04-.05-.08-.09-.12-.06-.1-.09-.2-.09-.29s.03-.19,.09-.27c.06-.08,.14-.14,.25-.18,.49-.15,.9-.32,1.23-.51,.33-.19,.59-.42,.77-.68,.18-.26,.32-.52,.4-.79,.08-.26,.15-.58,.2-.96,0-.07-.02-.1-.07-.1h-2.17c-.2,0-.36-.07-.5-.2-.14-.13-.21-.3-.21-.49s.07-.36,.21-.5c.14-.13,.31-.2,.5-.2h9.73c.2,0,.36,.07,.5,.2,.14,.13,.21,.3,.21,.5s-.07,.36-.21,.49c-.14,.13-.31,.2-.5,.2h-2.62c-.07,0-.1,.03-.1,.1v2.42c0,.2,.03,.33,.09,.38,.06,.05,.21,.07,.43,.07Zm-6.41-7.53c-.06,0-.09,.03-.09,.08v.76c0,.2-.07,.36-.21,.51-.14,.14-.31,.21-.51,.21h-.07c-.2,0-.37-.07-.51-.21-.14-.14-.21-.31-.21-.51v-1.51c0-.2,.07-.36,.21-.51,.14-.14,.31-.21,.51-.21h3.7c.06,0,.09-.03,.09-.1v-.38c0-.2,.07-.37,.21-.51,.14-.14,.31-.21,.51-.21h.13c.2,0,.37,.07,.51,.21,.14,.14,.21,.31,.21,.51v.38c0,.07,.03,.1,.1,.1h3.77c.2,0,.37,.07,.51,.21,.14,.14,.21,.31,.21,.51v1.51c0,.2-.07,.36-.21,.51-.14,.14-.31,.21-.51,.21h-.15c-.2,0-.36-.07-.51-.21-.14-.14-.21-.31-.21-.51v-.76c0-.06-.03-.08-.09-.08h-7.4Zm6.73,1.12c.13,.13,.2,.29,.2,.48s-.07,.35-.2,.48c-.13,.13-.29,.2-.48,.2h-5.09c-.19,0-.35-.07-.48-.2-.13-.13-.2-.29-.2-.48s.06-.35,.2-.48c.13-.13,.29-.2,.48-.2h5.09c.19,0,.35,.07,.48,.2Z" style="fill: #604c3f;"/>
      <path d="M284.84,41.89c.06-.19,.19-.33,.37-.43,.11-.07,.24-.11,.37-.11,.06,0,.12,0,.18,.02l.09,.03c.2,.05,.34,.16,.43,.33,.06,.1,.09,.2,.09,.31,0,.07-.01,.15-.04,.22-.48,1.31-1.1,2.49-1.87,3.53-.03,.05-.04,.1-.02,.16,.37,.89,.75,1.34,1.14,1.34,.24,0,.39-.49,.48-1.46,0-.15,.08-.25,.21-.3,.06-.02,.11-.04,.16-.04,.08,0,.15,.03,.22,.07,.02,.02,.05,.03,.07,.05,.19,.12,.33,.28,.44,.46,.08,.14,.12,.29,.12,.44,0,.05,0,.1-.01,.15-.13,.83-.33,1.4-.6,1.7-.27,.3-.67,.45-1.2,.45-.81,0-1.5-.52-2.08-1.57-.03-.05-.07-.05-.11-.01-.45,.46-.93,.87-1.44,1.23-.13,.09-.27,.13-.42,.13-.05,0-.09,0-.13-.01-.2-.03-.37-.13-.5-.28-.04-.05-.09-.1-.13-.15-.1-.11-.15-.24-.15-.38v-.09c.02-.18,.11-.32,.27-.43,.69-.45,1.31-.98,1.87-1.59,.04-.04,.05-.09,.04-.15-.37-1.29-.65-2.91-.83-4.86,0-.07-.03-.1-.1-.1h-3.44c-.06,0-.09,.03-.09,.1v1.15c0,.07,.03,.1,.09,.1h2.28c.2,0,.36,.07,.5,.21,.13,.14,.2,.31,.2,.5,0,1.1-.04,2.04-.11,2.83-.05,.57-.14,.94-.28,1.12-.2,.27-.48,.44-.87,.5-.16,.02-.4,.04-.72,.04-.2,0-.37-.07-.52-.2-.15-.14-.26-.31-.32-.51,0,0,0-.02-.01-.02,0-.05-.01-.1-.01-.15,0-.1,.03-.19,.09-.28,.09-.13,.21-.2,.35-.2h.01c.15,0,.27,.01,.37,.01,.17,0,.29-.05,.37-.15,.11-.15,.18-.91,.22-2.26,0-.07-.03-.1-.1-.1h-1.44c-.06,0-.09,.03-.1,.1-.07,2.17-.39,3.86-.98,5.07-.07,.16-.2,.26-.39,.28-.03,0-.07,.01-.1,.01-.15,0-.28-.05-.39-.16-.05-.03-.1-.07-.15-.11-.15-.12-.26-.28-.31-.48-.02-.07-.02-.15-.02-.22,0-.11,.02-.23,.07-.35,.47-1.05,.71-2.6,.71-4.66v-2.93c0-.2,.07-.36,.21-.51,.14-.14,.31-.21,.51-.21h4.28c.06,0,.09-.03,.09-.08-.02-.6-.04-.96-.04-1.06,0-.19,.07-.35,.21-.49,.14-.14,.31-.21,.5-.21h.12c.2,0,.37,.07,.51,.21,.14,.14,.21,.31,.21,.51,0,.32,0,.66,.02,1.04,0,.06,.03,.08,.1,.08h1.73s.02,0,.02-.02c0-.01,0-.02-.01-.03-.26-.21-.59-.44-.99-.7-.14-.09-.22-.22-.23-.38v-.06c0-.13,.05-.24,.15-.34,.13-.14,.29-.22,.48-.24,.04,0,.08-.01,.12-.01,.15,0,.28,.04,.4,.11,.33,.2,.64,.39,.93,.59,.17,.12,.26,.29,.26,.51,0,.18-.07,.33-.2,.46l-.04,.05s-.02,.02-.01,.04c0,.02,.02,.02,.04,.02h.49c.2,0,.36,.07,.51,.21,.14,.14,.21,.31,.21,.51v.04c0,.2-.07,.37-.21,.51-.14,.14-.31,.21-.51,.21h-3.05c-.06,0-.09,.03-.09,.1,.11,1.16,.27,2.24,.48,3.24,0,.02,0,.03,.02,.03,.02,0,.03,0,.04-.02,.37-.64,.69-1.31,.94-2.01Z" style="fill: #604c3f;"/>
      <path d="M290.25,40.46c-.16,0-.3-.06-.42-.17-.11-.11-.17-.25-.17-.42s.06-.3,.17-.42c.11-.11,.25-.17,.42-.17h3.93c.16,0,.3,.06,.42,.17,.12,.11,.18,.25,.18,.42s-.06,.3-.18,.42c-.12,.11-.26,.17-.42,.17h-3.93Zm3.27,4c.2,0,.36,.07,.51,.21,.14,.14,.21,.31,.21,.51v2.33c0,.2-.07,.36-.21,.51-.14,.14-.31,.21-.51,.21h-1.95s-.06,.02-.06,.05c0,.12-.04,.23-.12,.31-.08,.09-.18,.13-.31,.13h-.21c-.18,0-.33-.06-.46-.19-.13-.13-.19-.28-.19-.46v-2.89c0-.2,.07-.37,.21-.51,.14-.14,.31-.21,.51-.21h2.58Zm-2.69-2.31c-.16,0-.3-.05-.41-.16-.11-.11-.16-.24-.16-.4s.06-.29,.16-.4,.25-.17,.41-.17h2.87c.15,0,.29,.05,.4,.17,.11,.11,.17,.24,.17,.4s-.06,.29-.17,.4c-.11,.11-.25,.16-.4,.16h-2.87Zm-.01,1.69c-.15,0-.29-.05-.4-.16-.11-.11-.16-.24-.16-.39s.06-.29,.16-.4,.24-.17,.4-.17h2.89c.15,0,.29,.05,.4,.17,.11,.11,.17,.24,.17,.4s-.05,.29-.17,.39c-.11,.11-.24,.16-.4,.16h-2.89Zm2.92-6.24c.15,0,.29,.05,.4,.17,.11,.11,.17,.24,.17,.4s-.05,.29-.17,.4-.24,.16-.4,.16h-2.84c-.15,0-.29-.05-.4-.16-.11-.11-.16-.24-.16-.4s.06-.29,.16-.4,.24-.17,.4-.17h2.84Zm-.81,8.12c0-.06-.03-.08-.09-.08h-1.25c-.07,0-.1,.03-.1,.08v1.26c0,.07,.03,.1,.1,.1h1.25c.06,0,.09-.03,.09-.1v-1.26Zm7.7-7.51c.2,0,.36,.07,.5,.21,.14,.14,.21,.3,.21,.5s-.07,.36-.21,.5c-.14,.14-.31,.21-.5,.21h-1.34c-.07,0-.1,.03-.1,.1v7.41c0,.42-.05,.75-.15,.97-.1,.22-.28,.4-.53,.52-.35,.15-.92,.24-1.71,.26h-.01c-.2,0-.38-.07-.54-.2-.16-.13-.28-.3-.35-.5-.02-.05-.03-.1-.05-.16-.02-.06-.04-.11-.04-.17,0-.09,.03-.17,.1-.26,.09-.14,.21-.21,.37-.21h.01c.25,0,.47,.01,.65,.01s.32,0,.43-.01c.11,0,.2-.02,.24-.06,.05-.04,.07-.11,.07-.21v-7.4c0-.07-.03-.1-.09-.1h-1.93c-.2,0-.36-.07-.5-.21-.14-.14-.21-.3-.21-.5s.07-.36,.21-.5c.14-.14,.31-.21,.5-.21h4.97Z" style="fill: #604c3f;"/>
      <path d="M304.6,46.47c.07-.18,.19-.31,.35-.4,.11-.06,.23-.1,.35-.1,.06,0,.11,0,.16,.01,.18,.04,.31,.14,.4,.29,.05,.09,.07,.18,.07,.27,0,.07-.02,.13-.05,.21-.24,.61-.52,1.16-.87,1.65-.1,.15-.24,.23-.43,.26-.03,0-.07,.01-.1,.01-.15,0-.28-.04-.4-.12-.14-.1-.22-.23-.26-.4,0-.03-.01-.07-.01-.11,0-.12,.04-.24,.12-.34,.25-.37,.47-.77,.65-1.22Zm2.7-8.78c.2,0,.37,.07,.51,.21,.14,.14,.21,.31,.21,.51v6.62c0,.2-.07,.36-.21,.51-.14,.14-.31,.21-.51,.21h-2.36c-.2,0-.37-.07-.51-.21-.14-.14-.21-.31-.21-.51v-6.62c0-.2,.07-.37,.21-.51,.14-.14,.31-.21,.51-.21h2.36Zm-.67,2.32c.06,0,.1-.03,.1-.08v-.98c0-.06-.03-.08-.1-.08h-1.05c-.07,0-.1,.03-.1,.08v.98c0,.06,.03,.08,.1,.08h1.05Zm0,2.27c.06,0,.1-.03,.1-.09v-.98c0-.07-.03-.1-.1-.1h-1.05c-.07,0-.1,.03-.1,.1v.98c0,.06,.03,.09,.1,.09h1.05Zm0,2.28c.06,0,.1-.03,.1-.1v-.99c0-.06-.03-.08-.1-.08h-1.05c-.07,0-.1,.03-.1,.08v.99c0,.07,.03,.1,.1,.1h1.05Zm-.05,2.22c-.04-.08-.06-.17-.06-.26,0-.06,0-.11,.02-.17,.05-.15,.15-.25,.29-.32,.09-.04,.18-.06,.27-.06,.07,0,.15,.01,.22,.04,.16,.05,.29,.15,.38,.31,.19,.32,.35,.62,.5,.92,.04,.09,.06,.18,.06,.27,0,.07-.01,.15-.04,.23-.07,.16-.18,.29-.34,.37-.08,.04-.16,.06-.24,.06-.07,0-.15-.02-.22-.05-.15-.06-.27-.17-.34-.33-.14-.32-.31-.65-.5-1Zm8.2-.94c.15,0,.27,.05,.37,.15s.15,.22,.15,.36h0c0,.16-.05,.28-.15,.38s-.22,.15-.37,.15c-.04,0-.06,.02-.06,.07v.59c0,.33-.04,.57-.12,.75-.08,.17-.22,.3-.42,.4-.25,.12-.65,.19-1.18,.21h-.02c-.17,0-.32-.06-.45-.17-.15-.11-.25-.26-.31-.44-.02-.05-.02-.1-.02-.15,0-.08,.02-.16,.07-.24,.08-.11,.2-.17,.34-.17h.55c.08,0,.14-.01,.17-.04,.03-.03,.04-.08,.04-.15v-.55c0-.07-.03-.1-.09-.1h-3.03c-.07,0-.1,.03-.1,.1v1.28c0,.18-.06,.33-.19,.46-.13,.13-.28,.19-.46,.19s-.33-.06-.46-.19c-.13-.13-.19-.28-.19-.46v-1.31s-.02-.07-.07-.07h-.09c-.15,0-.27-.05-.37-.15-.1-.1-.15-.22-.15-.37s.05-.26,.15-.37c.1-.1,.23-.15,.37-.15h.09s.07-.03,.07-.07v-2.36c0-.2,.07-.36,.21-.51,.14-.14,.31-.21,.51-.21h1.44c.06,0,.09-.03,.09-.08v-.29c0-.07-.03-.1-.09-.1h-2.25c-.15,0-.27-.05-.37-.15-.1-.1-.15-.23-.15-.37s.05-.27,.15-.37c.1-.1,.23-.15,.37-.15h.94c.06,0,.1-.03,.1-.09v-.3c0-.07-.03-.1-.1-.1h-.48c-.14,0-.25-.05-.35-.14-.09-.09-.14-.21-.14-.35s.05-.26,.14-.35c.09-.1,.21-.15,.35-.15h.48c.06,0,.1-.03,.1-.09v-.28c0-.06-.03-.08-.1-.08h-.73c-.15,0-.27-.05-.37-.16-.1-.11-.15-.23-.15-.37s.05-.26,.15-.37c.1-.1,.23-.15,.37-.15h.73c.06,0,.1-.03,.1-.1v-.21c0-.18,.06-.33,.19-.46,.13-.13,.28-.19,.46-.19s.33,.06,.46,.19c.13,.13,.19,.28,.19,.46v.21c0,.07,.03,.1,.1,.1h1.09c.06,0,.1-.03,.1-.1v-.2c0-.19,.06-.34,.19-.47,.13-.13,.28-.19,.46-.19s.34,.06,.47,.19c.13,.13,.2,.28,.2,.47v.2c0,.07,.03,.1,.1,.1h.73c.14,0,.26,.05,.37,.15,.11,.1,.16,.22,.16,.37s-.05,.27-.16,.37c-.11,.11-.23,.16-.37,.16h-.73c-.07,0-.1,.03-.1,.08v.28c0,.06,.03,.09,.1,.09h.57c.14,0,.25,.05,.35,.15,.09,.1,.14,.21,.14,.35s-.05,.25-.14,.35c-.09,.09-.21,.14-.35,.14h-.57c-.07,0-.1,.03-.1,.1v.3c0,.06,.03,.09,.1,.09h.95c.15,0,.27,.05,.37,.15,.1,.1,.15,.23,.15,.37s-.05,.27-.15,.37c-.1,.1-.23,.15-.37,.15h-2.27c-.06,0-.09,.03-.09,.1v.29c0,.06,.03,.08,.09,.08h1.51c.2,0,.36,.07,.51,.21,.14,.14,.21,.31,.21,.51v2.37s.02,.06,.06,.06Zm-3.67-2.01c0-.07-.03-.1-.09-.1h-.77c-.07,0-.1,.03-.1,.1v.39c0,.06,.03,.08,.1,.08h.77c.06,0,.09-.03,.09-.08v-.39Zm-.85,1.39c-.07,0-.1,.03-.1,.1v.44c0,.06,.03,.09,.1,.09h.77c.06,0,.09-.03,.09-.09v-.44c0-.07-.03-.1-.09-.1h-.77Zm.95-5.98c-.07,0-.1,.03-.1,.08v.28c0,.06,.03,.09,.1,.09h1.09c.06,0,.1-.03,.1-.09v-.28c0-.06-.03-.08-.1-.08h-1.09Zm0,1.44c-.07,0-.1,.03-.1,.1v.3c0,.06,.03,.09,.1,.09h1.09c.06,0,.1-.03,.1-.09v-.3c0-.07-.03-.1-.1-.1h-1.09Zm2.16,3.15c0-.07-.03-.1-.09-.1h-.79c-.06,0-.09,.03-.09,.1v.39c0,.06,.03,.08,.09,.08h.79c.06,0,.09-.03,.09-.08v-.39Zm-.96,1.93c0,.06,.03,.09,.09,.09h.79c.06,0,.09-.03,.09-.09v-.44c0-.07-.03-.1-.09-.1h-.79c-.06,0-.09,.03-.09,.1v.44Z" style="fill: #604c3f;"/>
    </g>
    <g>
      <line x1="64.42" y1="9.97" x2="66.06" y2="9.97" style="fill: none; stroke: #9d7c52; stroke-miterlimit: 10; stroke-width: .85px;"/>
      <line x1="69.33" y1="9.97" x2="277.08" y2="9.97" style="fill: none; stroke: #9d7c52; stroke-dasharray: 0 0 3.27 3.27; stroke-miterlimit: 10; stroke-width: .85px;"/>
      <line x1="278.72" y1="9.97" x2="280.36" y2="9.97" style="fill: none; stroke: #9d7c52; stroke-miterlimit: 10; stroke-width: .85px;"/>
    </g>
    <circle cx="173.93" cy="9.97" r="9.97" style="fill: #ede5db;"/>
    <path d="M171.66,13.67c-.14,0-.25-.05-.35-.14-.1-.09-.15-.21-.15-.36,0-.32,.12-.6,.36-.81,1.12-1.02,1.95-1.9,2.51-2.66s.84-1.43,.84-2.03c0-.44-.11-.78-.34-1.02-.23-.25-.54-.37-.95-.37-.37,0-.74,.14-1.1,.43-.15,.11-.31,.17-.49,.17s-.32-.06-.45-.18c-.14-.14-.2-.29-.2-.48s.07-.33,.21-.45c.65-.56,1.4-.84,2.25-.84,.81,0,1.46,.24,1.95,.72,.49,.48,.74,1.12,.74,1.91,0,1.3-.93,2.86-2.78,4.7-.02,0-.02,.02-.01,.03,0,.02,.02,.02,.03,.01,.54-.05,.97-.08,1.3-.08h1.2c.18,0,.34,.07,.47,.2,.13,.13,.2,.29,.2,.47v.1c0,.18-.07,.34-.2,.47-.13,.13-.29,.2-.47,.2h-4.58Z" style="fill: #024737;"/>
  </g>
</svg>