<?xml version="1.0" encoding="UTF-8"?>
<svg id="b" data-name="圖層 2" xmlns="http://www.w3.org/2000/svg" width="895.27" height="132.26" viewBox="0 0 895.27 132.26">
  <g id="c" data-name="圖層 4">
    <g>
      <path d="M562.67,79.53h306.1c14.33,0,25.96,11.63,25.96,25.96v26.24h-332.07v-52.2h0Z" style="fill: #fff; stroke: #ddd8ce; stroke-miterlimit: 10; stroke-width: 1.07px;"/>
      <g>
        <line x1="173.03" y1="20.46" x2="174.67" y2="20.46" style="fill: none; stroke: #9d7c52; stroke-miterlimit: 10; stroke-width: 1.34px;"/>
        <line x1="177.96" y1="20.46" x2="715.31" y2="20.46" style="fill: none; stroke: #9d7c52; stroke-dasharray: 0 0 3.29 3.29; stroke-miterlimit: 10; stroke-width: 1.34px;"/>
        <line x1="716.95" y1="20.46" x2="718.59" y2="20.46" style="fill: none; stroke: #9d7c52; stroke-miterlimit: 10; stroke-width: 1.34px;"/>
      </g>
      <rect x="134.98" width="43.31" height="40.93" rx="19.04" ry="19.04" style="fill: #ede5db;"/>
      <path d="M153.15,27.62c-.35,0-.66-.13-.91-.38-.26-.26-.38-.56-.38-.91v-.09c0-.35,.13-.66,.38-.91s.56-.38,.91-.38h2.11c.12,0,.18-.05,.18-.15V14.56c0-.1-.06-.15-.18-.15h-1.82c-.28,0-.52-.1-.71-.3-.2-.2-.3-.44-.3-.74s.09-.55,.27-.78c.18-.23,.42-.38,.71-.45,.66-.18,1.25-.38,1.78-.62,.86-.38,1.64-.57,2.33-.57,.34,0,.62,.12,.86,.36,.23,.24,.35,.53,.35,.87v12.59c0,.1,.06,.15,.18,.15h1.67c.35,0,.66,.13,.91,.38,.26,.26,.38,.56,.38,.91v.09c0,.35-.13,.66-.38,.91-.26,.26-.56,.38-.91,.38h-7.43Z" style="fill: #024737;"/>
      <rect x="425.76" y="0" width="43.31" height="40.93" rx="19.04" ry="19.04" style="fill: #024737;"/>
      <path d="M442.72,27.62c-.26,0-.49-.09-.68-.27-.19-.18-.29-.41-.29-.69,0-.63,.23-1.16,.7-1.58,2.17-1.98,3.79-3.7,4.88-5.17s1.63-2.78,1.63-3.93c0-.85-.22-1.51-.66-1.99-.44-.48-1.06-.71-1.85-.71-.72,0-1.43,.28-2.13,.83-.29,.22-.61,.33-.95,.33s-.63-.12-.88-.35c-.26-.26-.4-.57-.4-.92s.14-.65,.42-.88c1.26-1.08,2.72-1.63,4.37-1.63,1.57,0,2.83,.47,3.79,1.41,.96,.94,1.44,2.18,1.44,3.71,0,2.52-1.8,5.56-5.41,9.12-.03,.01-.04,.04-.02,.07s.04,.04,.07,.02c1.04-.1,1.88-.15,2.53-.15h2.33c.35,0,.66,.13,.91,.38,.26,.26,.38,.56,.38,.91v.2c0,.35-.13,.66-.38,.91s-.56,.38-.91,.38h-8.9Z" style="fill: #f9f4ed;"/>
      <rect x="716.54" width="43.31" height="40.93" rx="19.04" ry="19.04" style="fill: #ede5db;"/>
      <path d="M737.75,27.92c-1.85,0-3.39-.48-4.64-1.43-.29-.22-.45-.52-.48-.9v-.13c0-.32,.1-.62,.31-.9,.21-.28,.48-.43,.83-.46h.15c.28,0,.54,.08,.79,.24,.86,.59,1.77,.88,2.7,.88,.86,0,1.55-.2,2.07-.6,.51-.4,.77-.97,.77-1.7,0-.78-.25-1.38-.75-1.81-.5-.43-1.38-.7-2.64-.8-.34-.03-.62-.16-.86-.4s-.35-.51-.35-.83,.12-.6,.35-.85c.23-.24,.51-.38,.84-.41,1.92-.22,2.88-1.05,2.88-2.48,0-.66-.19-1.17-.58-1.54s-.94-.55-1.66-.55c-.72,.01-1.43,.24-2.13,.68-.25,.18-.52,.26-.81,.26-.06,0-.11,0-.15-.02-.37-.03-.66-.18-.88-.44l-.02-.04c-.21-.23-.31-.51-.31-.81v-.13c.04-.35,.21-.63,.51-.83,1.25-.84,2.56-1.25,3.96-1.25,1.66,0,2.97,.39,3.95,1.17,.97,.78,1.46,1.87,1.46,3.27,0,.88-.23,1.64-.7,2.29-.47,.64-1.14,1.14-2.02,1.49-.04,.01-.07,.04-.07,.08s.02,.06,.07,.08c.98,.28,1.77,.77,2.37,1.46,.6,.7,.9,1.56,.9,2.6,0,1.48-.56,2.66-1.69,3.53-1.13,.87-2.51,1.31-4.15,1.31Z" style="fill: #005850;"/>
      <path d="M260.94,79.6h312.92c14.39,0,26.06,11.68,26.06,26.06h0c0,14.39-11.68,26.06-26.06,26.06H260.94c-1.17,0-2.12-.95-2.12-2.12v-47.88c0-1.17,.95-2.12,2.12-2.12Z" style="fill: #736357;"/>
      <path d="M278.42,79.6h-19.6v-.07H26.5c-14.34,0-25.96,11.62-25.96,25.96v26.24H274.17c15.57,0,28.19-12.62,28.19-28.19h0c0-13.22-10.72-23.94-23.94-23.94Z" style="fill: #fff; stroke: #ddd8ce; stroke-miterlimit: 10; stroke-width: 1.07px;"/>
      <g>
        <path d="M122.86,98.85c.23,.23,.34,.51,.34,.84s-.11,.61-.34,.84c-.23,.23-.5,.34-.83,.34h-8.68c-.11,0-.17,.05-.18,.14-.07,1.05-.13,1.85-.18,2.4-.01,.09,.03,.14,.12,.14h6.64c.32,0,.59,.11,.81,.34,.2,.21,.3,.47,.3,.77,0,1.87-.22,3.92-.65,6.16-.24,1.32-.57,2.21-.99,2.67-.53,.55-1.27,.87-2.22,.95-.34,.03-.8,.04-1.39,.04h-.95c-.32-.01-.61-.13-.87-.35-.26-.22-.44-.51-.55-.86l-.08-.2c-.04-.09-.06-.19-.06-.28,0-.13,.04-.26,.12-.38,.12-.2,.3-.3,.52-.3h.04c.69,.04,1.45,.06,2.28,.06,.47,0,.8-.09,.99-.26,.51-.44,.9-2.4,1.17-5.88,.01-.09-.03-.14-.12-.14h-5.41c-.09,0-.16,.05-.18,.14-.27,1.2-.64,2.28-1.11,3.25-.47,1.01-1.17,2-2.1,2.97-.67,.7-1.45,1.32-2.32,1.86-.2,.11-.4,.16-.59,.16-.11,0-.22-.01-.32-.04-.31-.08-.57-.26-.79-.52-.07-.09-.14-.18-.22-.26-.16-.17-.24-.38-.24-.61v-.14c.04-.28,.18-.49,.42-.63,.38-.23,.72-.46,1.03-.71,.62-.47,1.14-.95,1.56-1.42,.42-.48,.79-1.03,1.1-1.66,.31-.63,.55-1.2,.73-1.73,.17-.52,.32-1.15,.44-1.88,.12-.73,.2-1.35,.24-1.88,.04-.49,.08-1.07,.12-1.76,0-.11-.05-.16-.16-.16h-4.56c-.34,0-.62-.11-.85-.34-.23-.23-.34-.51-.34-.84s.11-.61,.34-.84c.23-.23,.51-.34,.85-.34h6.58c.09,0,.14-.05,.14-.16v-2c0-.32,.12-.6,.35-.84,.24-.24,.52-.35,.84-.35h.16c.32,0,.6,.12,.84,.35,.24,.24,.35,.52,.35,.84v2c0,.11,.05,.16,.14,.16h6.86c.32,0,.6,.11,.83,.34Z" style="fill: #604c3f;"/>
        <path d="M149.43,108.62c.19,.2,.29,.44,.29,.72s-.1,.51-.29,.72c-.2,.2-.43,.3-.72,.3h-5.19s-.04,0-.04,.03,0,.03,.02,.03c1.56,.9,3.43,1.59,5.61,2.06,.24,.05,.4,.2,.48,.44,.04,.08,.06,.16,.06,.24,0,.15-.05,.29-.16,.42-.04,.07-.09,.13-.14,.18-.22,.3-.48,.51-.81,.65-.19,.07-.38,.1-.57,.1-.15,0-.29-.02-.42-.06-2.29-.7-4.27-1.72-5.96-3.07-.03-.01-.05-.01-.08,0-.03,.01-.04,.03-.04,.06v2.34c0,.34-.11,.62-.34,.85-.23,.23-.51,.34-.85,.34h-.04c-.34,0-.62-.11-.85-.34-.23-.23-.34-.51-.34-.85v-2.22s-.02-.05-.05-.06c-.03-.01-.06,0-.07,.02-1.62,1.28-3.55,2.26-5.79,2.95-.13,.04-.28,.06-.42,.06-.19,0-.38-.03-.57-.1-.32-.13-.59-.35-.81-.65-.03-.03-.05-.05-.08-.08-.09-.13-.14-.28-.14-.44,0-.07,.01-.15,.04-.24,.08-.24,.24-.39,.48-.44,2.19-.51,4.04-1.22,5.53-2.14,.03-.01,.04-.03,.03-.05,0-.02-.02-.03-.05-.03h-5.15c-.27,0-.5-.1-.71-.3-.2-.2-.3-.44-.3-.72s.1-.52,.3-.72c.2-.2,.44-.3,.71-.3h6.88c.11,0,.16-.05,.16-.14v-.99c0-.09-.05-.13-.16-.12-1.33,.3-3.06,.53-5.17,.71h-.1c-.24,0-.47-.07-.69-.22-.26-.17-.44-.4-.57-.69-.04-.09-.06-.2-.06-.3s.03-.22,.1-.34c.11-.2,.28-.31,.52-.32,2.19-.15,3.95-.36,5.27-.65,.03,0,.04,0,.04-.03s-.01-.03-.04-.03c-.05-.01-.3-.07-.75-.17-.44-.1-.77-.17-.99-.21-.04-.01-.07,0-.08,.02-.12,.13-.26,.2-.42,.2-.05,0-.11,0-.16-.02l-.85-.24c-.26-.07-.42-.23-.5-.48-.03-.08-.04-.16-.04-.24,0-.17,.06-.34,.18-.48,.13-.15,.38-.44,.73-.89,.03-.01,.03-.03,.02-.06s-.03-.04-.06-.04h-2.97c-.27,0-.49-.09-.68-.28s-.27-.42-.27-.69,.09-.5,.27-.69,.41-.28,.68-.28h4.44c.09,0,.17-.04,.22-.12,.58-.78,.9-1.2,.95-1.27,.01-.03,.01-.05,0-.08-.01-.03-.03-.04-.06-.04h-3.96c-.09,0-.14,.04-.14,.12,0,.28-.1,.52-.29,.72-.2,.2-.43,.29-.72,.29h-.12c-.31,0-.58-.11-.8-.33-.22-.22-.33-.49-.33-.8v-.85c0-.32,.11-.6,.34-.84,.23-.24,.51-.35,.85-.35h6.24c.11,0,.16-.05,.16-.14v-.02c0-.34,.11-.62,.34-.85,.23-.23,.51-.34,.85-.34h.06c.34,0,.62,.12,.85,.34,.23,.23,.34,.51,.34,.85v.02c0,.09,.05,.14,.16,.14h6.3c.34,0,.62,.12,.85,.35,.23,.24,.34,.52,.34,.84v.79c0,.32-.11,.6-.34,.84s-.51,.35-.85,.35h-.16c-.28,0-.52-.1-.72-.29-.2-.2-.29-.43-.29-.72,0-.08-.05-.12-.14-.12h-8.04s-.02,0-.02,0,0,.02,.02,.03l.73,.2c.24,.08,.4,.24,.48,.48,.04,.09,.06,.18,.06,.26,0,.15-.05,.29-.16,.42-.01,.03-.01,.05,0,.07,.01,.02,.03,.03,.06,.03h8.56c.27,0,.49,.09,.68,.28,.18,.19,.27,.42,.27,.69s-.09,.5-.27,.69c-.18,.19-.41,.28-.68,.28h-2.52c-.11,0-.18,.05-.22,.14-.35,.77-.82,1.43-1.41,1.98-.03,.03-.04,.06-.03,.09,0,.03,.03,.05,.07,.05,1.21,.35,2.25,.67,3.13,.97,.27,.09,.44,.27,.5,.53,.03,.08,.04,.15,.04,.22,0,.19-.07,.36-.2,.5-.22,.26-.49,.42-.83,.5-.12,.03-.25,.04-.38,.04-.2,0-.4-.03-.59-.1-1.09-.4-2.4-.83-3.92-1.27-.09-.03-.19-.02-.28,.02-.59,.24-1.27,.46-2.04,.65,0,.03,0,.04,.02,.04h.57c.34,0,.62,.11,.85,.34,.23,.23,.34,.51,.34,.85v.06c0,.09,.05,.14,.16,.14h7.07c.28,0,.52,.1,.72,.3Zm-11.05-6.06c-.09,0-.18,.04-.24,.12l-.38,.48s-.01,.05,0,.08c.01,.03,.03,.05,.06,.06,1.17,.22,2.36,.48,3.55,.79,.11,.01,.2,0,.28-.04,.54-.36,.98-.82,1.33-1.37,.03-.03,.03-.05,0-.08-.02-.03-.04-.04-.07-.04h-4.54Z" style="fill: #604c3f;"/>
        <path d="M175.44,112.19c.27,0,.5,.1,.7,.29,.19,.2,.29,.43,.29,.71s-.1,.51-.29,.71c-.2,.2-.43,.29-.7,.29h-6.78c-.07,0-.1,.03-.1,.1,0,.19-.07,.35-.21,.5-.14,.14-.31,.21-.49,.21h-.44c-.32,0-.6-.11-.83-.34-.23-.23-.34-.5-.34-.81v-7.79s-.01-.05-.04-.04c-.11,.08-.23,.11-.36,.1-.13-.01-.24-.07-.32-.18-.3-.35-.57-.65-.81-.91-.03-.03-.05-.03-.08-.02s-.04,.03-.04,.06v6.26c0,.34-.11,.62-.34,.85s-.51,.34-.85,.34h-2.38c-.11,0-.16,.05-.16,.16v.46c0,.27-.1,.5-.29,.7s-.43,.29-.7,.29-.5-.1-.7-.29c-.2-.2-.29-.43-.29-.7v-4.08s-.01-.04-.03-.05c-.02,0-.04,0-.05,.03-.13,.2-.32,.3-.54,.3h-.06c-.26-.01-.45-.14-.59-.38-.04-.08-.09-.17-.14-.26-.19-.34-.28-.68-.28-1.03,0-.32,.09-.65,.26-.99,.92-1.74,1.6-4.2,2.06-7.39,.03-.09-.01-.14-.12-.14h-.73c-.31,0-.58-.11-.8-.33-.22-.22-.33-.49-.33-.8s.11-.57,.33-.79c.22-.21,.49-.32,.8-.32h5.65c.17,0,.32,.06,.44,.18s.18,.27,.18,.44c0,.05,.03,.08,.08,.08h3.96c.11,0,.17-.05,.2-.14,.07-.21,.13-.43,.2-.65,.09-.32,.28-.57,.55-.75,.21-.13,.44-.2,.67-.2,.08,0,.16,0,.24,.02,.31,.05,.55,.22,.73,.49,.11,.17,.16,.36,.16,.54,0,.11-.01,.21-.04,.3-.01,.07-.03,.15-.06,.24-.01,.03-.01,.06,.01,.09,.02,.03,.05,.05,.09,.05h3.43c.34,0,.62,.11,.85,.34,.23,.23,.34,.51,.34,.85v1.49c0,.3-.1,.55-.31,.76-.21,.21-.46,.31-.77,.31s-.56-.1-.77-.31-.31-.46-.31-.76v-.46c0-.11-.05-.16-.16-.16h-3.07c-.09,0-.16,.05-.2,.14-.3,.71-.69,1.49-1.17,2.32-.01,.03-.01,.05,0,.08s.04,.04,.08,.04h1.35c.09,0,.16-.05,.2-.14,.12-.31,.23-.59,.32-.85,.11-.31,.3-.54,.59-.71,.19-.12,.39-.18,.61-.18,.09,0,.18,.01,.26,.04,.3,.05,.5,.21,.63,.48,.07,.12,.1,.25,.1,.38s-.03,.27-.1,.4c-.07,.13-.14,.28-.22,.44-.01,.03-.01,.05,0,.08s.04,.04,.08,.04h1.47c.28,0,.52,.1,.73,.3,.2,.2,.3,.44,.3,.72s-.1,.51-.3,.72c-.2,.2-.44,.3-.73,.3h-1.94c-.11,0-.16,.05-.16,.14v1.09c0,.09,.05,.14,.16,.14h1.62c.24,0,.45,.09,.63,.26,.17,.17,.26,.39,.26,.64s-.09,.46-.26,.64c-.18,.18-.38,.26-.63,.26h-1.62c-.11,0-.16,.05-.16,.16v1.17c0,.09,.05,.14,.16,.14h1.62c.24,0,.45,.09,.63,.26,.17,.17,.26,.38,.26,.63s-.09,.45-.26,.63c-.18,.17-.38,.26-.63,.26h-1.62c-.11,0-.16,.05-.16,.16v1.15c0,.11,.05,.16,.16,.16h2.44Zm-13.06-1.8c.09,0,.14-.05,.14-.16v-5.01c0-.09-.05-.14-.14-.14h-1.37c-.11,0-.16,.05-.16,.14v5.01c0,.11,.05,.16,.16,.16h1.37Zm1.15-7.43c.3,0,.55,.1,.75,.31,.2,.21,.3,.46,.3,.76,0,.01,.01,.03,.04,.05s.05,.02,.08,0c1.44-1.1,2.6-2.53,3.49-4.28,.01-.03,.01-.06,0-.09-.01-.03-.04-.05-.08-.05h-1.13c-.11,0-.16,.05-.16,.16v.5c0,.28-.1,.52-.3,.73-.2,.2-.45,.3-.74,.3s-.54-.1-.74-.3c-.2-.2-.3-.44-.3-.73v-1.05c0-.09-.05-.14-.16-.14h-2.6c-.11,0-.17,.05-.18,.14-.16,1.16-.38,2.33-.67,3.53-.03,.09,.01,.14,.12,.14h2.28Zm6.91,2.71c.09,0,.14-.05,.14-.14v-1.09c0-.09-.05-.14-.14-.14h-1.72c-.11,0-.16,.05-.16,.14v1.09c0,.09,.05,.14,.16,.14h1.72Zm0,3.27c.09,0,.14-.05,.14-.14v-1.17c0-.11-.05-.16-.14-.16h-1.72c-.11,0-.16,.05-.16,.16v1.17c0,.09,.05,.14,.16,.14h1.72Zm-1.72,1.78c-.11,0-.16,.05-.16,.16v1.15c0,.11,.05,.16,.16,.16h1.72c.09,0,.14-.05,.14-.16v-1.15c0-.11-.05-.16-.14-.16h-1.72Z" style="fill: #604c3f;"/>
        <path d="M190.14,99.11c.27,0,.5,.09,.7,.28s.29,.42,.29,.69-.1,.5-.29,.69-.43,.28-.7,.28h-5.55c-.27,0-.5-.09-.69-.28-.19-.19-.28-.42-.28-.69s.09-.5,.28-.69c.19-.19,.42-.28,.69-.28h5.55Zm-.75,8.56c.32,0,.6,.11,.84,.34,.24,.23,.35,.51,.35,.85v3.63s.01,.04,.03,.05c.02,0,.04,0,.05-.03,.5-.73,.86-1.77,1.09-3.13,.05-.27,.19-.48,.4-.63,.15-.11,.31-.16,.48-.16,.08,0,.16,.01,.24,.04,.27,.07,.48,.22,.65,.46,.13,.19,.2,.39,.2,.61,0,.05,0,.11-.02,.16-.08,.59-.19,1.14-.32,1.65-.13,.5-.3,.97-.5,1.38-.15,.3-.38,.48-.71,.54-.11,.03-.2,.04-.28,.04-.23,0-.45-.07-.67-.2l-.55-.32s-.05-.02-.07-.01c-.02,0-.03,.02-.03,.05,0,.26-.09,.47-.26,.65-.18,.17-.39,.26-.65,.26h-3.07c-.07,0-.1,.03-.1,.08,0,.2-.07,.37-.21,.51-.14,.14-.31,.21-.49,.21h-.3c-.28,0-.52-.1-.72-.3-.19-.2-.29-.44-.29-.71v-4.85c0-.34,.11-.62,.34-.85,.23-.23,.51-.34,.85-.34h3.71Zm.22-5.69c.27,0,.49,.09,.68,.27s.27,.4,.27,.67-.09,.48-.27,.67-.41,.27-.68,.27h-4.14c-.26,0-.47-.09-.66-.27s-.27-.4-.27-.67,.09-.48,.27-.67,.4-.27,.66-.27h4.14Zm-4.16,4.66c-.24,0-.45-.09-.64-.26s-.27-.39-.27-.65,.09-.47,.27-.66,.39-.27,.64-.27h4.18c.26,0,.47,.09,.66,.27s.27,.4,.27,.66-.09,.47-.27,.65-.4,.26-.66,.26h-4.18Zm4.12-10.32c.26,0,.47,.09,.66,.27s.27,.4,.27,.67-.09,.48-.27,.67-.4,.27-.66,.27h-4.04c-.26,0-.47-.09-.66-.27s-.27-.4-.27-.67,.09-.48,.27-.67,.4-.27,.66-.27h4.04Zm-1.19,15.67c.11,0,.16-.05,.16-.16v-2.08c0-.09-.05-.14-.16-.14h-1.72c-.11,0-.16,.05-.16,.14v2.08c0,.11,.05,.16,.16,.16h1.72Zm4.32-10.8c-.24-.08-.4-.24-.48-.48-.03-.09-.04-.18-.04-.26,0-.15,.04-.29,.12-.42,.17-.26,.4-.43,.69-.52,.15-.05,.29-.08,.43-.08s.28,.03,.41,.08c.21,.07,.5,.17,.85,.3,.09,.04,.15,0,.18-.1,.09-.34,.17-.67,.24-1.01,.01-.09-.03-.14-.12-.14h-1.94c-.28,0-.52-.1-.72-.3-.2-.2-.29-.44-.29-.73s.1-.52,.29-.72c.19-.2,.43-.29,.72-.29h8.04c.34,0,.62,.11,.85,.34,.21,.22,.32,.48,.32,.79,0,1.55-.12,3.22-.36,5.03-.13,1.02-.34,1.69-.61,2-.34,.44-.79,.71-1.35,.79-.26,.04-.61,.07-1.05,.08h-.04c-.31,0-.59-.11-.83-.32-.26-.23-.43-.51-.52-.85-.09-.32-.2-.61-.3-.85-.04-.08-.11-.15-.2-.2-.3-.2-.59-.38-.87-.54-.09-.04-.17-.02-.22,.06-.62,1.06-1.46,1.95-2.52,2.67-.18,.12-.36,.18-.55,.18-.09,0-.19-.01-.28-.04-.28-.08-.52-.25-.73-.5-.15-.16-.22-.35-.22-.57,0-.05,0-.1,.02-.14,.04-.27,.17-.48,.4-.63,.78-.52,1.42-1.17,1.92-1.94,.05-.08,.03-.14-.06-.18-.42-.17-.81-.34-1.17-.48Zm3.98,11.53h1.09c.16,0,.28-.07,.34-.2,.07-.13,.11-.42,.14-.85,.03-.24,.15-.42,.36-.54,.11-.07,.22-.1,.34-.1,.11,0,.21,.03,.3,.08,.31,.12,.55,.32,.73,.58,.15,.2,.22,.42,.22,.65,0,.07,0,.13-.02,.2-.15,.88-.39,1.48-.72,1.81-.33,.33-.81,.49-1.44,.49h-1.7c-.96,0-1.58-.19-1.89-.58s-.45-1.1-.45-2.15v-3.39c0-.32,.11-.6,.33-.82,.22-.22,.49-.33,.8-.33s.58,.11,.8,.33c.22,.22,.33,.49,.33,.82v3.37c0,.28,.02,.46,.07,.52s.17,.1,.35,.1Zm-1.37-6.04c-.22-.13-.34-.33-.36-.59-.01-.04-.02-.08-.02-.12,0-.2,.08-.38,.24-.54,.21-.2,.47-.33,.77-.38h.18c.23,0,.44,.05,.65,.16,.78,.46,1.45,.92,2.02,1.39,.23,.19,.34,.44,.34,.77,0,.3-.11,.55-.32,.77-.2,.22-.45,.32-.75,.32s-.56-.1-.79-.3c-.55-.48-1.2-.98-1.96-1.47Zm4.6-8c.01-.09-.03-.14-.14-.14h-2.28c-.09,0-.15,.05-.18,.14-.11,.7-.26,1.34-.44,1.92-.03,.11,0,.18,.1,.22,.26,.12,.49,.24,.71,.36,.3,.15,.48,.38,.57,.71,.01,.09,.02,.19,.02,.28,0,.22-.06,.42-.18,.63l-.28,.44s-.01,.06,0,.09c.01,.03,.04,.05,.08,.05,.24,.01,.52,.02,.83,.02,.17,.01,.31,0,.4-.06,.16-.08,.28-.24,.36-.48,.19-.51,.34-1.9,.44-4.18Zm-.38,10.94c-.08-.15-.12-.3-.12-.46,0-.09,.02-.2,.06-.3,.09-.27,.27-.46,.52-.57,.16-.07,.32-.1,.48-.1,.13,0,.27,.03,.4,.08,.3,.09,.52,.28,.67,.54,.58,.98,1.04,2.01,1.37,3.07,.05,.12,.08,.25,.08,.38,0,.17-.05,.36-.14,.54-.16,.3-.4,.51-.71,.65-.12,.05-.24,.08-.36,.08-.16,0-.32-.04-.46-.12-.26-.15-.43-.37-.52-.67-.3-1.05-.72-2.09-1.27-3.13Z" style="fill: #604c3f;"/>
      </g>
      <g>
        <path d="M375.19,109.45c.19,.2,.29,.44,.29,.73s-.1,.52-.29,.73c-.2,.2-.43,.3-.72,.3h-2.71s-.02,0-.03,.03,0,.04,.01,.05c1.21,.73,2.19,1.35,2.95,1.88,.19,.15,.28,.34,.28,.57,0,.32-.13,.55-.4,.69l-.12,.06c-.26,.12-.52,.18-.79,.18-.08,0-.16,0-.24-.02-.35-.05-.67-.19-.95-.4-.55-.44-1.16-.9-1.82-1.35-.24-.16-.36-.39-.36-.69,0-.27,.11-.48,.34-.65l.36-.26s.02-.03,0-.05-.02-.03-.03-.03h-4.81s-.02,0-.03,.02,0,.02,.01,.02l.87,.3c.26,.09,.41,.27,.46,.53,.01,.05,.02,.11,.02,.16,0,.2-.09,.36-.26,.49-.85,.67-1.82,1.28-2.93,1.82-.23,.11-.46,.16-.69,.16-.11,0-.22-.01-.32-.04-.35-.07-.65-.23-.91-.48-.03-.03-.05-.05-.08-.08-.15-.13-.22-.3-.22-.48,0-.05,0-.11,.02-.16,.05-.26,.2-.42,.44-.5,1.33-.5,2.36-1.05,3.09-1.66,.03-.01,.03-.03,.02-.05-.01-.02-.03-.03-.06-.03h-2.34c-.34,0-.62-.12-.85-.35s-.34-.51-.34-.84v-.26s-.02-.05-.05-.07c-.03-.02-.06-.02-.09,0-1.43,.65-2.74,1.24-3.94,1.78-.15,.07-.3,.1-.46,.1-.13,0-.28-.03-.42-.1-.3-.12-.5-.34-.63-.65l-.08-.22c-.05-.13-.08-.27-.08-.4,0-.17,.04-.34,.12-.5,.13-.3,.36-.5,.67-.61,.36-.15,.79-.32,1.29-.5,.09-.03,.14-.09,.14-.2v-5.27c0-.11-.05-.16-.16-.16h-.77c-.32,0-.6-.11-.83-.34-.23-.23-.34-.5-.34-.83s.11-.6,.34-.83c.23-.23,.5-.34,.83-.34h.77c.11,0,.16-.05,.16-.14v-3.31c0-.31,.11-.58,.33-.8,.22-.22,.49-.33,.8-.33s.58,.11,.8,.33,.33,.49,.33,.8v3.31c0,.09,.05,.14,.16,.14h.52c.32,0,.6,.11,.83,.34,.23,.23,.34,.5,.34,.83s-.11,.6-.34,.83-.5,.34-.83,.34h-.52c-.11,0-.16,.05-.16,.16v4.34s.02,.07,.05,.09c.03,.02,.06,.02,.09,0,.28-.12,.51-.22,.69-.3,.13-.05,.26-.08,.38-.08,.16,0,.31,.04,.44,.12,.28,.13,.46,.35,.52,.65l.22,.93c.04,.13,0,.24-.14,.3h11.41c.28,0,.52,.1,.72,.3Zm-7.64-9.39c.09,0,.14-.05,.14-.16v-.63c0-.09-.05-.14-.14-.14h-3.84c-.28,0-.52-.1-.72-.29-.2-.2-.29-.43-.29-.71s.1-.51,.29-.71c.19-.19,.43-.29,.72-.29h3.84c.09,0,.14-.05,.14-.14v-.1c0-.34,.12-.62,.35-.85,.24-.23,.51-.34,.84-.34h.02c.32,0,.6,.11,.84,.34,.24,.23,.35,.51,.35,.85v.1c0,.09,.05,.14,.14,.14h3.94c.27,0,.5,.1,.7,.29,.19,.2,.29,.43,.29,.71s-.1,.51-.29,.71c-.2,.2-.43,.29-.7,.29h-3.94c-.09,0-.14,.05-.14,.14v.63c0,.11,.05,.16,.14,.16h2.3c.34,0,.62,.12,.85,.34,.23,.23,.34,.51,.34,.85v5.86c0,.34-.11,.62-.34,.85-.23,.23-.51,.34-.85,.34h-7.15c-.32,0-.6-.11-.84-.34-.24-.23-.35-.51-.35-.85v-5.86c0-.34,.12-.62,.35-.85,.24-.23,.51-.34,.84-.34h2.16Zm3.69,2.28c.09,0,.14-.05,.14-.14v-.46c0-.09-.05-.14-.14-.14h-4.66c-.09,0-.14,.05-.14,.14v.46c0,.09,.05,.14,.14,.14h4.66Zm0,2.24c.09,0,.14-.05,.14-.16v-.48c0-.11-.05-.16-.14-.16h-4.66c-.09,0-.14,.05-.14,.16v.48c0,.11,.05,.16,.14,.16h4.66Zm0,2.22c.09,0,.14-.05,.14-.16v-.5c0-.09-.05-.14-.14-.14h-4.66c-.09,0-.14,.05-.14,.14v.5c0,.11,.05,.16,.14,.16h4.66Z" style="fill: #fff;"/>
        <path d="M388.71,107.73s-.03,.05-.02,.08c.01,.03,.04,.04,.08,.04h9.45c.32,0,.59,.11,.81,.34,.22,.22,.32,.47,.32,.77,0,1.16-.11,2.36-.34,3.61-.13,.78-.32,1.31-.57,1.57-.36,.42-.88,.66-1.55,.73-.32,.04-.77,.06-1.35,.06h-.14c-.31,0-.58-.1-.82-.31-.24-.21-.4-.47-.49-.8-.01-.08-.02-.16-.02-.22,0-.16,.05-.31,.14-.44,.12-.19,.3-.28,.52-.28h.04c.21,.01,.41,.02,.59,.02h.32c.32,0,.55-.07,.69-.22,.23-.24,.4-1.15,.5-2.73,.01-.11-.03-.16-.14-.16h-9.93c-.09,0-.18,.03-.26,.1-.15,.12-.36,.28-.63,.46-.03,.01-.04,.03-.03,.06,0,.03,.02,.04,.05,.04,.26,.08,.45,.24,.59,.46,.09,.15,.14,.3,.14,.46,0,.08-.01,.16-.04,.24-.24,.93-.54,1.69-.91,2.28-.16,.26-.4,.4-.71,.44-.08,.01-.16,.02-.24,.02-.22,0-.42-.05-.63-.16-.23-.13-.36-.33-.4-.58-.01-.07-.02-.13-.02-.2,0-.19,.05-.37,.16-.54,.28-.46,.52-.98,.71-1.55,.01-.03,.01-.05-.01-.07-.02-.02-.04-.02-.07-.01-.16,.11-.34,.21-.52,.3-.19,.09-.38,.14-.59,.14-.12,0-.24-.02-.36-.06-.32-.09-.59-.28-.81-.57-.12-.17-.18-.35-.18-.52,0-.08,0-.17,.02-.26,.08-.27,.26-.46,.53-.59,1.64-.71,2.95-1.61,3.92-2.68,.01-.01,.02-.03,.01-.06,0-.03-.03-.04-.07-.04h-.63c-.34,0-.62-.12-.85-.35-.23-.24-.34-.51-.34-.84v-4.2c0-.31,.11-.57,.34-.77,.19-.15,.4-.22,.63-.22,.07,0,.13,0,.2,.02h.04c.09,.01,.19,0,.28-.02,.86-.23,1.62-.46,2.26-.69,.19-.08,.38-.12,.57-.12,.11,0,.21,.01,.32,.04,.31,.05,.57,.19,.79,.4,.13,.13,.2,.29,.2,.46,0,.05,0,.11-.02,.16-.05,.24-.2,.4-.42,.48-.81,.27-1.76,.52-2.87,.75-.09,.01-.14,.07-.14,.18v.44c0,.11,.05,.16,.16,.16h2.44c.23,0,.42,.08,.58,.23,.15,.16,.23,.34,.23,.57s-.08,.41-.23,.58c-.15,.16-.35,.24-.58,.24h-2.44c-.11,0-.16,.05-.16,.14v.53c0,.11,.05,.16,.16,.16h8.12c.11,0,.16-.05,.16-.16v-.53c0-.09-.05-.14-.16-.14h-2.42c-.23,0-.42-.08-.58-.24-.15-.16-.23-.35-.23-.58s.08-.41,.23-.57c.15-.15,.35-.23,.58-.23h2.42c.11,0,.16-.05,.16-.16v-.53c0-.09-.05-.14-.16-.14h-2.77c-.22,0-.4-.08-.57-.24-.16-.16-.24-.36-.24-.58s.08-.42,.24-.59c.16-.16,.35-.24,.57-.24h3.96c.34,0,.62,.12,.85,.35s.34,.51,.34,.84v4.2c0,.32-.11,.6-.34,.84-.23,.24-.51,.35-.85,.35h-6.82c-.09,0-.17,.04-.22,.12-.15,.23-.32,.46-.5,.71Zm3.53-10.76c0,.09,.05,.14,.16,.14h6.36c.34,0,.62,.12,.85,.35s.34,.51,.34,.84v1.9c0,.32-.11,.6-.33,.82-.22,.22-.49,.33-.82,.33s-.6-.11-.82-.33c-.22-.22-.33-.5-.33-.82v-.83c0-.09-.05-.14-.16-.14h-13c-.11,0-.16,.05-.16,.14v.87c0,.31-.11,.57-.32,.79-.22,.22-.48,.32-.79,.32s-.57-.11-.79-.32c-.22-.21-.32-.48-.32-.79v-1.94c0-.32,.11-.6,.34-.84s.51-.35,.85-.35h6.34c.11,0,.16-.05,.16-.14v-.06c0-.34,.11-.62,.34-.85,.23-.23,.51-.34,.85-.34h.06c.34,0,.62,.12,.85,.34,.23,.23,.34,.51,.34,.85v.06Zm-4.58,14.58v-.18c0-.16,.05-.32,.14-.46,.13-.2,.32-.32,.57-.34h.14c.22,0,.41,.06,.59,.18,.23,.13,.38,.33,.44,.59,.15,.63,.26,1.23,.32,1.8v.12c0,.23-.07,.43-.22,.61-.19,.22-.42,.34-.71,.38h-.12c-.2,0-.39-.07-.56-.22-.2-.18-.31-.4-.32-.67-.05-.61-.14-1.2-.26-1.8Zm2.93-.04c-.04-.09-.06-.19-.06-.28,0-.12,.03-.24,.08-.34,.09-.21,.26-.35,.48-.4,.09-.01,.18-.02,.26-.02,.16,0,.32,.03,.46,.1,.23,.11,.4,.28,.5,.5,.2,.44,.36,.88,.48,1.29,.03,.09,.04,.18,.04,.26,0,.15-.05,.3-.14,.44-.13,.23-.33,.38-.59,.44-.08,.03-.16,.04-.24,.04-.15,0-.3-.05-.44-.14-.2-.12-.34-.31-.4-.56-.12-.43-.27-.88-.44-1.33Zm4.89-.36c.08,.13,.12,.27,.12,.4,0,.08-.01,.17-.04,.26-.09,.23-.26,.4-.48,.5-.12,.05-.24,.08-.36,.08-.11,0-.22-.02-.32-.06-.23-.09-.41-.25-.54-.46-.12-.19-.25-.38-.38-.58-.12-.17-.15-.37-.1-.58,.05-.21,.17-.35,.36-.43,.15-.07,.3-.1,.46-.1,.09,0,.18,0,.26,.02,.26,.05,.46,.18,.63,.38,.13,.19,.27,.38,.4,.57Z" style="fill: #fff;"/>
        <path d="M423.32,110.33c0,.32-.11,.6-.34,.84s-.51,.35-.85,.35h-2.22s-.04,0-.04,.02c0,.01,0,.03,.02,.04,1.59,.57,3.14,1.18,4.66,1.86,.2,.09,.3,.25,.29,.47,0,.22-.11,.37-.31,.45l-.63,.24c-.31,.12-.62,.18-.93,.18-.42,0-.83-.11-1.23-.32-.97-.48-2.05-.96-3.23-1.43-.22-.09-.33-.26-.35-.49-.02-.24,.07-.41,.27-.54l.71-.4s.02-.03,.02-.05c0-.02-.01-.03-.04-.03h-5.73s-.02,0-.03,.03c0,.02,0,.03,.01,.03l.67,.28c.24,.11,.36,.3,.36,.59,0,.23-.1,.4-.3,.5-1.23,.65-2.65,1.23-4.28,1.76-.19,.05-.38,.08-.56,.08-.16,0-.32-.02-.48-.06-.35-.09-.66-.27-.93-.53-.04-.05-.08-.1-.12-.14-.12-.12-.18-.26-.18-.42,0-.05,0-.12,.02-.18,.07-.24,.22-.39,.46-.44,1.76-.4,3.22-.88,4.38-1.43,.01,0,.02-.01,.02-.03,0-.02-.01-.03-.04-.03h-1.7c-.32,0-.6-.12-.84-.35s-.35-.51-.35-.84v-6.02c0-.32,.12-.6,.35-.84s.52-.35,.84-.35h2.99s.05-.01,.07-.04c.02-.03,.02-.05,.01-.08-.3-.55-.6-.98-.91-1.29,.01,.05,0,.09-.06,.1-1.78,.51-3.12,.9-4.04,1.17-.13,.03-.26,.04-.38,.04-.19,0-.38-.04-.56-.12-.3-.15-.51-.38-.65-.69-.05-.12-.08-.24-.08-.36,0-.15,.04-.3,.12-.44,.15-.27,.37-.43,.67-.48,.87-.19,2.08-.46,3.61-.83,.09-.03,.18-.04,.26-.04,.21,0,.42,.07,.61,.2,.26,.19,.4,.44,.42,.75l.06,.53c.01,.11,.07,.15,.16,.12,1.48-.24,2.56-.58,3.25-1.01,.69-.43,1.15-1,1.39-1.72,.01-.03,0-.06-.01-.09-.02-.03-.05-.05-.09-.05h-1.19c-.09,0-.17,.04-.24,.12-.24,.28-.49,.55-.75,.81-.22,.22-.48,.32-.81,.32h-.02c-.31,0-.59-.08-.85-.24-.24-.15-.36-.36-.36-.65,0-.21,.08-.4,.24-.54,.66-.58,1.22-1.22,1.68-1.94,.17-.28,.4-.5,.69-.65,.22-.12,.44-.18,.67-.18,.08,0,.16,0,.24,.02l.08,.02c.26,.04,.44,.17,.57,.4,.05,.11,.08,.22,.08,.32s-.03,.22-.1,.34c-.01,.03-.01,.05,0,.07,.01,.02,.03,.03,.06,.03h5.49c.73,0,1.28,.05,1.66,.14,.22,.05,.37,.18,.45,.38,.09,.2,.08,.4-.01,.58-.32,.59-.65,1.12-.97,1.58-.17,.24-.41,.41-.71,.5-.13,.04-.28,.06-.42,.06s-.3-.03-.44-.08c-.23-.07-.38-.21-.44-.44-.03-.08-.04-.16-.04-.24,0-.15,.04-.28,.12-.4,.05-.07,.1-.13,.14-.2,.01-.03,.01-.06,0-.09-.01-.03-.03-.05-.06-.05h-2s-.07,.02-.09,.05c-.02,.03-.02,.06,0,.09,.24,.65,.7,1.19,1.38,1.62s1.74,.78,3.18,1.02c.26,.05,.43,.2,.52,.42,.05,.11,.08,.21,.08,.3,0,.13-.04,.27-.12,.4-.19,.31-.44,.54-.75,.71-.2,.11-.41,.16-.63,.16-.11,0-.22-.01-.32-.04-.01,0-.03,0-.04-.02-.11-.01-.16,.03-.16,.12v6.7Zm-11.27-13.26c.27,.09,.44,.28,.52,.57,.04,.11,.06,.21,.06,.3,0,.16-.05,.32-.14,.48-.16,.26-.39,.43-.69,.52-.12,.03-.24,.04-.36,.04-.16,0-.33-.03-.5-.1-.73-.32-1.52-.63-2.38-.91-.24-.08-.4-.24-.48-.48-.03-.08-.04-.17-.04-.26,0-.13,.04-.26,.12-.38,.16-.25,.38-.44,.65-.54,.16-.07,.32-.1,.48-.1,.12,0,.24,.02,.36,.06,.83,.24,1.64,.51,2.4,.81Zm-.04,7.53c-.09,0-.14,.05-.14,.16v.58c0,.09,.05,.14,.14,.14h8.66c.09,0,.14-.05,.14-.14v-.58c0-.11-.05-.16-.14-.16h-8.66Zm0,2.28c-.09,0-.14,.05-.14,.14v.59c0,.11,.05,.16,.14,.16h8.66c.09,0,.14-.05,.14-.16v-.59c0-.09-.05-.14-.14-.14h-8.66Zm0,2.26c-.09,0-.14,.05-.14,.16v.61c0,.09,.05,.14,.14,.14h8.66c.09,0,.14-.05,.14-.14v-.61c0-.11-.05-.16-.14-.16h-8.66Zm3.37-6.06s-.02,0-.02,.02c0,.01,0,.02,.02,.02h6.62s.02,0,.03-.02c0-.01,0-.02-.01-.02-1.31-.5-2.28-1.18-2.93-2.06-.07-.08-.13-.08-.18,0-.73,.89-1.9,1.58-3.53,2.06Z" style="fill: #fff;"/>
        <path d="M439.62,107.55c.21,.26,.32,.57,.32,.93s-.11,.66-.32,.93l-.02,.02c-.16,.2-.36,.3-.59,.3-.03,0-.06,0-.1-.02-.27-.03-.47-.16-.61-.4-.28-.53-.57-1.02-.87-1.49-.01-.01-.03-.02-.05-.02s-.03,.01-.03,.04v5.98c0,.31-.11,.58-.33,.8-.22,.22-.49,.33-.8,.33s-.58-.11-.8-.33c-.22-.22-.33-.49-.33-.8v-6.02s0-.02-.03-.02-.03,0-.03,.02c-.55,1.58-1.12,2.88-1.7,3.92-.11,.19-.26,.28-.46,.28h-.08c-.23-.03-.4-.15-.5-.38-.05-.12-.11-.24-.16-.36-.13-.3-.2-.59-.2-.89,0-.38,.12-.76,.36-1.15,.75-1.21,1.41-2.62,1.98-4.24,.01-.03,.01-.06-.01-.09-.02-.03-.05-.05-.09-.05h-1.05c-.32,0-.6-.11-.82-.33-.22-.22-.33-.49-.33-.81s.11-.59,.33-.81c.22-.22,.49-.33,.82-.33h1.82c.11,0,.16-.05,.16-.16v-5.47c0-.31,.11-.58,.33-.8,.22-.22,.49-.33,.8-.33s.58,.11,.8,.33c.22,.22,.33,.49,.33,.8v5.47c0,.11,.05,.16,.16,.16h1.76c.31,0,.58,.11,.81,.33,.23,.22,.34,.49,.34,.81s-.11,.58-.34,.81c-.23,.22-.5,.33-.81,.33h-1.84c-.05,0-.08,.02-.08,.07s.02,.09,.06,.13c.46,.47,1.19,1.31,2.2,2.52Zm-5.01-6.82v.16c0,.2-.06,.4-.18,.59-.16,.21-.37,.36-.63,.42-.08,.03-.15,.04-.22,.04-.15,0-.3-.05-.44-.16-.2-.13-.32-.33-.34-.59-.12-.93-.32-1.91-.61-2.95-.01-.08-.02-.16-.02-.24,0-.15,.03-.29,.1-.42,.12-.22,.3-.36,.52-.42,.09-.01,.18-.02,.26-.02,.15,0,.3,.03,.44,.1,.22,.12,.36,.3,.44,.54,.28,.97,.5,1.95,.67,2.95Zm3.94-2.85c.05-.28,.2-.5,.42-.67,.17-.12,.36-.18,.56-.18,.07,0,.14,0,.22,.02,.28,.07,.49,.22,.63,.46,.09,.15,.14,.3,.14,.46,0,.11-.02,.21-.06,.3-.46,1.44-.8,2.46-1.03,3.07-.08,.21-.22,.37-.42,.46-.13,.07-.27,.1-.4,.1-.08,0-.16-.01-.24-.04-.22-.05-.37-.18-.47-.37-.1-.2-.12-.39-.07-.6,.27-.94,.51-1.95,.73-3.03Zm12.56,9.91c.01,.07,.02,.13,.02,.2,0,.24-.07,.47-.22,.69-.19,.26-.44,.41-.75,.46l-1.19,.22c-.09,.03-.14,.09-.14,.18v4.28c0,.31-.11,.58-.34,.81-.23,.23-.5,.34-.83,.34s-.6-.11-.82-.34c-.22-.23-.33-.5-.33-.81v-3.86c0-.11-.05-.15-.16-.14l-4.46,.81c-.08,.01-.15,.02-.22,.02-.23,0-.44-.07-.65-.2-.26-.19-.41-.44-.46-.77-.01-.07-.02-.13-.02-.2,0-.23,.07-.45,.22-.67,.19-.25,.44-.42,.75-.48l4.85-.85c.11-.03,.16-.09,.16-.18v-10.48c0-.32,.11-.6,.33-.82,.22-.22,.49-.33,.82-.33s.6,.11,.83,.33c.23,.22,.34,.5,.34,.82v10.05c0,.11,.05,.15,.14,.12l.81-.14c.08-.01,.15-.02,.22-.02,.23,0,.44,.07,.65,.2,.26,.19,.41,.44,.46,.75Zm-9.63-3.55c-.24-.16-.39-.38-.44-.67-.03-.08-.04-.16-.04-.24,0-.19,.06-.37,.18-.54,.16-.26,.38-.42,.67-.49,.09-.03,.19-.04,.28-.04,.19,0,.37,.05,.55,.16,.61,.36,1.16,.73,1.66,1.11,.27,.2,.43,.46,.48,.79v.22c0,.26-.07,.49-.2,.71-.16,.26-.39,.4-.69,.44h-.14c-.24,0-.46-.08-.65-.24-.5-.4-1.05-.81-1.66-1.21Zm3.71-5.69c.26,.2,.4,.46,.42,.79v.14c0,.27-.08,.52-.24,.75-.16,.24-.38,.37-.67,.38h-.08c-.26,0-.47-.09-.65-.26-.46-.4-1-.83-1.62-1.29-.23-.17-.36-.4-.4-.67-.01-.05-.02-.11-.02-.18,0-.2,.06-.39,.18-.56,.17-.24,.4-.39,.67-.44,.08-.01,.15-.02,.22-.02,.2,0,.39,.06,.57,.18,.62,.4,1.16,.8,1.62,1.19Z" style="fill: #fff;"/>
        <path d="M475.08,108.13c.32,0,.6,.11,.82,.33,.22,.22,.33,.49,.33,.81s-.11,.59-.33,.82c-.22,.23-.49,.34-.82,.34h-4.32s-.02,0-.03,.02,0,.03,.01,.04c1.76,.85,3.24,1.6,4.42,2.26,.26,.13,.38,.35,.38,.65,0,.27-.11,.48-.32,.63l-.46,.32c-.3,.2-.63,.3-.99,.3h-.02c-.35,0-.67-.09-.97-.28-1.2-.74-2.41-1.43-3.63-2.06-.26-.13-.4-.34-.42-.63-.01-.04-.02-.08-.02-.12,0-.23,.09-.42,.28-.58l.5-.44s.02-.05,.01-.07c0-.02-.02-.03-.05-.03h-5.9s-.04,.01-.05,.03c0,.02,0,.04,.01,.05l.75,.54c.23,.16,.34,.38,.34,.67,0,.3-.13,.53-.38,.69-1.21,.74-2.52,1.44-3.92,2.1-.23,.11-.46,.16-.69,.16-.11,0-.22-.01-.32-.04-.35-.07-.66-.22-.93-.46-.04-.03-.09-.06-.14-.1-.16-.15-.24-.32-.24-.53,0-.04,0-.09,.02-.14,.04-.25,.18-.44,.42-.54,1.6-.71,2.99-1.49,4.18-2.34,.03-.01,.04-.03,.03-.05,0-.02-.02-.03-.05-.03h-4.2c-.32,0-.6-.11-.82-.34s-.33-.5-.33-.82,.11-.59,.33-.81c.22-.22,.49-.33,.82-.33h.63c.09,0,.14-.05,.14-.14l-.28-9.75c-.01-.3,.09-.53,.32-.71,.16-.13,.34-.2,.54-.2,.08,0,.16,.01,.24,.04l.08,.02c.09,.03,.19,.01,.28-.04,.46-.26,.9-.52,1.33-.79,.26-.17,.53-.26,.83-.26h.12c.35,.03,.65,.16,.89,.4l.61,.57s.03,.03,.06,.02,.04-.03,.04-.06v-.24c0-.3,.1-.54,.3-.75,.2-.2,.45-.3,.74-.3s.54,.1,.75,.3,.31,.45,.31,.75v.63c0,.09,.05,.14,.14,.14h2c.28,0,.52,.1,.72,.3,.2,.2,.29,.44,.29,.73s-.1,.52-.29,.72-.43,.29-.72,.29h-2c-.09,0-.14,.05-.14,.16v1.09c0,.09,.05,.14,.14,.14h1.74c.34,0,.62,.12,.85,.35s.34,.51,.34,.84v5.61c0,.09,.05,.14,.16,.14h2.26c.09,0,.14-.05,.14-.14,.01-.32,.05-.78,.1-1.37,0-.11-.05-.16-.14-.16h-.81c-.28,0-.52-.1-.72-.29-.2-.2-.29-.43-.29-.72s.1-.52,.29-.72c.19-.2,.43-.29,.72-.29h.89c.09,0,.15-.05,.16-.16,.01-.61,.03-1.09,.04-1.45,0-.09-.05-.14-.14-.14h-.93c-.28,0-.52-.1-.72-.3-.2-.2-.29-.44-.29-.72s.1-.51,.29-.72c.19-.2,.43-.3,.72-.3h.97c.09,0,.15-.05,.16-.14v-1.33c0-.09-.05-.14-.14-.14h-1.19c-.28,0-.53-.1-.74-.31-.21-.21-.31-.46-.31-.76s.1-.55,.31-.76c.21-.21,.45-.31,.74-.31h2.42c.34,0,.62,.11,.85,.34,.23,.23,.34,.5,.34,.83,0,3.5-.09,6.81-.28,9.93,0,.09,.05,.14,.14,.14h.69Zm-13.63-1.7c-.09,0-.14,.05-.14,.16l.06,1.39c0,.09,.05,.14,.14,.14h2.52c.09,0,.14-.05,.14-.14v-3.21c0-.27,.09-.5,.28-.69,.19-.19,.42-.28,.69-.28s.5,.09,.69,.28c.19,.19,.28,.42,.28,.69v3.21c0,.09,.05,.14,.16,.14h.87c.11,0,.16-.05,.16-.14v-4.72c0-.11-.05-.16-.16-.16h-1.74c-.32,0-.6-.11-.84-.34-.24-.23-.35-.51-.35-.85v-3.96s-.01-.07-.04-.09c-.03-.02-.06-.02-.1,0-1.01,.48-1.95,.9-2.83,1.25-.11,.04-.16,.11-.14,.2l.02,1.19c.01,.09,.07,.14,.16,.14h1.17c.28,0,.52,.1,.72,.3,.2,.2,.29,.44,.29,.72s-.1,.51-.29,.72c-.19,.2-.43,.3-.72,.3h-1.11c-.09,0-.14,.05-.14,.14l.02,1.43c.01,.11,.07,.16,.16,.16h1.07c.28,0,.52,.1,.72,.29,.2,.2,.29,.43,.29,.72s-.1,.52-.29,.72c-.19,.2-.43,.29-.72,.29h-1.01Z" style="fill: #fff;"/>
        <path d="M486.68,96.91c.13-.31,.35-.54,.65-.69,.17-.08,.35-.12,.52-.12,.13,0,.27,.02,.4,.06l.16,.06c.31,.09,.53,.29,.67,.59,.07,.15,.1,.3,.1,.44s-.03,.29-.1,.42c-.44,1.05-.92,2.03-1.41,2.95-.05,.09-.08,.19-.08,.28v12.86c0,.32-.12,.6-.35,.84-.24,.24-.51,.35-.84,.35h-.14c-.32,0-.6-.12-.84-.35-.24-.24-.35-.52-.35-.84v-9s-.01-.05-.04-.06-.05,0-.06,.02c-.17,.22-.36,.43-.54,.65-.16,.19-.35,.28-.57,.28-.05,0-.1,0-.14-.02-.28-.04-.49-.19-.63-.44-.09-.16-.19-.32-.28-.48-.15-.24-.22-.5-.22-.79,0-.05,0-.11,.02-.18,.03-.34,.15-.64,.38-.91,1.49-1.67,2.73-3.64,3.69-5.92Zm13.69,3.23c.34,0,.62,.11,.85,.34,.23,.23,.34,.51,.34,.85v.1c0,.32-.11,.6-.34,.84-.23,.24-.51,.35-.85,.35h-.93c-.09,0-.14,.05-.14,.14v9.25c0,.78-.1,1.36-.31,1.75-.21,.38-.56,.67-1.06,.86-.71,.27-1.93,.4-3.65,.4-.34,0-.65-.1-.93-.3-.27-.21-.47-.49-.61-.83-.03-.08-.05-.16-.08-.24-.04-.09-.06-.19-.06-.28,0-.15,.04-.29,.12-.42,.13-.21,.33-.32,.59-.32h.02c.69,.01,1.27,.02,1.74,.02,.4,0,.73,0,.97-.02,.26,0,.44-.04,.54-.13s.16-.25,.16-.47v-9.25c0-.09-.05-.14-.16-.14h-6.54c-.32,0-.6-.12-.84-.35-.24-.24-.35-.51-.35-.84v-.1c0-.34,.12-.62,.35-.85,.24-.23,.51-.34,.84-.34h6.54c.11,0,.16-.05,.16-.16v-2.87c0-.34,.11-.62,.34-.85,.23-.23,.51-.34,.85-.34h.18c.32,0,.6,.11,.84,.34,.24,.23,.35,.51,.35,.85v2.87c0,.11,.05,.16,.14,.16h.93Zm-6.14,7.69c.11,.18,.16,.36,.16,.54,0,.12-.02,.24-.06,.34-.09,.32-.29,.56-.59,.71l-.24,.12c-.16,.08-.33,.12-.5,.12-.12,0-.25-.03-.38-.08-.3-.11-.52-.3-.67-.59-.39-.77-.92-1.72-1.57-2.87-.09-.16-.14-.34-.14-.53,0-.11,.01-.22,.04-.34,.11-.3,.3-.51,.59-.65l.02-.02c.19-.08,.38-.12,.57-.12,.13,0,.27,.02,.4,.06,.32,.09,.57,.29,.75,.59,.74,1.2,1.29,2.1,1.64,2.71Z" style="fill: #fff;"/>
        <path d="M517.35,106.59c.2,.2,.3,.43,.3,.72s-.1,.52-.3,.72c-.2,.2-.44,.29-.73,.29h-2.69c-.11,0-.16,.05-.16,.16v4.22c0,.55-.06,.97-.17,1.26-.11,.29-.33,.51-.66,.68-.38,.19-.88,.31-1.51,.36h-.08c-.28,0-.53-.09-.75-.28-.26-.2-.43-.46-.52-.79-.03-.08-.04-.16-.04-.24,0-.16,.05-.31,.14-.44,.15-.21,.35-.32,.61-.32h.42c.11,0,.18-.02,.21-.06,.03-.04,.05-.11,.05-.22v-4.16c0-.11-.05-.16-.14-.16h-2.83c-.28,0-.52-.1-.72-.29-.19-.2-.29-.43-.29-.72s.1-.52,.29-.72c.2-.2,.43-.29,.72-.29h8.12c.28,0,.52,.1,.73,.29Zm-8.84,3.14c.08-.28,.24-.5,.46-.67,.19-.12,.38-.18,.59-.18h.18c.28,.05,.5,.2,.67,.42,.11,.16,.16,.34,.16,.52,0,.08,0,.16-.02,.24-.27,1.01-.61,1.92-1.01,2.73-.13,.24-.34,.4-.63,.46-.09,.03-.19,.04-.28,.04-.19,0-.36-.04-.52-.12-.23-.12-.38-.31-.46-.57-.03-.09-.04-.19-.04-.28,0-.16,.04-.32,.12-.46,.32-.61,.59-1.32,.79-2.14Zm2.81-9.33c.09,0,.14-.05,.14-.14v-.77c0-.09-.05-.14-.14-.14h-2.54c-.28,0-.52-.1-.72-.29-.2-.2-.29-.43-.29-.71s.1-.51,.29-.71c.19-.2,.43-.29,.72-.29h2.54c.09,0,.14-.05,.14-.16v-.22c0-.32,.11-.6,.34-.82s.5-.33,.82-.33,.59,.11,.81,.33,.33,.49,.33,.82v.22c0,.11,.05,.16,.16,.16h2.48c.27,0,.5,.1,.7,.29,.19,.2,.29,.43,.29,.71s-.1,.51-.29,.71c-.2,.2-.43,.29-.7,.29h-2.48c-.11,0-.16,.05-.16,.14v.77c0,.09,.05,.14,.16,.14h2.04c.27,0,.5,.1,.7,.29,.19,.2,.29,.43,.29,.71s-.1,.51-.29,.7c-.2,.19-.43,.28-.7,.28h-6.7c-.28,0-.52-.09-.71-.28s-.28-.42-.28-.7,.09-.51,.28-.71,.42-.29,.71-.29h2.06Zm11.73,1.25c-.09,0-.14,.05-.14,.14v2.02c0,.53,.05,1.1,.14,1.74s.26,1.33,.48,2.1c.23,.77,.57,1.54,1.01,2.33s.97,1.48,1.57,2.09c.23,.24,.36,.53,.4,.85,.01,.05,.02,.11,.02,.16,0,.25-.08,.5-.24,.73-.04,.07-.08,.13-.12,.2-.19,.27-.44,.42-.75,.46-.05,.01-.11,.02-.16,.02-.24,0-.46-.09-.65-.28-.78-.81-1.41-1.78-1.9-2.93-.48-1.14-.81-2.2-.99-3.17,0-.01,0-.02-.02-.02s-.02,0-.02,.02c-.16,.97-.53,2.03-1.1,3.17-.57,1.14-1.32,2.14-2.25,2.99-.19,.15-.39,.22-.61,.22-.07,0-.14,0-.22-.02-.3-.07-.54-.24-.73-.5-.01-.01-.03-.03-.04-.06-.13-.21-.2-.44-.2-.69,0-.07,0-.13,.02-.2,.04-.31,.18-.58,.42-.81,.69-.61,1.28-1.31,1.78-2.1,.5-.79,.86-1.59,1.1-2.38s.4-1.51,.5-2.14c.1-.63,.15-1.22,.15-1.78v-2.02c0-.09-.05-.14-.16-.14h-.08c-.11,0-.17,.05-.2,.14-.31,1.08-.68,2.03-1.11,2.87-.13,.27-.35,.43-.65,.49h-.2c-.23,0-.44-.07-.63-.22-.2-.15-.4-.28-.59-.4-.05-.04-.08-.03-.08,.04,0,.22-.08,.4-.23,.56-.15,.15-.34,.23-.56,.23h-6.66c-.27,0-.5-.1-.7-.29-.2-.19-.29-.43-.29-.71s.1-.51,.29-.7c.19-.19,.43-.28,.7-.28h7.29c.11,0,.18-.05,.22-.14,.78-1.53,1.37-3.66,1.76-6.38,.05-.32,.21-.58,.46-.79,.21-.16,.45-.24,.71-.24,.05,0,.11,0,.16,.02h.1c.34,.04,.61,.2,.81,.46,.15,.22,.22,.44,.22,.69v.2c-.12,.74-.25,1.43-.38,2.08-.03,.09,.01,.14,.12,.14h3.92c.09-.03,.19-.04,.3-.04,.12,0,.24,.01,.34,.04l.5,.14c.23,.05,.41,.18,.54,.38,.11,.16,.16,.34,.16,.53v.14c-.22,1.48-.45,2.81-.71,3.98-.05,.27-.2,.47-.44,.61-.15,.08-.3,.12-.46,.12-.09,0-.19-.01-.28-.04-.27-.08-.48-.24-.63-.49-.12-.19-.18-.39-.18-.61,0-.07,0-.13,.02-.2,.09-.66,.18-1.39,.26-2.18,.01-.09-.03-.14-.12-.14h-1.03Zm-8.3,8.64c-.05-.13-.08-.26-.08-.38s.03-.24,.08-.36c.09-.24,.26-.41,.5-.5,.13-.05,.27-.08,.4-.08,.12,0,.25,.02,.38,.06,.26,.09,.45,.27,.59,.53,.17,.36,.33,.71,.46,1.05,.05,.13,.08,.26,.08,.38,0,.15-.03,.29-.1,.42-.13,.27-.34,.46-.61,.58-.12,.05-.24,.08-.36,.08-.13,0-.27-.03-.4-.1-.24-.12-.41-.31-.5-.57-.13-.38-.28-.75-.44-1.11Z" style="fill: #fff;"/>
      </g>
      <g>
        <path d="M702.73,112.45h2.06c.27,0,.46-.08,.57-.25,.11-.17,.18-.51,.22-1.04,.03-.27,.15-.46,.38-.59,.13-.08,.28-.12,.42-.12,.11,0,.21,.02,.32,.06l.02,.02c.34,.13,.6,.34,.79,.63,.15,.23,.22,.46,.22,.71,0,.07,0,.14-.02,.22-.16,1-.44,1.68-.84,2.05-.4,.37-1.02,.56-1.87,.56h-2.65c-1.18,0-1.98-.21-2.38-.62-.4-.41-.61-1.19-.61-2.33v-4.04c0-.11-.05-.16-.14-.16h-2.38c-.11,0-.17,.05-.18,.16-.11,.88-.26,1.63-.46,2.27-.2,.64-.5,1.27-.91,1.88s-.95,1.15-1.65,1.62c-.69,.47-1.54,.88-2.55,1.21-.13,.05-.27,.08-.4,.08-.19,0-.37-.04-.54-.12-.31-.15-.56-.37-.75-.67-.04-.07-.09-.13-.14-.2-.09-.16-.14-.32-.14-.48s.05-.31,.15-.45,.24-.24,.41-.29c.81-.24,1.48-.52,2.03-.84,.55-.32,.97-.69,1.27-1.12,.3-.43,.52-.87,.67-1.3,.14-.44,.25-.97,.33-1.58,.01-.11-.03-.16-.12-.16h-3.59c-.32,0-.6-.11-.83-.33-.23-.22-.34-.5-.34-.82s.11-.6,.34-.82c.23-.22,.5-.33,.83-.33h16.09c.32,0,.6,.11,.83,.33,.23,.22,.34,.5,.34,.82s-.11,.6-.34,.82c-.23,.22-.5,.33-.83,.33h-4.34c-.11,0-.16,.05-.16,.16v4c0,.34,.05,.54,.15,.63,.1,.08,.34,.12,.72,.12Zm-10.6-12.46c-.09,0-.14,.05-.14,.14v1.25c0,.32-.12,.6-.35,.84-.24,.24-.51,.35-.84,.35h-.12c-.34,0-.62-.12-.85-.35s-.34-.51-.34-.84v-2.5c0-.32,.11-.6,.34-.84,.23-.24,.51-.35,.85-.35h6.12c.09,0,.14-.05,.14-.16v-.63c0-.34,.12-.62,.35-.85,.24-.23,.51-.34,.84-.34h.22c.34,0,.62,.12,.85,.34s.34,.51,.34,.85v.63c0,.11,.05,.16,.16,.16h6.24c.34,0,.62,.12,.85,.35,.23,.24,.34,.52,.34,.84v2.5c0,.32-.11,.6-.34,.84-.23,.24-.51,.35-.85,.35h-.24c-.32,0-.6-.12-.84-.35-.24-.24-.35-.51-.35-.84v-1.25c0-.09-.05-.14-.14-.14h-12.24Zm11.12,1.85c.21,.22,.32,.49,.32,.8s-.11,.57-.32,.79-.48,.32-.79,.32h-8.42c-.31,0-.57-.11-.79-.32-.22-.21-.32-.48-.32-.79s.11-.58,.32-.8c.21-.22,.48-.33,.79-.33h8.42c.31,0,.57,.11,.79,.33Z" style="fill: #604c3f;"/>
        <path d="M730.31,103.41c.11-.31,.31-.55,.61-.71,.19-.12,.39-.18,.61-.18,.09,0,.19,.01,.3,.04l.14,.04c.32,.08,.56,.26,.71,.54,.09,.16,.14,.33,.14,.5,0,.12-.02,.24-.06,.36-.79,2.17-1.82,4.11-3.09,5.83-.05,.08-.07,.17-.04,.26,.62,1.48,1.24,2.22,1.88,2.22,.39,0,.65-.81,.79-2.42,.01-.24,.13-.41,.34-.5,.09-.04,.18-.06,.26-.06,.13,0,.26,.04,.36,.12,.04,.03,.08,.05,.12,.08,.31,.2,.55,.46,.73,.77,.13,.23,.2,.47,.2,.73,0,.08,0,.16-.02,.24-.22,1.37-.55,2.31-1,2.81-.45,.5-1.11,.75-1.99,.75-1.33,0-2.48-.87-3.43-2.6-.05-.08-.11-.09-.18-.02-.74,.75-1.53,1.43-2.38,2.04-.22,.15-.44,.22-.69,.22-.08,0-.15,0-.22-.02-.34-.05-.61-.21-.83-.46-.07-.08-.14-.16-.22-.24-.16-.19-.24-.4-.24-.63v-.14c.04-.3,.19-.53,.44-.71,1.14-.74,2.17-1.62,3.09-2.62,.07-.07,.09-.15,.06-.24-.62-2.14-1.08-4.82-1.37-8.04,0-.11-.05-.16-.16-.16h-5.69c-.09,0-.14,.05-.14,.16v1.9c0,.11,.05,.16,.14,.16h3.78c.32,0,.6,.11,.83,.34,.21,.23,.32,.5,.32,.83,0,1.82-.06,3.38-.18,4.68-.08,.94-.24,1.56-.46,1.86-.32,.44-.8,.72-1.43,.83-.27,.04-.67,.06-1.19,.06-.32,0-.61-.11-.87-.32-.26-.23-.43-.51-.52-.85,0-.01,0-.03-.02-.04-.01-.08-.02-.16-.02-.24,0-.16,.05-.32,.14-.46,.15-.22,.34-.32,.59-.32h.02c.24,.01,.44,.02,.61,.02,.28,0,.48-.08,.61-.24,.17-.25,.3-1.5,.36-3.74,0-.11-.05-.16-.16-.16h-2.38c-.09,0-.15,.05-.16,.16-.11,3.59-.65,6.39-1.62,8.38-.12,.27-.34,.42-.65,.46-.05,.01-.11,.02-.16,.02-.24,0-.46-.09-.65-.26-.08-.05-.16-.11-.24-.18-.26-.2-.42-.46-.5-.79-.03-.12-.04-.24-.04-.36,0-.19,.04-.38,.12-.58,.78-1.74,1.17-4.31,1.17-7.71v-4.85c0-.32,.11-.6,.34-.84,.23-.24,.51-.35,.85-.35h7.09c.09,0,.14-.05,.14-.14-.04-1-.06-1.58-.06-1.76,0-.31,.11-.58,.34-.81s.5-.34,.83-.34h.2c.34,0,.62,.12,.85,.34,.23,.23,.34,.51,.34,.85,0,.53,.01,1.1,.04,1.72,0,.09,.05,.14,.16,.14h2.87s.03,0,.04-.03c.01-.02,0-.04-.02-.05-.43-.35-.98-.73-1.64-1.15-.23-.15-.36-.36-.38-.63v-.1c0-.21,.08-.4,.24-.57,.21-.23,.48-.36,.79-.4,.07-.01,.13-.02,.2-.02,.24,0,.46,.06,.67,.18,.55,.32,1.06,.65,1.53,.97,.28,.2,.42,.48,.42,.85,0,.3-.11,.55-.32,.77l-.06,.08s-.03,.03-.02,.06c.01,.03,.03,.04,.06,.04h.81c.32,0,.6,.12,.84,.35s.35,.51,.35,.84v.06c0,.34-.12,.62-.35,.85-.24,.23-.51,.34-.84,.34h-5.05c-.09,0-.14,.05-.14,.16,.19,1.93,.45,3.71,.79,5.35,0,.03,.01,.04,.04,.05,.03,0,.05,0,.06-.03,.62-1.06,1.14-2.17,1.55-3.33Z" style="fill: #604c3f;"/>
        <path d="M742.56,101.05c-.27,0-.5-.09-.69-.28-.19-.19-.28-.42-.28-.69s.09-.5,.28-.69c.19-.19,.42-.28,.69-.28h6.5c.27,0,.5,.09,.7,.28,.19,.19,.29,.42,.29,.69s-.1,.5-.29,.69c-.2,.19-.43,.28-.7,.28h-6.5Zm5.41,6.62c.32,0,.6,.11,.84,.34,.24,.23,.35,.51,.35,.85v3.86c0,.32-.12,.6-.35,.84-.24,.24-.51,.35-.84,.35h-3.23c-.07,0-.1,.03-.1,.08,0,.2-.07,.37-.2,.51-.13,.14-.3,.21-.5,.21h-.34c-.3,0-.55-.1-.76-.31-.21-.21-.31-.46-.31-.76v-4.79c0-.34,.11-.62,.34-.85,.23-.23,.51-.34,.85-.34h4.26Zm-4.44-3.82c-.27,0-.49-.09-.68-.27s-.27-.4-.27-.67,.09-.48,.27-.67,.41-.27,.68-.27h4.75c.26,0,.48,.09,.67,.27s.28,.4,.28,.67-.09,.48-.28,.67-.41,.27-.67,.27h-4.75Zm-.02,2.79c-.26,0-.47-.09-.66-.26s-.27-.39-.27-.65,.09-.47,.27-.66,.4-.27,.66-.27h4.79c.26,0,.47,.09,.66,.27s.27,.4,.27,.66-.09,.47-.27,.65-.4,.26-.66,.26h-4.79Zm4.83-10.32c.26,0,.47,.09,.66,.27,.18,.18,.27,.4,.27,.67s-.09,.48-.27,.67c-.18,.18-.4,.27-.66,.27h-4.7c-.26,0-.47-.09-.66-.27s-.27-.4-.27-.67,.09-.48,.27-.67,.4-.27,.66-.27h4.7Zm-1.33,13.43c0-.09-.05-.14-.14-.14h-2.06c-.11,0-.16,.05-.16,.14v2.08c0,.11,.05,.16,.16,.16h2.06c.09,0,.14-.05,.14-.16v-2.08Zm12.74-12.42c.32,0,.6,.12,.83,.34s.34,.5,.34,.83-.11,.6-.34,.83c-.23,.23-.5,.34-.83,.34h-2.22c-.11,0-.16,.05-.16,.16v12.26c0,.7-.08,1.23-.25,1.6-.17,.37-.46,.66-.88,.86-.58,.26-1.52,.4-2.83,.42h-.02c-.34,0-.63-.11-.89-.32-.27-.21-.46-.49-.59-.83-.03-.08-.05-.17-.08-.26-.04-.09-.06-.19-.06-.28,0-.15,.05-.29,.16-.42,.15-.23,.35-.34,.61-.34h.02c.42,.01,.77,.02,1.07,.02s.53,0,.71-.02c.19,0,.32-.03,.4-.1,.08-.07,.12-.18,.12-.34v-12.24c0-.11-.05-.16-.14-.16h-3.19c-.32,0-.6-.11-.83-.34-.23-.23-.34-.5-.34-.83s.11-.6,.34-.83,.5-.34,.83-.34h8.22Z" style="fill: #604c3f;"/>
        <path d="M785.86,110.27c.3,0,.55,.1,.76,.3,.21,.2,.31,.45,.31,.74s-.1,.54-.31,.75c-.21,.21-.46,.31-.76,.31h-6.82c-.11,0-.16,.05-.16,.16v1.27c0,.34-.11,.62-.34,.85-.23,.23-.51,.34-.85,.34h-.14c-.32,0-.6-.11-.84-.34-.24-.23-.35-.51-.35-.85v-1.27c0-.11-.05-.16-.14-.16h-6.64c-.3,0-.55-.1-.76-.31-.21-.21-.31-.46-.31-.75s.1-.54,.31-.74c.21-.2,.46-.3,.76-.3h6.64c.09,0,.14-.05,.14-.16v-.77c0-.11-.05-.16-.14-.16h-4.54c-.34,0-.62-.11-.85-.34-.23-.23-.34-.51-.34-.85v-5.37c0-.32,.11-.6,.34-.84,.23-.24,.51-.35,.85-.35h12.28c.32,0,.6,.12,.84,.35,.24,.24,.35,.51,.35,.84v5.37c0,.34-.12,.62-.35,.85-.24,.23-.51,.34-.84,.34h-4.91c-.11,0-.16,.05-.16,.16v.77c0,.11,.05,.16,.16,.16h6.82Zm-9.95-13.77c.34,0,.62,.11,.85,.34,.23,.23,.34,.51,.34,.85v1.74c0,.34-.11,.62-.34,.85-.23,.23-.51,.34-.85,.34h-4.99c-.34,0-.62-.11-.85-.34-.23-.23-.34-.51-.34-.85v-1.74c0-.34,.11-.62,.34-.85,.23-.23,.51-.34,.85-.34h4.99Zm-1.25,2.67c.11,0,.16-.05,.16-.16v-.89c0-.11-.05-.16-.16-.16h-2.58c-.11,0-.16,.05-.16,.16v.89c0,.11,.05,.16,.16,.16h2.58Zm-1.64,4.18c-.11,0-.16,.05-.16,.14v.79c0,.11,.05,.16,.16,.16h3.19c.09,0,.14-.05,.14-.16v-.79c0-.09-.05-.14-.14-.14h-3.19Zm-.16,3.82c0,.09,.05,.14,.16,.14h3.19c.09,0,.14-.05,.14-.14v-.83c0-.09-.05-.14-.14-.14h-3.19c-.11,0-.16,.05-.16,.14v.83Zm11.73-10.66c.34,0,.62,.11,.85,.34,.23,.23,.34,.51,.34,.85v1.74c0,.34-.11,.62-.34,.85-.23,.23-.51,.34-.85,.34h-5.03c-.34,0-.62-.11-.85-.34s-.34-.51-.34-.85v-1.74c0-.34,.11-.62,.34-.85,.23-.23,.51-.34,.85-.34h5.03Zm-2.14,7.93c.11,0,.16-.05,.16-.16v-.79c0-.09-.05-.14-.16-.14h-3.41c-.11,0-.16,.05-.16,.14v.79c0,.11,.05,.16,.16,.16h3.41Zm0,2.87c.11,0,.16-.05,.16-.14v-.83c0-.09-.05-.14-.16-.14h-3.41c-.11,0-.16,.05-.16,.14v.83c0,.09,.05,.14,.16,.14h3.41Zm.89-8.14c.11,0,.16-.05,.16-.16v-.89c0-.11-.05-.16-.16-.16h-2.64c-.11,0-.16,.05-.16,.16v.89c0,.11,.05,.16,.16,.16h2.64Z" style="fill: #604c3f;"/>
      </g>
    </g>
  </g>
</svg>