<?xml version="1.0" encoding="UTF-8"?>
<svg id="b" data-name="圖層 2" xmlns="http://www.w3.org/2000/svg" width="1247.21" height="83.7" viewBox="0 0 1247.21 83.7">
  <g id="c" data-name="TEXT">
    <g style="opacity: .7;">
      <g>
        <path d="M62,71.94c-6.56,7.51-15.17,11.26-25.83,11.26s-19.27-3.75-25.83-11.26C3.78,64.44,.5,54.3,.5,41.53S3.76,18.74,10.29,11.44C16.81,4.15,25.44,.5,36.17,.5s19.36,3.65,25.88,10.94c6.52,7.3,9.79,17.33,9.79,30.09s-3.28,22.9-9.84,30.41Zm-39.93-10.1c3.51,5.05,8.22,7.58,14.15,7.58s10.64-2.53,14.15-7.58c3.51-5.05,5.26-11.82,5.26-20.31s-1.75-15.17-5.26-20.04c-3.51-4.88-8.24-7.31-14.21-7.31s-10.68,2.44-14.15,7.31c-3.47,4.88-5.21,11.56-5.21,20.04s1.75,15.26,5.26,20.31Z" style="fill: none; stroke: #e8ded4; stroke-miterlimit: 10;"/>
        <path d="M91.46,81.73c-1.68,0-3.14-.61-4.37-1.84-1.23-1.23-1.84-2.68-1.84-4.37V8.18c0-1.68,.61-3.14,1.84-4.37,1.23-1.23,2.68-1.84,4.37-1.84h3.89c1.89,0,3.66,.49,5.31,1.47,1.65,.98,2.93,2.32,3.84,4l20.2,37.04,7.89,16.94c.07,.21,.19,.32,.37,.32s.26-.1,.26-.32c-1.4-12.91-2.1-22.13-2.1-27.67V8.18c0-1.68,.61-3.14,1.84-4.37,1.23-1.23,2.68-1.84,4.37-1.84h2.74c1.68,0,3.14,.61,4.37,1.84,1.23,1.23,1.84,2.68,1.84,4.37V75.52c0,1.68-.61,3.14-1.84,4.37-1.23,1.23-2.68,1.84-4.37,1.84h-3.79c-1.89,0-3.67-.49-5.31-1.47-1.65-.98-2.93-2.32-3.84-4l-20.1-37.25-8-16.83c-.07-.14-.19-.21-.37-.21s-.26,.07-.26,.21c.14,1.05,.35,3.19,.63,6.42,.28,3.23,.49,5.7,.63,7.42,.14,1.72,.3,3.91,.47,6.58,.17,2.67,.26,5.05,.26,7.16v25.78c0,1.68-.62,3.14-1.84,4.37-1.23,1.23-2.68,1.84-4.37,1.84h-2.74Z" style="fill: none; stroke: #e8ded4; stroke-miterlimit: 10;"/>
        <path d="M169.9,81.73c-1.68,0-3.14-.61-4.37-1.84-1.23-1.23-1.84-2.68-1.84-4.37V8.18c0-1.68,.61-3.14,1.84-4.37,1.23-1.23,2.68-1.84,4.37-1.84h36.51c1.75,0,3.23,.61,4.42,1.84,1.19,1.23,1.79,2.68,1.79,4.37v.84c0,1.75-.6,3.23-1.79,4.42-1.19,1.19-2.67,1.79-4.42,1.79h-25.99c-.49,0-.74,.28-.74,.84v16.83c0,.49,.24,.74,.74,.74h21.04c1.68,0,3.14,.61,4.37,1.84,1.23,1.23,1.84,2.68,1.84,4.37v.95c0,1.75-.62,3.23-1.84,4.42-1.23,1.19-2.68,1.79-4.37,1.79h-21.04c-.49,0-.74,.28-.74,.84v19.78c0,.49,.24,.74,.74,.74h27.15c1.75,0,3.22,.61,4.42,1.84,1.19,1.23,1.79,2.68,1.79,4.37v.95c0,1.68-.6,3.14-1.79,4.37-1.19,1.23-2.67,1.84-4.42,1.84h-37.67Z" style="fill: none; stroke: #e8ded4; stroke-miterlimit: 10;"/>
        <path d="M282.48,83.2c-5.05,0-9.77-.89-14.15-2.68-4.38-1.79-8.24-4.38-11.57-7.79-3.33-3.4-5.96-7.71-7.89-12.94-1.93-5.22-2.89-11.1-2.89-17.62s.98-12.22,2.95-17.52c1.96-5.3,4.65-9.7,8.05-13.2,3.4-3.51,7.35-6.21,11.84-8.1,4.49-1.89,9.26-2.84,14.31-2.84,6.73,0,12.94,2.07,18.62,6.21,1.54,1.05,2.31,2.6,2.31,4.63,0,1.54-.53,2.95-1.58,4.21l-.42,.53c-1.05,1.26-2.46,1.96-4.21,2.1h-.63c-1.47,0-2.81-.38-4-1.16-3.09-1.89-6.35-2.84-9.79-2.84-6.17,0-11.24,2.47-15.2,7.42-3.96,4.95-5.95,11.63-5.95,20.04s1.88,15.41,5.63,20.36c3.75,4.95,8.82,7.42,15.2,7.42,4.21,0,8.14-1.26,11.78-3.79,1.19-.84,2.56-1.26,4.1-1.26h.42c1.68,.07,3.05,.74,4.1,2l.42,.42c1.12,1.26,1.68,2.74,1.68,4.42,0,1.96-.7,3.51-2.1,4.63-5.89,4.91-12.91,7.37-21.04,7.37Z" style="fill: none; stroke: #e8ded4; stroke-miterlimit: 10;"/>
        <path d="M376.71,76.36c.28,.56,.42,1.14,.42,1.74s-.18,1.21-.53,1.84c-.63,1.19-1.65,1.79-3.05,1.79h-5.37c-1.89,0-3.67-.49-5.31-1.47-1.65-.98-2.93-2.32-3.84-4l-13.05-23.99c-.28-.49-.67-.74-1.16-.74h-9.58c-.49,0-.74,.28-.74,.84v23.15c0,1.68-.61,3.14-1.84,4.37s-2.68,1.84-4.37,1.84h-3.58c-1.68,0-3.14-.61-4.37-1.84-1.23-1.23-1.84-2.68-1.84-4.37V8.18c0-1.68,.61-3.14,1.84-4.37,1.23-1.23,2.68-1.84,4.37-1.84h21.57c19.99,0,29.99,8.07,29.99,24.2,0,5.61-1.26,10.31-3.79,14.1-2.52,3.79-6.07,6.63-10.63,8.52-.49,.21-.63,.53-.42,.95l15.26,26.62Zm-41.46-61.76c-.49,0-.74,.28-.74,.84v22.73c0,.49,.25,.74,.74,.74h9.58c5.12,0,9.05-1.07,11.78-3.21,2.74-2.14,4.1-5.31,4.1-9.52s-1.31-7.19-3.95-8.94c-2.63-1.75-6.61-2.63-11.94-2.63h-9.58Z" style="fill: none; stroke: #e8ded4; stroke-miterlimit: 10;"/>
        <path d="M396.01,81.73c-1.68,0-3.14-.61-4.37-1.84-1.23-1.23-1.84-2.68-1.84-4.37V8.18c0-1.68,.61-3.14,1.84-4.37,1.23-1.23,2.68-1.84,4.37-1.84h3.58c1.68,0,3.14,.61,4.37,1.84,1.23,1.23,1.84,2.68,1.84,4.37V75.52c0,1.68-.61,3.14-1.84,4.37s-2.68,1.84-4.37,1.84h-3.58Z" style="fill: none; stroke: #e8ded4; stroke-miterlimit: 10;"/>
        <path d="M429.32,81.73c-1.68,0-3.14-.61-4.37-1.84-1.23-1.23-1.84-2.68-1.84-4.37V8.18c0-1.68,.61-3.14,1.84-4.37,1.23-1.23,2.68-1.84,4.37-1.84h20.2c19.22,0,28.83,6.56,28.83,19.67,0,3.72-.96,7.19-2.89,10.42-1.93,3.23-4.47,5.47-7.63,6.73-.21,0-.32,.11-.32,.32s.07,.32,.21,.32c4.49,1.12,8.07,3.26,10.73,6.42,2.67,3.16,4,7.3,4,12.42,0,7.72-2.84,13.56-8.52,17.52-5.68,3.96-13.12,5.95-22.31,5.95h-22.31Zm9.79-48.08c0,.49,.25,.74,.74,.74h8.52c4.91,0,8.56-.91,10.94-2.74,2.38-1.82,3.58-4.38,3.58-7.68s-1.17-5.93-3.52-7.47c-2.35-1.54-5.94-2.31-10.78-2.31h-8.73c-.49,0-.74,.25-.74,.74v18.73Zm0,35.04c0,.49,.25,.74,.74,.74h10.31c11.22,0,16.83-4.03,16.83-12.1,0-3.86-1.4-6.66-4.21-8.42-2.81-1.75-7.02-2.63-12.63-2.63h-10.31c-.49,0-.74,.28-.74,.84v21.57Z" style="fill: none; stroke: #e8ded4; stroke-miterlimit: 10;"/>
        <path d="M522.75,81.73c-1.68,0-3.14-.61-4.37-1.84-1.23-1.23-1.84-2.68-1.84-4.37V8.18c0-1.68,.61-3.14,1.84-4.37,1.23-1.23,2.68-1.84,4.37-1.84h36.72c1.75,0,3.23,.61,4.42,1.84,1.19,1.23,1.79,2.68,1.79,4.37v.84c0,1.75-.6,3.23-1.79,4.42-1.19,1.19-2.67,1.79-4.42,1.79h-26.2c-.49,0-.74,.28-.74,.84v19.15c0,.56,.25,.84,.74,.84h21.36c1.68,0,3.14,.6,4.37,1.79,1.23,1.19,1.84,2.67,1.84,4.42v.95c0,1.68-.61,3.14-1.84,4.37s-2.68,1.84-4.37,1.84h-21.36c-.49,0-.74,.25-.74,.74v25.36c0,1.68-.61,3.14-1.84,4.37s-2.68,1.84-4.37,1.84h-3.58Z" style="fill: none; stroke: #e8ded4; stroke-miterlimit: 10;"/>
        <path d="M633.86,71.94c-6.56,7.51-15.17,11.26-25.83,11.26s-19.27-3.75-25.83-11.26c-6.56-7.5-9.84-17.64-9.84-30.41s3.26-22.79,9.78-30.09c6.52-7.29,15.15-10.94,25.88-10.94s19.36,3.65,25.88,10.94c6.52,7.3,9.79,17.33,9.79,30.09s-3.28,22.9-9.84,30.41Zm-39.93-10.1c3.51,5.05,8.22,7.58,14.15,7.58s10.64-2.53,14.15-7.58c3.51-5.05,5.26-11.82,5.26-20.31s-1.75-15.17-5.26-20.04c-3.51-4.88-8.24-7.31-14.2-7.31s-10.68,2.44-14.15,7.31c-3.47,4.88-5.21,11.56-5.21,20.04s1.75,15.26,5.26,20.31Z" style="fill: none; stroke: #e8ded4; stroke-miterlimit: 10;"/>
        <path d="M715.3,76.36c.28,.56,.42,1.14,.42,1.74s-.18,1.21-.53,1.84c-.63,1.19-1.65,1.79-3.05,1.79h-5.37c-1.89,0-3.67-.49-5.31-1.47-1.65-.98-2.93-2.32-3.84-4l-13.05-23.99c-.28-.49-.67-.74-1.16-.74h-9.58c-.49,0-.74,.28-.74,.84v23.15c0,1.68-.61,3.14-1.84,4.37s-2.68,1.84-4.37,1.84h-3.58c-1.68,0-3.14-.61-4.37-1.84-1.23-1.23-1.84-2.68-1.84-4.37V8.18c0-1.68,.61-3.14,1.84-4.37,1.23-1.23,2.68-1.84,4.37-1.84h21.57c19.99,0,29.99,8.07,29.99,24.2,0,5.61-1.26,10.31-3.79,14.1-2.52,3.79-6.07,6.63-10.63,8.52-.49,.21-.63,.53-.42,.95l15.26,26.62Zm-41.46-61.76c-.49,0-.74,.28-.74,.84v22.73c0,.49,.25,.74,.74,.74h9.58c5.12,0,9.05-1.07,11.78-3.21,2.74-2.14,4.1-5.31,4.1-9.52s-1.31-7.19-3.95-8.94c-2.63-1.75-6.61-2.63-11.94-2.63h-9.58Z" style="fill: none; stroke: #e8ded4; stroke-miterlimit: 10;"/>
        <path d="M808.16,71.94c-6.56,7.51-15.17,11.26-25.83,11.26s-19.27-3.75-25.83-11.26c-6.56-7.5-9.84-17.64-9.84-30.41s3.26-22.79,9.78-30.09c6.52-7.29,15.15-10.94,25.88-10.94s19.36,3.65,25.88,10.94c6.52,7.3,9.79,17.33,9.79,30.09s-3.28,22.9-9.84,30.41Zm-39.93-10.1c3.51,5.05,8.22,7.58,14.15,7.58s10.64-2.53,14.15-7.58c3.51-5.05,5.26-11.82,5.26-20.31s-1.75-15.17-5.26-20.04c-3.51-4.88-8.24-7.31-14.2-7.31s-10.68,2.44-14.15,7.31c-3.47,4.88-5.21,11.56-5.21,20.04s1.75,15.26,5.26,20.31Z" style="fill: none; stroke: #e8ded4; stroke-miterlimit: 10;"/>
        <path d="M837.62,81.73c-1.68,0-3.14-.61-4.37-1.84-1.23-1.23-1.84-2.68-1.84-4.37V8.18c0-1.68,.61-3.14,1.84-4.37,1.23-1.23,2.68-1.84,4.37-1.84h3.89c1.89,0,3.66,.49,5.31,1.47,1.65,.98,2.93,2.32,3.84,4l20.2,37.04,7.89,16.94c.07,.21,.19,.32,.37,.32s.26-.1,.26-.32c-1.4-12.91-2.1-22.13-2.1-27.67V8.18c0-1.68,.61-3.14,1.84-4.37s2.68-1.84,4.37-1.84h2.74c1.68,0,3.14,.61,4.37,1.84,1.23,1.23,1.84,2.68,1.84,4.37V75.52c0,1.68-.62,3.14-1.84,4.37-1.23,1.23-2.68,1.84-4.37,1.84h-3.79c-1.89,0-3.67-.49-5.31-1.47-1.65-.98-2.93-2.32-3.84-4l-20.1-37.25-8-16.83c-.07-.14-.19-.21-.37-.21s-.26,.07-.26,.21c.14,1.05,.35,3.19,.63,6.42,.28,3.23,.49,5.7,.63,7.42,.14,1.72,.3,3.91,.47,6.58,.17,2.67,.26,5.05,.26,7.16v25.78c0,1.68-.61,3.14-1.84,4.37s-2.68,1.84-4.37,1.84h-2.74Z" style="fill: none; stroke: #e8ded4; stroke-miterlimit: 10;"/>
        <path d="M916.06,81.73c-1.68,0-3.14-.61-4.37-1.84-1.23-1.23-1.84-2.68-1.84-4.37V8.18c0-1.68,.61-3.14,1.84-4.37,1.23-1.23,2.68-1.84,4.37-1.84h36.51c1.75,0,3.23,.61,4.42,1.84,1.19,1.23,1.79,2.68,1.79,4.37v.84c0,1.75-.6,3.23-1.79,4.42-1.19,1.19-2.67,1.79-4.42,1.79h-25.99c-.49,0-.74,.28-.74,.84v16.83c0,.49,.25,.74,.74,.74h21.04c1.68,0,3.14,.61,4.37,1.84,1.23,1.23,1.84,2.68,1.84,4.37v.95c0,1.75-.62,3.23-1.84,4.42-1.23,1.19-2.68,1.79-4.37,1.79h-21.04c-.49,0-.74,.28-.74,.84v19.78c0,.49,.25,.74,.74,.74h27.15c1.75,0,3.23,.61,4.42,1.84,1.19,1.23,1.79,2.68,1.79,4.37v.95c0,1.68-.6,3.14-1.79,4.37-1.19,1.23-2.67,1.84-4.42,1.84h-37.67Z" style="fill: none; stroke: #e8ded4; stroke-miterlimit: 10;"/>
        <path d="M1018.22,81.73c-1.75,0-3.23-.61-4.42-1.84-1.19-1.23-1.79-2.68-1.79-4.37V16.07c0-.56-.28-.84-.84-.84h-15.36c-1.75,0-3.23-.59-4.42-1.79-1.19-1.19-1.79-2.66-1.79-4.42v-.84c0-1.68,.59-3.14,1.79-4.37,1.19-1.23,2.66-1.84,4.42-1.84h48.5c1.75,0,3.23,.61,4.42,1.84,1.19,1.23,1.79,2.68,1.79,4.37v.84c0,1.75-.6,3.23-1.79,4.42-1.19,1.19-2.67,1.79-4.42,1.79h-15.57c-.56,0-.84,.28-.84,.84v59.45c0,1.68-.6,3.14-1.79,4.37-1.19,1.23-2.67,1.84-4.42,1.84h-3.47Z" style="fill: none; stroke: #e8ded4; stroke-miterlimit: 10;"/>
        <path d="M1119.5,76.36c.28,.56,.42,1.14,.42,1.74s-.18,1.21-.53,1.84c-.63,1.19-1.65,1.79-3.05,1.79h-5.37c-1.89,0-3.67-.49-5.31-1.47-1.65-.98-2.93-2.32-3.84-4l-13.05-23.99c-.28-.49-.67-.74-1.16-.74h-9.58c-.49,0-.74,.28-.74,.84v23.15c0,1.68-.61,3.14-1.84,4.37s-2.68,1.84-4.37,1.84h-3.58c-1.68,0-3.14-.61-4.37-1.84-1.23-1.23-1.84-2.68-1.84-4.37V8.18c0-1.68,.61-3.14,1.84-4.37,1.23-1.23,2.68-1.84,4.37-1.84h21.57c19.99,0,29.99,8.07,29.99,24.2,0,5.61-1.26,10.31-3.79,14.1-2.52,3.79-6.07,6.63-10.63,8.52-.49,.21-.63,.53-.42,.95l15.26,26.62Zm-41.46-61.76c-.49,0-.74,.28-.74,.84v22.73c0,.49,.25,.74,.74,.74h9.58c5.12,0,9.05-1.07,11.78-3.21,2.74-2.14,4.1-5.31,4.1-9.52s-1.31-7.19-3.95-8.94c-2.63-1.75-6.61-2.63-11.94-2.63h-9.58Z" style="fill: none; stroke: #e8ded4; stroke-miterlimit: 10;"/>
        <path d="M1138.8,81.73c-1.68,0-3.14-.61-4.37-1.84-1.23-1.23-1.84-2.68-1.84-4.37V8.18c0-1.68,.61-3.14,1.84-4.37,1.23-1.23,2.68-1.84,4.37-1.84h36.51c1.75,0,3.23,.61,4.42,1.84,1.19,1.23,1.79,2.68,1.79,4.37v.84c0,1.75-.6,3.23-1.79,4.42-1.19,1.19-2.67,1.79-4.42,1.79h-25.99c-.49,0-.74,.28-.74,.84v16.83c0,.49,.25,.74,.74,.74h21.04c1.68,0,3.14,.61,4.37,1.84,1.23,1.23,1.84,2.68,1.84,4.37v.95c0,1.75-.62,3.23-1.84,4.42-1.23,1.19-2.68,1.79-4.37,1.79h-21.04c-.49,0-.74,.28-.74,.84v19.78c0,.49,.25,.74,.74,.74h27.15c1.75,0,3.23,.61,4.42,1.84,1.19,1.23,1.79,2.68,1.79,4.37v.95c0,1.68-.6,3.14-1.79,4.37-1.19,1.23-2.67,1.84-4.42,1.84h-37.67Z" style="fill: none; stroke: #e8ded4; stroke-miterlimit: 10;"/>
        <path d="M1202.83,81.73c-1.68,0-3.14-.61-4.37-1.84-1.23-1.23-1.84-2.68-1.84-4.37V8.18c0-1.68,.61-3.14,1.84-4.37,1.23-1.23,2.68-1.84,4.37-1.84h36.51c1.75,0,3.23,.61,4.42,1.84,1.19,1.23,1.79,2.68,1.79,4.37v.84c0,1.75-.6,3.23-1.79,4.42-1.19,1.19-2.67,1.79-4.42,1.79h-25.99c-.49,0-.74,.28-.74,.84v16.83c0,.49,.25,.74,.74,.74h21.04c1.68,0,3.14,.61,4.37,1.84,1.23,1.23,1.84,2.68,1.84,4.37v.95c0,1.75-.62,3.23-1.84,4.42-1.23,1.19-2.68,1.79-4.37,1.79h-21.04c-.49,0-.74,.28-.74,.84v19.78c0,.49,.25,.74,.74,.74h27.15c1.75,0,3.23,.61,4.42,1.84,1.19,1.23,1.79,2.68,1.79,4.37v.95c0,1.68-.6,3.14-1.79,4.37-1.19,1.23-2.67,1.84-4.42,1.84h-37.67Z" style="fill: none; stroke: #e8ded4; stroke-miterlimit: 10;"/>
      </g>
    </g>
  </g>
</svg>